<svg xmlns="http://www.w3.org/2000/svg" viewBox="0 0 87.41 87.17"><defs><style>.cls-1{fill:#fac8d2;}</style></defs><title>Asset 8</title><g id="Layer_2" data-name="Layer 2"><g id="content"><path class="cls-1" d="M19.14,76.46l1.29.53a1.87,1.87,0,0,0,.84,2.59c.93.58,1.65.47,2.08-.21s.2-1-.31-1.45l-1-1a2,2,0,0,1-.48-2.82c.77-1.24,2.3-1.44,3.83-.48,1.79,1.11,2.07,2.46,1.49,3.76L25.54,77a1.66,1.66,0,0,0-.78-2.39c-.85-.53-1.61-.46-2,.2s-.21,1,.4,1.55l1,.94A2,2,0,0,1,24.59,80c-.81,1.3-2.32,1.54-4,.5A3,3,0,0,1,19.14,76.46Z"/><path class="cls-1" d="M30.53,78.08a3.19,3.19,0,0,1,3.15-.66c1.7.59,2,2.26,1.45,4-.78,2.26-3,4.24-5.3,3.45a2.38,2.38,0,0,1-1.78-2.14l-2.16,3.85-1.29-.44,5.45-9.78,1.2.42Zm-1.59,3.11a1.73,1.73,0,0,0,1,2.47c1.75.61,3.25-1,3.77-2.58.42-1.2.23-2.31-1-2.72s-2.51.28-3.32,1.79l-.19.37A3.86,3.86,0,0,0,28.94,81.19Z"/><path class="cls-1" d="M37.55,83l0,.25a2.07,2.07,0,0,0,1.88,2.57,2.41,2.41,0,0,0,2.37-1.17l.95.72A3.55,3.55,0,0,1,39.18,87C37,86.73,36,85.28,36.23,83s1.8-4.55,4.58-4.26a2.84,2.84,0,0,1,2.75,3.4,6,6,0,0,1-.34,1.38Zm.25-1.09,4.4.46a4.76,4.76,0,0,0,.09-.5,1.72,1.72,0,0,0-1.7-2A2.59,2.59,0,0,0,37.8,81.87Z"/><path class="cls-1" d="M49.35,78.48a2.5,2.5,0,0,1,1.91.49A2.21,2.21,0,0,1,52,80.43a5,5,0,0,1,0,1l-.24,5-1.33.16.24-5a5.57,5.57,0,0,0,0-.61A1.31,1.31,0,0,0,49,79.72c-1.36.18-2.1,1.21-2.18,3.09L46.58,87l-1.34.17.4-8L46.9,79l-.07,1.59A3,3,0,0,1,49.35,78.48Z"/><path class="cls-1" d="M54.21,82.5c-.72-2-.64-4.88,2.22-5.92,1.59-.58,3.22-.26,3.92,1.65l-1.17.59A1.71,1.71,0,0,0,56.8,77.7c-1.92.69-1.75,2.89-1.24,4.3.62,1.7,1.78,1.84,2.67,1.51A2.08,2.08,0,0,0,59.53,81l1.3-.26a3.32,3.32,0,0,1-2.26,3.86A3.14,3.14,0,0,1,54.21,82.5Z"/><path class="cls-1" d="M63.72,78.16l.14.21a2.06,2.06,0,0,0,3.08.82,2.41,2.41,0,0,0,1.1-2.4l1.19,0a3.57,3.57,0,0,1-1.72,3.49c-1.82,1.18-3.53.7-4.77-1.2s-1.46-4.66.88-6.18a2.82,2.82,0,0,1,4.27.91,5.07,5.07,0,0,1,.61,1.28Zm-.48-1,3.7-2.41a3.19,3.19,0,0,0-.25-.44,1.71,1.71,0,0,0-2.59-.5A2.55,2.55,0,0,0,63.24,77.15Z"/><path class="cls-1" d="M71.2,66.13a3.55,3.55,0,0,1,1.21-.89l.72,1a4.26,4.26,0,0,0-1.21,1c-1.32,1.37-1.54,3.47,0,5.6l1.76,2.42-.93,1L68,69.68l.92-1,1.23,1.69A4.36,4.36,0,0,1,71.2,66.13Z"/><path class="cls-1" d="M77.15,67.74l.5-1.29a1.89,1.89,0,0,0,2.58-.89c.56-.94.44-1.66-.25-2.07s-1-.19-1.44.33l-.93,1a2,2,0,0,1-2.82.53c-1.25-.75-1.48-2.28-.55-3.82C75.33,59.75,76.67,59.45,78,60l-.44,1.32a1.67,1.67,0,0,0-2.38.83c-.52.86-.43,1.61.23,2s1,.19,1.55-.42l.91-1a2,2,0,0,1,2.72-.51c1.32.79,1.57,2.3.57,4A3,3,0,0,1,77.15,67.74Z"/><path class="cls-1" d="M78.57,56.33a3.14,3.14,0,0,1-.71-3.13c.56-1.72,2.21-2.1,4-1.52,2.27.74,4.29,2.93,3.54,5.24a2.38,2.38,0,0,1-2.11,1.81l3.89,2.1-.43,1.3-9.86-5.28.39-1.21Zm3.13,1.54a1.74,1.74,0,0,0,2.46-1c.58-1.76-1.11-3.23-2.65-3.73-1.21-.39-2.31-.19-2.7,1s.32,2.5,1.85,3.29l.37.18A3.39,3.39,0,0,0,81.7,57.87Z"/><path class="cls-1" d="M83.33,49.24l.25,0a2.08,2.08,0,0,0,2.54-1.93A2.44,2.44,0,0,0,84.91,45l.7-1a3.53,3.53,0,0,1,1.68,3.51c-.19,2.16-1.61,3.22-3.87,3s-4.58-1.73-4.33-4.5a2.83,2.83,0,0,1,3.35-2.81,5.51,5.51,0,0,1,1.38.31ZM82.23,49l.39-4.4a3.49,3.49,0,0,0-.5-.08,1.72,1.72,0,0,0-2,1.74A2.56,2.56,0,0,0,82.23,49Z"/><path class="cls-1" d="M78.66,37.53a2.46,2.46,0,0,1,.46-1.93,2.16,2.16,0,0,1,1.45-.73,5.69,5.69,0,0,1,1,0l5,.16.19,1.34-5-.16a3.53,3.53,0,0,0-.6,0,1.31,1.31,0,0,0-1.2,1.69C80.1,39.24,81.14,40,83,40l4.2.15.19,1.33-8-.27L79.19,40l1.59,0A3,3,0,0,1,78.66,37.53Z"/><path class="cls-1" d="M82.59,32.59c-2,.74-4.87.72-6-2.13-.61-1.58-.32-3.22,1.58-3.94l.61,1.15a1.74,1.74,0,0,0-1.09,2.41c.73,1.91,2.93,1.7,4.33,1.16,1.69-.65,1.81-1.81,1.47-2.7A2.09,2.09,0,0,0,81,27.29L80.77,26a3.33,3.33,0,0,1,3.89,2.19A3.15,3.15,0,0,1,82.59,32.59Z"/><path class="cls-1" d="M78.1,23.15l.21-.14a2.06,2.06,0,0,0,.76-3.09,2.44,2.44,0,0,0-2.42-1.07l-.05-1.18a3.54,3.54,0,0,1,3.51,1.66c1.21,1.8.77,3.52-1.11,4.79s-4.64,1.54-6.2-.78a2.83,2.83,0,0,1,.83-4.29,6.36,6.36,0,0,1,1.28-.63Zm-1,.51L74.63,20a3.47,3.47,0,0,0-.44.26,1.71,1.71,0,0,0-.46,2.6A2.58,2.58,0,0,0,77.1,23.66Z"/><path class="cls-1" d="M65.93,15.86a3.54,3.54,0,0,1-.9-1.19l1-.75a4.44,4.44,0,0,0,1,1.2c1.39,1.3,3.49,1.48,5.59-.09L75,13.22l1,.92L69.53,19l-1-.91,1.67-1.25A4.38,4.38,0,0,1,65.93,15.86Z"/><path class="cls-1" d="M21.81,70.82a3.63,3.63,0,0,1,1,1.1l-.9.83a4.46,4.46,0,0,0-1.09-1.1c-1.52-1.15-3.63-1.13-5.56.65l-2.21,2L12,73.51l5.92-5.46,1.06.81-1.54,1.42A4.34,4.34,0,0,1,21.81,70.82Z"/><path class="cls-1" d="M67.45,9.9l-1.3-.48a1.88,1.88,0,0,0-.93-2.57c-.94-.55-1.66-.41-2.07.29s-.17,1,.36,1.43l1.05.92a2,2,0,0,1,.57,2.8c-.73,1.27-2.25,1.52-3.81.62-1.83-1.06-2.15-2.4-1.61-3.72L61,9.61A1.67,1.67,0,0,0,61.91,12c.86.5,1.61.41,2-.27s.18-1-.44-1.54l-1-.9a2,2,0,0,1-.56-2.7c.77-1.33,2.27-1.62,4-.64A3,3,0,0,1,67.45,9.9Z"/><path class="cls-1" d="M56,8.66a3.12,3.12,0,0,1-3.11.76c-1.73-.53-2.14-2.18-1.59-3.95.7-2.29,2.86-4.34,5.18-3.63a2.4,2.4,0,0,1,1.85,2.08l2-3.92,1.3.4-5.11,10L55.34,10ZM57.5,5.5a1.73,1.73,0,0,0-1.09-2.44c-1.77-.54-3.21,1.17-3.69,2.71-.37,1.21-.14,2.31,1.07,2.68s2.5-.35,3.25-1.9l.19-.37A5,5,0,0,0,57.5,5.5Z"/><path class="cls-1" d="M48.85,4l0-.25a2.07,2.07,0,0,0-2-2.51,2.44,2.44,0,0,0-2.33,1.25l-1-.69A3.56,3.56,0,0,1,47.08.08c2.16.16,3.24,1.57,3.08,3.83s-1.64,4.6-4.43,4.4A2.83,2.83,0,0,1,42.87,5a5.48,5.48,0,0,1,.29-1.39Zm-.22,1.1-4.41-.31a3.5,3.5,0,0,0-.07.5,1.72,1.72,0,0,0,1.77,2A2.57,2.57,0,0,0,48.63,5.12Z"/><path class="cls-1" d="M37.2,8.89a2.46,2.46,0,0,1-1.93-.43A2.22,2.22,0,0,1,34.51,7a5.74,5.74,0,0,1,0-1l.08-5L35.87.89l-.08,5c0,.4,0,.5,0,.61a1.32,1.32,0,0,0,1.71,1.17c1.36-.22,2.06-1.28,2.09-3.16l.07-4.2L41,.07l-.14,8-1.25.2,0-1.6A3,3,0,0,1,37.2,8.89Z"/><path class="cls-1" d="M32.2,5c.78,1.94.81,4.85-2,6-1.57.64-3.21.37-4-1.51l1.15-.63a1.71,1.71,0,0,0,2.41,1c1.9-.76,1.66-2.95,1.09-4.34C30.19,3.9,29,3.8,28.14,4.16a2.08,2.08,0,0,0-1.2,2.51l-1.3.3a3.31,3.31,0,0,1,2.13-3.92C29.25,2.45,31.19,2.52,32.2,5Z"/><path class="cls-1" d="M22.85,9.69l-.14-.21a2.06,2.06,0,0,0-3.11-.71,2.42,2.42,0,0,0-1,2.44l-1.19.07A3.55,3.55,0,0,1,19,7.74c1.78-1.24,3.5-.82,4.8,1s1.62,4.62-.67,6.22a2.83,2.83,0,0,1-4.3-.77A5.31,5.31,0,0,1,18.18,13Zm.52,1-3.62,2.53c.07.13.13.24.26.44a1.71,1.71,0,0,0,2.61.41A2.56,2.56,0,0,0,23.37,10.68Z"/><path class="cls-1" d="M15.77,22a3.43,3.43,0,0,1-1.18.92l-.75-1a4.5,4.5,0,0,0,1.18-1c1.27-1.42,1.42-3.52-.19-5.59L13,13l.9-1,4.95,6.33-.89,1-1.28-1.65A4.37,4.37,0,0,1,15.77,22Z"/><path class="cls-1" d="M9.78,20.56l-.46,1.3a1.88,1.88,0,0,0-2.55,1c-.53.95-.39,1.67.32,2.06s1,.16,1.43-.38l.89-1.06a2,2,0,0,1,2.8-.63c1.27.71,1.55,2.23.68,3.81-1,1.84-2.36,2.18-3.69,1.67L9.6,27A1.65,1.65,0,0,0,12,26.06c.49-.87.38-1.62-.3-2s-1-.15-1.53.48l-.88,1a2,2,0,0,1-2.7.6c-1.34-.74-1.65-2.24-.7-3.94S8.33,20,9.78,20.56Z"/><path class="cls-1" d="M8.73,32a3.16,3.16,0,0,1,.82,3.11c-.5,1.73-2.15,2.16-3.93,1.65C3.32,36.1,1.23,34,1.9,31.65A2.39,2.39,0,0,1,4,29.77L0,27.8l.38-1.31,10,5-.35,1.22ZM5.55,30.58a1.73,1.73,0,0,0-2.42,1.13c-.52,1.78,1.22,3.19,2.77,3.64,1.22.35,2.31.11,2.66-1.11s-.4-2.5-1.95-3.23l-.38-.17A3.23,3.23,0,0,0,5.55,30.58Z"/><path class="cls-1" d="M4.22,39.26l-.26,0a2.07,2.07,0,0,0-2.47,2,2.42,2.42,0,0,0,1.29,2.3l-.67,1A3.52,3.52,0,0,1,.31,41.1C.42,38.93,1.82,37.83,4.08,38s4.63,1.56,4.48,4.35a2.83,2.83,0,0,1-3.25,2.92A6,6,0,0,1,3.91,45Zm1.1.2-.24,4.42a4.38,4.38,0,0,0,.5,0,1.71,1.71,0,0,0,1.94-1.8A2.56,2.56,0,0,0,5.32,39.46Z"/><path class="cls-1" d="M9.28,50.8a2.48,2.48,0,0,1-.4,1.94,2.14,2.14,0,0,1-1.42.78,5.54,5.54,0,0,1-1,.07h-5L1.3,52.27h5a5.74,5.74,0,0,0,.61,0A1.31,1.31,0,0,0,8,50.49c-.24-1.36-1.31-2-3.19-2H.63L.39,47.13h8l.22,1.25H7.07A3,3,0,0,1,9.28,50.8Z"/><path class="cls-1" d="M5.51,55.87c1.93-.81,4.84-.88,6,1.92.66,1.57.42,3.21-1.45,4l-.65-1.14a1.72,1.72,0,0,0,1-2.43c-.8-1.89-3-1.61-4.37-1-1.67.7-1.74,1.87-1.37,2.74a2.07,2.07,0,0,0,2.53,1.17l.32,1.3a3.34,3.34,0,0,1-4-2.07A3.14,3.14,0,0,1,5.51,55.87Z"/><path class="cls-1" d="M10.32,65.15l-.21.15a2.07,2.07,0,0,0-.66,3.12,2.43,2.43,0,0,0,2.46,1L12,70.59A3.55,3.55,0,0,1,8.44,69c-1.28-1.76-.89-3.49,1-4.82s4.58-1.7,6.22.56a2.83,2.83,0,0,1-.69,4.32,5.88,5.88,0,0,1-1.25.67Zm1-.53,2.59,3.58a3.09,3.09,0,0,0,.43-.27,1.72,1.72,0,0,0,.38-2.62A2.56,2.56,0,0,0,11.3,64.62Z"/></g></g></svg>