<svg xmlns="http://www.w3.org/2000/svg" viewBox="0 0 198.34 197.88"><defs><style>.cls-1{fill:#fac8d2;}</style></defs><title>Asset 13</title><g id="Layer_2" data-name="Layer 2"><g id="content"><path class="cls-1" d="M58.75,153l2.11.86a3.1,3.1,0,0,0,1.38,4.27c1.52.95,2.71.77,3.41-.36s.34-1.57-.51-2.37l-1.66-1.56c-1.59-1.49-1.81-3-.79-4.64,1.26-2,3.77-2.37,6.29-.8,2.94,1.84,3.4,4.05,2.44,6.19l-2.17-.77c.71-1.62.5-2.82-1.28-3.93-1.4-.87-2.63-.76-3.31.33-.58.92-.34,1.62.65,2.55l1.62,1.53c1.62,1.53,1.66,3,.77,4.47-1.34,2.14-3.82,2.53-6.53.84C58.27,157.78,57.76,155.31,58.75,153Z"/><path class="cls-1" d="M77.45,155.64a5.19,5.19,0,0,1,5.17-1.08c2.8,1,3.38,3.7,2.38,6.57-1.28,3.72-4.93,7-8.7,5.68a3.92,3.92,0,0,1-2.92-3.51l-3.55,6.31-2.12-.73,9-16,2,.68Zm-2.61,5.1c-.67,1.95-.09,3.47,1.66,4.07,2.88,1,5.33-1.74,6.2-4.25.68-2,.36-3.78-1.6-4.46s-4.12.45-5.45,2.94l-.32.6A6.8,6.8,0,0,0,74.84,160.74Z"/><path class="cls-1" d="M89,163.65l0,.41c-.27,2.56,1,4,3.09,4.23a4,4,0,0,0,3.9-1.93l1.55,1.19a5.85,5.85,0,0,1-5.8,2.66c-3.55-.37-5.24-2.75-4.85-6.45.41-3.91,3-7.46,7.51-7,3.44.36,4.82,2.67,4.52,5.57a10.08,10.08,0,0,1-.55,2.27Zm.42-1.79,7.22.76a6.36,6.36,0,0,0,.14-.83A2.82,2.82,0,0,0,94,158.46C91.72,158.23,90.14,159.56,89.4,161.86Z"/><path class="cls-1" d="M108.36,156.29a4.07,4.07,0,0,1,3.14.81,3.6,3.6,0,0,1,1.17,2.4,8.86,8.86,0,0,1,0,1.57l-.4,8.16-2.19.27.39-8.15a9.82,9.82,0,0,0,0-1,2.14,2.14,0,0,0-2.74-2c-2.25.28-3.46,2-3.59,5.06l-.35,6.89-2.19.28.65-13.2,2.07-.26-.12,2.61A5,5,0,0,1,108.36,156.29Z"/><path class="cls-1" d="M116.34,162.89c-1.17-3.23-1-8,3.65-9.72,2.62-.94,5.3-.42,6.43,2.71l-1.91,1c-.92-2.21-2.54-2.34-3.91-1.85-3.16,1.15-2.88,4.76-2,7.08,1,2.79,2.92,3,4.38,2.48,1.84-.67,2.36-2.3,2.13-4.07l2.15-.42c.36,2.83-.73,5.25-3.71,6.33C121,167.3,117.86,167.07,116.34,162.89Z"/><path class="cls-1" d="M132,155.77l.23.35c1.4,2.16,3.31,2.47,5.05,1.33a4,4,0,0,0,1.82-3.94l2,0a5.83,5.83,0,0,1-2.83,5.72c-3,1.94-5.8,1.15-7.83-2-2.14-3.29-2.4-7.66,1.44-10.15,2.91-1.89,5.44-1,7,1.49a9.86,9.86,0,0,1,1,2.11Zm-.8-1.66,6.09-4a6.2,6.2,0,0,0-.41-.72,2.81,2.81,0,0,0-4.26-.83C130.69,149.83,130.3,151.85,131.17,154.11Z"/><path class="cls-1" d="M144.26,136a5.64,5.64,0,0,1,2-1.45l1.19,1.62a7.22,7.22,0,0,0-2,1.58c-2.17,2.25-2.52,5.7,0,9.19l2.89,4-1.53,1.59L139,141.83l1.52-1.58,2,2.78A7.14,7.14,0,0,1,144.26,136Z"/><path class="cls-1" d="M154,138.65l.82-2.12a3.11,3.11,0,0,0,4.25-1.46c.92-1.54.72-2.72-.41-3.41s-1.58-.31-2.37.56l-1.53,1.69c-1.46,1.61-3,1.86-4.62.87-2.06-1.24-2.43-3.74-.91-6.29,1.79-3,4-3.46,6.14-2.53l-.73,2.17c-1.63-.67-2.82-.45-3.91,1.35-.84,1.41-.7,2.65.39,3.3s1.63.32,2.54-.69l1.5-1.64c1.51-1.65,3-1.72,4.46-.85,2.16,1.3,2.59,3.77.94,6.52C158.83,139,156.37,139.6,154,138.65Z"/><path class="cls-1" d="M156.36,119.91a5.16,5.16,0,0,1-1.17-5.14c.92-2.83,3.64-3.44,6.54-2.5,3.73,1.22,7.05,4.82,5.81,8.61a3.91,3.91,0,0,1-3.46,3l6.38,3.45-.69,2.13-16.21-8.68.65-2Zm5.14,2.53c2,.64,3.47,0,4-1.72,1-2.9-1.83-5.31-4.35-6.13-2-.65-3.79-.31-4.44,1.67s.52,4.12,3,5.4l.61.31A7.55,7.55,0,0,0,161.5,122.44Z"/><path class="cls-1" d="M164.17,108.27l.42,0c2.56.22,4-1.09,4.17-3.17a4,4,0,0,0-2-3.86l1.16-1.57a5.85,5.85,0,0,1,2.76,5.76c-.31,3.55-2.66,5.28-6.37,5-3.92-.35-7.51-2.83-7.11-7.4.3-3.45,2.59-4.87,5.5-4.61a9.66,9.66,0,0,1,2.28.51Zm-1.8-.39.64-7.24a5.39,5.39,0,0,0-.83-.12,2.81,2.81,0,0,0-3.28,2.85C158.71,105.62,160.06,107.18,162.37,107.88Z"/><path class="cls-1" d="M156.5,89a4,4,0,0,1,.76-3.15,3.56,3.56,0,0,1,2.38-1.21,8.7,8.7,0,0,1,1.57-.06l8.16.26.31,2.19-8.16-.26c-.65,0-.81,0-1,0a2.17,2.17,0,0,0-2,2.78c.32,2.24,2,3.42,5.13,3.51l6.89.23.31,2.19-13.21-.44L157.38,93l2.62.07A4.94,4.94,0,0,1,156.5,89Z"/><path class="cls-1" d="M163,80.91c-3.21,1.23-8,1.19-9.78-3.49-1-2.6-.51-5.29,2.6-6.48l1,1.9c-2.2,1-2.31,2.58-1.79,3.94,1.2,3.14,4.8,2.8,7.12,1.92,2.77-1.06,3-3,2.4-4.43-.69-1.83-2.33-2.32-4.1-2.06L160,70.07a5.46,5.46,0,0,1,6.39,3.61C167.3,76.13,167.12,79.32,163,80.91Z"/><path class="cls-1" d="M155.59,65.42l.34-.24c2.14-1.44,2.42-3.35,1.25-5.08a4,4,0,0,0-4-1.75l-.09-2a5.84,5.84,0,0,1,5.77,2.74c2,3,1.26,5.78-1.83,7.86-3.26,2.19-7.62,2.53-10.18-1.27-1.94-2.88-1-5.42,1.37-7.05a9.56,9.56,0,0,1,2.1-1Zm-1.65.82-4.06-6a6.57,6.57,0,0,0-.72.42,2.82,2.82,0,0,0-.75,4.28C149.67,66.8,151.7,67.15,153.94,66.24Z"/><path class="cls-1" d="M135.61,53.43a5.56,5.56,0,0,1-1.49-2l1.59-1.21a7.85,7.85,0,0,0,1.62,2c2.29,2.12,5.74,2.42,9.19-.17l3.93-3,1.62,1.5-10.55,8-1.6-1.49L142.66,55A7.14,7.14,0,0,1,135.61,53.43Z"/><path class="cls-1" d="M63.13,143.71a5.8,5.8,0,0,1,1.67,1.8l-1.47,1.37a7.4,7.4,0,0,0-1.8-1.8c-2.49-1.9-6-1.86-9.13,1.06l-3.62,3.33L47,148.12l9.72-9,1.74,1.33L56,142.82A7.15,7.15,0,0,1,63.13,143.71Z"/><path class="cls-1" d="M138.1,43.64,136,42.86a3.1,3.1,0,0,0-1.53-4.22c-1.56-.9-2.74-.68-3.4.47s-.28,1.58.59,2.35L133.35,43c1.64,1.43,1.91,2.94.94,4.61-1.2,2.07-3.7,2.49-6.27,1-3-1.73-3.53-3.93-2.64-6.1l2.19.7c-.65,1.64-.41,2.83,1.42,3.89,1.42.82,2.65.66,3.29-.44s.29-1.64-.73-2.53l-1.67-1.48c-1.67-1.48-1.77-3-.92-4.45,1.27-2.18,3.73-2.65,6.5-1.05C138.42,38.83,139,41.28,138.1,43.64Z"/><path class="cls-1" d="M119.31,41.61a5.18,5.18,0,0,1-5.12,1.25c-2.84-.87-3.5-3.58-2.61-6.49,1.16-3.76,4.7-7.13,8.51-6a3.9,3.9,0,0,1,3,3.41l3.34-6.44,2.14.66-8.4,16.34-2-.61Zm2.44-5.19c.6-2,0-3.47-1.79-4-2.91-.89-5.27,1.92-6,4.46-.62,2-.24,3.79,1.75,4.4s4.1-.59,5.34-3.12l.3-.62A6.47,6.47,0,0,0,121.75,36.42Z"/><path class="cls-1" d="M107.54,34l0-.42c.18-2.57-1.15-4-3.23-4.11a4,4,0,0,0-3.83,2.05l-1.59-1.13a5.84,5.84,0,0,1,5.71-2.86c3.56.25,5.33,2.57,5.07,6.28-.28,3.93-2.71,7.57-7.28,7.24-3.45-.24-4.91-2.51-4.7-5.42a9.43,9.43,0,0,1,.47-2.29Zm-.36,1.8-7.25-.51a7.41,7.41,0,0,0-.11.83,2.82,2.82,0,0,0,2.91,3.23C105,39.5,106.52,38.12,107.18,35.79Z"/><path class="cls-1" d="M88.41,42a4,4,0,0,1-3.17-.71A3.58,3.58,0,0,1,84,38.93a9.56,9.56,0,0,1-.09-1.57L84,29.19l2.19-.35L86.09,37c0,.65,0,.81,0,1A2.16,2.16,0,0,0,89,39.93c2.24-.35,3.39-2.09,3.43-5.18l.12-6.9,2.18-.35-.22,13.22-2.06.33,0-2.62A5,5,0,0,1,88.41,42Z"/><path class="cls-1" d="M80.2,35.66c1.28,3.19,1.32,8-3.32,9.83-2.59,1-5.28.61-6.53-2.49l1.89-1c1,2.18,2.62,2.26,4,1.72,3.12-1.26,2.71-4.85,1.79-7.15-1.1-2.75-3-2.91-4.47-2.33-1.81.73-2.27,2.37-2,4.14l-2.14.49C69,36,70,33.57,72.91,32.39,75.35,31.41,78.54,31.53,80.2,35.66Z"/><path class="cls-1" d="M64.84,43.3,64.6,43c-1.47-2.12-3.39-2.36-5.1-1.17a4,4,0,0,0-1.68,4l-2,.12a5.82,5.82,0,0,1,2.64-5.81c2.92-2,5.75-1.35,7.89,1.7C68.65,45,69.06,49.37,65.3,52c-2.84,2-5.4,1.13-7.07-1.26a9.32,9.32,0,0,1-1.07-2.07Zm.85,1.63-5.95,4.16a7.05,7.05,0,0,0,.43.71,2.81,2.81,0,0,0,4.29.68C66.32,49.19,66.64,47.15,65.69,44.93Z"/><path class="cls-1" d="M53.21,63.46A5.8,5.8,0,0,1,51.28,65L50,63.41A7.12,7.12,0,0,0,52,61.76c2.09-2.32,2.34-5.78-.31-9.18l-3-3.88,1.48-1.64,8.14,10.41-1.47,1.62-2.11-2.71A7.14,7.14,0,0,1,53.21,63.46Z"/><path class="cls-1" d="M43.36,61.15l-.75,2.14a3.11,3.11,0,0,0-4.19,1.6c-.87,1.57-.63,2.75.53,3.39s1.58.26,2.34-.63l1.48-1.74c1.4-1.66,2.9-2,4.59-1,2.09,1.16,2.55,3.65,1.11,6.25-1.69,3-3.88,3.59-6,2.74l.65-2.2c1.65.62,2.84.36,3.87-1.48.79-1.44.61-2.67-.5-3.29s-1.64-.26-2.52.78l-1.45,1.69c-1.44,1.7-2.94,1.82-4.42,1-2.21-1.23-2.72-3.69-1.16-6.49C38.55,60.91,41,60.27,43.36,61.15Z"/><path class="cls-1" d="M41.64,80A5.18,5.18,0,0,1,43,85.06c-.83,2.86-3.53,3.57-6.45,2.72-3.78-1.1-7.22-4.58-6.11-8.41a3.9,3.9,0,0,1,3.36-3.09L27.3,73l.63-2.15L44.41,79l-.58,2Zm-5.22-2.35c-2-.58-3.47.08-4,1.85-.85,2.93,2,5.25,4.55,6,2,.58,3.8.18,4.38-1.82s-.66-4.09-3.21-5.29L37.54,78A6.67,6.67,0,0,0,36.42,77.61Z"/><path class="cls-1" d="M34.23,91.87l-.42,0c-2.57-.13-4,1.23-4.06,3.31a4,4,0,0,0,2.12,3.79l-1.11,1.61a5.83,5.83,0,0,1-3-5.66c.19-3.56,2.47-5.37,6.19-5.17,3.93.21,7.61,2.57,7.37,7.14-.19,3.46-2.43,5-5.34,4.8a9.91,9.91,0,0,1-2.3-.43ZM36,92.2l-.39,7.25a5.86,5.86,0,0,0,.83.1,2.82,2.82,0,0,0,3.18-3C39.78,94.33,38.37,92.82,36,92.2Z"/><path class="cls-1" d="M42.55,110.82a4.07,4.07,0,0,1-.66,3.19,3.53,3.53,0,0,1-2.34,1.28,9.16,9.16,0,0,1-1.56.12H29.82l-.39-2.19h8.18c.65,0,.81,0,1-.07a2.16,2.16,0,0,0,1.88-2.84c-.39-2.24-2.15-3.36-5.24-3.34H28.33L28,104.8H41.17l.36,2H38.92A5,5,0,0,1,42.55,110.82Z"/><path class="cls-1" d="M36.35,119.15c3.17-1.33,7.95-1.45,9.89,3.16,1.08,2.57.69,5.27-2.38,6.57L42.79,127c2.17-1,2.22-2.66,1.65-4-1.3-3.1-4.89-2.63-7.17-1.67-2.73,1.15-2.86,3.07-2.25,4.51.75,1.8,2.4,2.23,4.16,1.91l.53,2.13c-2.81.5-5.28-.46-6.51-3.39C32.18,124.07,32.25,120.88,36.35,119.15Z"/><path class="cls-1" d="M44.25,134.4l-.34.24c-2.09,1.52-2.3,3.44-1.08,5.13a4,4,0,0,0,4,1.61l.16,2a5.84,5.84,0,0,1-5.86-2.54c-2.09-2.89-1.45-5.74,1.56-7.92,3.19-2.31,7.53-2.79,10.22.92,2,2.81,1.23,5.38-1.13,7.1a9.69,9.69,0,0,1-2.06,1.1Zm1.61-.88,4.27,5.88a5.19,5.19,0,0,0,.7-.44,2.82,2.82,0,0,0,.61-4.31C50.11,132.82,48.07,132.53,45.86,133.52Z"/><path class="cls-1" d="M77.28,16.79,77,15.31l3.51-1.42L80.92,16c.29,1.48,1,2.23,2,2s1.3-1.06,1.1-2.07l-.15-.75A2.44,2.44,0,0,0,82,13L79.11,11.9A4.75,4.75,0,0,1,75.69,8L75.5,7c-.6-3,1.33-4.92,4.15-5.48,3.13-.62,5.35.23,6,3.7L86,6.56,82.52,7.94l-.39-2c-.25-1.24-.85-2-1.94-1.74a1.43,1.43,0,0,0-1.11,1.83l.16.83A2.51,2.51,0,0,0,81,8.81l3,1.08a4.71,4.71,0,0,1,3.49,4l.28,1.4c.52,2.64-.87,4.82-4.26,5.5S77.9,19.86,77.28,16.79Z"/><path class="cls-1" d="M98.07,4.71l.11,1.55c.24,3.34-1.48,5.31-4.82,5.55l-1.55.11.5,7.16-3.65.25L87.34.65,92.47.29C96,.05,97.82,1.55,98.07,4.71Zm-3.75.39c-.12-1.68-.75-2.35-2-2.26l-1.1.08.45,6.42,1.1-.08c1.29-.09,1.82-.92,1.69-2.79Z"/><path class="cls-1" d="M108,16.33l-.14,2.82-8.72-.44,1-18.71,8.54.43-.15,2.82L103.63,3l-.25,4.85,4.51.23-.15,2.81-4.5-.23L103,16.08Z"/><path class="cls-1" d="M111.4.71l3.86.71,1.46,9.51c.12,1,.21,1.94.25,2.89h0c.17-1.37.36-2.72.62-4.1L119,2.1l3.16.58L118.83,21.1l-3.48-.64-1.6-10.31a27.63,27.63,0,0,1-.27-3.06h-.08c-.17,1.2-.3,2.36-.52,3.6l-1.65,9L108,19.13Z"/><path class="cls-1" d="M120.93,16.07l2.51-7.53c1.21-3.63,3.74-4.9,7.14-3.76,3.23,1.07,4.53,3.28,3.44,6.53l-.6,1.8-3.8-.51.79-2.38c.49-1.47.24-2.39-.81-2.74s-1.91.22-2.48,1.95l-2.68,8c-.56,1.71-.28,2.8.79,3.16s1.84-.25,2.32-1.71l.88-2.65,3.31,1.91-.64,1.93c-1.08,3.25-3.58,4.33-6.79,3.27C120.91,22.24,119.7,19.78,120.93,16.07Z"/><path class="cls-1" d="M139,26.05l-1.21,2.55-7.89-3.73,8-16.93,7.72,3.66-1.21,2.55L140,12.06l-2.07,4.39L142,18.38l-1.2,2.55L136.71,19l-2.32,4.88Z"/><path class="cls-1" d="M146.22,24.93l-1.11-.71L141,30.65l-3.1-2L148,12.88l4.21,2.68c3.3,2.09,3.58,4.5,1.92,7.16l-.48.75c-1.19,1.87-2.64,2.64-4.19,2.47l-2.34,8.58-3.22-2.05Zm1.06-2.11c1.2.76,2.08.32,3.06-1.21l.63-1c.92-1.44.83-2.28-.35-3l-.91-.58-3.34,5.25Z"/><path class="cls-1" d="M149.53,30.58l1-1.15,3.3,1.85-1.37,1.64c-1,1.15-1.15,2.13-.32,2.83s1.64.35,2.3-.44l.5-.59a2.45,2.45,0,0,0,.56-2.8l-1-3a4.75,4.75,0,0,1,.94-5.13l.63-.75c2-2.35,4.67-2,6.87-.19,2.45,2.06,3.17,4.32.89,7L162.93,31l-3.23-1.82L161,27.6c.82-1,1-1.88.15-2.6a1.45,1.45,0,0,0-2.13.28l-.54.65a2.5,2.5,0,0,0-.4,2.56l1,3a4.71,4.71,0,0,1-.93,5.21l-.92,1.09c-1.73,2.06-4.31,2.34-7,.11S147.51,33,149.53,30.58Z"/><path class="cls-1" d="M172,39.25l-1.15,1.06c-2.46,2.27-5.07,2.17-7.34-.29l-1.06-1.15-5.27,4.87-2.48-2.69,13.75-12.71,3.49,3.78C174.26,34.67,174.26,37.08,172,39.25Zm-2.66-2.68c1.24-1.15,1.37-2.06.49-3l-.75-.81-4.73,4.37.75.81c.88,1,1.86.84,3.23-.43Z"/><path class="cls-1" d="M169.08,54.31l-2.31,1.63-5.05-7.12L177,38,182,45l-2.3,1.63-2.83-4-4,2.81,2.61,3.68-2.3,1.63-2.61-3.68-4.41,3.13Z"/><path class="cls-1" d="M183.41,47.12l1.87,3.45-6.51,7.1c-.67.69-1.38,1.38-2.09,2l0,0c1.17-.72,2.35-1.43,3.58-2.09l6.82-3.7,1.54,2.83-16.47,8.93-1.69-3.11,7.05-7.72a26.6,26.6,0,0,1,2.2-2.12l0-.07c-1,.62-2,1.24-3.14,1.85l-8.07,4.37L166.94,56Z"/><path class="cls-1" d="M177.39,64.16l7.45-2.76c3.58-1.33,6.16-.14,7.41,3.22,1.18,3.19.27,5.58-2.95,6.77l-1.78.66-2-3.29,2.35-.87c1.46-.54,2-1.31,1.63-2.34s-1.37-1.35-3.07-.72l-7.94,2.94c-1.68.62-2.36,1.52-2,2.59s1.34,1.27,2.78.74l2.62-1,.58,3.78-1.9.7c-3.21,1.19-5.63-.08-6.8-3.25C172.57,68,173.74,65.52,177.39,64.16Z"/><path class="cls-1" d="M180.89,84.52l-2.74.65-2-8.5,18.22-4.31,2,8.31-2.75.65-1.12-4.75-4.72,1.12,1,4.39-2.74.65-1-4.39-5.26,1.25Z"/><path class="cls-1" d="M186.29,89.45l-.14-1.31-7.58.82-.39-3.64,18.61-2,.54,4.95c.43,3.88-1.27,5.61-4.38,6l-.9.1c-2.2.24-3.7-.42-4.54-1.73l-8.15,3.54-.42-3.8ZM188.6,89c.16,1.41,1.05,1.82,2.86,1.62l1.18-.13c1.71-.18,2.3-.78,2.15-2.17l-.12-1.07-6.18.67Z"/><path class="cls-1" d="M184,95.55l1.5,0,.63,3.74-2.14,0c-1.5,0-2.38.45-2.41,1.53s.76,1.49,1.79,1.52h.76a2.43,2.43,0,0,0,2.54-1.31l1.7-2.63a4.74,4.74,0,0,1,4.59-2.48l1,0c3.06.07,4.51,2.37,4.44,5.25-.07,3.19-1.38,5.16-4.91,5.09l-1.37,0-.61-3.66,2,0c1.26,0,2.09-.4,2.12-1.5A1.44,1.44,0,0,0,194,99.63l-.84,0a2.5,2.5,0,0,0-2.24,1.3l-1.7,2.65a4.68,4.68,0,0,1-4.65,2.53l-1.43,0c-2.69-.06-4.52-1.89-4.44-5.35S180.81,95.48,184,95.55Z"/><path class="cls-1" d="M191.24,118.47l-1.54-.23c-3.31-.49-4.87-2.59-4.38-5.9l.23-1.54-7.1-1.06.54-3.62,18.53,2.74-.76,5.09C196.25,117.4,194.38,118.91,191.24,118.47Zm.42-3.75c1.67.24,2.46-.22,2.65-1.5l.16-1.1-6.36-.94-.17,1.09c-.18,1.28.51,2,2.36,2.25Z"/><path class="cls-1" d="M177.73,125.68l-2.72-.75,2.32-8.42,18.06,5-2.27,8.25L190.4,129l1.29-4.7L187,123l-1.2,4.35-2.72-.75,1.2-4.35-5.22-1.43Z"/><path class="cls-1" d="M192.26,132.37,190.73,136l-9.61-.64c-1-.09-1.94-.22-2.87-.38l0,.05c1.29.46,2.58.94,3.86,1.49l7.15,3-1.25,3-17.26-7.28,1.38-3.26,10.42.67a27.14,27.14,0,0,1,3,.4l0-.07c-1.14-.43-2.24-.81-3.41-1.3l-8.45-3.57,1.26-3Z"/><path class="cls-1" d="M175.2,138.33l6.81,4.08c3.28,2,4,4.72,2.12,7.8-1.75,2.92-4.19,3.7-7.13,1.94l-1.62-1,1.32-3.6,2.15,1.29c1.34.8,2.29.75,2.86-.2s.19-1.91-1.37-2.85l-7.26-4.35c-1.54-.92-2.67-.89-3.25.08s-.16,1.85,1.16,2.63l2.4,1.44-2.59,2.82-1.74-1c-2.94-1.77-3.46-4.45-1.72-7.34C169.18,137,171.85,136.32,175.2,138.33Z"/><path class="cls-1" d="M161.52,153.77,159.29,152l5.37-6.89,14.77,11.52-5.25,6.74L172,161.67l3-3.84-3.83-3-2.77,3.56-2.23-1.74,2.78-3.56-4.27-3.32Z"/><path class="cls-1" d="M161,161.08l.94-.93-5.39-5.4,2.6-2.59,13.22,13.25-3.52,3.53c-2.77,2.75-5.17,2.51-7.41.31l-.63-.64c-1.56-1.57-2-3.15-1.49-4.63l-7.86-4.14,2.7-2.7Zm1.83,1.49c-1,1-.77,2,.52,3.25l.84.84c1.21,1.21,2.05,1.3,3,.31l.76-.76-4.4-4.4Z"/><path class="cls-1" d="M154.83,163.05l.91,1.19-2.51,2.83-1.3-1.7c-.92-1.19-1.85-1.58-2.71-.92s-.69,1.53-.06,2.35l.46.6a2.44,2.44,0,0,0,2.62,1.16l3.11-.33a4.76,4.76,0,0,1,4.81,2l.6.78c1.86,2.42,1,5-1.31,6.75-2.53,1.94-4.89,2.16-7-.65l-.84-1.09,2.47-2.76,1.22,1.59c.77,1,1.63,1.39,2.51.71a1.43,1.43,0,0,0,.18-2.14l-.51-.67a2.52,2.52,0,0,0-2.42-.94l-3.13.34a4.68,4.68,0,0,1-4.88-2l-.87-1.13c-1.64-2.13-1.36-4.71,1.39-6.81S152.92,160.55,154.83,163.05Z"/><path class="cls-1" d="M141.5,183.11l-.79-1.35c-1.69-2.89-1-5.41,1.86-7.11l1.34-.78-3.62-6.19,3.16-1.86L152.92,182l-4.44,2.6C145.47,186.35,143.12,185.83,141.5,183.11Zm3.19-2c.85,1.46,1.71,1.78,2.83,1.12l.95-.56-3.25-5.55-1,.56c-1.11.65-1.21,1.63-.27,3.24Z"/><path class="cls-1" d="M127.45,177.07l-1.12-2.59,8-3.46,7.43,17.2-7.85,3.39L132.8,189l4.48-1.93-1.92-4.46-4.14,1.79-1.12-2.59,4.14-1.79-2.14-5Z"/><path class="cls-1" d="M131.31,192.6l-3.78,1.07-5.51-7.9c-.53-.81-1-1.65-1.5-2.48h0c.45,1.3.88,2.61,1.26,3.95l2.12,7.46-3.1.88-5.11-18,3.4-1,6,8.55a28.74,28.74,0,0,1,1.59,2.62l.08,0c-.38-1.15-.77-2.25-1.12-3.47l-2.51-8.83,3.13-.88Z"/><path class="cls-1" d="M116,183l1.07,7.87c.51,3.79-1.21,6-4.76,6.53-3.38.45-5.51-1-6-4.36l-.26-1.88,3.65-1.22.33,2.49c.21,1.54.84,2.25,1.94,2.11s1.61-1.05,1.37-2.85l-1.14-8.4c-.24-1.78-1-2.64-2.09-2.48s-1.54,1-1.33,2.55l.37,2.77-3.81-.26-.28-2c-.46-3.4,1.31-5.48,4.66-5.93C113.29,177.46,115.46,179.14,116,183Z"/><path class="cls-1" d="M95.39,182l0-2.82,8.73-.12.25,18.73-8.55.11,0-2.82,4.88-.06-.07-4.86-4.51.06,0-2.82,4.52-.06-.08-5.41Z"/><path class="cls-1" d="M89.38,186.19l1.31.14.83-7.58,3.65.4-2,18.62-5-.55c-3.88-.42-5.2-2.45-4.88-5.57l.1-.9c.24-2.2,1.21-3.52,2.67-4.05L84.37,178l3.8.42Zm0,2.36c-1.42-.16-2,.62-2.21,2.43L87,192.16c-.18,1.71.27,2.42,1.66,2.57l1.07.12.68-6.19Z"/><path class="cls-1" d="M83.91,182.57,83.55,184l-3.78-.19.51-2.08c.36-1.46.08-2.42-1-2.68s-1.63.42-1.87,1.42l-.18.74A2.43,2.43,0,0,0,78,184l2.2,2.22a4.77,4.77,0,0,1,1.43,5l-.23.95c-.73,3-3.29,3.89-6.08,3.21-3.1-.76-4.75-2.47-3.91-5.9l.33-1.33,3.7.2L75,190.31c-.3,1.23-.06,2.13,1,2.4a1.43,1.43,0,0,0,1.78-1.19l.2-.82a2.47,2.47,0,0,0-.78-2.47L75,186a4.71,4.71,0,0,1-1.47-5.09l.34-1.38c.64-2.62,2.83-4,6.19-3.18S84.66,179.52,83.91,182.57Z"/><path class="cls-1" d="M60,184.74l.56-1.45c1.2-3.13,3.58-4.19,6.71-3l1.45.56,2.56-6.7,3.43,1.31L68,193l-4.8-1.84C59.93,189.87,58.87,187.71,60,184.74ZM63.54,186c-.6,1.57-.31,2.45.9,2.91l1,.39,2.3-6-1-.39c-1.2-.47-2,.07-2.7,1.82Z"/><path class="cls-1" d="M55.87,170l1.32-2.5,7.72,4.09-8.77,16.55-7.55-4,1.32-2.49,4.31,2.28,2.27-4.29-4-2.11L53.83,175l4,2.11,2.53-4.78Z"/><path class="cls-1" d="M46.19,182.73,43,180.45l2.72-9.24c.3-.92.64-1.84,1-2.72l0,0c-.73,1.16-1.49,2.31-2.3,3.45l-4.49,6.32-2.63-1.86L48.1,161.1,51,163.15l-2.92,10A26.87,26.87,0,0,1,47,176.06l.07.05c.66-1,1.27-2,2-3l5.32-7.49,2.65,1.89Z"/><path class="cls-1" d="M44.08,164.78l-5.47,5.75c-2.63,2.77-5.47,2.85-8.07.37s-2.69-4.89-.33-7.38l1.31-1.37,3.22,2.08L33,166.05c-1.08,1.12-1.24,2.06-.44,2.82s1.83.61,3.08-.71L41.49,162c1.24-1.3,1.46-2.4.63-3.18s-1.76-.56-2.82.55l-1.93,2-2.18-3.14,1.4-1.47c2.36-2.48,5.08-2.4,7.53-.08C46.72,159.2,46.77,162,44.08,164.78Z"/><path class="cls-1" d="M32,148.06l2.18-1.8L39.71,153,25.27,164.91l-5.44-6.59,2.18-1.8,3.1,3.77,3.74-3.09L26,153.72l2.17-1.8L31,155.4,35.2,152Z"/><path class="cls-1" d="M25,146l.71,1.11,6.42-4.1,2,3.09L18.27,156.19,15.59,152c-2.1-3.29-1.35-5.59,1.28-7.3l.76-.48c1.87-1.19,3.51-1.27,4.84-.46L28.21,137l2.06,3.22Zm-1.85,1.46c-.77-1.2-1.75-1.17-3.29-.19l-1,.64c-1.44.92-1.71,1.72-1,2.9l.58.91,5.25-3.35Z"/><path class="cls-1" d="M24.34,139.49l-1.37.63-2.21-3.07,1.93-.9c1.37-.63,1.94-1.46,1.49-2.44s-1.35-1-2.28-.57l-.69.33a2.43,2.43,0,0,0-1.69,2.3l-.36,3.11a4.78,4.78,0,0,1-3,4.26l-.88.41c-2.78,1.29-5.1-.13-6.31-2.73-1.35-2.9-1-5.25,2.15-6.74l1.24-.58,2.16,3-1.81.84c-1.15.54-1.7,1.29-1.23,2.3a1.43,1.43,0,0,0,2,.64l.77-.36a2.52,2.52,0,0,0,1.44-2.15l.34-3.13a4.69,4.69,0,0,1,3.05-4.33l1.29-.6c2.44-1.14,4.89-.31,6.35,2.82S27.18,138.16,24.34,139.49Z"/><path class="cls-1" d="M7.66,122.16l1.48-.48c3.19-1,5.51.17,6.53,3.36l.48,1.49L23,124.34l1.12,3.49L6.26,133.55l-1.57-4.9C3.63,125.33,4.65,123.15,7.66,122.16Zm1.27,3.55c-1.6.51-2.11,1.28-1.71,2.51l.34,1.06,6.13-2-.34-1.06c-.4-1.23-1.33-1.54-3.11-1Z"/><path class="cls-1" d="M16.61,109.71l2.77-.53L21,117.76,2.6,121.24,1,112.85l2.77-.53.91,4.8,4.77-.9-.84-4.44,2.77-.52.84,4.43,5.31-1Z"/><path class="cls-1" d="M.63,110.15.4,106.22l8.91-3.65c.9-.34,1.84-.66,2.75-.92v-.06c-1.36.16-2.73.29-4.12.37l-7.75.45L0,99.19l18.7-1.07.2,3.53-9.65,4a27.71,27.71,0,0,1-2.91,1v.08c1.21-.12,2.36-.27,3.63-.34l9.16-.52.19,3.24Z"/><path class="cls-1" d="M13.32,97.25,5.41,96.6C1.6,96.27-.23,94.11.06,90.54c.29-3.4,2.13-5.17,5.55-4.89l1.89.16.39,3.82L5.4,89.42c-1.55-.13-2.38.33-2.48,1.43s.67,1.81,2.49,2l8.43.7c1.79.15,2.79-.37,2.88-1.5s-.67-1.73-2.2-1.86l-2.78-.23,1.07-3.67,2,.17c3.42.29,5.07,2.46,4.79,5.83C19.32,95.82,17.21,97.58,13.32,97.25Z"/><path class="cls-1" d="M18.78,77.36l2.76.58-1.77,8.54L1.43,82.68l1.74-8.37,2.76.58-1,4.77,4.75,1,.92-4.42,2.76.58-.92,4.41,5.3,1.1Z"/><path class="cls-1" d="M16,70.61l-.42,1.25,7.22,2.45-1.18,3.47-17.74-6L5.44,67c1.26-3.7,3.52-4.55,6.5-3.56l.85.29c2.1.71,3.19,1.94,3.39,3.48l8.89.24-1.23,3.62Zm-2.3-.53c.46-1.35-.18-2.1-1.9-2.68L10.63,67c-1.62-.55-2.42-.26-2.87,1.06l-.34,1,5.89,2Z"/><path class="cls-1" d="M20.67,66.05l-1.35-.67,1-3.65,1.92,1c1.35.67,2.35.6,2.83-.37s-.06-1.67-1-2.13l-.68-.34a2.46,2.46,0,0,0-2.86.12l-2.64,1.67a4.79,4.79,0,0,1-5.22.31l-.87-.44c-2.75-1.35-3.09-4-1.81-6.63,1.41-2.86,3.43-4.1,6.6-2.53l1.23.61-1,3.56-1.8-.89c-1.13-.56-2.06-.52-2.55.48a1.43,1.43,0,0,0,.78,2l.75.37a2.49,2.49,0,0,0,2.58-.22l2.66-1.69a4.68,4.68,0,0,1,5.28-.33l1.28.63c2.41,1.19,3.3,3.63,1.77,6.72S23.49,67.44,20.67,66.05Z"/><path class="cls-1" d="M23.78,42.18l1.3.86c2.79,1.85,3.31,4.41,1.46,7.2l-.86,1.3,6,4-2,3L14,48.21l2.84-4.29C18.79,41,21.13,40.45,23.78,42.18Zm-2,3.21c-1.41-.93-2.32-.84-3,.24l-.61.92,5.37,3.56.61-.93c.71-1.07.37-2-1.19-3Z"/><path class="cls-1" d="M39.07,41.4l2.14,1.83-5.68,6.63L21.31,37.69l5.55-6.5L29,33l-3.18,3.71,3.69,3.15,2.94-3.42L34.6,38.3l-2.93,3.43,4.1,3.51Z"/><path class="cls-1" d="M28.73,29.2l2.92-2.63,8.43,4.66c.83.49,1.66,1,2.43,1.57l0,0c-1-1-1.93-1.95-2.86-3L34.5,24l2.39-2.15L49.42,35.77l-2.63,2.37-9.15-5a28.35,28.35,0,0,1-2.58-1.65l-.06.06c.85.86,1.69,1.67,2.53,2.61l6.15,6.82-2.41,2.17Z"/><path class="cls-1" d="M46.72,31l-4.44-6.58c-2.14-3.17-1.61-5.95,1.37-8,2.82-1.91,5.36-1.58,7.28,1.26L52,19.33,49.26,22,47.86,20c-.87-1.29-1.75-1.65-2.67-1s-1,1.65,0,3.16l4.74,7c1,1.49,2,1.93,3,1.3s.92-1.61.07-2.88l-1.57-2.32L55,23.75l1.13,1.69c1.92,2.84,1.26,5.48-1.54,7.37C51.59,34.82,48.9,34.28,46.72,31Z"/><path class="cls-1" d="M65.65,22.83l1.29,2.51-7.78,4L50.64,12.63l7.61-3.88,1.29,2.51-4.35,2.22L57.4,17.8l4-2.05,1.28,2.51-4,2.06,2.46,4.81Z"/><path class="cls-1" d="M69.16,16.41l-1.24.45L70.52,24l-3.44,1.25L60.68,7.68,65.36,6c3.67-1.33,5.75-.09,6.85,2.85l.3.84c.76,2.08.48,3.7-.6,4.82l5.38,7.08L73.7,22.87Zm-1-2.13c1.34-.48,1.52-1.45.9-3.16L68.63,10C68,8.4,67.32,8,66,8.43L65,8.8l2.13,5.85Z"/><path class="cls-1" d="M88.84,57.59a2.87,2.87,0,0,1,.53-1,3.19,3.19,0,0,1,.85-.74,3.36,3.36,0,0,1,1.06-.44,3.91,3.91,0,0,0,.64-.13.74.74,0,0,0,.33-.19.45.45,0,0,0,.12-.26,2.56,2.56,0,0,0,0-.37,1.75,1.75,0,0,0-.28-.75c-.16-.22-.32-.43-.49-.64a7.37,7.37,0,0,1-.49-.65,1.79,1.79,0,0,1-.29-.77,2.54,2.54,0,0,1,.29-1.59A8.16,8.16,0,0,1,92,48.77s-.05-.06-.15-.05a5.42,5.42,0,0,0-.87.19,6.09,6.09,0,0,1-.89.18,4.11,4.11,0,0,1-1.16,0,2.55,2.55,0,0,1-1-.32,2.25,2.25,0,0,1-.75-.69A2.35,2.35,0,0,1,86.8,47a.53.53,0,0,1,0-.18c0-.08,0-.12.06-.13h0s0,0,.08.09a2.42,2.42,0,0,1,.12.23l.15.26a.52.52,0,0,0,.15.17,1.24,1.24,0,0,0,.81.15,1.82,1.82,0,0,0,.51-.15c.18-.07.34-.15.5-.23a15.47,15.47,0,0,1,1.63-.71,7.61,7.61,0,0,1,1.75-.44,4.7,4.7,0,0,1,2.2.21,5.06,5.06,0,0,1,1.77,1.07,5.7,5.7,0,0,1,1.24,1.71,6.94,6.94,0,0,1,.63,2.12,4.87,4.87,0,0,1-.34,2.53,4.74,4.74,0,0,1-1.53,2L95.2,56.77a4.32,4.32,0,0,0-1.11,1.29H94a.18.18,0,0,1-.21-.08.61.61,0,0,0-.16-.16A3.78,3.78,0,0,0,92.27,57a3.82,3.82,0,0,0-1.58-.08,2.61,2.61,0,0,0-1.35.54,1.42,1.42,0,0,0-.4,1.39,1.15,1.15,0,0,0,.33.67,3.54,3.54,0,0,0,.6.5,1.84,1.84,0,0,0,.59.25,3.72,3.72,0,0,0,.68.09,5.51,5.51,0,0,0,.7,0l.64-.06.34,0a9.33,9.33,0,0,0,1.7-.37,3.18,3.18,0,0,0,1.45-1,1.4,1.4,0,0,0,.13-.2,3.16,3.16,0,0,0,.18-.27,2.57,2.57,0,0,1,.21-.24.27.27,0,0,1,.19-.12.37.37,0,0,1,0,.11.21.21,0,0,1,0,.11,6,6,0,0,1-1.25,1.55,5.18,5.18,0,0,1-1.72,1l-.73.09a5.85,5.85,0,0,1-1.19,0,4.32,4.32,0,0,1-1.19-.22,3.38,3.38,0,0,1-1-.56,2.31,2.31,0,0,1-.72-1l-.06-.48A2.43,2.43,0,0,1,88.84,57.59Zm4.21-2.42.71.1,1,.11h.08c.08,0,.11,0,.11-.06l-.84-6.58c0-.07-.07-.12-.16-.15a1.6,1.6,0,0,0-.33-.07,2.11,2.11,0,0,0-.35,0h-.2a1.12,1.12,0,0,0-.51.17.7.7,0,0,0-.26.45l.05.36a2.18,2.18,0,0,0,.25.77c.14.24.28.47.43.7s.3.48.44.73a2.5,2.5,0,0,1,.26.84,1.84,1.84,0,0,1-.2,1.13,8.72,8.72,0,0,1-.6,1,1.88,1.88,0,0,1-.16.23.31.31,0,0,0-.07.24S92.83,55.13,93.05,55.17Zm1.39-6.3s0,0,0,.07l.83,6.56a.41.41,0,0,0,.24.27.68.68,0,0,0,.3.11h.07a2.83,2.83,0,0,0,.5-.84,3.51,3.51,0,0,0,.22-.89,4.91,4.91,0,0,0,0-.94c0-.33,0-.66-.1-1l-.13-1s-.07-.18-.18-.44a7,7,0,0,0-.41-.82,4.19,4.19,0,0,0-.58-.77.78.78,0,0,0-.68-.29Z"/><path class="cls-1" d="M102.57,49.66a3.46,3.46,0,0,1,.38.66,3.63,3.63,0,0,1,.24.75,2.15,2.15,0,0,1,.08.6,2.35,2.35,0,0,1-.29,1.07,4.4,4.4,0,0,1-.65.92,8.76,8.76,0,0,1-.82.79c-.3.25-.57.48-.82.71v.1a.77.77,0,0,0,.14.4,4.73,4.73,0,0,0,.36.45,4.57,4.57,0,0,0,.41.37.84.84,0,0,0,.32.16.6.6,0,0,0,.46-.16,3.3,3.3,0,0,1,.4-.32H103v.07a1.43,1.43,0,0,1-.22.23,2.76,2.76,0,0,1-.36.31s-.15.11-.33.25l-.58.46-.61.42a1,1,0,0,1-.38.18h0a2,2,0,0,1-.68-.49,3.92,3.92,0,0,1-1-1.65,2.25,2.25,0,0,1-.13-.8l.11-2.47a1.71,1.71,0,0,1,.4-1.06,5,5,0,0,1,.88-.83c.34-.25.69-.48,1.06-.71a4.33,4.33,0,0,0,.92-.72h0A.63.63,0,0,1,102.57,49.66Zm-1.78,4.94a.52.52,0,0,0,.37-.16,1.86,1.86,0,0,0,.35-.42,3.06,3.06,0,0,0,.26-.51,1.23,1.23,0,0,0,.12-.43,2.74,2.74,0,0,0,0-.48,4.86,4.86,0,0,0-.16-.69,2.71,2.71,0,0,0-.28-.62A.53.53,0,0,0,101,51h0c-.07,0-.12.05-.16.16a1.87,1.87,0,0,0-.09.39c0,.14,0,.29,0,.44s0,.28,0,.36l0,.58c0,.26,0,.52,0,.77s0,.53,0,.86A.29.29,0,0,0,100.79,54.6Z"/><path class="cls-1" d="M103.08,57.53a1.49,1.49,0,0,0-.3.18l-.27.19a.29.29,0,0,1-.21.08h-.07a1.14,1.14,0,0,1,.33-.63,3.3,3.3,0,0,1,.67-.54,3.46,3.46,0,0,1,.79-.35,1.79,1.79,0,0,1,.7-.07,3.52,3.52,0,0,1,.85.24,1.69,1.69,0,0,1,.67.54l.08-.06.32-2.06a.56.56,0,0,0-.14-.43.59.59,0,0,0-.38-.24.65.65,0,0,0-.38.06l-.44.19a4.09,4.09,0,0,1-.49.18,1.25,1.25,0,0,1-.55,0,1,1,0,0,1-.5-.23,1.36,1.36,0,0,1-.36-.43,1.5,1.5,0,0,1-.19-.55,1.78,1.78,0,0,1,0-.56,1.83,1.83,0,0,1,.32-.82,2.33,2.33,0,0,1,.58-.55,3.6,3.6,0,0,1,.76-.38l.85-.35a4.94,4.94,0,0,0,.72-.37,2.75,2.75,0,0,1,.77-.34c.06,0,.1.06.14.14l.13.28a1.07,1.07,0,0,0,.19.28.52.52,0,0,0,.33.16.59.59,0,0,0,.41,0,1.27,1.27,0,0,0,.28-.23,2.44,2.44,0,0,1,.22-.23.28.28,0,0,1,.26-.08,1.8,1.8,0,0,1-.27.7,2.6,2.6,0,0,1-.54.65,2.46,2.46,0,0,1-.7.45,1.42,1.42,0,0,1-.78.11h0a.94.94,0,0,1-.32-.15l-.4-.28a3.16,3.16,0,0,0-.35-.22c-.1-.06-.16-.05-.17,0l-.25,1.64a.72.72,0,0,0,.07.36.38.38,0,0,0,.26.24.77.77,0,0,0,.42-.06l.43-.22a3.82,3.82,0,0,1,.46-.21,1.12,1.12,0,0,1,.55,0,1.19,1.19,0,0,1,.65.29,1.35,1.35,0,0,1,.36.54,1.87,1.87,0,0,1,.14.68,4.17,4.17,0,0,1,0,.71l0,.07c0,.23-.1.44-.13.62a1.81,1.81,0,0,1-.22.55,1.16,1.16,0,0,1-.53.47,4.05,4.05,0,0,1-.74.28l-.77.21a1.67,1.67,0,0,0-.6.27.56.56,0,0,0-.17.09l-.23.13-.23.11a.31.31,0,0,1-.17,0h-.07a7.28,7.28,0,0,0-.57-.71,1.23,1.23,0,0,0-.76-.35A.55.55,0,0,0,103.08,57.53Z"/><path class="cls-1" d="M109.75,52.28c0-.16-.12-.25-.23-.27a.35.35,0,0,0-.36.1.33.33,0,0,1-.34.1c0-.06.13-.17.34-.34a5.88,5.88,0,0,1,.71-.5,8.89,8.89,0,0,1,.79-.43.9.9,0,0,1,.53-.14h.07a.5.5,0,0,1,.3.29,3.74,3.74,0,0,1,.22.51c.06.18.11.34.15.49a.9.9,0,0,0,.08.24l.69-.33,0,.22-.44.34a2.52,2.52,0,0,0-.4.4c-.08.27-.16.54-.23.82s-.15.55-.22.82L111,56.23l-.07.29c0,.13-.07.29-.11.48a3.64,3.64,0,0,0-.07.54,1.61,1.61,0,0,0,0,.46.33.33,0,0,0,.23.24h0a.57.57,0,0,0,.21,0l.19,0,.07,0s-.12.13-.33.27-.43.28-.68.42l-.68.4-.33.17-.07,0a5.7,5.7,0,0,1-.47-.7,2.2,2.2,0,0,1-.22-.62,2.1,2.1,0,0,1,0-.66c0-.24.11-.53.19-.87l.12-.44.21-.89.24-1c.08-.34.15-.66.22-.95s.11-.5.14-.63A1.18,1.18,0,0,0,109.75,52.28Zm1.58-4a1,1,0,0,1,1.37.34,1.06,1.06,0,0,1,0,.75,1,1,0,0,1-.39.6.79.79,0,0,1-.7.14,1.07,1.07,0,0,1-.64-.43.93.93,0,0,1-.1-.74A1.17,1.17,0,0,1,111.33,48.33Z"/><path class="cls-1" d="M110.91,60.34a1.21,1.21,0,0,1,.77,0,.78.78,0,0,1,.51.49,1,1,0,0,1,0,.68.89.89,0,0,1-.38.49.58.58,0,0,0-.31.31c0,.09,0,.16.11.21l.26.13a1.66,1.66,0,0,0,1.24,0,1.45,1.45,0,0,0,.82-.89,3.08,3.08,0,0,0,.19-1.18,4.45,4.45,0,0,1,.16-1.24l-.06-.05-1.69.34a.92.92,0,0,0-.35.25c-.15.14-.27.19-.38.15h0c-.09-.16-.18-.34-.28-.53a6.14,6.14,0,0,1-.25-.59,2.74,2.74,0,0,1-.13-.62,1.32,1.32,0,0,1,.08-.59l1.15-3.1a1.77,1.77,0,0,1,.57-.78,3.41,3.41,0,0,1,.84-.46,7.35,7.35,0,0,1,.94-.3,5.91,5.91,0,0,0,.87-.29.4.4,0,0,0,.17-.08l.25-.14.26-.13a.26.26,0,0,1,.17,0l.07,0c.27.33.48.6.64.82a7.27,7.27,0,0,1,.52.83l.11.29a.4.4,0,0,0,.19.25s.1,0,.19-.07a2,2,0,0,0,.28-.19l.29-.19c.08-.06.15-.08.18-.06h0l0,.06,0,.07c-.22.16-.41.32-.59.48a1.66,1.66,0,0,0-.43.58c-.05.11-.13.28-.23.53s-.2.5-.32.79l-.34.88c-.12.3-.21.56-.29.77l-.15.38,0,.07c0,.1-.08.23-.13.4s-.11.32-.16.47l-.13.41,0,.19A2.25,2.25,0,0,0,116,61a1.8,1.8,0,0,1-.11.77,1.88,1.88,0,0,1-.67.91,2.91,2.91,0,0,1-1,.46,3.46,3.46,0,0,1-1.16.08,3.91,3.91,0,0,1-1.11-.24,3.4,3.4,0,0,1-.67-.32,2.58,2.58,0,0,1-.57-.45,1.64,1.64,0,0,1-.34-.6,1.27,1.27,0,0,1,.06-.76A.82.82,0,0,1,110.91,60.34Zm2.21-2.05a1.34,1.34,0,0,0,0,.35,1.13,1.13,0,0,0,.13.32.52.52,0,0,0,.24.2.58.58,0,0,0,.53-.09,3.09,3.09,0,0,1,.41-.24l1.17-3.17a1,1,0,0,0,0-.5,2.4,2.4,0,0,0-.13-.59,1.66,1.66,0,0,0-.29-.52.92.92,0,0,0-.4-.32l-.06,0s-.08,0-.13.08a3.08,3.08,0,0,0-.16.28c-.06.12-.11.24-.17.38a3.73,3.73,0,0,0-.15.38l-.14.37-.24.65-.15.42-.22.64-.22.64c-.06.2-.1.34-.12.43Z"/><path class="cls-1" d="M116.58,60.19l.25-.13a1.56,1.56,0,0,0,.28-.16.66.66,0,0,0,.21-.23l2-3.61a1,1,0,0,0,.06-.2.86.86,0,0,0,0-.28,1.17,1.17,0,0,0,0-.27.28.28,0,0,0-.13-.18l-.27,0-.11,0,.31-.13.73-.29a6.21,6.21,0,0,1,.81-.24.87.87,0,0,1,.53,0l0,0a.52.52,0,0,1,.18.42,5.65,5.65,0,0,1,0,.72c0,.26,0,.49,0,.69s0,.32,0,.34a1.08,1.08,0,0,0,.27,0l.56-.08.61-.08.41-.06.18,0,.35-.1.35-.08a.42.42,0,0,1,.19,0l0,0c.08,0,.13.14.16.3a3.42,3.42,0,0,1,.08.51c0,.18,0,.35,0,.52a1,1,0,0,0,.09.38l.85-.17-.13.23a7,7,0,0,0-.78.37,1.52,1.52,0,0,0-.6.63l-1.82,3.31a1.85,1.85,0,0,0-.09.23,1.55,1.55,0,0,0,0,.31,1.36,1.36,0,0,0,0,.29.27.27,0,0,0,.13.19l.52-.13.13.07a.65.65,0,0,1-.4.28l-1.4.4s-.07,0-.15.07l-.24.07-.22.07c-.06,0-.08,0-.07.06l0,0-.39-1.19a.94.94,0,0,1,0-.57,4.6,4.6,0,0,1,.25-.55l.21-.37c.13-.25.34-.61.61-1.07s.52-.94.75-1.42a10.17,10.17,0,0,0,.52-1.32c.11-.4.07-.65-.11-.75a.71.71,0,0,0-.31-.06,1.21,1.21,0,0,0-.38.06,1.84,1.84,0,0,0-.35.15.72.72,0,0,0-.24.21,5.69,5.69,0,0,0-.37.58l-.54.93-.52.94-.34.63-.1.16a1.48,1.48,0,0,0-.15.43,2.28,2.28,0,0,0,0,.37c0,.11,0,.21,0,.29a.26.26,0,0,1,0,.18s-.09.07-.2.09l-.36.06-.39,0a1.23,1.23,0,0,0-.29.07,2.14,2.14,0,0,0-.36.19c-.14.09-.24.12-.29.09l-.06,0a3.33,3.33,0,0,0-.2-.94,3.15,3.15,0,0,0-.51-.84l0-.09A.42.42,0,0,1,116.58,60.19Z"/><path class="cls-1" d="M122.81,63.14a3.21,3.21,0,0,1,1.31-.09,4.48,4.48,0,0,1,1.31.39,4.55,4.55,0,0,1,1.1.72,3.45,3.45,0,0,1,.6.7c.16.24.3.5.45.78a1.65,1.65,0,0,1,.07.21,1.18,1.18,0,0,0,.1.3.54.54,0,0,0,.13.21c.05,0,.11,0,.18,0l.12-.14a.92.92,0,0,0,.2-.3,1.27,1.27,0,0,0,.05-.37c0-.44,0-.86,0-1.24a6.52,6.52,0,0,1,.11-1.11,4.16,4.16,0,0,1,.32-1,3.61,3.61,0,0,1,.67-1,2.93,2.93,0,0,1,1.31-.91A5,5,0,0,1,132.3,60a13.37,13.37,0,0,1,1.55,0,8,8,0,0,0,1.55-.06s0,0,0,0,.09.2,0,.39a1,1,0,0,0,0,.51,1.31,1.31,0,0,0,.24.6,2.74,2.74,0,0,0,.45.51,1.25,1.25,0,0,0,.72.32q.41,0,.81.06l.07.07a.62.62,0,0,1-.34.2l-.37,0a6.93,6.93,0,0,1-1.87,0,3,3,0,0,1-1.66-.77,2.28,2.28,0,0,1-.55-.75c-.13-.29-.25-.57-.35-.85a.24.24,0,0,0-.19-.05.65.65,0,0,0-.22.08,1,1,0,0,0-.21.14l-.14.14a1.49,1.49,0,0,0-.28.53,5.16,5.16,0,0,0-.21.77,4.11,4.11,0,0,0-.07.75.63.63,0,0,0,.14.47.5.5,0,0,0,.34.11,1.48,1.48,0,0,0,.39,0c.49.08,1.05.15,1.66.21a13.09,13.09,0,0,0,1.73.07l.06.05a9.93,9.93,0,0,1-.15,1.36,2.56,2.56,0,0,1-.6,1.18,3.1,3.1,0,0,1-.47.43,1.23,1.23,0,0,1-.61.22,1.19,1.19,0,0,1-.36,0l-.51-.06-.48-.06q-.21,0-.24,0l0,0c.11.19.21.38.31.59a2.8,2.8,0,0,1,.23.63,2.09,2.09,0,0,1,.07.65,1.63,1.63,0,0,1-.16.64,2.39,2.39,0,0,1-.24.44c-.09.15-.18.3-.25.44a3.45,3.45,0,0,0-.16.37c0,.1,0,.18,0,.23l.24.06.42.09a.79.79,0,0,1,.27.08s0,0-.2.06L130.6,71a.69.69,0,0,0-.26,0l-.32.1-.29.07a.23.23,0,0,1-.19,0,.68.68,0,0,1-.16-.45,4.25,4.25,0,0,1,0-.71,3.37,3.37,0,0,1,.14-.73,1.33,1.33,0,0,1,.22-.49l1.47-1.64a.85.85,0,0,0,.2-.47.5.5,0,0,0-.14-.47.63.63,0,0,0-.31-.14.31.31,0,0,0-.3.09l-2.64,3s0-.08,0-.16l.56-.59.56-.61q.4-.47.78-.93a10.68,10.68,0,0,0,.7-1,.28.28,0,0,1,0-.36.29.29,0,0,1,.2-.11.68.68,0,0,0,.25-.07l.56-.63.18-.21.25-.32c.09-.11.18-.22.25-.32l.18-.21,0-.05a.58.58,0,0,0-.26-.13,1.45,1.45,0,0,0-.35-.07,1,1,0,0,0-.34,0,.38.38,0,0,0-.22.11,1,1,0,0,0-.23.46,2.64,2.64,0,0,1-.17.52,5.35,5.35,0,0,1-.25.53,2.9,2.9,0,0,1-.37.5,2.78,2.78,0,0,1-.91.69,5.13,5.13,0,0,1-1,.32c-.36.06-.73.11-1.11.14a9.19,9.19,0,0,0-1.14.16l-.29.12-.38.13-.48.16-.06-.05a2.65,2.65,0,0,0,0-1.69,3.09,3.09,0,0,0-.9-1.42,4.52,4.52,0,0,0-.48-.37,1.32,1.32,0,0,0-.41-.18,1.28,1.28,0,0,0-.44,0,3.76,3.76,0,0,0-.57.15l-.25.27a1.64,1.64,0,0,0-.41.86,2.56,2.56,0,0,0,.06,1,4.26,4.26,0,0,0,.38.92,7.23,7.23,0,0,0,.53.79l.63.56a6.78,6.78,0,0,0,1.81,1.18,5.33,5.33,0,0,0,2.13.42l.08.07,0,.05c0,.06-.1.07-.13,0a6.34,6.34,0,0,1-2.32-.18,4.94,4.94,0,0,1-2-1.14,4.57,4.57,0,0,1-.84-1,4.12,4.12,0,0,1-.55-1.21A3,3,0,0,1,121.1,65a2.3,2.3,0,0,1,.58-1.18A2.24,2.24,0,0,1,122.81,63.14Zm8.6,2.68a1.36,1.36,0,0,0,.4.28,1.26,1.26,0,0,0,.51.11.59.59,0,0,0,.45-.21.9.9,0,0,0,.17-.39,2.94,2.94,0,0,0,.12-.63,3.56,3.56,0,0,0,0-.65.66.66,0,0,0-.16-.42l0,0s-.07,0-.13,0-.09,0-.1,0l-.46.51a3.71,3.71,0,0,1-.26.28c-.08.09-.17.17-.24.26a4.35,4.35,0,0,0-.39.5A.34.34,0,0,0,131.41,65.82Z"/><path class="cls-1" d="M136,68.55a.33.33,0,0,0,0-.35.32.32,0,0,0-.34-.14.34.34,0,0,1-.33-.13,1.05,1.05,0,0,1,.47-.07,6.72,6.72,0,0,1,.87,0,7.06,7.06,0,0,1,.88.14,1,1,0,0,1,.52.21l0,.06a.45.45,0,0,1,.06.41,3.58,3.58,0,0,1-.14.54q-.09.26-.18.48a.68.68,0,0,0-.08.23l.75.17-.18.13h-.55a2.52,2.52,0,0,0-.56.07l-.69.5-.67.52-1.32,1-.23.19-.38.31a3.59,3.59,0,0,0-.39.39,1.42,1.42,0,0,0-.25.39.31.31,0,0,0,0,.32l0,0a.67.67,0,0,0,.19.1.48.48,0,0,1,.17.08l.05.06a1,1,0,0,1-.43,0l-.8-.08-.78-.11L131.4,74l-.05-.06a5,5,0,0,1,.06-.84,2,2,0,0,1,.21-.62A1.81,1.81,0,0,1,132,72a7.76,7.76,0,0,1,.68-.57l.36-.28.71-.57.82-.67.76-.62.49-.41A1.24,1.24,0,0,0,136,68.55Zm3.66-2.16a1,1,0,0,1,.88,1.11,1.11,1.11,0,0,1-.41.63,1.14,1.14,0,0,1-.69.23.76.76,0,0,1-.63-.32,1,1,0,0,1-.24-.73.9.9,0,0,1,.37-.65A1.15,1.15,0,0,1,139.68,66.39Z"/><path class="cls-1" d="M133.59,74.16h.28a1.71,1.71,0,0,0,.32,0,.63.63,0,0,0,.3-.1L138,71.94a.88.88,0,0,0,.15-.14.94.94,0,0,0,.16-.23.82.82,0,0,0,.1-.26.24.24,0,0,0,0-.22l-.23-.15-.06-.1a1.63,1.63,0,0,0,.33,0l.78.11c.28,0,.56.12.82.19a.82.82,0,0,1,.47.26l0,0a.49.49,0,0,1-.05.46,5.65,5.65,0,0,1-.35.62c-.14.22-.26.41-.38.58s-.16.28-.14.31a.74.74,0,0,0,.25.12l.52.21L141,74l.39.16.18,0,.35.09a3.21,3.21,0,0,0,.35.1c.1,0,.16,0,.17.07v0a.37.37,0,0,1,0,.34,3.56,3.56,0,0,1-.19.47c-.07.17-.15.33-.22.48a1,1,0,0,0-.11.37l.82.28-.23.14a5,5,0,0,0-.86-.07,1.63,1.63,0,0,0-.84.24l-3.22,2a.87.87,0,0,0-.2.16,1.08,1.08,0,0,0-.18.24,1.11,1.11,0,0,0-.13.27.26.26,0,0,0,0,.23l.52.14.08.13a.62.62,0,0,1-.49,0l-1.42-.34a.6.6,0,0,1-.16,0,1.05,1.05,0,0,1-.24-.06l-.22-.05c-.07,0-.1,0-.1,0l0,0,.26-1.22a.82.82,0,0,1,.3-.48,3.79,3.79,0,0,1,.5-.35l.36-.23,1.07-.62c.46-.26.92-.55,1.36-.85a7.69,7.69,0,0,0,1.1-.89c.3-.29.39-.52.28-.69a.57.57,0,0,0-.24-.22,1.4,1.4,0,0,0-.36-.13,1.57,1.57,0,0,0-.37-.05.68.68,0,0,0-.31.06c-.12,0-.32.16-.61.32l-.93.54-.93.55-.61.37-.16.1a1.34,1.34,0,0,0-.35.3,1.24,1.24,0,0,0-.18.31,2.86,2.86,0,0,0-.12.27.36.36,0,0,1-.1.15.3.3,0,0,1-.22,0l-.35-.14a3,3,0,0,1-.36-.14.8.8,0,0,0-.29-.08,1.24,1.24,0,0,0-.41,0c-.16,0-.26,0-.29-.06l0-.06a3.13,3.13,0,0,0,.3-.91,3.25,3.25,0,0,0,0-1l.09-.05A.32.32,0,0,1,133.59,74.16Z"/><path class="cls-1" d="M140.62,82.59l.23-.24a1.28,1.28,0,0,0,.16-.27.31.31,0,0,0,0-.28l-.36-.89-2.14.87a.45.45,0,0,0-.23.19.76.76,0,0,0-.11.22c0,.07-.05.14-.07.2a.2.2,0,0,1-.13.14.93.93,0,0,1-.3-.13l-.57-.32-.54-.3c-.16-.09-.24-.12-.23-.09s0-.09,0-.19l.16-.33c.06-.13.11-.26.16-.39a1.35,1.35,0,0,0,.07-.35,1,1,0,0,1,0-.28,2.58,2.58,0,0,1,0-.29l.17-.07a2.69,2.69,0,0,0,.45.14.8.8,0,0,0,.51,0l7.24-3a1.4,1.4,0,0,1,.83-.08,2.36,2.36,0,0,1,.78.31,2.93,2.93,0,0,1,1.07,1.26,2.56,2.56,0,0,1,.15.56,1.62,1.62,0,0,1,0,.58,1.16,1.16,0,0,1-.21.5,1.14,1.14,0,0,1-.49.36.82.82,0,0,1-.65,0,.81.81,0,0,1-.45-1,.83.83,0,0,1,.44-.4,1,1,0,0,1,.49-.08,2.12,2.12,0,0,1,.49.16.16.16,0,0,0,0-.15l-.05-.13a.49.49,0,0,0-.34-.32,1.38,1.38,0,0,0-.54,0,3.36,3.36,0,0,0-.63.18l-.64.24-.41.17-.46.19a4,4,0,0,0-.45.19l-.44.21a2.18,2.18,0,0,0-.33.2c-.09.06-.13.11-.11.14l0,.07a7.64,7.64,0,0,1,1.07.71,4.91,4.91,0,0,0,1.16.68v0s0,.11-.1.26a4.73,4.73,0,0,1-.33.5,4.32,4.32,0,0,1-.44.52,1.45,1.45,0,0,1-.49.35,1.85,1.85,0,0,1-.71.17,1.64,1.64,0,0,1-.55-.12,5.16,5.16,0,0,1-.53-.26,3.72,3.72,0,0,0-.63-.27s0,.07,0,.09c0,.2,0,.41,0,.62a2.49,2.49,0,0,1-.16.61,1.84,1.84,0,0,1-.32.54,1.35,1.35,0,0,1-.54.38l-.68.28a2.42,2.42,0,0,0-.3.23c-.14.11-.19.21-.16.3a.32.32,0,0,0,.15.19.32.32,0,0,1,.15.17h-.23l-1.83-.79a.45.45,0,0,1,0-.23c0-.08,0-.15,0-.22a1.76,1.76,0,0,1,.63-1.07,4.9,4.9,0,0,1,1.11-.61l.49-.2.49-.19Zm.45-1.91c-.06,0-.08.09-.06.13l.35.85a.53.53,0,0,0,.22.25,1.07,1.07,0,0,0,.36.1,1.21,1.21,0,0,0,.38,0,1.73,1.73,0,0,0,.31-.08,1.35,1.35,0,0,0,.35-.21,2.13,2.13,0,0,0,.33-.34,1.23,1.23,0,0,0,.21-.39.61.61,0,0,0,0-.4.58.58,0,0,0-.41-.37,1.84,1.84,0,0,0-.62,0,2.73,2.73,0,0,0-.64.16l-.46.17-.13,0A1.51,1.51,0,0,0,141.07,80.68Z"/><path class="cls-1" d="M144.69,84.54a.35.35,0,0,0,.12-.33.33.33,0,0,0-.27-.26.36.36,0,0,1-.26-.25,1,1,0,0,1,.46.12,6.18,6.18,0,0,1,.8.37c.27.14.53.3.76.45s.37.29.4.39l0,.07a.52.52,0,0,1-.1.41,2.66,2.66,0,0,1-.33.44,4.5,4.5,0,0,1-.35.38c-.11.11-.16.17-.15.19l.63.43-.22.06-.51-.2a3,3,0,0,0-.55-.15l-.83.22-.82.23-1.6.47-.29.08-.47.15a3.75,3.75,0,0,0-.5.21,1.36,1.36,0,0,0-.37.27.29.29,0,0,0-.09.32v0a.7.7,0,0,0,.14.16l.14.14,0,.07c-.05,0-.18,0-.4-.14l-.72-.38-.68-.39a1.4,1.4,0,0,1-.31-.19l0-.07a4.56,4.56,0,0,1,.36-.76,1.92,1.92,0,0,1,.43-.5,2.24,2.24,0,0,1,.57-.33,7.91,7.91,0,0,1,.85-.27l.44-.13.87-.26,1-.32.93-.29.61-.2A1.08,1.08,0,0,0,144.69,84.54Zm4.21-.64a.88.88,0,0,1,.48.62.84.84,0,0,1-.09.73,1,1,0,0,1-.61.43,1.11,1.11,0,0,1-.72,0,.78.78,0,0,1-.47-.54,1,1,0,0,1,0-.76.9.9,0,0,1,.6-.46A1.13,1.13,0,0,1,148.9,83.9Z"/><path class="cls-1" d="M140.35,88.86l.26.13.29.11a.87.87,0,0,0,.32,0l4.06-.67a.59.59,0,0,0,.2-.07.79.79,0,0,0,.23-.14.93.93,0,0,0,.19-.21.26.26,0,0,0,.07-.21l-.16-.23,0-.11.29.17c.2.11.43.24.67.39a7.63,7.63,0,0,1,.69.49c.21.17.33.3.34.41v0c0,.12,0,.25-.22.4a5.49,5.49,0,0,1-.56.45l-.56.4c-.17.12-.25.19-.25.23a1,1,0,0,0,.18.2l.41.4.44.43.3.29.15.11.29.22.28.22a.6.6,0,0,1,.14.13v0a.4.4,0,0,1-.13.31l-.36.37q-.19.19-.39.36a1.11,1.11,0,0,0-.24.3l.66.56-.26,0a6.31,6.31,0,0,0-.78-.39A1.56,1.56,0,0,0,146,94l-3.73.6a1.68,1.68,0,0,0-.24.08,1,1,0,0,0-.26.16,1.44,1.44,0,0,0-.22.19.28.28,0,0,0-.07.22l.43.34,0,.14a.59.59,0,0,1-.47-.15l-1.18-.85a.25.25,0,0,1-.14-.07l-.21-.14a1.79,1.79,0,0,0-.18-.14c-.06,0-.09,0-.09,0v0l.69-1a.88.88,0,0,1,.47-.33,4.56,4.56,0,0,1,.59-.14l.42-.07,1.22-.17c.53-.08,1.06-.17,1.58-.28a8.22,8.22,0,0,0,1.36-.41c.38-.16.55-.34.52-.54a.56.56,0,0,0-.14-.29,2.33,2.33,0,0,0-.28-.26,1.59,1.59,0,0,0-.34-.18.59.59,0,0,0-.3-.06,6.76,6.76,0,0,0-.69.06l-1.07.15-1.06.17-.71.12-.18,0a1.14,1.14,0,0,0-.43.14,1.79,1.79,0,0,0-.3.22l-.2.2c-.06.06-.11.1-.16.1s-.11,0-.19-.1l-.27-.25-.29-.28a.64.64,0,0,0-.23-.17,1.16,1.16,0,0,0-.37-.18c-.15-.06-.24-.11-.25-.17v-.07a3.17,3.17,0,0,0,.62-.73,3.33,3.33,0,0,0,.35-.92h.1A.44.44,0,0,1,140.35,88.86Z"/><path class="cls-1" d="M148.42,98.69a3,3,0,0,1-.62.43,5.62,5.62,0,0,1-.73.3,2.09,2.09,0,0,1-.6.12,2.34,2.34,0,0,1-1.08-.2,4.53,4.53,0,0,1-1-.58,7.77,7.77,0,0,1-.85-.77l-.77-.75h-.1a.74.74,0,0,0-.39.18,2.56,2.56,0,0,0-.42.39,4.26,4.26,0,0,0-.34.43.63.63,0,0,0-.13.34.58.58,0,0,0,.19.44,2.59,2.59,0,0,1,.35.38v.19h-.07a1.41,1.41,0,0,1-.24-.2,2.7,2.7,0,0,1-.34-.34,3.83,3.83,0,0,0-.28-.3l-.49-.55c-.18-.2-.33-.39-.47-.58a.88.88,0,0,1-.21-.36v0a2.18,2.18,0,0,1,.43-.71,4,4,0,0,1,.72-.64,4.39,4.39,0,0,1,.85-.46,2.42,2.42,0,0,1,.8-.19l2.47-.08a1.73,1.73,0,0,1,1.09.32,4.75,4.75,0,0,1,.88.81c.28.32.54.65.79,1a4.83,4.83,0,0,0,.79.87v0A.69.69,0,0,1,148.42,98.69Zm-5.06-1.4a.5.5,0,0,0,.19.36A1.82,1.82,0,0,0,144,98a2.74,2.74,0,0,0,.53.23,1.37,1.37,0,0,0,.44.08,2.57,2.57,0,0,0,.48-.08,4.68,4.68,0,0,0,.67-.21,2.89,2.89,0,0,0,.6-.33.54.54,0,0,0,.25-.43v0c0-.07,0-.12-.17-.15a2,2,0,0,0-.39-.06h-.45l-.36,0L145,97l-.77,0-.86.09A.32.32,0,0,0,143.36,97.29Z"/><path class="cls-1" d="M140.61,99.8a3,3,0,0,0-.2-.29,2.32,2.32,0,0,1-.21-.25.32.32,0,0,1-.09-.2V99a1.19,1.19,0,0,1,.65.28,3.13,3.13,0,0,1,.58.62,3.76,3.76,0,0,1,.41.76,1.61,1.61,0,0,1,.12.71,3.66,3.66,0,0,1-.16.85,1.78,1.78,0,0,1-.5.72l.07.08,2.08.15a.55.55,0,0,0,.42-.17.59.59,0,0,0,.21-.4.7.7,0,0,0-.09-.38c-.07-.13-.14-.27-.23-.42a3.35,3.35,0,0,1-.21-.47,1.22,1.22,0,0,1-.07-.54,1,1,0,0,1,.19-.53,1.45,1.45,0,0,1,.4-.38,1.7,1.7,0,0,1,.53-.24,1.56,1.56,0,0,1,.56,0,1.81,1.81,0,0,1,.84.25,2.58,2.58,0,0,1,.6.54,3.7,3.7,0,0,1,.43.73c.13.27.27.54.41.81a6,6,0,0,0,.43.7,3,3,0,0,1,.4.74.25.25,0,0,1-.13.15l-.27.15a.9.9,0,0,0-.27.21.55.55,0,0,0-.13.34.57.57,0,0,0,.08.41,1.18,1.18,0,0,0,.25.25l.25.21a.29.29,0,0,1,.1.25,1.73,1.73,0,0,1-.72-.21,2.85,2.85,0,0,1-.7-.49,2.55,2.55,0,0,1-.5-.67,1.41,1.41,0,0,1-.16-.77v0a1,1,0,0,1,.13-.33c.08-.14.16-.29.25-.43s.14-.26.19-.36,0-.16,0-.17l-1.66-.12a.62.62,0,0,0-.36.1.35.35,0,0,0-.21.27.73.73,0,0,0,.1.42,3.77,3.77,0,0,0,.25.41,3.09,3.09,0,0,1,.24.44,1.2,1.2,0,0,1,.09.55,1.14,1.14,0,0,1-.24.66,1.38,1.38,0,0,1-.51.41,2,2,0,0,1-.67.18,4.24,4.24,0,0,1-.71,0h-.07l-.63-.09a1.74,1.74,0,0,1-.56-.18,1.18,1.18,0,0,1-.51-.48,5.3,5.3,0,0,1-.34-.72l-.27-.76a1.6,1.6,0,0,0-.31-.57,1.19,1.19,0,0,0-.1-.17c-.05-.06-.1-.14-.15-.21l-.13-.23a.32.32,0,0,1-.05-.16v-.08a7.25,7.25,0,0,0,.67-.62,1.16,1.16,0,0,0,.29-.78A.51.51,0,0,0,140.61,99.8Z"/><path class="cls-1" d="M140.18,105a1.87,1.87,0,0,0-.17-.31l-.17-.28a.28.28,0,0,1-.07-.21l0-.07a1.19,1.19,0,0,1,.61.36,3.21,3.21,0,0,1,.5.69,3.08,3.08,0,0,1,.31.81,1.6,1.6,0,0,1,0,.71,3.51,3.51,0,0,1-.27.83,1.75,1.75,0,0,1-.58.64l.06.09,2,.41a.58.58,0,0,0,.44-.11.64.64,0,0,0,.26-.38.74.74,0,0,0,0-.38c-.06-.14-.11-.29-.18-.45a3.51,3.51,0,0,1-.15-.49,1.28,1.28,0,0,1,0-.55,1,1,0,0,1,.24-.5,1.39,1.39,0,0,1,.46-.33,1.68,1.68,0,0,1,.55-.17,1.72,1.72,0,0,1,.56,0,1.77,1.77,0,0,1,.81.35,2.34,2.34,0,0,1,.52.61,3.59,3.59,0,0,1,.34.77l.31.87a5.26,5.26,0,0,0,.34.74,3.13,3.13,0,0,1,.3.78c0,.06-.06.1-.15.13l-.28.12a.92.92,0,0,0-.3.18.55.55,0,0,0-.17.32.64.64,0,0,0,0,.42,1.18,1.18,0,0,0,.22.28l.22.23a.31.31,0,0,1,.07.27,2.26,2.26,0,0,1-.69-.3,2.85,2.85,0,0,1-.63-.57,2.66,2.66,0,0,1-.42-.73,1.52,1.52,0,0,1-.06-.79v0a.83.83,0,0,1,.16-.31l.3-.39a3.73,3.73,0,0,0,.24-.34c.06-.1.06-.16,0-.17l-1.63-.33a.65.65,0,0,0-.37.06.32.32,0,0,0-.24.24.7.7,0,0,0,0,.43c.06.14.12.29.2.44s.13.3.19.47a1.13,1.13,0,0,1,0,.55,1.17,1.17,0,0,1-.31.63,1.46,1.46,0,0,1-.56.34,1.9,1.9,0,0,1-.68.1,4,4,0,0,1-.71-.07l-.08,0-.61-.17a1.48,1.48,0,0,1-.53-.24,1.17,1.17,0,0,1-.45-.55,4.12,4.12,0,0,1-.24-.75c-.07-.27-.12-.53-.18-.78a1.5,1.5,0,0,0-.24-.61.83.83,0,0,0-.08-.18l-.12-.23-.1-.24a.29.29,0,0,1,0-.17v-.07a8.53,8.53,0,0,0,.74-.54,1.22,1.22,0,0,0,.39-.73A.57.57,0,0,0,140.18,105Z"/><path class="cls-1" d="M140.26,109.93a3.8,3.8,0,0,1,.62,1.24,4.81,4.81,0,0,1,.18,1.42,4.24,4.24,0,0,1-.24,1.32,3.65,3.65,0,0,1-1,1.44,8.18,8.18,0,0,1-1.4,1l0,.07a.26.26,0,0,0,0,.23.65.65,0,0,0,.17.2,1.14,1.14,0,0,0,.23.15l.2.09.33.11a.9.9,0,0,0,.33,0L142,117l.33,0h.33l.48.18a2.85,2.85,0,0,1,1.21.83,4.85,4.85,0,0,1,.75,1.28c0,.06,0,.16.08.29a1.7,1.7,0,0,1,0,.23l-.05.14a1,1,0,0,1-.4-.27.93.93,0,0,0-.39-.26,1.9,1.9,0,0,0-1-.09l-1,.2a3.35,3.35,0,0,1-1,0,4.86,4.86,0,0,1-1-.25,3.27,3.27,0,0,1-1.25-.78,3.9,3.9,0,0,1-.67-1,7.63,7.63,0,0,1-.41-1.25,8.26,8.26,0,0,0-.44-1.36l-.11-.2-.18-.29a3.09,3.09,0,0,1-.17-.29c0-.09-.06-.16,0-.19s.07-.05.18-.1l.4-.16.42-.17a1.22,1.22,0,0,0,.27-.12,3.09,3.09,0,0,0,.86-.78,4,4,0,0,0,.55-1,2.25,2.25,0,0,0,.09-1.29,1.66,1.66,0,0,0-.29-.54,1.32,1.32,0,0,0-.54-.38,1.58,1.58,0,0,0-1.15,0,2.55,2.55,0,0,0-.95.66,4.62,4.62,0,0,0-.72,1,7.32,7.32,0,0,0-.49,1,6.49,6.49,0,0,0-.41,2,5.53,5.53,0,0,0,.34,2l-.05.14-.06-.06s0,0-.08-.07a6.24,6.24,0,0,1-.68-2.13,4.35,4.35,0,0,1,.26-2.19,4.85,4.85,0,0,1,.62-1.16,4.57,4.57,0,0,1,.93-1,3,3,0,0,1,1.16-.56,2.23,2.23,0,0,1,1.34.11A2.57,2.57,0,0,1,140.26,109.93Zm8.35,4.09a2.77,2.77,0,0,1,.45,1,3.45,3.45,0,0,1,.11,1.07,3.62,3.62,0,0,1-.2,1,3.36,3.36,0,0,1-.67,1.11,7.94,7.94,0,0,1-.94.88l-.53.41a1,1,0,0,0-.39.5.76.76,0,0,0,0,.45.4.4,0,0,0,.28.32.43.43,0,0,0,.4,0,3.62,3.62,0,0,1,.32-.22l.14.05a.62.62,0,0,1-.52.42,1.31,1.31,0,0,1-.69,0,1.22,1.22,0,0,1-.6-.53,3.1,3.1,0,0,1-.34-.73,2.17,2.17,0,0,1-.06-.94,4.78,4.78,0,0,1,.25-.91,2.23,2.23,0,0,1,.6-.92,6.89,6.89,0,0,1,.81-.64c.27-.2.54-.4.79-.6a2,2,0,0,0,.55-.81.83.83,0,0,0,0-.77,1.25,1.25,0,0,0-.65-.51,1.11,1.11,0,0,0-.82,0,1.87,1.87,0,0,0-.67.46,3,3,0,0,0-.5.71,6.26,6.26,0,0,0-.33.73,2,2,0,0,0-.11.49c0,.14,0,.29,0,.42s0,.26,0,.38a1.16,1.16,0,0,1-.07.37q-.16-.06-.24-.36a3.09,3.09,0,0,1-.09-.64,3.79,3.79,0,0,1,0-.68,2,2,0,0,1,.09-.49,2.46,2.46,0,0,1,.45-.76,2.83,2.83,0,0,1,.67-.58,2.18,2.18,0,0,1,.82-.29,1.87,1.87,0,0,1,.9.11A1.75,1.75,0,0,1,148.61,114Z"/><path class="cls-1" d="M137.11,117.85l.12.26a1.91,1.91,0,0,0,.15.28.69.69,0,0,0,.23.22l3.53,2.11a1.11,1.11,0,0,0,.2.07,1.26,1.26,0,0,0,.28,0,.84.84,0,0,0,.27,0,.29.29,0,0,0,.19-.12l0-.27.06-.1a1.88,1.88,0,0,0,.12.31l.26.74a6.93,6.93,0,0,1,.21.81.78.78,0,0,1,0,.54l0,0c-.06.1-.21.15-.43.16a5.68,5.68,0,0,1-.71,0l-.69-.06c-.21,0-.32,0-.34,0a.82.82,0,0,0,0,.27c0,.16,0,.35.05.56s0,.42.07.61,0,.34,0,.42,0,.07,0,.18.06.23.09.36a3.09,3.09,0,0,0,.07.35.46.46,0,0,1,0,.18l0,0a.42.42,0,0,1-.3.15l-.51.05-.53,0a1.07,1.07,0,0,0-.38.07l.14.86-.23-.14a8,8,0,0,0-.34-.8,1.58,1.58,0,0,0-.61-.62l-3.24-1.93a.83.83,0,0,0-.23-.1,1,1,0,0,0-.3,0,1.33,1.33,0,0,0-.29,0,.29.29,0,0,0-.2.13l.12.53-.08.12a.6.6,0,0,1-.27-.41l-.35-1.41a.42.42,0,0,1-.07-.15l-.06-.24c0-.09,0-.16,0-.23s0-.08-.06-.07l0,0,1.2-.35a.94.94,0,0,1,.57,0,4.53,4.53,0,0,1,.54.27l.36.22c.25.15.6.36,1.05.65s.92.56,1.4.81a8.41,8.41,0,0,0,1.29.56c.4.12.65.1.75-.08a.59.59,0,0,0,.08-.31,1.65,1.65,0,0,0,0-.38,1.42,1.42,0,0,0-.14-.36.61.61,0,0,0-.2-.24,3.22,3.22,0,0,0-.57-.39l-.91-.57-.92-.56-.61-.37-.16-.09a1.32,1.32,0,0,0-.43-.17,1.5,1.5,0,0,0-.36,0l-.29,0a.25.25,0,0,1-.18,0s-.07-.09-.09-.2,0-.24,0-.37,0-.27,0-.39a.91.91,0,0,0-.06-.29,1.67,1.67,0,0,0-.17-.37c-.09-.15-.12-.24-.09-.29l0-.07a2.87,2.87,0,0,0,.95-.16,3.45,3.45,0,0,0,.85-.47l.09.05A.3.3,0,0,1,137.11,117.85Z"/><path class="cls-1" d="M138.4,127.71a.53.53,0,0,0,.22-.12.63.63,0,0,1,.2-.13q.1,0,.27.09c.12.09.19.18.19.26a.5.5,0,0,1-.05.21l-.1.19a.15.15,0,0,0,0,.17l.4.51a3.11,3.11,0,0,1,.32.52,1.51,1.51,0,0,1,.15.58,4,4,0,0,1,0,.6c0,.2-.05.4-.08.6a3.79,3.79,0,0,0,0,.58s0,.1,0,.19a2.54,2.54,0,0,1,0,.29c0,.09,0,.19.05.28a1,1,0,0,1,0,.19l-.12.15a1.74,1.74,0,0,0-.49-.05.57.57,0,0,0-.42.26.43.43,0,0,0-.08.4.42.42,0,0,1-.07.37,1.55,1.55,0,0,1-.41-.5,1.82,1.82,0,0,1-.22-.63,1.88,1.88,0,0,1,0-.67,1.39,1.39,0,0,1,.27-.59.7.7,0,0,1,.35-.23.79.79,0,0,0,.35-.24,1.62,1.62,0,0,0,0-.18l-.38-.3c-.15-.12-.27-.22-.38-.29A2.73,2.73,0,0,0,138,130l-.17.05a1.49,1.49,0,0,0-.2.31,2.29,2.29,0,0,1-.2.31.25.25,0,0,1-.14.08.19.19,0,0,1-.17,0l-.15-.12a.46.46,0,0,1-.2-.33.83.83,0,0,1,.07-.34,2.14,2.14,0,0,1,.17-.3l.14-.2s0-.07-.07-.14l-.22-.23-.29-.27-.25-.21-3.73-3-.06-.1a2.11,2.11,0,0,0,0-1.66,3.56,3.56,0,0,0-1-1.16l-.44-.36a5.63,5.63,0,0,1-.45-.38l.06-.08c.09.07.24.19.48.36l.74.56c.26.19.51.38.73.56l.47.36,4.89,3.89,0,0A.41.41,0,0,0,138.4,127.71Z"/><path class="cls-1" d="M133.5,127.73c.24.2.49.42.76.68a3.88,3.88,0,0,1,.87,1.18,2.32,2.32,0,0,1,.15,1.44c0,.07,0,.22-.07.46s-.08.49-.11.76-.08.49-.11.69,0,.31,0,.3l0,.06-.89.16a7.46,7.46,0,0,1-.95.1,3.59,3.59,0,0,1-.93-.1,1.91,1.91,0,0,1-.82-.46l-2-1.9a1.49,1.49,0,0,1-.4-.76,2.08,2.08,0,0,1-.05-.84l.31-1.62a.31.31,0,0,0,.05-.24c0-.11,0-.24-.05-.38s0-.25,0-.37,0-.18,0-.2a.53.53,0,0,1,.22-.06,4.35,4.35,0,0,1,.46-.06l.55,0,.51-.07a1.53,1.53,0,0,1,.94.12c.31.14.59.29.86.43S133.27,127.52,133.5,127.73Zm-2.12.89a3.75,3.75,0,0,0-.68-.16,2.47,2.47,0,0,0-.66,0,.8.8,0,0,0-.49.22.15.15,0,0,0,0,.06s0,0,0,.08l2.48,2.33.22.18.22.18a1.57,1.57,0,0,0,.4.1,4.44,4.44,0,0,0,.65.08,2.78,2.78,0,0,0,.65,0c.2,0,.32-.08.37-.17l.06-.11-.2-.19a3.63,3.63,0,0,0-.28-.27l-.27-.27-.17-.18-.27-.25-.31-.28-.45-.41-.44-.41-.29-.26A2.09,2.09,0,0,0,131.38,128.62Zm2.67,3.91a0,0,0,0,0,0,0h0s0,0,0,0h0Z"/><path class="cls-1" d="M127.82,129.45l.11-.1a.46.46,0,0,1,.08.31c0,.13,0,.28,0,.43s0,.3,0,.45a.57.57,0,0,0,.13.37l2.47,3,.18.18a1,1,0,0,0,.24.16.68.68,0,0,0,.27.07.29.29,0,0,0,.23-.07.39.39,0,0,0,.13-.33.36.36,0,0,1,.13-.32.65.65,0,0,1,.15.36,1.51,1.51,0,0,1,0,.42,3.6,3.6,0,0,1-.12.44,2.27,2.27,0,0,0-.09.38s0,.08,0,.19,0,.22,0,.34,0,.23,0,.33a.57.57,0,0,1,0,.18l0,0a.48.48,0,0,1-.41.07,2.81,2.81,0,0,1-.55-.15l-.5-.18c-.16,0-.26-.06-.3,0a.34.34,0,0,0-.09.31,4.49,4.49,0,0,0,.06.48c0,.17,0,.32.06.47a.32.32,0,0,1-.07.3.94.94,0,0,0-.4-.13.55.55,0,0,0-.36.13c-.19.17-.29.31-.28.44a4.27,4.27,0,0,0,.07.57.07.07,0,0,1-.1,0l-.08-.08a2.71,2.71,0,0,1-.4-.65A1.91,1.91,0,0,1,128,137a1.61,1.61,0,0,1,.09-.69,1.34,1.34,0,0,1,.43-.58,1.17,1.17,0,0,1,.29-.2,1.45,1.45,0,0,0,.26-.17l.06-.05s0,0,0,0l-2.43-2.9a.48.48,0,0,0-.21-.12,3.15,3.15,0,0,0-.36-.09,2.58,2.58,0,0,0-.36-.05.33.33,0,0,0-.22,0l-.28.24a.92.92,0,0,0,0,.19c0,.08,0,.18,0,.28a1.33,1.33,0,0,1-.06.3.48.48,0,0,1-.13.22l0-.08a.74.74,0,0,1-.06-.14l.32-3.05.08-.06a.54.54,0,0,1,.2,0h.27a4.26,4.26,0,0,1,.91.11,8.3,8.3,0,0,1,.86.28l0,0,0,0Z"/><path class="cls-1" d="M124.36,133.73a1.13,1.13,0,0,0,.1.53l.23.42.37.66c.13.23.25.44.36.65s.19.35.24.43l.77,1.36a1.37,1.37,0,0,0,.32.4.38.38,0,0,0,.47.08.4.4,0,0,0,.12-.11.6.6,0,0,1,.12-.11.07.07,0,0,1,.1,0l0,0s0,.11,0,.24a3.37,3.37,0,0,1-.17.42l-.21.44c-.06.14-.11.24-.13.31l-.22.8-.12.07c-.07.05-.19,0-.37-.1s-.38-.25-.58-.39l-.58-.41c-.18-.12-.31-.17-.37-.13l0,0c-.15.44-.31.87-.5,1.3a8.53,8.53,0,0,0-.44,1.35l-.07,0a.44.44,0,0,1-.4-.06c-.18-.09-.36-.2-.55-.32l-.55-.31c-.17-.09-.29-.12-.37-.08l-.06,0a2.2,2.2,0,0,0-.13.24c-.06.12-.13.24-.19.37l-.2.36-.14.25a1.34,1.34,0,0,0-.1.29c0,.12-.07.25-.11.39s-.07.25-.1.35-.06.16-.1.18l-.06,0a.43.43,0,0,1-.39,0l-.53-.24-.5-.27c-.15-.08-.25-.1-.29-.08a.23.23,0,0,0-.11.14q0,.09-.06.21a1.29,1.29,0,0,1-.07.21.33.33,0,0,1-.15.16l-.07-.12a4.57,4.57,0,0,0,.14-.72,1.15,1.15,0,0,0-.14-.69l-2.26-4a.55.55,0,0,0-.28-.23.42.42,0,0,0-.35,0,.28.28,0,0,0-.16.24.3.3,0,0,1-.16.24.69.69,0,0,1,0-.46,6,6,0,0,1,.21-.7l.27-.71a2.17,2.17,0,0,0,.15-.52l.09-.05a.65.65,0,0,1,.5,0,2.43,2.43,0,0,1,.61.26,2.91,2.91,0,0,1,.57.4,1.64,1.64,0,0,1,.35.4l2.27,4a1.18,1.18,0,0,0,.4.4.49.49,0,0,0,.51,0,.8.8,0,0,0,.37-.63,1.15,1.15,0,0,0-.13-.73l-1.85-3.25a.58.58,0,0,0-.2-.21l-.27-.16-.24-.13a.42.42,0,0,1-.17-.15.17.17,0,0,1,0-.17,1.57,1.57,0,0,1,.12-.21l.15-.2a.41.41,0,0,0,.1-.18,1.11,1.11,0,0,0,.06-.26c0-.13,0-.26,0-.4s0-.26.05-.38a.4.4,0,0,1,.07-.19h0a5.07,5.07,0,0,0,.64.37,1.72,1.72,0,0,0,.72.15.83.83,0,0,0,.29-.06.17.17,0,0,1,.23.07.59.59,0,0,1,0,.38c0,.17,0,.3,0,.38l.51,1c.15.29.31.59.48.89l.38.66.68,1.19.15.18a1.56,1.56,0,0,0,.22.23,1,1,0,0,0,.26.15.32.32,0,0,0,.27,0l.09-.05c.08-.23.15-.45.22-.63a.94.94,0,0,0,0-.62l-.29-.52c-.14-.26-.28-.52-.44-.8s-.29-.55-.43-.8l-.29-.52s0-.08-.06-.17l-.1-.17c-.08-.14-.17-.28-.26-.42a1.4,1.4,0,0,0-.36-.37.66.66,0,0,0-.27-.12.34.34,0,0,1-.22-.14,1.62,1.62,0,0,1,.1-.36c.08-.22.16-.45.24-.71s.15-.48.2-.67,0-.29,0-.25a.14.14,0,0,1,.14,0,.66.66,0,0,1,.19.09l.18.11a.29.29,0,0,0,.1.06.74.74,0,0,0,.37.1l.47,0a2.67,2.67,0,0,1,.42,0c.13,0,.2,0,.22.07l0,.06A3.18,3.18,0,0,0,124.36,133.73Z"/><path class="cls-1" d="M116,139.3c.09.21.17.44.26.68s.17.47.24.68.13.35.15.43l0,.14a2.66,2.66,0,0,1,.17,1.21,2.32,2.32,0,0,1-.33.9,6.38,6.38,0,0,1-.62.83,5.14,5.14,0,0,0-.69,1,1.32,1.32,0,0,0-.08.22c0,.09-.07.19-.11.29a1.69,1.69,0,0,1-.12.27.33.33,0,0,1-.15.16,1,1,0,0,1-.62,0,5.71,5.71,0,0,1-.75-.28l-.67-.31c-.2-.09-.32-.13-.38-.11l-.07,0-.25.4-.18,0c0-.22.11-.43.16-.65a.91.91,0,0,0,0-.47l-.62-1.84c-.09-.26-.18-.54-.28-.84a8.61,8.61,0,0,0-.31-.83,2.72,2.72,0,0,0-.34-.6.33.33,0,0,0-.39-.15.21.21,0,0,0-.14.16.25.25,0,0,1-.18.18,1.3,1.3,0,0,1,.06-.57,8.57,8.57,0,0,1,.27-.87,6.82,6.82,0,0,1,.35-.8c.12-.23.22-.34.28-.33h.08a1.73,1.73,0,0,1,.25.2l.46.4c.16.14.32.26.46.37s.24.15.29.13l.07,0,.62-1a7.16,7.16,0,0,0,.54-1.07l.14,0,1.23.64a1.68,1.68,0,0,1,.53.48,5.65,5.65,0,0,1,.4.6C115.82,138.94,115.88,139.09,116,139.3Zm-2.08.27a2.35,2.35,0,0,0-.3-.33,1.1,1.1,0,0,0-.36-.21.68.68,0,0,0-.4,0,.47.47,0,0,0-.25.21.91.91,0,0,0-.1.33,1.15,1.15,0,0,0,0,.37,1.73,1.73,0,0,0,.07.32l.07.21.18.51c.08.24.18.5.27.77l.28.78c.09.25.15.43.19.53a2.18,2.18,0,0,0,.33.38,2.76,2.76,0,0,0,.46.37,2.55,2.55,0,0,0,.5.24.76.76,0,0,0,.47,0s.07-.07.07-.15a2.19,2.19,0,0,0,0-.31,2.43,2.43,0,0,0-.11-.4c0-.15-.09-.28-.14-.41l-.15-.45-.82-2.45C114,139.8,114,139.69,113.88,139.57Z"/><path class="cls-1" d="M109.58,139.13l.19,0a.57.57,0,0,1,0,.32,1.92,1.92,0,0,1-.14.29,2.39,2.39,0,0,0-.13.28.58.58,0,0,0,0,.32.69.69,0,0,1,0,.2.44.44,0,0,1,0,.2l.89,4.05s0,.1.07.2l.09.29a2.17,2.17,0,0,0,.08.3c0,.1,0,.16.05.2s0,0,.12,0h.46a.28.28,0,0,1,.2.08l0,.22a.9.9,0,0,1,0,.25c0,.12,0,.19,0,.2l-.62.13a.24.24,0,0,0,0,.12.43.43,0,0,0,0,.16c0,.36,0,.68,0,1a2.84,2.84,0,0,1-.16.79,3.12,3.12,0,0,1-.35.71,4.56,4.56,0,0,1-.65.73,2.28,2.28,0,0,1-.33.29,1,1,0,0,1-.36.17.33.33,0,0,1,.08-.35.7.7,0,0,0,.19-.32,2.79,2.79,0,0,0,0-.91c0-.3-.1-.6-.17-.9,0-.09,0-.19-.06-.31a1.13,1.13,0,0,0-.1-.34.58.58,0,0,0-.17-.25.33.33,0,0,0-.3-.05,4,4,0,0,1-.44.05c-.14,0-.23-.1-.28-.34a.77.77,0,0,1,0-.19l0-.09a.71.71,0,0,0,.28,0,1,1,0,0,0,.35-.14c.11-.07.16-.14.14-.22l-1.06-4.88a1,1,0,0,0-.34-.51.63.63,0,0,0-.53-.23c-.07,0-.15.08-.22.2a.89.89,0,0,1-.15.18h0l-.08,0,0-.07a1.5,1.5,0,0,1,.23-.43c.14-.23.29-.47.46-.72s.34-.47.5-.67.25-.3.28-.3l.1,0a.5.5,0,0,1,.29.09c.11.08.24.17.37.28l.43.34a2.46,2.46,0,0,0,.44.28h.08Z"/><path class="cls-1" d="M106.66,146.19a.33.33,0,0,0,.6-.06.36.36,0,0,1,.29-.23,1.33,1.33,0,0,1-.19.44,6.57,6.57,0,0,1-.48.74,8,8,0,0,1-.56.69q-.28.31-.45.33h-.07a.48.48,0,0,1-.38-.15,4.89,4.89,0,0,1-.4-.39c-.12-.14-.23-.28-.32-.4s-.15-.19-.17-.19l-.51.56,0-.22.27-.48a2.66,2.66,0,0,0,.23-.52c0-.28-.06-.56-.1-.85s-.06-.56-.1-.84l-.23-1.66,0-.29c0-.14,0-.3-.08-.49a4.1,4.1,0,0,0-.14-.53,1.49,1.49,0,0,0-.21-.4.31.31,0,0,0-.3-.14h0l-.19.12-.15.11h-.08a1,1,0,0,1,.2-.38c.15-.2.3-.42.48-.65s.34-.44.48-.62a3.29,3.29,0,0,1,.24-.28h.07a5.4,5.4,0,0,1,.71.48,2.19,2.19,0,0,1,.43.49,1.82,1.82,0,0,1,.24.62q.07.35.15.87l.06.45c0,.25.08.56.13.9s.11.7.17,1.05.1.67.15,1a6.18,6.18,0,0,0,.11.63A1.23,1.23,0,0,0,106.66,146.19Zm0,4.25a.9.9,0,0,1-.68.39.85.85,0,0,1-.72-.19,1.11,1.11,0,0,1-.34-.67,1.16,1.16,0,0,1,.14-.71.79.79,0,0,1,.6-.39,1,1,0,0,1,.75.16.88.88,0,0,1,.37.65A1.19,1.19,0,0,1,106.68,150.44Z"/><path class="cls-1" d="M103.54,143.62c0,.31,0,.65.06,1a4,4,0,0,1-.2,1.45,2.44,2.44,0,0,1-.9,1.14l-.38.27-.6.46-.57.43a1.38,1.38,0,0,0-.23.19h-.07l-.75-.51a7.34,7.34,0,0,1-.76-.59,3.44,3.44,0,0,1-.59-.73,1.79,1.79,0,0,1-.26-.9l-.12-2.76a1.43,1.43,0,0,1,.25-.81,1.89,1.89,0,0,1,.55-.64l1.35-.94c.06,0,.13,0,.2-.14a2.79,2.79,0,0,0,.24-.31c.07-.11.15-.21.22-.3s.12-.14.15-.14a.68.68,0,0,1,.2.11l.36.28.44.35.41.31a1.58,1.58,0,0,1,.59.75c.12.31.22.61.31.9S103.51,143.31,103.54,143.62Zm-2.15-.85a4.13,4.13,0,0,0-.37-.59,2.34,2.34,0,0,0-.46-.48.72.72,0,0,0-.5-.18H100s0,0,0,.07l.14,3.4s0,.13,0,.28,0,.24,0,.28a3.88,3.88,0,0,0,.22.36,4.58,4.58,0,0,0,.41.51,3.1,3.1,0,0,0,.47.43.45.45,0,0,0,.39.14l.12,0a1.94,1.94,0,0,1,0-.27c0-.12,0-.25,0-.39s0-.26,0-.38a2,2,0,0,0,0-.25v-.37c0-.08,0-.21,0-.41l0-.61q0-.32,0-.6c0-.19,0-.32,0-.39A2.56,2.56,0,0,0,101.39,142.77Zm-.82,4.67a0,0,0,0,0,0,0s0,0,0,0a0,0,0,0,0,0,0h0A0,0,0,0,0,100.57,147.44Z"/><path class="cls-1" d="M98.18,141.44l-.19.22a1.6,1.6,0,0,0-.18.25.64.64,0,0,0-.11.3l-.39,4.1a.74.74,0,0,0,0,.2,1.43,1.43,0,0,0,.09.27,1.38,1.38,0,0,0,.14.24.29.29,0,0,0,.19.11L98,147h.12a2.22,2.22,0,0,0-.24.23c-.16.17-.34.36-.55.55a6.33,6.33,0,0,1-.65.55.83.83,0,0,1-.48.22h0c-.11,0-.22-.12-.33-.31a6.86,6.86,0,0,1-.29-.66l-.24-.65c-.07-.19-.12-.29-.16-.3a1,1,0,0,0-.24.13l-.49.29-.52.32-.36.21-.15.12-.29.23-.28.21a.46.46,0,0,1-.16.1h0q-.14,0-.27-.21a3,3,0,0,1-.26-.44l-.25-.46a1,1,0,0,0-.23-.31l-.71.49,0-.26a7.21,7.21,0,0,0,.58-.66,1.59,1.59,0,0,0,.3-.81l.37-3.75a1.19,1.19,0,0,0,0-.26,2.45,2.45,0,0,0-.08-.29,2,2,0,0,0-.14-.26.28.28,0,0,0-.2-.12l-.43.33-.14,0a.63.63,0,0,1,.26-.42l1.12-.92a.36.36,0,0,1,.11-.12l.19-.16.18-.15s.06-.07,0-.08h0l.82.94a.91.91,0,0,1,.2.54,4,4,0,0,1,0,.6l0,.42c0,.29-.07.69-.14,1.23s-.11,1.07-.13,1.6a9.11,9.11,0,0,0,0,1.42c.06.41.19.62.39.64a.55.55,0,0,0,.32-.07,1.55,1.55,0,0,0,.32-.2,1.69,1.69,0,0,0,.26-.28.67.67,0,0,0,.14-.28,4.48,4.48,0,0,0,.11-.68c.05-.33.09-.69.13-1.07s.08-.74.11-1.07.06-.57.07-.71l0-.19a1.06,1.06,0,0,0,0-.45,1.51,1.51,0,0,0-.14-.34c-.05-.1-.1-.18-.14-.25a.29.29,0,0,1-.06-.18c0-.05,0-.1.15-.16l.31-.2.34-.2a.65.65,0,0,0,.23-.18,1.22,1.22,0,0,0,.27-.31c.09-.14.17-.21.22-.2h.08a2.86,2.86,0,0,0,.55.78,3.28,3.28,0,0,0,.79.57v.1A.48.48,0,0,1,98.18,141.44Z"/><path class="cls-1" d="M91.73,140.67a3.38,3.38,0,0,1-1,.63,5.86,5.86,0,0,1-1.2.3,8.41,8.41,0,0,1-1.22.05l-.39-.06a2.28,2.28,0,0,0-.45,0,1.11,1.11,0,0,0-.4.09.51.51,0,0,0-.26.31L85.7,145.3A1.29,1.29,0,0,1,85,146a5.47,5.47,0,0,1-1,.38l-.32.07a1.09,1.09,0,0,0-.42.15.39.39,0,0,0,.26.22.66.66,0,0,1,.28.15,2.63,2.63,0,0,1,.54.46,3.06,3.06,0,0,1,.4.61,1.89,1.89,0,0,1,.2.69,1.64,1.64,0,0,1-.07.73,1.36,1.36,0,0,0-.07.18,1.2,1.2,0,0,1-.13.25.73.73,0,0,1-.16.22.2.2,0,0,1-.19,0c-.08,0-.11-.1-.09-.22a.36.36,0,0,0-.05-.29,1.06,1.06,0,0,0-.31-.29,2,2,0,0,0-.41-.18l-1.81-.61-.33-.16-.49-.25-.49-.27-.33-.2a2.7,2.7,0,0,1-.7-.65,3.13,3.13,0,0,1-.47-.86,3.23,3.23,0,0,1-.2-1,2.81,2.81,0,0,1,.11-1l1.62-5.23a.8.8,0,0,0,0-.31,1.83,1.83,0,0,0-.09-.39,1.89,1.89,0,0,0-.17-.35.43.43,0,0,0-.22-.19.28.28,0,0,0-.27,0,1.81,1.81,0,0,0-.23.18,1.74,1.74,0,0,1-.22.18.26.26,0,0,1-.24,0,.87.87,0,0,1,.36-.43,4.78,4.78,0,0,1,.5-.29l.41-.24.65-.37a7,7,0,0,1,.68-.33.81.81,0,0,1,.46-.08l.07,0c.06,0,.09.09.09.11l.09.21a3,3,0,0,0,.15.32c0,.11.11.22.15.32l.1.21a1.9,1.9,0,0,1,.14.89,5.91,5.91,0,0,1-.19,1q-.14.53-.33,1.11c-.14.38-.25.78-.36,1.19,0,.11,0,.18.06.22a.56.56,0,0,0,.19.09l.16.05.23,0a.54.54,0,0,0,.22,0,.18.18,0,0,0,.13-.11l.74-2.23a.87.87,0,0,1,.24-.4,1.11,1.11,0,0,1,.36-.23,1.8,1.8,0,0,1,.43-.13l.49-.09a7.57,7.57,0,0,0,.83-.24,6,6,0,0,0,.75-.32,2.55,2.55,0,0,0,.47-.31,1.16,1.16,0,0,1,.23-.18h.05s0,.05.06.15.07.22.12.35.09.26.14.39a1.07,1.07,0,0,0,.14.27,4.54,4.54,0,0,0,.79.57,4.08,4.08,0,0,0,.9.41,3.06,3.06,0,0,0,.67.13,2.34,2.34,0,0,0,.75,0,1.5,1.5,0,0,0,.66-.28,1.17,1.17,0,0,0,.43-.6,1,1,0,0,0,0-.67,5.46,5.46,0,0,0-.32-.64,1.84,1.84,0,0,0-.43-.46,4.65,4.65,0,0,0-.62-.38,4.54,4.54,0,0,0-.68-.3l-.61-.22c-.4-.13-.78-.24-1.14-.32a3.71,3.71,0,0,0-1-.08,2.7,2.7,0,0,0-1,.26,3.42,3.42,0,0,0-.94.71l-.1,0a1,1,0,0,1,.27-.45,3.92,3.92,0,0,1,.42-.36,3.14,3.14,0,0,1,1.86-.75,5.09,5.09,0,0,1,2,.28,4.91,4.91,0,0,1,1.09.52,4,4,0,0,1,1,.81,2.81,2.81,0,0,1,.56,1,2.16,2.16,0,0,1-.06,1.25A2.48,2.48,0,0,1,91.73,140.67Zm-10.09,5.25s.07,0,.09-.08l.56-1.68a.92.92,0,0,0,0-.34l-.77-.25-.09.05a.92.92,0,0,1-.11.28,4.3,4.3,0,0,0-.18.47,1.64,1.64,0,0,0-.1.41,1.44,1.44,0,0,0,0,.46.8.8,0,0,0,.14.39.64.64,0,0,0,.37.26Zm4.85-4.85-.29-.28-.29-.3a1.6,1.6,0,0,1-.19-.26c-.07-.12-.14-.24-.2-.36a3,3,0,0,0-.21-.32.42.42,0,0,0-.19-.17,1.08,1.08,0,0,0-.69.07.84.84,0,0,0-.53.45l-.52,1.58-.34,1c-.13.41-.26.83-.4,1.26s-.26.82-.37,1.18-.19.63-.23.79l0,.09a.32.32,0,0,0,0,.35,1.27,1.27,0,0,0,.35.18.47.47,0,0,0,.35-.06c.14-.07.23-.15.25-.23l1.27-3.81a.91.91,0,0,1,.47-.52,3.65,3.65,0,0,1,.74-.28c.26-.06.49-.11.69-.14s.32-.07.34-.12v-.06Z"/><path class="cls-1" d="M80.36,136.51l.13.08a.44.44,0,0,1-.26.17l-.41.12-.43.14a.58.58,0,0,0-.3.25l-1.91,3.35a1.3,1.3,0,0,0-.1.23.89.89,0,0,0-.07.28.82.82,0,0,0,0,.27.3.3,0,0,0,.15.2.39.39,0,0,0,.35,0,.39.39,0,0,1,.35,0,.61.61,0,0,1-.28.27,1.77,1.77,0,0,1-.41.12,3.42,3.42,0,0,1-.45,0l-.4,0-.17.06-.33.1-.32.09a.38.38,0,0,1-.18,0h0a.55.55,0,0,1-.22-.37,5.07,5.07,0,0,1,0-.56v-.54c0-.17,0-.26-.08-.29a.4.4,0,0,0-.33,0,3.42,3.42,0,0,0-.42.22c-.15.08-.29.16-.43.22a.31.31,0,0,1-.3,0,1.17,1.17,0,0,0,0-.42.5.5,0,0,0-.25-.29.59.59,0,0,0-.51-.11c-.12.05-.29.14-.51.26,0,0,0,0,0-.1a.43.43,0,0,1,0-.1,2.49,2.49,0,0,1,.47-.61,1.83,1.83,0,0,1,.6-.41,1.56,1.56,0,0,1,.67-.15,1.39,1.39,0,0,1,.7.19,1.45,1.45,0,0,1,.29.21,1.64,1.64,0,0,0,.25.19l.07,0s0,0,0,0l1.87-3.3a.36.36,0,0,0,0-.23,2.4,2.4,0,0,0,0-.37,2.61,2.61,0,0,0-.08-.35c0-.11-.06-.18-.11-.2l-.31-.18-.19.05-.27.09a1.54,1.54,0,0,1-.3,0,.4.4,0,0,1-.25-.05l.06,0,.11-.1,3-.76.09.05s0,.07.09.18a2.16,2.16,0,0,1,.08.26,4.24,4.24,0,0,1,.22.89q0,.36,0,.9l0,0,0,0Z"/><path class="cls-1" d="M76.23,133.69l.16.11a.53.53,0,0,1-.25.2l-.3.09a1.32,1.32,0,0,0-.3.09.63.63,0,0,0-.26.2,1,1,0,0,1-.13.16.61.61,0,0,1-.16.12L72.58,138l-.1.18-.16.26c-.06.09-.11.18-.17.26a1.73,1.73,0,0,1-.11.17s0,.07,0,.12a1.1,1.1,0,0,0,.15.16c.05.06.11.12.16.19a.37.37,0,0,1,.07.2l-.13.18-.17.2c-.08.09-.14.12-.17.1l-.52-.37a.19.19,0,0,0-.11,0,.32.32,0,0,0-.12.11c-.27.24-.52.44-.74.62a2.89,2.89,0,0,1-1.45.62,4.48,4.48,0,0,1-1,0l-.43-.05a1,1,0,0,1-.37-.16.35.35,0,0,1,.32-.17.73.73,0,0,0,.36-.07,2.63,2.63,0,0,0,.69-.59c.19-.23.38-.48.56-.73l.19-.25a1.66,1.66,0,0,0,.19-.3.72.72,0,0,0,.07-.3.34.34,0,0,0-.17-.25l-.33-.3c-.1-.09-.08-.24.07-.44a1.37,1.37,0,0,1,.13-.13l.08,0a1,1,0,0,0,.21.19,1.19,1.19,0,0,0,.34.16c.13,0,.21,0,.26,0l2.91-4.06a1.08,1.08,0,0,0,.15-.59.65.65,0,0,0-.18-.55.35.35,0,0,0-.3,0,.61.61,0,0,1-.23,0l0,0,0-.08,0-.06a1.55,1.55,0,0,1,.47-.13l.84-.13.83-.08a1.23,1.23,0,0,1,.42,0l.08.06a.38.38,0,0,1,.13.27c0,.14,0,.3,0,.47a5.36,5.36,0,0,0,0,.55,2.09,2.09,0,0,0,.09.52h0l0,0Z"/><path class="cls-1" d="M73.17,131.52a2.08,2.08,0,0,0,.35,0l.33,0a.34.34,0,0,1,.22.06l.05.05a1.2,1.2,0,0,1-.62.34,3.2,3.2,0,0,1-1.7-.05,1.67,1.67,0,0,1-.64-.32,4.3,4.3,0,0,1-.58-.65,1.66,1.66,0,0,1-.26-.83h-.11l-1.38,1.56a.52.52,0,0,0-.12.43.64.64,0,0,0,.19.42.66.66,0,0,0,.35.15l.48.08a3,3,0,0,1,.5.11,1.47,1.47,0,0,1,.48.28,1,1,0,0,1,.3.46,1.51,1.51,0,0,1,.07.56,1.83,1.83,0,0,1-.43,1,1.84,1.84,0,0,1-.72.52,2.29,2.29,0,0,1-.78.14,3.16,3.16,0,0,1-.85-.09l-.9-.16a4.77,4.77,0,0,0-.81-.09,2.71,2.71,0,0,1-.82-.13s-.06-.1,0-.19,0-.2,0-.31a1.3,1.3,0,0,0,0-.34.54.54,0,0,0-.19-.31.58.58,0,0,0-.38-.18,1.34,1.34,0,0,0-.35,0l-.31.08a.3.3,0,0,1-.27-.08,1.81,1.81,0,0,1,.61-.44,2.84,2.84,0,0,1,.81-.26,2.63,2.63,0,0,1,.84,0,1.5,1.5,0,0,1,.71.33l0,0a.91.91,0,0,1,.19.3l.18.45a2.28,2.28,0,0,0,.18.38c0,.1.1.13.15.08l1.1-1.24a.66.66,0,0,0,.14-.35.35.35,0,0,0-.09-.33.7.7,0,0,0-.39-.18,3.54,3.54,0,0,0-.48,0,3.05,3.05,0,0,1-.5-.08,1,1,0,0,1-.48-.26,1.13,1.13,0,0,1-.39-.59,1.42,1.42,0,0,1,0-.65,2.06,2.06,0,0,1,.26-.64,5.06,5.06,0,0,1,.42-.58l0,0,.45-.45a2,2,0,0,1,.48-.34,1.25,1.25,0,0,1,.7-.11,4.45,4.45,0,0,1,.77.17l.77.24a1.59,1.59,0,0,0,.65.1l.19,0h.26l.25,0,.17.06,0,.05c0,.36.06.66.1.91a1.14,1.14,0,0,0,.44.7A.52.52,0,0,0,73.17,131.52Z"/><path class="cls-1" d="M68.86,129a3.07,3.07,0,0,1-1.09,0,3.2,3.2,0,0,1-1.07-.35,3.71,3.71,0,0,1-.93-.68,3.17,3.17,0,0,0-.43-.48.74.74,0,0,0-.34-.19.44.44,0,0,0-.28,0,1.54,1.54,0,0,0-.31.21,1.66,1.66,0,0,0-.5.62c-.11.24-.2.49-.29.75s-.2.51-.31.76a1.72,1.72,0,0,1-.51.64,2.57,2.57,0,0,1-1.51.57,7.93,7.93,0,0,1-1.62-.1s0,.08,0,.16a5.26,5.26,0,0,0,.61.64,6.64,6.64,0,0,1,.62.67,4.67,4.67,0,0,1,.6,1,2.64,2.64,0,0,1,.25,1,2.15,2.15,0,0,1-.21,1,2.4,2.4,0,0,1-.73.89l-.16.1c-.07,0-.11,0-.14,0l0,0s0,0,0-.12.09-.13.14-.22l.15-.25a.52.52,0,0,0,.06-.22,1.3,1.3,0,0,0-.28-.77,2,2,0,0,0-.4-.36c-.15-.11-.31-.22-.46-.31-.5-.33-1-.67-1.44-1A7.75,7.75,0,0,1,57,131.67a4.77,4.77,0,0,1-1-2,5.15,5.15,0,0,1,0-2.07,5.78,5.78,0,0,1,.83-1.94A6.78,6.78,0,0,1,58.41,124a4.93,4.93,0,0,1,2.34-1,4.72,4.72,0,0,1,2.5.28l1.62.63a4.39,4.39,0,0,0,1.69.28l.06.08a.22.22,0,0,1,0,.23.43.43,0,0,0-.06.22,3.22,3.22,0,0,0,.75,3,2.57,2.57,0,0,0,1.15.88,1.44,1.44,0,0,0,1.4-.37,1.18,1.18,0,0,0,.41-.63,3.49,3.49,0,0,0,.11-.77,1.71,1.71,0,0,0-.08-.63,3,3,0,0,0-.28-.63,4.49,4.49,0,0,0-.37-.59c-.14-.2-.27-.37-.39-.52l-.21-.27a9.67,9.67,0,0,0-1.2-1.27,3.24,3.24,0,0,0-1.6-.73h-.23l-.32,0-.32,0a.34.34,0,0,1-.2-.11l.09-.06a.16.16,0,0,1,.12,0,5.56,5.56,0,0,1,2,.27,5.19,5.19,0,0,1,1.7,1l.46.58a7.05,7.05,0,0,1,.65,1,4.9,4.9,0,0,1,.42,1.14,3.91,3.91,0,0,1,.06,1.18,2.42,2.42,0,0,1-.45,1.11l-.38.3A2.44,2.44,0,0,1,68.86,129Zm-10.36-.3s0,0,.08,0l5.19-4.1a.39.39,0,0,0,.1-.33.55.55,0,0,0-.06-.32l0-.06a3.22,3.22,0,0,0-1,0,3.92,3.92,0,0,0-.88.28,4.67,4.67,0,0,0-.81.46q-.41.29-.81.6l-.8.64-.29.38a8.85,8.85,0,0,0-.49.78,4.23,4.23,0,0,0-.36.9.79.79,0,0,0,.1.73Zm6.11-2.05c-.08-.21-.17-.43-.28-.66s-.24-.55-.43-.94l0-.06c0-.06-.09-.08-.11-.07L58.54,129a.23.23,0,0,0,0,.22,2.33,2.33,0,0,0,.11.31,2.25,2.25,0,0,0,.16.31c.06.09.09.15.11.17a1,1,0,0,0,.41.35.69.69,0,0,0,.51,0l.29-.23a2,2,0,0,0,.53-.61c.14-.24.26-.48.38-.73s.25-.5.4-.75a2.36,2.36,0,0,1,.58-.65A1.82,1.82,0,0,1,63,127a8.62,8.62,0,0,1,1.14,0,1.38,1.38,0,0,1,.29,0,.26.26,0,0,0,.24-.06S64.69,126.8,64.61,126.6Z"/><path class="cls-1" d="M55,121.29a2.92,2.92,0,0,1,.36-.67,4.31,4.31,0,0,1,.52-.6,3,3,0,0,1,.47-.38,2.53,2.53,0,0,1,1.07-.3,4.7,4.7,0,0,1,1.12.08,10.06,10.06,0,0,1,1.11.3l1,.33.09,0a.67.67,0,0,0,.27-.33,3.16,3.16,0,0,0,.2-.54,4,4,0,0,0,.11-.54.88.88,0,0,0,0-.36.62.62,0,0,0-.37-.31,2.67,2.67,0,0,1-.49-.18l-.09-.16.07,0,.3.07a2.59,2.59,0,0,1,.45.15l.39.15.69.27c.25.1.47.2.68.3a1.08,1.08,0,0,1,.35.22v0a2.19,2.19,0,0,1-.06.83,3.85,3.85,0,0,1-.36.9,4.11,4.11,0,0,1-.55.79,2.28,2.28,0,0,1-.63.53L59.52,123a1.72,1.72,0,0,1-1.12.21,5.2,5.2,0,0,1-1.16-.33c-.39-.16-.77-.34-1.16-.54a4.5,4.5,0,0,0-1.09-.42l0,0A.66.66,0,0,1,55,121.29Zm5.15-1a.56.56,0,0,0-.33-.23,1.8,1.8,0,0,0-.54-.08,3.57,3.57,0,0,0-.57,0,1.47,1.47,0,0,0-.43.13,2.34,2.34,0,0,0-.39.29,4.6,4.6,0,0,0-.5.49,2.83,2.83,0,0,0-.39.56.5.5,0,0,0,0,.5l0,0s.11.07.22,0a1.49,1.49,0,0,0,.37-.13,3,3,0,0,0,.4-.21l.31-.18.51-.27.67-.38.72-.47A.27.27,0,0,0,60.13,120.25Z"/><path class="cls-1" d="M61.46,116.79a1.87,1.87,0,0,0,.31.17,2.08,2.08,0,0,1,.3.13.31.31,0,0,1,.17.14l0,.07a1.27,1.27,0,0,1-.71,0,3.12,3.12,0,0,1-.8-.3,3.31,3.31,0,0,1-.71-.49,1.63,1.63,0,0,1-.42-.58,3.44,3.44,0,0,1-.24-.84,1.67,1.67,0,0,1,.12-.86l-.09,0-1.93.8a.54.54,0,0,0-.3.34.59.59,0,0,0,0,.45.7.7,0,0,0,.25.3l.39.27a4.23,4.23,0,0,1,.41.33,1.31,1.31,0,0,1,.3.45,1,1,0,0,1,.07.55,1.52,1.52,0,0,1-.19.54,1.7,1.7,0,0,1-.37.44,1.86,1.86,0,0,1-.47.3,1.74,1.74,0,0,1-.87.15,2.05,2.05,0,0,1-.77-.21,4.73,4.73,0,0,1-.72-.45c-.23-.19-.48-.37-.73-.55a5,5,0,0,0-.7-.43,2.6,2.6,0,0,1-.68-.48.19.19,0,0,1,0-.19l.17-.26a1.09,1.09,0,0,0,.14-.31.51.51,0,0,0,0-.36.6.6,0,0,0-.26-.33,1.1,1.1,0,0,0-.33-.12l-.32-.07a.28.28,0,0,1-.2-.18,1.85,1.85,0,0,1,.74-.13,3,3,0,0,1,.84.12,2.41,2.41,0,0,1,.75.38,1.45,1.45,0,0,1,.49.61v0a.68.68,0,0,1,0,.35l0,.49a3.11,3.11,0,0,0,0,.42c0,.11,0,.16.1.13l1.54-.63a.63.63,0,0,0,.27-.25.35.35,0,0,0,.07-.34.67.67,0,0,0-.27-.33l-.41-.26a3.41,3.41,0,0,1-.42-.28,1.18,1.18,0,0,1-.32-.45,1.26,1.26,0,0,1-.09-.7,1.59,1.59,0,0,1,.27-.59,2,2,0,0,1,.52-.47A4.21,4.21,0,0,1,57,113l.07,0,.6-.2a2.13,2.13,0,0,1,.58-.1,1.2,1.2,0,0,1,.67.21,4.11,4.11,0,0,1,.63.49l.58.56a1.58,1.58,0,0,0,.54.37.91.91,0,0,0,.16.1l.23.13a1.64,1.64,0,0,1,.22.14.45.45,0,0,1,.12.12l0,.07a9,9,0,0,0-.32.85,1.24,1.24,0,0,0,.09.83A.51.51,0,0,0,61.46,116.79Z"/><path class="cls-1" d="M49.31,114.45a.87.87,0,0,1-.49-.61.85.85,0,0,1,.08-.74,1.07,1.07,0,0,1,.61-.44,1.11,1.11,0,0,1,.72,0,.78.78,0,0,1,.48.53,1.06,1.06,0,0,1,0,.77.91.91,0,0,1-.59.46A1.13,1.13,0,0,1,49.31,114.45Zm4.2-.68a.34.34,0,0,0-.11.33.34.34,0,0,0,.26.26.33.33,0,0,1,.27.24,1.07,1.07,0,0,1-.46-.11,6.86,6.86,0,0,1-.8-.36c-.28-.15-.54-.3-.77-.45s-.37-.28-.4-.39l0-.07a.46.46,0,0,1,.09-.4,2.83,2.83,0,0,1,.32-.45,4.5,4.5,0,0,1,.35-.38.84.84,0,0,0,.16-.19l-.64-.43.21-.06.52.2a4,4,0,0,0,.55.14l.82-.23.82-.23,1.6-.49.29-.08.46-.16a3.28,3.28,0,0,0,.5-.22,1.22,1.22,0,0,0,.37-.27.29.29,0,0,0,.09-.32v0a.6.6,0,0,0-.15-.16.92.92,0,0,1-.13-.14l0-.07a.93.93,0,0,1,.4.14l.72.37.69.38a3.2,3.2,0,0,1,.31.19l0,.07a5.14,5.14,0,0,1-.36.77,1.89,1.89,0,0,1-.42.5,2,2,0,0,1-.57.34l-.84.28-.44.13-.87.27-1,.33-.92.3-.61.2A1.44,1.44,0,0,0,53.51,113.77Z"/><path class="cls-1" d="M59.83,108.62a1.2,1.2,0,0,1-.37-.67.78.78,0,0,1,.16-.69.92.92,0,0,1,.59-.34.86.86,0,0,1,.61.07.62.62,0,0,0,.43.11c.09,0,.14-.09.13-.21s0-.21,0-.29a1.65,1.65,0,0,0-.63-1.06,1.47,1.47,0,0,0-1.18-.25,3.15,3.15,0,0,0-1.11.44,4.58,4.58,0,0,1-1.15.51l0,.07,1.17,1.28a.79.79,0,0,0,.39.17c.2,0,.3.13.33.25v0c-.09.15-.19.32-.31.5a4.6,4.6,0,0,1-.38.52,2.67,2.67,0,0,1-.46.43,1.22,1.22,0,0,1-.55.23l-3.25.61a1.72,1.72,0,0,1-1-.09,3.59,3.59,0,0,1-.82-.48,7.77,7.77,0,0,1-.75-.65,5.39,5.39,0,0,0-.69-.61l-.15-.1-.25-.14-.25-.15a.29.29,0,0,1-.12-.14l0-.07c.15-.39.28-.72.38-1a6.72,6.72,0,0,1,.45-.88,2.58,2.58,0,0,1,.19-.24c.09-.12.13-.22.11-.29s0-.08-.15-.13l-.31-.15-.31-.14c-.09,0-.14-.09-.15-.13v0l0-.08h.07c.25.1.48.19.71.26a1.74,1.74,0,0,0,.72.07l.56-.07.85-.14.94-.16.8-.14.41-.07.07,0,.41-.09.48-.11.42-.1.19,0a2.54,2.54,0,0,0,.71-.33,1.79,1.79,0,0,1,.71-.31,2,2,0,0,1,1.13.11,2.91,2.91,0,0,1,.92.65,3.6,3.6,0,0,1,.67,1,4.26,4.26,0,0,1,.37,1.07,5.65,5.65,0,0,1,.07.73,2.43,2.43,0,0,1-.1.73,1.4,1.4,0,0,1-.35.6,1.15,1.15,0,0,1-.67.33A.77.77,0,0,1,59.83,108.62Zm-2.9-.83a1.56,1.56,0,0,0,.28-.23,1.05,1.05,0,0,0,.2-.27.48.48,0,0,0,.05-.31.55.55,0,0,0-.35-.41,3.76,3.76,0,0,1-.41-.23l-3.32.62a1,1,0,0,0-.46.22,2.49,2.49,0,0,0-.44.42,1.76,1.76,0,0,0-.3.51.9.9,0,0,0-.06.5v.07s0,.06.14.07h.32a3.26,3.26,0,0,0,.41,0l.4-.06.39-.07.68-.13.44-.09.66-.14.66-.14.44-.11Z"/><path class="cls-1" d="M56.79,103.84l-.25-.15-.27-.15a.85.85,0,0,0-.31-.06l-4.11.16a.68.68,0,0,0-.21,0,1.15,1.15,0,0,0-.25.12.91.91,0,0,0-.21.18.25.25,0,0,0-.09.2l.12.24v.12a1.86,1.86,0,0,0-.27-.2c-.18-.14-.39-.29-.62-.48s-.43-.37-.62-.56a.83.83,0,0,1-.29-.45v0c0-.11.08-.24.26-.37a7,7,0,0,1,.61-.37l.62-.33c.18-.09.27-.16.27-.2a.84.84,0,0,0-.16-.22l-.35-.44-.39-.48-.26-.33-.14-.13-.26-.25-.25-.26c-.08-.07-.12-.12-.12-.14v0c0-.09.06-.18.18-.29a3.17,3.17,0,0,1,.39-.32l.43-.32a.89.89,0,0,0,.28-.26L50,97.42h.26a7.67,7.67,0,0,0,.73.48,1.58,1.58,0,0,0,.84.19l3.77-.14a.92.92,0,0,0,.25,0,1.39,1.39,0,0,0,.28-.12,1.46,1.46,0,0,0,.24-.17.23.23,0,0,0,.09-.21L56,97v-.15a.69.69,0,0,1,.45.2l1.06,1a.51.51,0,0,1,.14.09l.18.17.17.16s.08,0,.09,0v0l-.82.94a.91.91,0,0,1-.5.27,4.35,4.35,0,0,1-.6.06l-.43,0-1.23,0c-.54,0-1.08,0-1.61.08a8.15,8.15,0,0,0-1.39.24c-.4.1-.6.26-.59.47a.61.61,0,0,0,.11.3,1.74,1.74,0,0,0,.56.52.83.83,0,0,0,.29.1,6.75,6.75,0,0,0,.7,0l1.07,0c.38,0,.74,0,1.08,0l.71,0h.19a1.43,1.43,0,0,0,.45-.09,1.82,1.82,0,0,0,.31-.19l.23-.17a.24.24,0,0,1,.17-.08s.11,0,.18.12l.24.29c.08.1.17.2.24.3a1,1,0,0,0,.21.21,1.52,1.52,0,0,0,.35.22c.15.07.22.14.22.2v.07a3.2,3.2,0,0,0-.71.65,3.56,3.56,0,0,0-.46.87H57A.35.35,0,0,1,56.79,103.84Z"/><path class="cls-1" d="M56.11,97a3.18,3.18,0,0,1-.75-1.08A4.42,4.42,0,0,1,55,94.58a4.79,4.79,0,0,1,0-1.32,3.42,3.42,0,0,1,.29-.87c.13-.26.27-.52.43-.79l.15-.16c.08-.08.14-.16.21-.24a.68.68,0,0,0,.11-.23c0-.06,0-.11-.13-.12l-.19,0a.89.89,0,0,0-.36,0,1.07,1.07,0,0,0-.34.15l-1.07.63a7.7,7.7,0,0,1-1,.48,4,4,0,0,1-1,.25,4.16,4.16,0,0,1-1.2-.06,3,3,0,0,1-1.45-.65,5.2,5.2,0,0,1-1-1.11c-.28-.43-.54-.87-.79-1.34a8,8,0,0,0-.85-1.29s0,0,0,0,.13-.18.32-.23a1,1,0,0,0,.47-.22,1.58,1.58,0,0,0,.39-.52,2.8,2.8,0,0,0,.2-.64,1.24,1.24,0,0,0-.1-.78c-.11-.25-.23-.49-.36-.73l0-.1a.67.67,0,0,1,.35.19,2.68,2.68,0,0,1,.23.3,6.47,6.47,0,0,1,1,1.58,2.91,2.91,0,0,1,.19,1.81,2.09,2.09,0,0,1-.35.86,8.89,8.89,0,0,1-.55.74.24.24,0,0,0,.06.19.54.54,0,0,0,.18.15.88.88,0,0,0,.22.1,1.15,1.15,0,0,0,.2,0,1.6,1.6,0,0,0,.6,0,5.2,5.2,0,0,0,.77-.22,4.18,4.18,0,0,0,.67-.33c.2-.12.31-.24.33-.35a.5.5,0,0,0-.08-.36,1.09,1.09,0,0,0-.24-.3c-.19-.47-.42-1-.68-1.54a13.46,13.46,0,0,0-.83-1.52v-.07a8.19,8.19,0,0,1,1.25-.57,2.44,2.44,0,0,1,1.32-.09,3.26,3.26,0,0,1,.6.17,1.22,1.22,0,0,1,.51.41,1.28,1.28,0,0,1,.17.32l.21.47c.07.17.14.31.19.44s.1.2.13.21h0l.34-.57a3,3,0,0,1,.42-.52,2.55,2.55,0,0,1,.53-.4,1.85,1.85,0,0,1,.63-.19,2.72,2.72,0,0,1,.5,0h.5a3.34,3.34,0,0,0,.4,0c.11,0,.17-.07.18-.14a.6.6,0,0,0-.06-.24c0-.14-.1-.27-.14-.4a.87.87,0,0,1-.07-.27c0-.06.05,0,.15.14l1.17,1.71a.84.84,0,0,0,.18.21l.25.22.21.21a.21.21,0,0,1,.07.17.65.65,0,0,1-.3.37,3.93,3.93,0,0,1-.61.36,3.88,3.88,0,0,1-.69.26,1.42,1.42,0,0,1-.54.06l-2.16-.41a.84.84,0,0,0-.5.07.49.49,0,0,0-.33.37.56.56,0,0,0,0,.33.29.29,0,0,0,.23.21l3.89.74s0,.07-.13.08l-.8-.17-.81-.17c-.41-.07-.81-.14-1.2-.19a11.76,11.76,0,0,0-1.18-.11.31.31,0,0,1-.33.16.27.27,0,0,1-.2-.12.83.83,0,0,0-.19-.18l-.83-.15-.27,0-.4,0-.41-.06-.27,0,0,.08a1,1,0,0,0,0,.28,1.2,1.2,0,0,0,.13.33,1.15,1.15,0,0,0,.19.28.54.54,0,0,0,.21.14,1,1,0,0,0,.52,0,3.71,3.71,0,0,1,.53-.13c.22,0,.41,0,.59,0a2.28,2.28,0,0,1,.61.06,2.81,2.81,0,0,1,1.06.42,4.64,4.64,0,0,1,.81.72c.24.28.47.57.69.88s.47.6.73.89l.25.19.31.26.38.33v.07a2.72,2.72,0,0,0-1.47.84,3.11,3.11,0,0,0-.74,1.51,4.16,4.16,0,0,0-.08.6,1,1,0,0,0,.06.44,1.24,1.24,0,0,0,.22.38,3.31,3.31,0,0,0,.42.41l.36.07a1.51,1.51,0,0,0,1-.09,2.28,2.28,0,0,0,.78-.54,3.68,3.68,0,0,0,.59-.8,6.07,6.07,0,0,0,.41-.86l.15-.82A6.94,6.94,0,0,0,60.28,92a5.2,5.2,0,0,0-.74-2l0-.1h.07c.07,0,.11,0,.1.1a6.25,6.25,0,0,1,1,2.08,5.11,5.11,0,0,1,.07,2.31,5,5,0,0,1-.42,1.23,4.25,4.25,0,0,1-.74,1.1,3.06,3.06,0,0,1-1,.73,2.22,2.22,0,0,1-1.31.12A2.43,2.43,0,0,1,56.11,97ZM54,88.23a1.13,1.13,0,0,0,0-.49,1.08,1.08,0,0,0-.18-.49.55.55,0,0,0-.4-.28A1,1,0,0,0,53,87a3.63,3.63,0,0,0-.6.22,3.88,3.88,0,0,0-.57.33.64.64,0,0,0-.28.36v0s0,.07.06.11l.1.07.68.13.37.07.35.08a5,5,0,0,0,.63.07A.33.33,0,0,0,54,88.23Z"/><path class="cls-1" d="M50.18,80.87a.85.85,0,0,1,0-.78.81.81,0,0,1,.51-.54,1.08,1.08,0,0,1,.75,0A1.1,1.1,0,0,1,52,80a.8.8,0,0,1,0,.71,1,1,0,0,1-.5.58.86.86,0,0,1-.75,0A1.14,1.14,0,0,1,50.18,80.87Zm3.74,2a.36.36,0,0,0-.29.2.34.34,0,0,0,.06.36.34.34,0,0,1,.06.36c-.06,0-.16-.15-.3-.37a7,7,0,0,1-.41-.78c-.13-.28-.25-.56-.34-.82a1,1,0,0,1-.08-.55l0-.07A.51.51,0,0,1,53,81a3.35,3.35,0,0,1,.54-.16l.5-.09q.24,0,.24-.06L54,79.93l.21.08.29.47a3,3,0,0,0,.35.45l.78.32.8.31,1.56.59.28.11.46.16a3.71,3.71,0,0,0,.53.13,1.2,1.2,0,0,0,.46,0,.3.3,0,0,0,.27-.19v0a.57.57,0,0,0,0-.22l0-.19,0-.07s.12.14.23.36.23.46.35.73.22.5.31.72S61,84,61,84l0,.07a6.16,6.16,0,0,1-.76.39,1.84,1.84,0,0,1-.63.14,2.21,2.21,0,0,1-.66-.08l-.84-.29-.43-.16-.85-.32-1-.36-.92-.32c-.28-.11-.48-.17-.61-.21A1.26,1.26,0,0,0,53.92,82.89Z"/><path class="cls-1" d="M60,82.05l-.13-.25a2,2,0,0,0-.17-.27.61.61,0,0,0-.24-.21l-3.64-1.91-.2-.06a1.18,1.18,0,0,0-.27,0,1.26,1.26,0,0,0-.28.05.29.29,0,0,0-.17.13l0,.28,0,.1s0-.1-.13-.31l-.3-.72a6.75,6.75,0,0,1-.26-.8.86.86,0,0,1,0-.54l0,0c0-.11.19-.17.41-.19a5.47,5.47,0,0,1,.72,0l.69,0c.2,0,.32,0,.33,0a.71.71,0,0,0,0-.27c0-.16,0-.35-.09-.56l-.09-.61c0-.19,0-.33-.07-.41s0-.07,0-.18-.07-.22-.1-.35-.06-.24-.09-.35a.38.38,0,0,1,0-.18v0a.39.39,0,0,1,.3-.17,3.64,3.64,0,0,1,.51-.08l.52-.06a1.24,1.24,0,0,0,.38-.09l-.19-.85.23.12q.18.41.39.78a1.53,1.53,0,0,0,.64.59l3.34,1.76a1,1,0,0,0,.24.08,1,1,0,0,0,.3,0,1.29,1.29,0,0,0,.29,0,.3.3,0,0,0,.19-.13l-.14-.53.07-.13a.62.62,0,0,1,.28.4l.44,1.39a.52.52,0,0,1,.07.15,1.37,1.37,0,0,1,.07.24c0,.08,0,.15.07.21s0,.09.06.08l0,0-1.18.4a.86.86,0,0,1-.57,0,4,4,0,0,1-.55-.24l-.38-.2L60,77.48c-.47-.26-1-.5-1.43-.73a9.26,9.26,0,0,0-1.33-.49c-.4-.1-.65-.06-.74.12a.54.54,0,0,0-.06.32,1.21,1.21,0,0,0,.07.37,1.23,1.23,0,0,0,.15.35.86.86,0,0,0,.21.24l.59.36.94.51,1,.52.63.33.17.09a1.19,1.19,0,0,0,.43.14,2.28,2.28,0,0,0,.37,0l.28,0a.38.38,0,0,1,.19,0,.31.31,0,0,1,.09.2c0,.11,0,.23.07.37l.06.39a1.13,1.13,0,0,0,.07.28,1.82,1.82,0,0,0,.19.36c.1.14.13.24.1.29l0,.06a2.89,2.89,0,0,0-.93.22,2.78,2.78,0,0,0-.83.52l-.09,0A.38.38,0,0,1,60,82.05Z"/><path class="cls-1" d="M63.57,71.73a1.5,1.5,0,0,0-.32-.08,1.63,1.63,0,0,0-.31,0,.39.39,0,0,0-.25.15l-.57.77L64,73.94a.44.44,0,0,0,.28.1.9.9,0,0,0,.24,0l.21,0a.22.22,0,0,1,.18,0,.86.86,0,0,1,.05.33c0,.21,0,.42,0,.65s0,.44,0,.62,0,.27,0,.24-.08.05-.19.06l-.36,0L64,76a1,1,0,0,0-.33.12l-.23.17-.24.15-.15-.11c0-.12-.06-.27-.11-.46a.85.85,0,0,0-.28-.42l-6.27-4.69a1.36,1.36,0,0,1-.5-.66,2.57,2.57,0,0,1-.13-.83,2.78,2.78,0,0,1,.16-.85,3,3,0,0,1,.37-.72,2.63,2.63,0,0,1,.4-.42,1.8,1.8,0,0,1,.49-.3,1.15,1.15,0,0,1,.55-.08,1.18,1.18,0,0,1,.55.23.89.89,0,0,1,.35.56.8.8,0,0,1-.15.6.7.7,0,0,1-.51.31.73.73,0,0,1-.57-.17.84.84,0,0,1-.32-.37,2.34,2.34,0,0,1-.13-.51.19.19,0,0,0-.13.07l-.08.1a.47.47,0,0,0-.1.46,1.42,1.42,0,0,0,.27.47,4.08,4.08,0,0,0,.47.45q.28.24.54.42l.35.27.4.3.39.28.42.27a2.3,2.3,0,0,0,.34.18c.09,0,.15,0,.18,0l0-.06a7,7,0,0,1,.06-1.29,4.65,4.65,0,0,0,0-1.34l0,0a.64.64,0,0,1,.28,0c.17,0,.37,0,.59,0a4,4,0,0,1,.68.12,1.47,1.47,0,0,1,.55.23,1.77,1.77,0,0,1,.51.53,1.52,1.52,0,0,1,.18.53,5.41,5.41,0,0,1,0,.59,3.64,3.64,0,0,0,.09.68.07.07,0,0,1,.11,0,4.07,4.07,0,0,1,.55-.29,2.45,2.45,0,0,1,.6-.18,2.15,2.15,0,0,1,.62,0,1.28,1.28,0,0,1,.61.27l.59.44.36.14c.16.06.27,0,.34,0a.38.38,0,0,0,.08-.23A.29.29,0,0,1,67,70.7l.05.07,0,0a.27.27,0,0,1,0,.07l.26,2a.46.46,0,0,1-.18.13l-.22.08a1.76,1.76,0,0,1-1.24,0,4.87,4.87,0,0,1-1.09-.63,4.63,4.63,0,0,1-.42-.32l-.42-.32Zm-1.86.58c.07,0,.11,0,.14,0l.55-.73a.45.45,0,0,0,.09-.32.8.8,0,0,0-.09-.36,1.35,1.35,0,0,0-.19-.33,1.53,1.53,0,0,0-.23-.22,1.71,1.71,0,0,0-.36-.19,2.37,2.37,0,0,0-.46-.11,1.34,1.34,0,0,0-.45,0,.59.59,0,0,0-.33.22.54.54,0,0,0-.1.54,1.67,1.67,0,0,0,.3.53,2.93,2.93,0,0,0,.46.47c.17.14.3.25.39.31l.11.08A1,1,0,0,0,61.71,72.31Z"/><path class="cls-1" d="M60.47,63.93a.89.89,0,0,1,.27-.74.87.87,0,0,1,.68-.3,1,1,0,0,1,.69.31,1.09,1.09,0,0,1,.34.63.8.8,0,0,1-.22.68,1,1,0,0,1-.68.35.89.89,0,0,1-.7-.27A1.13,1.13,0,0,1,60.47,63.93Zm2.7,3.27a.34.34,0,0,0-.34.07.35.35,0,0,0-.09.36.34.34,0,0,1-.07.36,1.27,1.27,0,0,1-.14-.46,5.81,5.81,0,0,1-.09-.87,6.6,6.6,0,0,1,0-.89c0-.29.05-.47.13-.54l0-.06a.5.5,0,0,1,.39-.12,3.31,3.31,0,0,1,.55,0,5,5,0,0,1,.51.11q.23.06.24,0l0-.76.16.15c0,.17.06.36.09.55a3.47,3.47,0,0,0,.16.55l.61.59.62.59,1.22,1.14.22.2.37.32a4.07,4.07,0,0,0,.44.32,1.41,1.41,0,0,0,.43.18A.31.31,0,0,0,69,69l0,0a.53.53,0,0,0,.07-.21.8.8,0,0,1,.06-.18l0-.06a.9.9,0,0,1,.09.42c0,.25,0,.51,0,.81s0,.55,0,.79a2.13,2.13,0,0,1,0,.36l0,0a4.69,4.69,0,0,1-.84.08,1.87,1.87,0,0,1-.64-.11,1.76,1.76,0,0,1-.58-.32c-.19-.15-.41-.34-.67-.58l-.34-.31c-.18-.18-.41-.38-.67-.62l-.79-.7L64,67.74l-.48-.42A1.86,1.86,0,0,0,63.17,67.2Z"/><path class="cls-1" d="M69.1,68.71a2.46,2.46,0,0,1,0-.28,1.7,1.7,0,0,0-.06-.31.61.61,0,0,0-.14-.29l-2.66-3.14a.86.86,0,0,0-.16-.13,1.15,1.15,0,0,0-.25-.12.88.88,0,0,0-.27-.06.28.28,0,0,0-.21.05l-.12.25-.09.08a1.28,1.28,0,0,0,0-.33c0-.23,0-.5,0-.79a5.73,5.73,0,0,1,.06-.84.82.82,0,0,1,.18-.5l0,0c.09-.08.24-.08.45,0a5.71,5.71,0,0,1,.68.25l.63.28c.19.08.3.12.33.09a1.32,1.32,0,0,0,.08-.26c0-.16.08-.34.12-.55s.1-.41.14-.6.08-.33.1-.41,0-.08,0-.19,0-.23,0-.36,0-.25,0-.35a.45.45,0,0,1,0-.18l0,0a.43.43,0,0,1,.34-.05l.5.12.51.14a1,1,0,0,0,.38.06l.15-.86.17.21a4.91,4.91,0,0,0,.07.86,1.54,1.54,0,0,0,.36.79L73,64.1a1.06,1.06,0,0,0,.19.16,1.43,1.43,0,0,0,.27.15,1.09,1.09,0,0,0,.28.08.26.26,0,0,0,.23,0L74,63.9l.11-.09a.59.59,0,0,1,.12.47l-.12,1.45a.41.41,0,0,1,0,.17,2.29,2.29,0,0,1,0,.25c0,.08,0,.16,0,.22s0,.1,0,.09l0,0-1.25-.06a.85.85,0,0,1-.52-.23,3.39,3.39,0,0,1-.42-.43l-.28-.33-.78-1c-.34-.42-.69-.83-1.06-1.21a8.08,8.08,0,0,0-1-1c-.33-.24-.58-.3-.73-.17a.62.62,0,0,0-.18.28,2,2,0,0,0-.08.37,1.59,1.59,0,0,0,0,.38.75.75,0,0,0,.11.3,4.86,4.86,0,0,0,.41.55l.67.83c.25.3.48.58.7.83l.46.55.12.14a1.06,1.06,0,0,0,.35.3,1.25,1.25,0,0,0,.33.13l.29.07a.31.31,0,0,1,.16.09s0,.11,0,.22,0,.23-.07.36l-.09.38a1.3,1.3,0,0,0,0,.29,1.61,1.61,0,0,0,0,.41c0,.16,0,.26,0,.3l-.06,0a2.93,2.93,0,0,0-1.91,0l-.06-.08A.41.41,0,0,1,69.1,68.71Z"/><path class="cls-1" d="M73.39,56.71a2.62,2.62,0,0,1,.69.31,5,5,0,0,1,.64.47,2.56,2.56,0,0,1,.41.44,2.67,2.67,0,0,1,.38,1,4.74,4.74,0,0,1,0,1.13,9,9,0,0,1-.22,1.13c-.1.37-.18.72-.25,1l.06.09a.71.71,0,0,0,.35.24,3,3,0,0,0,.55.16,3.55,3.55,0,0,0,.55.06.53.53,0,0,0,.35-.06.57.57,0,0,0,.28-.39,2.48,2.48,0,0,1,.15-.49l.15-.11.05.07a2.9,2.9,0,0,1-.05.3,1.86,1.86,0,0,1-.12.47,3.87,3.87,0,0,0-.12.4c-.06.22-.13.45-.21.71s-.17.48-.25.69a.92.92,0,0,1-.2.37h0a1.93,1.93,0,0,1-.83,0,3.51,3.51,0,0,1-.92-.29A4,4,0,0,1,74,64a2.27,2.27,0,0,1-.58-.58l-1.34-2.07a1.76,1.76,0,0,1-.29-1.1A5.16,5.16,0,0,1,72,59.08c.13-.4.28-.8.45-1.19a4.51,4.51,0,0,0,.33-1.12l0,0A.66.66,0,0,1,73.39,56.71Zm1.42,5a.5.5,0,0,0,.21-.34,2.33,2.33,0,0,0,0-.54,3.4,3.4,0,0,0-.08-.57,1.47,1.47,0,0,0-.16-.42,2.59,2.59,0,0,0-.32-.37,4.07,4.07,0,0,0-.53-.46,2.37,2.37,0,0,0-.59-.34.5.5,0,0,0-.49,0l0,0c-.06,0-.07.12,0,.23a2.68,2.68,0,0,0,.16.36,3,3,0,0,0,.24.38l.2.3.31.48.43.64c.15.21.32.43.52.69A.33.33,0,0,0,74.81,61.76Z"/><path class="cls-1" d="M78.35,62.83a3.27,3.27,0,0,0-.14.33c0,.11-.07.21-.1.31a.38.38,0,0,1-.13.18l-.07,0a1.14,1.14,0,0,1-.09-.7,2.87,2.87,0,0,1,.23-.83,3.62,3.62,0,0,1,.44-.74,1.55,1.55,0,0,1,.54-.47,3.55,3.55,0,0,1,.82-.3,1.61,1.61,0,0,1,.86.06l0-.1-.94-1.86a.57.57,0,0,0-.36-.27.65.65,0,0,0-.46,0,.66.66,0,0,0-.28.27c-.07.13-.15.27-.24.41a3,3,0,0,1-.29.43,1.32,1.32,0,0,1-.43.34,1,1,0,0,1-.55.11,1.49,1.49,0,0,1-.54-.14,1.71,1.71,0,0,1-.47-.34,1.57,1.57,0,0,1-.34-.45,1.72,1.72,0,0,1-.21-.85,2.17,2.17,0,0,1,.15-.79,4.48,4.48,0,0,1,.39-.75c.17-.24.33-.5.49-.77a4.84,4.84,0,0,0,.38-.72,2.79,2.79,0,0,1,.42-.72.19.19,0,0,1,.2,0l.27.15a.88.88,0,0,0,.32.12.58.58,0,0,0,.36-.06.59.59,0,0,0,.31-.29,1.89,1.89,0,0,0,.09-.34,3.11,3.11,0,0,1,0-.32.28.28,0,0,1,.17-.21,2.11,2.11,0,0,1,.19.72,3,3,0,0,1-.06.85A2.43,2.43,0,0,1,79,56a1.38,1.38,0,0,1-.57.53l0,0a.76.76,0,0,1-.35.06h-.49l-.42,0q-.17,0-.12.12l.75,1.48a.75.75,0,0,0,.27.26.36.36,0,0,0,.34,0,.75.75,0,0,0,.31-.3,4.13,4.13,0,0,0,.22-.42c.08-.15.16-.3.26-.45a1.13,1.13,0,0,1,.42-.35,1.21,1.21,0,0,1,.69-.14,1.36,1.36,0,0,1,.61.22,2.31,2.31,0,0,1,.51.48,5.6,5.6,0,0,1,.38.61l0,.06.24.59a1.71,1.71,0,0,1,.15.57,1.29,1.29,0,0,1-.16.68,4,4,0,0,1-.44.66c-.17.22-.34.42-.51.62a1.55,1.55,0,0,0-.33.57l-.09.17a2.56,2.56,0,0,1-.11.24l-.12.23a.38.38,0,0,1-.12.13l-.06,0a8.37,8.37,0,0,0-.88-.25,1.24,1.24,0,0,0-.81.15A.58.58,0,0,0,78.35,62.83Z"/><path class="cls-1" d="M83,60.53a1.92,1.92,0,0,0-.18.31l-.15.29a.26.26,0,0,1-.15.16l-.07,0a1.22,1.22,0,0,1,0-.71,3.16,3.16,0,0,1,.33-.79,3.63,3.63,0,0,1,.53-.68,1.7,1.7,0,0,1,.6-.4,3.34,3.34,0,0,1,.85-.19,1.67,1.67,0,0,1,.85.16l0-.09-.7-2a.52.52,0,0,0-.32-.31.62.62,0,0,0-.46,0,.64.64,0,0,0-.3.23l-.29.38c-.11.13-.22.26-.35.39a1.37,1.37,0,0,1-.47.28,1,1,0,0,1-.55,0,1.58,1.58,0,0,1-.52-.21,2,2,0,0,1-.43-.39,1.75,1.75,0,0,1-.28-.49,1.82,1.82,0,0,1-.1-.87,2,2,0,0,1,.25-.76,3.8,3.8,0,0,1,.48-.7c.2-.23.39-.46.58-.71a4.61,4.61,0,0,0,.47-.67,2.77,2.77,0,0,1,.51-.66.2.2,0,0,1,.19.06l.25.18a1.08,1.08,0,0,0,.3.16.56.56,0,0,0,.36,0,.64.64,0,0,0,.35-.25,1.2,1.2,0,0,0,.13-.33c0-.11,0-.21.08-.31a.29.29,0,0,1,.2-.19,1.93,1.93,0,0,1,.09.75,3,3,0,0,1-.16.83,2.91,2.91,0,0,1-.41.73,1.44,1.44,0,0,1-.64.46h0a.9.9,0,0,1-.35,0L83,54.23l-.42,0c-.11,0-.16,0-.14.09L83,55.85a.72.72,0,0,0,.24.3.36.36,0,0,0,.33.08A.75.75,0,0,0,84,56q.14-.18.27-.39a2.94,2.94,0,0,1,.31-.41,1,1,0,0,1,.46-.29,1.11,1.11,0,0,1,.71-.06,1.31,1.31,0,0,1,.57.3,2.12,2.12,0,0,1,.44.54,3.45,3.45,0,0,1,.3.65l0,.07.17.61a2.1,2.1,0,0,1,.07.58,1.21,1.21,0,0,1-.24.66,4.86,4.86,0,0,1-.52.6l-.59.55a1.5,1.5,0,0,0-.39.53.73.73,0,0,0-.11.15l-.14.22-.15.21a.33.33,0,0,1-.13.12l-.07,0c-.33-.15-.61-.27-.84-.35a1.21,1.21,0,0,0-.83,0A.56.56,0,0,0,83,60.53Z"/></g></g></svg>