<svg xmlns="http://www.w3.org/2000/svg" xmlns:xlink="http://www.w3.org/1999/xlink" viewBox="0 0 183.56 203.37"><defs><style>.cls-1{fill:none;}.cls-2{fill:#fff;}.cls-3{fill:url(#New_Pattern);}</style><pattern id="New_Pattern" data-name="New Pattern" width="152" height="20" patternTransform="translate(947 -9)" patternUnits="userSpaceOnUse" viewBox="0 0 152 20"><rect class="cls-1" width="152" height="20"/><rect class="cls-2" y="17.25" width="152" height="1.5" rx="0.18" ry="0.18"/><rect class="cls-2" y="13.25" width="152" height="1.5" rx="0.18" ry="0.18"/><rect class="cls-2" y="9.25" width="152" height="1.5" rx="0.18" ry="0.18"/><rect class="cls-2" y="5.25" width="152" height="1.5" rx="0.18" ry="0.18"/><rect class="cls-2" y="1.25" width="152" height="1.5" rx="0.18" ry="0.18"/></pattern></defs><title>saydo</title><g id="Layer_2" data-name="Layer 2"><g id="Layer_1-2" data-name="Layer 1"><path class="cls-3" d="M40.91,20.31q0-3.64-2.15-5.13a11.18,11.18,0,0,0-5.83-1.36,15.36,15.36,0,0,0-5.08.86,4.34,4.34,0,0,0-2.67,4.18,3.14,3.14,0,0,0,1.72,2.73,11.91,11.91,0,0,0,4,1.75l2.64.51c.82.23,1.69.45,2.59.68s1.81.41,2.69.64a14.23,14.23,0,0,1,2.38.86q7.76,2.89,11,7.25a16.13,16.13,0,0,1,3.06,10q-.3,11.28-8.79,16.6a33.77,33.77,0,0,1-19,5.51,31.27,31.27,0,0,1-5.17-.43,37.44,37.44,0,0,1-4.88-.89,26.09,26.09,0,0,1-8.54-4q-7.57-5.33-7.49-17.1H19.86q0,4.86,2.34,7a6.63,6.63,0,0,0,3.05,1.24,20.75,20.75,0,0,0,4,.34A10.69,10.69,0,0,0,34.89,50a5,5,0,0,0,2.72-4.45,4,4,0,0,0-1.11-2.91,11.33,11.33,0,0,0-3.26-1.83,48,48,0,0,0-4.85-1.54c-1.94-.54-4.05-1.13-6.34-1.75a55.09,55.09,0,0,1-5.24-2.4,17.25,17.25,0,0,1-4.7-3.24c-2.95-2.51-4.44-6.3-4.5-11.37Q7.78,9.92,15.91,4.9A32.47,32.47,0,0,1,33.51,0q10.16-.09,17.4,4.34,7.06,4.56,7.16,16Z"/><path class="cls-3" d="M88.3,1.49h18.26L116,63.87H97.68l-1-8.91H77l-4.67,8.91h-19ZM83.71,41.65H95.32l-2-18.74h-.17Z"/><path class="cls-3" d="M135.53,41l-13-39.49h18.71L147,24.74,161.76,1.49h21.8l-29.45,39.3-4.54,23.08H130.79Z"/><path class="cls-3" d="M41.83,132.87l-1.92-3.23a17.22,17.22,0,0,1-7.24,3.66,32.62,32.62,0,0,1-8.26,1.07q-11.07-.18-16-5.93a18.33,18.33,0,0,1-5-13.06q.09-7.77,4.9-12.54a26.48,26.48,0,0,1,11.58-7,24.77,24.77,0,0,1-1.66-2.65,12.37,12.37,0,0,1-1.11-3.11,11.71,11.71,0,0,1-.64-4,13.43,13.43,0,0,1,.17-2.09,17.13,17.13,0,0,1,.55-2.52A18.51,18.51,0,0,1,20,75.83,14.71,14.71,0,0,1,25.93,71a23.54,23.54,0,0,1,10.13-2,18.44,18.44,0,0,1,12.27,4.36,14.75,14.75,0,0,1,5.11,11.58,15.31,15.31,0,0,1-3.89,10.3,24.68,24.68,0,0,1-9.09,6.58L44.4,108a17.87,17.87,0,0,0,3.27-5.5H62.2a27.8,27.8,0,0,1-4,10A41.52,41.52,0,0,1,52,120.05l8.06,12.82ZM26.35,107.62a16.39,16.39,0,0,0-5.58,3.24,6.11,6.11,0,0,0-1.69,4.27,6.28,6.28,0,0,0,1.28,3.24,4.3,4.3,0,0,0,3.8,2.18,8.94,8.94,0,0,0,4.05-.94,17.78,17.78,0,0,0,3.47-2.56ZM33.74,91.7a20.53,20.53,0,0,0,4.51-2.86,5.43,5.43,0,0,0,2.21-4.27q-.18-3.79-4.15-4a7.47,7.47,0,0,0-3.42.9c-1.3.62-2,1.88-2,3.75a6,6,0,0,0,1,3.33A32.34,32.34,0,0,0,33.74,91.7Z"/><path class="cls-3" d="M13,139.49H40.88a28.31,28.31,0,0,1,8.63,1.41,20.8,20.8,0,0,1,7.92,4.61A22.51,22.51,0,0,1,63.21,154a32.64,32.64,0,0,1,1.7,13q-.87,15.82-9.75,25.17-9,9.6-24.86,9.68H0Zm9.35,46.43h9a12.81,12.81,0,0,0,7.61-2.18,14.31,14.31,0,0,0,4.47-5.18,22.05,22.05,0,0,0,2.32-6.21,28.82,28.82,0,0,0,.58-5.26c-.05-4.62-1.08-7.75-3.06-9.37a7.57,7.57,0,0,0-3.4-1.84,21.33,21.33,0,0,0-4.47-.43H28.52Z"/><path class="cls-3" d="M72.76,176q.09-16.17,9.31-26.93,9-10.93,24.64-11.1,27-.25,27.49,27.35-.09,16.1-9.22,26.84-9.06,10.92-24.72,11.18Q73.17,203.28,72.76,176Zm18.6.43a13.52,13.52,0,0,0,2,7.7,9.2,9.2,0,0,0,7.4,3.68,10.91,10.91,0,0,0,7.12-2.35,16.8,16.8,0,0,0,4.55-5.69,35.72,35.72,0,0,0,3.14-14.89,27.23,27.23,0,0,0-.33-4.32,11.78,11.78,0,0,0-1.61-3.6,8.09,8.09,0,0,0-2.81-2.52,10.23,10.23,0,0,0-4.64-.94,10.93,10.93,0,0,0-6.95,2.18,17.38,17.38,0,0,0-4.59,5.78,29.47,29.47,0,0,0-2.44,7.36c-.25,1.34-.46,2.62-.62,3.85A28.49,28.49,0,0,0,91.36,176.46Z"/></g></g></svg>