<svg xmlns="http://www.w3.org/2000/svg" xmlns:xlink="http://www.w3.org/1999/xlink" viewBox="0 0 301.85 334.42"><defs><style>.cls-1{fill:none;}.cls-2{fill:#fac8d2;}.cls-3{fill:url(#New_Pattern);}</style><pattern id="New_Pattern" data-name="New Pattern" width="152" height="20" patternTransform="translate(1309.63 -15.14) scale(1.64)" patternUnits="userSpaceOnUse" viewBox="0 0 152 20"><rect class="cls-1" width="152" height="20"/><rect class="cls-2" y="17.25" width="152" height="1.5" rx="0.18" ry="0.18"/><rect class="cls-2" y="13.25" width="152" height="1.5" rx="0.18" ry="0.18"/><rect class="cls-2" y="9.25" width="152" height="1.5" rx="0.18" ry="0.18"/><rect class="cls-2" y="5.25" width="152" height="1.5" rx="0.18" ry="0.18"/><rect class="cls-2" y="1.25" width="152" height="1.5" rx="0.18" ry="0.18"/></pattern></defs><title>saydo_1</title><g id="Layer_2" data-name="Layer 2"><g id="Layer_1-2" data-name="Layer 1"><path class="cls-3" d="M67.27,33.39q0-6-3.53-8.43a18.47,18.47,0,0,0-9.59-2.23,25.37,25.37,0,0,0-8.35,1.4A7.15,7.15,0,0,0,41.41,31a5.18,5.18,0,0,0,2.82,4.49,19.82,19.82,0,0,0,6.51,2.88l4.34.84c1.36.37,2.78.75,4.27,1.12s3,.68,4.42,1a23.27,23.27,0,0,1,3.9,1.41q12.77,4.77,18,11.92a26.44,26.44,0,0,1,5,16.42q-.5,18.52-14.46,27.3a55.51,55.51,0,0,1-31.19,9,52.3,52.3,0,0,1-8.5-.7,60.42,60.42,0,0,1-8-1.47,42.7,42.7,0,0,1-14-6.6Q2.09,89.95,2.23,70.59H32.66q0,8,3.84,11.58a11,11,0,0,0,5,2,32.53,32.53,0,0,0,6.56.56,17.42,17.42,0,0,0,9.28-2.6,8.08,8.08,0,0,0,4.47-7.3A6.66,6.66,0,0,0,60,70.08a18.6,18.6,0,0,0-5.37-3,76.45,76.45,0,0,0-8-2.53q-4.78-1.35-10.44-2.89-4.41-1.76-8.61-3.93a28.93,28.93,0,0,1-7.73-5.34q-7.26-6.19-7.39-18.7.27-17.35,13.64-25.62a53.57,53.57,0,0,1,29-8q16.68-.13,28.6,7.14,11.64,7.5,11.77,26.25Z"/><path class="cls-3" d="M145.2,2.46h30L190.71,105H160.62L159,90.38h-32.4L118.91,105H87.73Zm-7.54,66h19.09l-3.33-30.81h-.27Z"/><path class="cls-3" d="M222.86,67.38,201.53,2.46H232.3l9.44,38.22L266,2.46h35.86L253.42,67.08,246,105H215.07Z"/><path class="cls-3" d="M68.78,218.5l-3.15-5.33a28.33,28.33,0,0,1-11.9,6A53.56,53.56,0,0,1,40.14,221q-18.19-.27-26.25-9.75A30,30,0,0,1,5.7,189.73q.13-12.76,8-20.63a43.71,43.71,0,0,1,19-11.5,44.09,44.09,0,0,1-2.73-4.35,21.1,21.1,0,0,1-1.83-5.13,19.32,19.32,0,0,1-1.05-6.66,23.23,23.23,0,0,1,.28-3.44,29.22,29.22,0,0,1,.9-4.14,30.5,30.5,0,0,1,4.51-9.19,24.3,24.3,0,0,1,9.78-7.93q6.3-3.15,16.64-3.3,12.08.15,20.19,7.17t8.39,19a25.1,25.1,0,0,1-6.39,16.93,40.48,40.48,0,0,1-14.94,10.82L73,177.6a29.73,29.73,0,0,0,5.37-9h23.9a45.72,45.72,0,0,1-6.62,16.39,67.65,67.65,0,0,1-10.17,12.47L98.74,218.5ZM43.33,177q-6.53,2.59-9.17,5.33a10,10,0,0,0-2.78,7,10.3,10.3,0,0,0,2.1,5.33,7.09,7.09,0,0,0,6.25,3.58,14.57,14.57,0,0,0,6.66-1.55,28.77,28.77,0,0,0,5.71-4.21Zm12.16-26.18a34.32,34.32,0,0,0,7.41-4.71,8.93,8.93,0,0,0,3.64-7q-.3-6.25-6.82-6.53A12.31,12.31,0,0,0,54.08,134q-3.19,1.53-3.34,6.17a9.77,9.77,0,0,0,1.71,5.47A49.31,49.31,0,0,0,55.49,150.79Z"/><path class="cls-3" d="M21.4,229.38H67.22a46.68,46.68,0,0,1,14.19,2.32,34.26,34.26,0,0,1,13,7.58,37.13,37.13,0,0,1,9.51,14q3.35,8.77,2.78,21.4-1.42,26-16,41.39Q76,331.83,49.82,332H0Zm15.36,76.35H51.52A21,21,0,0,0,64,302.14a23.84,23.84,0,0,0,7.35-8.52,36.49,36.49,0,0,0,3.81-10.2,48.51,48.51,0,0,0,1-8.66q-.14-11.4-5-15.41a12.46,12.46,0,0,0-5.58-3,35.56,35.56,0,0,0-7.35-.7H46.89Z"/><path class="cls-3" d="M119.65,289.47q.13-26.61,15.3-44.29,14.88-18,40.52-18.25,44.39-.42,45.2,45-.13,26.46-15.16,44.13-14.88,18-40.65,18.39Q120.32,334.27,119.65,289.47Zm30.58.7a22.37,22.37,0,0,0,3.33,12.66,13.64,13.64,0,0,0,4.9,4.22,13.49,13.49,0,0,0,7.28,1.83,17.93,17.93,0,0,0,11.7-3.87,27.65,27.65,0,0,0,7.49-9.35,59,59,0,0,0,5.17-24.49,44.93,44.93,0,0,0-.55-7.1,19.16,19.16,0,0,0-2.65-5.91,13.13,13.13,0,0,0-4.63-4.15,16.81,16.81,0,0,0-7.62-1.55,17.93,17.93,0,0,0-11.43,3.59,28.57,28.57,0,0,0-7.55,9.5,48.73,48.73,0,0,0-4,12.1q-.61,3.3-1,6.33A48.73,48.73,0,0,0,150.23,290.17Z"/></g></g></svg>