<svg xmlns="http://www.w3.org/2000/svg" viewBox="0 0 294.5 219.06"><defs><style>.cls-1{fill:#f4cde1;stroke:#f4cde1;stroke-miterlimit:10;stroke-width:4px;}</style></defs><title>Asset 7</title><g id="Layer_2" data-name="Layer 2"><g id="Layer_2-2" data-name="Layer 2"><path class="cls-1" d="M2.26,165.65l20.38-3.46c3.47,23.25,18.1,34.72,41,34.71,21,0,32.71-9.19,32.71-24.69s-8-22.67-25.83-25l-22.67-2.58c-27.83-3.43-40.76-18.35-40.76-40.16C7.12,79,26.9,63.19,59.92,63.18c31.85,0,53.09,16.33,56.26,44.17l-19.81,4c-3.17-20.09-16.07-31.85-37-31.84-20.38,0-32.71,8.92-32.7,24.12,0,13.49,8.32,21.53,27.27,23.81l23,2.86c28.14,3.43,39.33,17.77,39.34,40.16,0,26.69-19.49,43.06-53.35,43.07S6.88,196.92,2.26,165.65Z"/><path class="cls-1" d="M186.86,95.84c7.73-19.8,25.81-32.72,46.46-32.73,37.32,0,59.13,31.26,59.15,74.88,0,44.77-22.36,75.48-60,75.5-20.35,0-39.3-12-46.48-32.13l-3.73,28.7H167.09L167,2h19.81Zm41.35,99.86c27.27,0,43-22.7,43-57.7,0-34.15-14.93-57.1-42.48-57.09-26.4,0-42.19,22.11-42.18,54.25v6.89C186.58,173.33,202.11,195.71,228.21,195.7Z"/><rect class="cls-1" x="2.28" y="199.06" width="290.21" height="17.95"/></g></g></svg>