<svg xmlns="http://www.w3.org/2000/svg" viewBox="0 0 203.5 150.93"><defs><style>.cls-1{fill:#f4cde1;}.cls-2{fill:#808285;}</style></defs><title>Asset 6</title><g id="Layer_2" data-name="Layer 2"><g id="Layer_2-2" data-name="Layer 2"><path class="cls-1" d="M108,103.57c0-1.83-.91-3.13-2.47-3.13a2.09,2.09,0,0,0-1.94,1.36V97.88h-.83v8.24h-2.59a1.67,1.67,0,0,0,.47-1.2c0-.94-.47-1.53-1.65-1.68l-1-.12c-.8-.09-1.14-.43-1.14-1s.51-1,1.36-1a1.45,1.45,0,0,1,1.55,1.33l.83-.17a2.1,2.1,0,0,0-2.35-1.84c-1.38,0-2.21.65-2.21,1.72,0,.91.54,1.54,1.7,1.68l.95.11c.74.1,1.08.39,1.08,1s-.49,1-1.37,1a1.56,1.56,0,0,1-1.71-1.45l-.85.15a2.2,2.2,0,0,0,.71,1.4h-.71v.75H108v-.75h-.92A3.43,3.43,0,0,0,108,103.57Zm-4.42-.12c0-1.35.66-2.27,1.76-2.27s1.78,1,1.78,2.39-.66,2.41-1.8,2.41-1.74-.94-1.74-2.25Zm0,1.93a2,2,0,0,0,.49.74h-.59Z"/><path class="cls-2" d="M93.73,0l.32,3.6-.32,0,0-.53a.84.84,0,0,1-.77.66c-.63.06-1.07-.43-1.14-1.21s.3-1.34,1-1.39a.76.76,0,0,1,.79.44L93.38,0Zm-.94,1.46c-.47,0-.71.44-.66,1.06s.37,1,.82.93.7-.45.65-1V2.33C93.54,1.78,93.24,1.42,92.79,1.46Z"/><path class="cls-2" d="M112.54,3.59l.81.1.22-1.9-.74-.09,0-.28,1.09.13-.26,2.18.86.1,0,.29-2-.24Zm1.51-2.53-.5-.06.07-.6.51.06Z"/><path class="cls-2" d="M134.66,6.21a1.6,1.6,0,0,1,.39.18l-.1.31a1.88,1.88,0,0,0-.4-.19,1.14,1.14,0,0,0-1.45.87l-.3.89-.33-.11.79-2.37.32.11-.23.7A1.19,1.19,0,0,1,134.66,6.21Z"/><path class="cls-2" d="M151.66,15.36h0a.8.8,0,0,0,.22,1.18.74.74,0,0,0,.87-.09l.18.28a1,1,0,0,1-1.2.08c-.66-.39-.72-1-.31-1.74a1.11,1.11,0,0,1,1.59-.53c.66.38.62,1,.28,1.58l-.08.13Zm.15-.25,1.24.72a.69.69,0,0,0-.19-1.05A.75.75,0,0,0,151.81,15.11Z"/><path class="cls-2" d="M168.14,27a1.13,1.13,0,0,1,1.71-.2.94.94,0,0,1,.15,1.33l-.29-.21a.64.64,0,0,0-.08-.91c-.37-.33-.83-.21-1.22.22s-.49.93-.11,1.27a.65.65,0,0,0,.93,0l.21.26a1,1,0,0,1-1.34,0A1.14,1.14,0,0,1,168.14,27Z"/><path class="cls-2" d="M183.12,41.43l.42.59.53-.39.33.19-.65.48.58.79-.23.17-.58-.8-1.12.83a.45.45,0,0,0-.12.72,2.1,2.1,0,0,0,.31.35l-.26.19a2.16,2.16,0,0,1-.32-.34.77.77,0,0,1,.14-1.18l1.16-.85-.42-.58Z"/><path class="cls-2" d="M191.91,60.35l.34.75,1.74-.8-.31-.68.26-.12.46,1-2,.91.36.79-.26.12-.84-1.85Zm3,0-.21-.46.55-.25.21.46Z"/><path class="cls-2" d="M199.49,79.14a1.15,1.15,0,1,1-1,1.4A1.16,1.16,0,0,1,199.49,79.14Zm.42,1.87c.6-.14.91-.51.8-1s-.53-.66-1.14-.53-.91.51-.81,1S199.3,81.15,199.91,81Z"/><path class="cls-2" d="M203.5,100.78a.87.87,0,0,1-.2.6,1,1,0,0,1-.8.26l-1.53,0v-.35l1.52,0c.59,0,.72-.31.71-.6,0-.56-.53-.74-.94-.73l-1.31,0v-.35l2.48,0v.33h-.55A.85.85,0,0,1,203.5,100.78Z"/><path class="cls-2" d="M10.85,149.92,14,148.21l.15.29-.46.25a.84.84,0,0,1,.91.45c.29.56,0,1.16-.68,1.53a1.13,1.13,0,0,1-1.65-.34.78.78,0,0,1,.09-.91l-1.38.74Zm1.72.29c.22.42.68.48,1.22.19s.75-.71.54-1.11-.69-.48-1.19-.21l-.09,0C12.56,149.39,12.35,149.81,12.57,150.21Z"/><path class="cls-2" d="M5.89,131.34h0a.8.8,0,0,0,.65-1,.73.73,0,0,0-.68-.52l.06-.33a1,1,0,0,1,.92.77c.21.73-.18,1.24-1,1.47A1.12,1.12,0,0,1,4.36,131c-.21-.73.24-1.15.88-1.34l.15,0Zm-.27.08L5.21,130a.7.7,0,0,0-.58.9A.76.76,0,0,0,5.62,131.42Z"/><path class="cls-2" d="M2.41,111.35,2.32,111a.63.63,0,0,0,.54-.75c0-.37-.2-.56-.47-.53s-.38.17-.39.48v.39c0,.49-.26.73-.64.76s-.74-.28-.79-.85a.89.89,0,0,1,.69-1l.09.34a.59.59,0,0,0-.49.68c0,.36.19.56.46.54s.36-.18.37-.51l0-.4c0-.49.25-.7.64-.73s.77.27.81.86A.94.94,0,0,1,2.41,111.35Z"/><path class="cls-2" d="M.66,89.34l-.06.5L0,89.76l.06-.5Zm2.52,1.54.1-.81-1.89-.25-.1.75-.28,0,.14-1.09,2.18.28.11-.85.28,0-.25,2Z"/><path class="cls-2" d="M6.19,68.87a.79.79,0,0,1,.64,0A.84.84,0,0,1,7.33,70a1,1,0,0,1-.25.41.29.29,0,0,0,.2.29c.16.06.31,0,.4-.31l.21-.64c.17-.48.49-.67.88-.53s.62.67.37,1.39-.6,1-1,.85a.59.59,0,0,1-.39-.6.43.43,0,0,1-.51.16.5.5,0,0,1-.34-.49.79.79,0,0,1-.66,0,.84.84,0,0,1-.51-1.13A1,1,0,0,1,6,69a.57.57,0,0,1-.23-.7.45.45,0,0,1,.06-.12l.29.1a.42.42,0,0,0-.06.14A.38.38,0,0,0,6.19,68.87Zm.53.27a.58.58,0,1,0,.36.75A.57.57,0,0,0,6.72,69.14ZM8,70.47l-.07.18a.44.44,0,0,0,.29.42c.29.1.52-.11.7-.62s.11-.82-.19-.92-.42,0-.53.36Z"/><path class="cls-2" d="M14.56,50.37a.83.83,0,0,1,.49-.41,1.06,1.06,0,0,1,.83.2l1.31.78-.18.3-1.3-.78c-.51-.3-.78-.11-.92.13a.81.81,0,0,0,.41,1.12l1.13.67-.18.3L14,51.41l.17-.28.47.28A.89.89,0,0,1,14.56,50.37Z"/><path class="cls-2" d="M43.51,20.52c.15-.1.19-.28.08-.54l.26-.11a.69.69,0,0,1-.17.91c-.37.26-.74,0-1,.22a.38.38,0,0,0-.13.5l-.26.15a.67.67,0,0,1,.2-.89C42.85,20.49,43.24,20.71,43.51,20.52Z"/></g></g></svg>