<svg xmlns="http://www.w3.org/2000/svg" viewBox="0 0 196.93 196.46"><defs><style>.cls-1{fill:#fac8d2;}</style></defs><title>Asset 9</title><g id="Layer_2" data-name="Layer 2"><g id="content"><path class="cls-1" d="M58,152.27l2.11.85a3.11,3.11,0,0,0,1.38,4.27c1.53,1,2.72.77,3.42-.35s.33-1.57-.51-2.38l-1.67-1.56c-1.59-1.48-1.81-3-.79-4.63,1.27-2,3.78-2.37,6.3-.8,2.93,1.83,3.39,4.05,2.43,6.18l-2.16-.77c.7-1.61.5-2.81-1.29-3.93-1.39-.87-2.63-.75-3.31.33s-.34,1.63.65,2.55l1.62,1.54c1.62,1.53,1.67,3,.77,4.47-1.33,2.14-3.81,2.52-6.53.83C57.57,157.06,57.05,154.6,58,152.27Z"/><path class="cls-1" d="M76.75,154.93a5.18,5.18,0,0,1,5.16-1.09c2.81,1,3.38,3.7,2.39,6.58-1.28,3.71-4.94,7-8.7,5.67a3.9,3.9,0,0,1-2.92-3.51l-3.56,6.32L67,168.17l8.94-16,2,.68ZM74.14,160c-.67,1.94-.1,3.46,1.65,4.06,2.88,1,5.34-1.74,6.2-4.25.68-2,.37-3.78-1.6-4.46s-4.12.45-5.45,2.94l-.31.61A6.8,6.8,0,0,0,74.14,160Z"/><path class="cls-1" d="M88.27,162.93l0,.42c-.27,2.56,1,4,3.09,4.22a4,4,0,0,0,3.89-1.92l1.55,1.18a5.82,5.82,0,0,1-5.8,2.66c-3.55-.37-5.23-2.74-4.85-6.44.41-3.91,3-7.47,7.52-7,3.44.36,4.82,2.68,4.52,5.58a9.74,9.74,0,0,1-.56,2.27Zm.42-1.79,7.23.76a6.15,6.15,0,0,0,.14-.82,2.82,2.82,0,0,0-2.79-3.33C91,157.51,89.43,158.84,88.69,161.14Z"/><path class="cls-1" d="M107.65,155.58a4.06,4.06,0,0,1,3.15.81,3.59,3.59,0,0,1,1.16,2.4,8.83,8.83,0,0,1,0,1.57l-.4,8.15-2.19.28.39-8.16a7.24,7.24,0,0,0,0-1,2.15,2.15,0,0,0-2.74-2c-2.25.28-3.45,2-3.59,5.07l-.34,6.89-2.2.27.66-13.2,2.06-.26-.11,2.62A5,5,0,0,1,107.65,155.58Z"/><path class="cls-1" d="M115.64,162.17c-1.18-3.23-1-8,3.64-9.71,2.62-1,5.3-.43,6.44,2.7l-1.92,1c-.91-2.22-2.54-2.35-3.91-1.85-3.16,1.14-2.87,4.75-2,7.07,1,2.79,2.92,3,4.39,2.48,1.84-.66,2.35-2.29,2.13-4.06l2.14-.42c.36,2.83-.73,5.25-3.71,6.33C120.34,166.59,117.15,166.36,115.64,162.17Z"/><path class="cls-1" d="M131.26,155.05l.23.35c1.4,2.16,3.31,2.47,5.06,1.34a4,4,0,0,0,1.81-3.94l1.95-.06a5.83,5.83,0,0,1-2.83,5.72c-3,1.94-5.8,1.16-7.82-2-2.14-3.3-2.4-7.66,1.44-10.16,2.9-1.88,5.43-1,7,1.49a9.28,9.28,0,0,1,1,2.12Zm-.79-1.65,6.09-4a8.07,8.07,0,0,0-.41-.73,2.83,2.83,0,0,0-4.27-.83C130,149.12,129.59,151.14,130.47,153.4Z"/><path class="cls-1" d="M143.55,135.29a5.68,5.68,0,0,1,2-1.46l1.19,1.62a7.4,7.4,0,0,0-2,1.58c-2.17,2.26-2.53,5.71,0,9.2l2.9,4-1.54,1.6-7.79-10.68,1.52-1.58,2,2.78A7.15,7.15,0,0,1,143.55,135.29Z"/><path class="cls-1" d="M153.32,137.93l.82-2.12a3.09,3.09,0,0,0,4.24-1.46c.93-1.54.73-2.72-.41-3.4s-1.58-.31-2.37.55l-1.53,1.69c-1.45,1.62-3,1.86-4.62.87-2-1.23-2.43-3.74-.9-6.28,1.78-3,4-3.46,6.14-2.54l-.73,2.18c-1.63-.68-2.83-.46-3.91,1.35-.85,1.41-.71,2.64.39,3.3.93.56,1.63.31,2.54-.69l1.5-1.65c1.5-1.64,3-1.71,4.45-.84,2.17,1.3,2.6,3.77.95,6.51C158.12,138.33,155.66,138.88,153.32,137.93Z"/><path class="cls-1" d="M155.65,119.2a5.2,5.2,0,0,1-1.17-5.15c.92-2.82,3.64-3.44,6.54-2.49,3.74,1.21,7.06,4.82,5.82,8.6a3.9,3.9,0,0,1-3.46,3l6.38,3.45-.7,2.13L152.86,120l.64-2Zm5.15,2.53c1.95.63,3.46,0,4-1.73.94-2.89-1.83-5.3-4.36-6.13-2-.64-3.79-.3-4.43,1.68s.52,4.11,3,5.4l.61.31A7.63,7.63,0,0,0,160.8,121.73Z"/><path class="cls-1" d="M163.47,107.56l.41,0c2.57.23,4-1.09,4.17-3.16a4,4,0,0,0-2-3.86L167.22,99a5.83,5.83,0,0,1,2.76,5.76c-.31,3.55-2.65,5.28-6.36,4.95-3.92-.34-7.52-2.83-7.12-7.39.3-3.45,2.6-4.87,5.5-4.62a10,10,0,0,1,2.28.52Zm-1.8-.4.63-7.23a6.45,6.45,0,0,0-.82-.13,2.81,2.81,0,0,0-3.28,2.85C158,104.91,159.35,106.46,161.67,107.16Z"/><path class="cls-1" d="M155.79,88.31a4,4,0,0,1,.77-3.16,3.57,3.57,0,0,1,2.38-1.2,8.52,8.52,0,0,1,1.56-.07l8.17.27.31,2.19-8.17-.26a8.36,8.36,0,0,0-1,0,2.16,2.16,0,0,0-2,2.78c.31,2.24,2,3.41,5.12,3.51l6.9.23.31,2.19L157,94.37l-.29-2.06,2.61.08A5,5,0,0,1,155.79,88.31Z"/><path class="cls-1" d="M162.25,80.2c-3.21,1.22-8,1.18-9.77-3.49-1-2.6-.52-5.3,2.6-6.48l1,1.9c-2.2,1-2.3,2.58-1.78,3.94,1.19,3.14,4.8,2.79,7.11,1.91,2.77-1.06,3-3,2.41-4.43-.7-1.82-2.34-2.31-4.11-2.06l-.45-2.14c2.83-.41,5.26.64,6.39,3.61C166.59,75.42,166.42,78.61,162.25,80.2Z"/><path class="cls-1" d="M154.88,64.7l.35-.23c2.13-1.44,2.41-3.36,1.25-5.08a4,4,0,0,0-4-1.75l-.09-2a5.84,5.84,0,0,1,5.76,2.73c2,3,1.26,5.78-1.83,7.86-3.26,2.2-7.62,2.53-10.18-1.27-1.93-2.87-1-5.42,1.38-7.05a9.93,9.93,0,0,1,2.09-1Zm-1.64.83-4.06-6a7.36,7.36,0,0,0-.72.42,2.81,2.81,0,0,0-.76,4.28C149,66.08,151,66.44,153.24,65.53Z"/><path class="cls-1" d="M134.9,52.71a5.79,5.79,0,0,1-1.49-2l1.6-1.22a7.28,7.28,0,0,0,1.62,2c2.28,2.13,5.74,2.43,9.18-.16l3.93-3,1.62,1.51-10.55,8-1.6-1.49L142,54.31A7.15,7.15,0,0,1,134.9,52.71Z"/><path class="cls-1" d="M62.42,143a5.48,5.48,0,0,1,1.67,1.8l-1.47,1.37a7.24,7.24,0,0,0-1.8-1.81c-2.48-1.89-6-1.85-9.13,1.06l-3.62,3.33-1.75-1.34,9.71-9,1.74,1.33-2.53,2.32A7.13,7.13,0,0,1,62.42,143Z"/><path class="cls-1" d="M137.39,42.93l-2.13-.79a3.1,3.1,0,0,0-1.53-4.22c-1.55-.9-2.73-.68-3.4.47s-.28,1.58.59,2.36l1.72,1.5c1.64,1.43,1.91,2.94,1,4.61-1.2,2.08-3.7,2.5-6.27,1-3-1.74-3.53-3.94-2.64-6.1l2.18.69c-.64,1.64-.4,2.84,1.42,3.89,1.42.82,2.66.67,3.3-.44.55-.95.28-1.64-.73-2.53l-1.68-1.48c-1.67-1.48-1.76-3-.92-4.44,1.27-2.19,3.74-2.66,6.51-1.05C137.71,38.12,138.31,40.57,137.39,42.93Z"/><path class="cls-1" d="M118.61,40.89a5.2,5.2,0,0,1-5.13,1.26c-2.83-.88-3.5-3.58-2.6-6.5,1.15-3.75,4.69-7.13,8.5-6a3.92,3.92,0,0,1,3,3.41l3.34-6.43,2.14.66-8.41,16.34-2-.61Zm2.44-5.19c.6-2,0-3.46-1.79-4-2.91-.9-5.28,1.91-6.06,4.45-.61,2-.24,3.8,1.75,4.41s4.1-.59,5.35-3.12l.29-.62A6.64,6.64,0,0,0,121.05,35.7Z"/><path class="cls-1" d="M106.84,33.28l0-.42c.18-2.57-1.16-4-3.24-4.12a4,4,0,0,0-3.82,2.06l-1.59-1.14a5.85,5.85,0,0,1,5.71-2.86c3.56.26,5.32,2.58,5.06,6.29-.28,3.92-2.7,7.56-7.27,7.24-3.46-.25-4.92-2.52-4.71-5.43a9.68,9.68,0,0,1,.48-2.29Zm-.37,1.8-7.24-.52a4.66,4.66,0,0,0-.11.83,2.81,2.81,0,0,0,2.9,3.23C104.28,38.79,105.81,37.41,106.47,35.08Z"/><path class="cls-1" d="M87.71,41.28a4.08,4.08,0,0,1-3.18-.71,3.62,3.62,0,0,1-1.24-2.36,9.49,9.49,0,0,1-.09-1.57l.13-8.17,2.18-.34-.12,8.16a8.58,8.58,0,0,0,0,1,2.16,2.16,0,0,0,2.81,1.93c2.24-.36,3.38-2.1,3.42-5.19l.12-6.9L94,26.78,93.75,40l-2.06.33,0-2.62A5,5,0,0,1,87.71,41.28Z"/><path class="cls-1" d="M79.49,35c1.28,3.19,1.32,8-3.32,9.83-2.58,1-5.28.6-6.52-2.49l1.88-1c1,2.19,2.62,2.26,4,1.72,3.12-1.25,2.72-4.85,1.8-7.14-1.11-2.75-3-2.91-4.47-2.33-1.81.73-2.28,2.37-2,4.13l-2.13.49a5.46,5.46,0,0,1,3.5-6.45C74.65,30.69,77.84,30.82,79.49,35Z"/><path class="cls-1" d="M64.14,42.58l-.24-.34c-1.48-2.11-3.4-2.36-5.11-1.17a4,4,0,0,0-1.68,4l-1.94.12a5.85,5.85,0,0,1,2.63-5.82c2.93-2,5.76-1.35,7.89,1.7,2.25,3.22,2.66,7.58-1.1,10.2-2.83,2-5.4,1.14-7.06-1.25A9.41,9.41,0,0,1,56.45,48ZM65,44.21l-6,4.16a5.61,5.61,0,0,0,.44.71,2.82,2.82,0,0,0,4.29.69C65.62,48.47,65.94,46.43,65,44.21Z"/><path class="cls-1" d="M52.5,62.75a5.75,5.75,0,0,1-1.93,1.52L49.33,62.7A7.7,7.7,0,0,0,51.27,61c2.09-2.32,2.33-5.78-.32-9.18l-3-3.88,1.48-1.64,8.14,10.41-1.46,1.63L54,55.67A7.14,7.14,0,0,1,52.5,62.75Z"/><path class="cls-1" d="M42.65,60.43l-.74,2.15a3.11,3.11,0,0,0-4.2,1.6c-.87,1.57-.63,2.74.53,3.39s1.59.25,2.35-.63l1.47-1.74c1.4-1.67,2.91-2,4.59-1,2.09,1.17,2.55,3.66,1.11,6.25-1.68,3-3.87,3.6-6,2.74l.66-2.2c1.65.63,2.84.36,3.86-1.48.8-1.43.62-2.66-.5-3.28-.95-.53-1.64-.26-2.51.77l-1.45,1.7c-1.45,1.69-3,1.81-4.43,1-2.2-1.23-2.71-3.68-1.16-6.48C37.84,60.2,40.28,59.56,42.65,60.43Z"/><path class="cls-1" d="M40.94,79.25a5.16,5.16,0,0,1,1.34,5.1c-.82,2.85-3.53,3.56-6.45,2.71-3.78-1.09-7.21-4.58-6.1-8.41a3.91,3.91,0,0,1,3.36-3.09L26.6,72.33l.62-2.15L43.7,78.31l-.58,2Zm-5.23-2.36c-2-.57-3.46.08-4,1.86-.85,2.92,2,5.24,4.56,6,2,.58,3.8.18,4.38-1.82s-.66-4.1-3.22-5.3l-.62-.29A6.89,6.89,0,0,0,35.71,76.89Z"/><path class="cls-1" d="M33.52,91.15l-.41,0c-2.58-.14-3.95,1.22-4.07,3.3a4,4,0,0,0,2.12,3.79l-1.1,1.61a5.84,5.84,0,0,1-3-5.66c.19-3.56,2.48-5.37,6.2-5.17,3.92.21,7.61,2.57,7.36,7.15-.18,3.46-2.43,4.95-5.34,4.8a9.46,9.46,0,0,1-2.3-.44Zm1.81.33-.39,7.26a6.34,6.34,0,0,0,.83.09,2.82,2.82,0,0,0,3.19-3C39.08,93.61,37.67,92.1,35.33,91.48Z"/><path class="cls-1" d="M41.84,110.11a4,4,0,0,1-.65,3.18,3.63,3.63,0,0,1-2.34,1.29,8.34,8.34,0,0,1-1.57.11H29.11l-.38-2.18H36.9a8.67,8.67,0,0,0,1-.07,2.15,2.15,0,0,0,1.88-2.84c-.39-2.23-2.15-3.35-5.24-3.34h-6.9l-.38-2.18H40.47l.36,2.06H38.21A4.94,4.94,0,0,1,41.84,110.11Z"/><path class="cls-1" d="M35.65,118.44c3.17-1.33,8-1.45,9.89,3.16,1.08,2.56.69,5.27-2.38,6.56l-1.07-1.87c2.17-1,2.21-2.65,1.65-4-1.3-3.09-4.89-2.63-7.17-1.67-2.74,1.15-2.87,3.07-2.26,4.51.76,1.8,2.41,2.24,4.17,1.92l.52,2.12a5.46,5.46,0,0,1-6.51-3.39C31.47,123.36,31.54,120.16,35.65,118.44Z"/><path class="cls-1" d="M43.54,133.68l-.33.25c-2.09,1.51-2.3,3.44-1.08,5.12a4,4,0,0,0,4,1.62l.15,1.94a5.82,5.82,0,0,1-5.85-2.54c-2.1-2.89-1.46-5.73,1.56-7.92,3.18-2.3,7.53-2.78,10.22.93,2,2.8,1.23,5.38-1.13,7.09a10.22,10.22,0,0,1-2.06,1.11Zm1.62-.87,4.26,5.88a6.8,6.8,0,0,0,.71-.45,2.82,2.82,0,0,0,.61-4.3C49.41,132.11,47.37,131.82,45.16,132.81Z"/><path class="cls-1" d="M76.85,17.07l-.3-1.51,3.59-1.45.43,2.14c.29,1.52,1,2.29,2.06,2.08s1.32-1.09,1.12-2.12l-.15-.77a2.5,2.5,0,0,0-1.87-2.25l-3-1.11A4.88,4.88,0,0,1,75.23,8l-.19-1c-.6-3.07,1.38-5,4.26-5.6,3.21-.63,5.47.24,6.17,3.79l.27,1.38L82.22,8l-.39-2c-.25-1.27-.87-2-2-1.79a1.47,1.47,0,0,0-1.14,1.88l.16.85a2.59,2.59,0,0,0,1.79,2l3,1.11a4.83,4.83,0,0,1,3.56,4.09l.28,1.43c.53,2.7-.9,4.93-4.37,5.62S77.47,20.22,76.85,17.07Z"/><path class="cls-1" d="M97.77,4.8l.11,1.59c.23,3.42-1.52,5.43-4.94,5.67l-1.59.11.5,7.33-3.74.25L86.79.63,92.05.26C95.6,0,97.52,1.57,97.77,4.8Zm-3.84.4c-.12-1.73-.76-2.41-2.08-2.32L90.71,3l.46,6.58,1.13-.08c1.32-.09,1.86-.94,1.72-2.85Z"/><path class="cls-1" d="M107.56,16.73l-.15,2.89-8.93-.48L99.5,0l8.73.46-.15,2.89-5-.27-.26,5,4.61.25-.15,2.88-4.62-.24-.29,5.53Z"/><path class="cls-1" d="M110.67.7l4,.73,1.47,9.74c.12,1,.2,2,.24,3h.06c.17-1.39.38-2.79.64-4.19l1.44-7.81,3.24.6-3.49,18.85-3.56-.66-1.61-10.56a29.24,29.24,0,0,1-.27-3.13l-.08,0c-.17,1.24-.31,2.42-.55,3.69l-1.71,9.24-3.26-.6Z"/><path class="cls-1" d="M120,16.34l2.58-7.71c1.24-3.71,3.84-5,7.32-3.84,3.31,1.11,4.63,3.38,3.51,6.7l-.62,1.85-3.89-.54.82-2.43c.5-1.51.25-2.45-.83-2.81s-2,.23-2.55,2l-2.75,8.22c-.58,1.74-.3,2.86.8,3.23s1.88-.25,2.38-1.74l.9-2.71,3.39,2-.66,2c-1.11,3.33-3.68,4.44-7,3.34C119.93,22.65,118.7,20.13,120,16.34Z"/><path class="cls-1" d="M138.07,26.46l-1.24,2.61-8.07-3.85L137,7.91l7.9,3.76-1.24,2.61-4.51-2.15L137,16.62l4.17,2-1.24,2.6-4.17-2-2.38,5Z"/><path class="cls-1" d="M145.14,25.13,144,24.4,139.8,31l-3.16-2L147,12.8l4.3,2.74c3.37,2.15,3.66,4.61,1.95,7.34l-.49.77c-1.22,1.91-2.71,2.69-4.29,2.51L146,34.94l-3.3-2.11ZM146.22,23c1.23.78,2.13.33,3.13-1.24l.66-1c.94-1.48.85-2.34-.36-3.11l-.93-.6-3.43,5.37Z"/><path class="cls-1" d="M148.19,30.68l1-1.18,3.38,1.9-1.41,1.67c-1,1.18-1.17,2.19-.33,2.9s1.68.36,2.36-.45l.5-.59a2.48,2.48,0,0,0,.58-2.87l-1-3a4.85,4.85,0,0,1,1-5.25l.64-.77c2-2.39,4.79-2.07,7-.18,2.5,2.11,3.23,4.42.9,7.19l-.91,1.07-3.3-1.86,1.32-1.57c.84-1,1-1.93.16-2.66a1.47,1.47,0,0,0-2.18.28l-.56.66a2.56,2.56,0,0,0-.4,2.62l1,3.06a4.81,4.81,0,0,1-1,5.33l-.94,1.12c-1.78,2.1-4.42,2.39-7.12.11S146.12,33.14,148.19,30.68Z"/><path class="cls-1" d="M170.86,39.34l-1.17,1.08c-2.52,2.32-5.2,2.21-7.52-.31l-1.08-1.18-5.4,5-2.55-2.76,14.11-13L170.82,32C173.23,34.66,173.23,37.12,170.86,39.34Zm-2.72-2.75c1.28-1.17,1.41-2.1.51-3.08l-.76-.83L163,37.14l.77.84c.89,1,1.89.86,3.3-.44Z"/><path class="cls-1" d="M167.67,54.48l-2.36,1.67-5.17-7.29,15.64-11.09,5.06,7.14-2.36,1.67-2.89-4.07-4.05,2.87,2.67,3.76-2.35,1.68-2.67-3.77-4.52,3.2Z"/><path class="cls-1" d="M182.1,46.76,184,50.3l-6.67,7.25c-.69.71-1.42,1.41-2.15,2.05l0,0c1.2-.74,2.41-1.46,3.67-2.14l7-3.77,1.57,2.9-16.88,9.11-1.72-3.19,7.23-7.88a30,30,0,0,1,2.26-2.18l0-.07c-1.07.64-2.07,1.28-3.21,1.89l-8.27,4.47-1.58-2.93Z"/><path class="cls-1" d="M175.76,63.86l7.63-2.81c3.67-1.35,6.31-.13,7.58,3.32,1.2,3.26.26,5.71-3,6.92l-1.82.67-2-3.37,2.41-.88c1.49-.55,2.07-1.34,1.68-2.4s-1.4-1.39-3.15-.74l-8.14,3c-1.72.63-2.42,1.55-2,2.64s1.38,1.31,2.85.76l2.68-1,.59,3.87-2,.71c-3.29,1.22-5.76-.09-6.95-3.34C170.82,67.78,172,65.24,175.76,63.86Z"/><path class="cls-1" d="M179.18,84.28l-2.81.66-2.05-8.7L193,71.86l2,8.52-2.81.66L191,76.17l-4.84,1.14,1.06,4.5-2.81.66L183.38,78,178,79.24Z"/><path class="cls-1" d="M184.64,89l-.15-1.34-7.75.83-.41-3.73,19.06-2,.54,5.07c.43,4-1.31,5.74-4.5,6.11l-.91.1c-2.25.24-3.79-.44-4.64-1.78l-8.36,3.61-.42-3.89Zm2.36-.5c.15,1.45,1.07,1.87,2.92,1.67l1.21-.13c1.74-.19,2.36-.8,2.2-2.22l-.12-1.1-6.33.68Z"/><path class="cls-1" d="M182.21,94.82l1.54,0,.63,3.83-2.18-.06c-1.54,0-2.45.46-2.47,1.56s.77,1.54,1.82,1.56l.79,0a2.49,2.49,0,0,0,2.59-1.34l1.74-2.69a4.88,4.88,0,0,1,4.71-2.53l1,0c3.13.08,4.61,2.44,4.54,5.38-.08,3.26-1.42,5.28-5,5.2l-1.4,0-.61-3.74,2,0c1.29,0,2.14-.41,2.17-1.54A1.47,1.47,0,0,0,192.5,99l-.86,0a2.57,2.57,0,0,0-2.3,1.33L187.6,103a4.8,4.8,0,0,1-4.76,2.59l-1.46,0c-2.75-.06-4.63-1.95-4.54-5.48S179,94.74,182.21,94.82Z"/><path class="cls-1" d="M189.66,117.9l-1.57-.23c-3.39-.51-5-2.66-4.47-6l.23-1.58L176.59,109l.56-3.71,18.95,2.85-.78,5.2C194.79,116.82,192.87,118.36,189.66,117.9Zm.44-3.84c1.71.26,2.52-.22,2.72-1.53l.16-1.12-6.51-1-.17,1.13c-.19,1.3.52,2,2.41,2.3Z"/><path class="cls-1" d="M175.92,124.87l-2.78-.77,2.38-8.61,18.47,5.1L191.66,129l-2.78-.77,1.33-4.81-4.79-1.32-1.23,4.45-2.78-.78,1.22-4.44-5.33-1.48Z"/><path class="cls-1" d="M190.91,131.36l-1.57,3.71-9.83-.67c-1-.1-2-.23-2.94-.39l0,.05c1.32.47,2.64,1,4,1.52l7.31,3.09-1.29,3-17.65-7.47,1.41-3.33,10.66.7a28,28,0,0,1,3.12.41l0-.08c-1.17-.43-2.29-.82-3.49-1.33L172,127l1.29-3Z"/><path class="cls-1" d="M173.62,137.1l7,4.19c3.36,2,4.06,4.84,2.16,8-1.8,3-4.29,3.78-7.3,2l-1.67-1,1.37-3.69,2.2,1.33c1.36.82,2.34.77,2.92-.2s.2-2-1.39-2.92l-7.43-4.47c-1.57-.95-2.72-.91-3.32.08s-.16,1.89,1.18,2.7l2.45,1.47-2.65,2.88-1.78-1.07c-3-1.81-3.53-4.55-1.75-7.51C167.47,135.69,170.2,135,173.62,137.1Z"/><path class="cls-1" d="M159.83,152.55l-2.28-1.78,5.51-7,15.1,11.8-5.39,6.89-2.28-1.78,3.08-3.93-3.91-3.06-2.85,3.64-2.27-1.78,2.84-3.64L163,148.46Z"/><path class="cls-1" d="M159.58,159.75l.95-.95-5.5-5.53,2.66-2.65,13.53,13.59-3.62,3.6c-2.83,2.82-5.29,2.57-7.58.31l-.65-.65c-1.6-1.61-2-3.23-1.52-4.74l-8-4.26,2.78-2.76Zm1.87,1.54c-1,1-.79,2,.52,3.32l.86.86c1.24,1.24,2.1,1.34,3.11.33l.79-.78-4.5-4.52Z"/><path class="cls-1" d="M153.51,161.49l.94,1.23-2.59,2.89-1.32-1.74c-.94-1.22-1.89-1.62-2.77-1s-.71,1.57-.07,2.4l.48.63a2.48,2.48,0,0,0,2.67,1.18l3.19-.33a4.89,4.89,0,0,1,4.92,2.08l.61.8c1.9,2.48,1,5.12-1.35,6.9-2.59,2-5,2.21-7.21-.67l-.85-1.11,2.53-2.82,1.25,1.63c.79,1,1.66,1.41,2.56.72a1.46,1.46,0,0,0,.19-2.18l-.52-.69a2.58,2.58,0,0,0-2.47-1l-3.21.35a4.81,4.81,0,0,1-5-2.09l-.89-1.16c-1.67-2.19-1.38-4.83,1.43-7S151.56,158.94,153.51,161.49Z"/><path class="cls-1" d="M140.2,181.78l-.81-1.37c-1.73-3-1-5.55,1.91-7.28l1.38-.8L139,166l3.24-1.89,9.68,16.55-4.55,2.66C144.26,185.1,141.86,184.57,140.2,181.78Zm3.26-2.06c.87,1.49,1.76,1.82,2.9,1.15l1-.57L144,174.61l-1,.57c-1.14.67-1.24,1.67-.28,3.32Z"/><path class="cls-1" d="M126.15,175.42,125,172.77l8.2-3.53,7.59,17.6-8,3.46-1.14-2.65,4.59-2-2-4.56L130,182.93l-1.14-2.65,4.24-1.82-2.19-5.09Z"/><path class="cls-1" d="M130.47,191.19l-3.87,1.09L121,184.19c-.55-.83-1.07-1.69-1.54-2.54l-.05,0c.46,1.33.9,2.66,1.29,4l2.16,7.64-3.17.9-5.22-18.45,3.48-1,6.13,8.76a31.21,31.21,0,0,1,1.63,2.69l.07,0c-.39-1.18-.79-2.3-1.14-3.54l-2.56-9.05,3.2-.9Z"/><path class="cls-1" d="M115.17,181.28l1.08,8.05c.52,3.88-1.24,6.19-4.88,6.67-3.45.47-5.63-1-6.1-4.46l-.26-1.93,3.73-1.23.34,2.54c.21,1.58.86,2.31,2,2.16s1.66-1.07,1.41-2.92l-1.15-8.59c-.25-1.82-1-2.7-2.14-2.54s-1.58,1.05-1.37,2.61l.38,2.83-3.9-.26-.28-2.07c-.47-3.47,1.35-5.6,4.77-6.06C112.42,175.6,114.64,177.31,115.17,181.28Z"/><path class="cls-1" d="M94.5,180.18l0-2.89,8.94-.11.24,19.17-8.75.11,0-2.89,5-.06-.06-5-4.62.06,0-2.89,4.62-.06-.07-5.54Z"/><path class="cls-1" d="M88.72,184.5l1.34.15.85-7.76,3.73.41-2.1,19.06-5.07-.56c-4-.44-5.32-2.52-5-5.71l.1-.92c.25-2.25,1.24-3.61,2.74-4.15l-1.73-8.94,3.89.43Zm0,2.41c-1.44-.16-2,.65-2.25,2.5l-.14,1.21c-.19,1.74.27,2.47,1.7,2.63l1.1.12.69-6.33Z"/><path class="cls-1" d="M83.51,180.86l-.36,1.49-3.87-.2L79.8,180c.37-1.49.08-2.48-1-2.75s-1.67.43-1.92,1.45l-.18.76a2.47,2.47,0,0,0,.75,2.83l2.25,2.27a4.9,4.9,0,0,1,1.46,5.14l-.24,1c-.75,3.05-3.37,4-6.23,3.28-3.17-.78-4.85-2.53-4-6l.33-1.36,3.79.21-.49,2c-.31,1.26-.06,2.18,1,2.45A1.47,1.47,0,0,0,77.21,190l.2-.84a2.55,2.55,0,0,0-.79-2.53l-2.28-2.28a4.82,4.82,0,0,1-1.5-5.21l.35-1.41c.66-2.68,2.9-4.1,6.33-3.25S84.28,177.74,83.51,180.86Z"/><path class="cls-1" d="M59.37,183.18l.57-1.49c1.23-3.2,3.67-4.29,6.87-3.06l1.49.57,2.63-6.86,3.5,1.34-6.86,17.9-4.91-1.88C59.33,188.42,58.24,186.21,59.37,183.18ZM63,184.43c-.62,1.61-.33,2.51.91,3l1.06.41,2.35-6.15-1.06-.41c-1.23-.47-2.08.07-2.76,1.86Z"/><path class="cls-1" d="M55.53,168.24l1.35-2.55,7.89,4.19-9,16.92-7.72-4.1,1.35-2.55,4.41,2.34,2.33-4.38-4.08-2.17,1.35-2.55,4.08,2.17,2.6-4.89Z"/><path class="cls-1" d="M45.94,181.46l-3.27-2.33,2.79-9.45c.3-.94.65-1.89,1-2.78l0,0c-.74,1.19-1.51,2.37-2.35,3.53l-4.6,6.47L36.8,175l11.12-15.61,2.95,2.1-3,10.25a27.43,27.43,0,0,1-1.07,2.95l.07.05c.67-1,1.3-2.06,2-3.11l5.45-7.65,2.7,1.92Z"/><path class="cls-1" d="M44.13,163.36l-5.61,5.89c-2.7,2.83-5.6,2.9-8.26.37s-2.76-5-.34-7.55l1.34-1.41,3.3,2.13-1.77,1.86c-1.09,1.15-1.26,2.11-.44,2.9s1.87.62,3.15-.73l6-6.28c1.27-1.33,1.49-2.46.65-3.26s-1.81-.57-2.89.57l-2,2.07L35,156.71l1.43-1.51c2.42-2.54,5.21-2.45,7.71-.07C46.83,157.66,46.88,160.47,44.13,163.36Z"/><path class="cls-1" d="M32,146.53l2.23-1.83,5.69,6.89-14.8,12.2L19.58,157l2.23-1.83L25,159.05l3.84-3.16-2.94-3.56,2.23-1.84,2.94,3.56,4.27-3.51Z"/><path class="cls-1" d="M25,144.75l.73,1.14,6.58-4.2,2,3.17L18.2,155.16l-2.74-4.3c-2.15-3.37-1.38-5.72,1.32-7.47l.77-.5c1.91-1.22,3.59-1.29,4.95-.46l5.88-7,2.11,3.31Zm-1.89,1.49c-.79-1.23-1.79-1.19-3.36-.19l-1,.65c-1.48,1-1.76,1.76-1,3l.6.93,5.37-3.42Z"/><path class="cls-1" d="M24.62,138.42l-1.4.64L21,135.92l2-.92c1.4-.65,2-1.49,1.52-2.5s-1.37-1-2.32-.58l-.71.33a2.49,2.49,0,0,0-1.74,2.35l-.36,3.18a4.87,4.87,0,0,1-3.1,4.36l-.9.42c-2.84,1.33-5.22-.13-6.46-2.8-1.38-3-1.07-5.37,2.21-6.89l1.27-.59,2.21,3.08-1.86.86c-1.17.55-1.74,1.32-1.26,2.35a1.48,1.48,0,0,0,2.1.66l.78-.36a2.58,2.58,0,0,0,1.48-2.21l.35-3.2A4.79,4.79,0,0,1,19.26,129l1.32-.62c2.5-1.16,5-.31,6.5,2.9S27.53,137.06,24.62,138.42Z"/><path class="cls-1" d="M7.7,121.06l1.52-.49c3.26-1,5.64.18,6.69,3.44l.48,1.52,7-2.24,1.14,3.58L6.27,132.71l-1.6-5C3.58,124.31,4.62,122.07,7.7,121.06ZM9,124.69c-1.65.53-2.16,1.32-1.76,2.58l.35,1.08,6.27-2-.34-1.08c-.41-1.26-1.36-1.58-3.19-1Z"/><path class="cls-1" d="M17,108.71l2.83-.54L21.46,117,2.62,120.52,1,111.93l2.84-.54.93,4.91,4.88-.93-.86-4.54,2.84-.54.86,4.54,5.44-1Z"/><path class="cls-1" d="M.64,109.52l-.23-4,9.12-3.74c.93-.35,1.88-.67,2.81-.94v-.06c-1.4.16-2.8.3-4.23.38l-7.92.45L0,98.3l19.14-1.09.21,3.61L9.46,104.9a29.08,29.08,0,0,1-3,1V106c1.23-.12,2.42-.27,3.71-.35l9.38-.53.19,3.31Z"/><path class="cls-1" d="M13.63,96.75l-8.1-.68c-3.9-.33-5.78-2.55-5.47-6.21.29-3.47,2.18-5.29,5.68-5L7.68,85l.4,3.91-2.56-.22c-1.59-.13-2.44.34-2.53,1.47s.68,1.85,2.54,2l8.64.73c1.83.15,2.85-.38,3-1.54s-.7-1.77-2.26-1.9L12,89.24l1.1-3.75,2.07.17c3.5.29,5.19,2.52,4.9,6C19.77,95.29,17.61,97.08,13.63,96.75Z"/><path class="cls-1" d="M19.16,76.75l2.83.59-1.81,8.75L1.41,82.2l1.77-8.57L6,74.22,5,79.11l4.86,1,.94-4.52,2.83.59-.94,4.52,5.42,1.12Z"/><path class="cls-1" d="M16.18,70.2l-.44,1.28L23.13,74l-1.2,3.55L3.77,71.39l1.64-4.84c1.28-3.78,3.6-4.65,6.65-3.64l.87.29c2.15.73,3.26,2,3.47,3.57l9.1.24-1.25,3.7Zm-2.36-.54c.47-1.38-.18-2.14-2-2.74l-1.15-.39c-1.66-.57-2.47-.27-2.93,1.08l-.36,1,6,2Z"/><path class="cls-1" d="M20.85,65.91l-1.38-.68,1-3.74,2,1c1.38.68,2.41.61,2.9-.38s-.06-1.71-1-2.18l-.7-.35a2.5,2.5,0,0,0-2.92.13L18,61.38a4.84,4.84,0,0,1-5.33.32l-.9-.44C9,59.88,8.63,57.11,9.93,54.47c1.45-2.93,3.52-4.19,6.76-2.59L18,52.5l-1,3.65-1.84-.91c-1.16-.57-2.11-.53-2.61.49a1.47,1.47,0,0,0,.79,2.05l.78.38a2.56,2.56,0,0,0,2.64-.24l2.72-1.72a4.81,4.81,0,0,1,5.41-.35l1.3.65c2.47,1.22,3.38,3.71,1.81,6.88S23.73,67.33,20.85,65.91Z"/><path class="cls-1" d="M23.81,41.84l1.33.87c2.86,1.9,3.39,4.51,1.5,7.37l-.88,1.33,6.13,4.05-2.07,3.13L13.83,48l2.91-4.39C18.7,40.66,21.09,40.07,23.81,41.84Zm-2,3.29c-1.44-1-2.37-.86-3.1.24l-.63,1L23.56,50l.62-.94c.73-1.11.38-2-1.21-3.11Z"/><path class="cls-1" d="M39.22,41.34l2.2,1.88L35.61,50,21,37.56l5.68-6.65,2.2,1.88-3.25,3.8,3.78,3.22,3-3.51,2.2,1.88-3,3.51,4.21,3.59Z"/><path class="cls-1" d="M28.38,29.12l3-2.7L40,31.2c.85.5,1.7,1,2.5,1.6l0,0c-1-1-2-2-2.94-3.06l-5.32-5.9,2.45-2.2L49.56,35.84l-2.68,2.43-9.37-5.16a28.53,28.53,0,0,1-2.65-1.69l-.06.06c.87.89,1.73,1.71,2.6,2.68l6.29,7-2.47,2.22Z"/><path class="cls-1" d="M46.49,31.25l-4.55-6.73c-2.19-3.25-1.64-6.1,1.41-8.15,2.88-2,5.48-1.62,7.45,1.29l1.08,1.61L49.09,22l-1.43-2.13c-.89-1.32-1.79-1.69-2.73-1.06s-1,1.69,0,3.24l4.85,7.18c1,1.52,2.08,2,3,1.33s.95-1.64.07-2.94l-1.6-2.37,3.62-1.5,1.16,1.73c2,2.9,1.28,5.61-1.59,7.55C51.47,35.12,48.72,34.56,46.49,31.25Z"/><path class="cls-1" d="M65.51,23l1.32,2.57-8,4.07L50.14,12.62l7.79-4,1.31,2.57L54.8,13.48l2.26,4.42,4.11-2.1,1.32,2.57-4.11,2.1L60.9,25.4Z"/><path class="cls-1" d="M68.76,16.61l-1.27.47,2.67,7.33-3.53,1.28-6.56-18,4.8-1.74c3.76-1.37,5.88-.1,7,2.91l.31.86c.78,2.13.49,3.79-.61,4.94l5.51,7.25-3.68,1.34Zm-1.05-2.17c1.37-.5,1.56-1.49.92-3.24l-.42-1.14c-.6-1.65-1.34-2.1-2.68-1.61l-1,.38,2.18,6Z"/><path class="cls-1" d="M87.05,55.42l-.16-.8,1.9-.76L89,55c.16.8.51,1.21,1.09,1.09s.7-.57.59-1.12l-.08-.4a1.32,1.32,0,0,0-1-1.19L88,52.79a2.59,2.59,0,0,1-1.84-2.14l-.1-.52c-.32-1.62.73-2.65,2.25-3,1.69-.33,2.88.13,3.25,2l.15.73-1.86.74-.21-1.06c-.13-.67-.46-1.06-1-.94a.78.78,0,0,0-.61,1l.09.44a1.36,1.36,0,0,0,.95,1l1.59.58a2.56,2.56,0,0,1,1.88,2.16l.14.76c.28,1.42-.47,2.6-2.3,3A2.58,2.58,0,0,1,87.05,55.42Z"/><path class="cls-1" d="M98.17,48.94l0,.84a2.53,2.53,0,0,1-2.61,3l-.84.06L95,56.69l-2,.13-.67-10.09,2.77-.19C97,46.42,98,47.24,98.17,48.94Zm-2,.21c-.06-.91-.4-1.27-1.1-1.23l-.6,0,.24,3.47.59,0c.7,0,1-.49.92-1.5Z"/><path class="cls-1" d="M103.35,55.25l-.08,1.52-4.71-.26.56-10.1,4.61.26-.09,1.52L101,48l-.14,2.62,2.43.14-.08,1.52-2.44-.14-.16,2.92Z"/><path class="cls-1" d="M105.1,46.8l2.08.4.75,5.14c.07.52.11,1,.13,1.56h0c.09-.74.2-1.47.34-2.21l.78-4.12,1.71.32L109,57.84l-1.88-.35-.83-5.58a14.91,14.91,0,0,1-.13-1.65h0c-.09.65-.16,1.27-.29,2l-.92,4.87-1.73-.33Z"/><path class="cls-1" d="M110,55.09,111.42,51c.67-2,2-2.63,3.88-2s2.43,1.79,1.83,3.55l-.33,1-2-.3.43-1.28c.27-.8.14-1.29-.42-1.48s-1,.11-1.35,1l-1.48,4.33c-.31.92-.17,1.51.41,1.71s1-.13,1.26-.92l.49-1.42,1.78,1-.36,1a2.61,2.61,0,0,1-3.68,1.74C110,58.42,109.36,57.09,110,55.09Z"/><path class="cls-1" d="M119.59,60.5l-.66,1.37-4.25-2,4.41-9.11,4.15,2-.66,1.37L120.21,53l-1.15,2.36,2.2,1.06-.67,1.37-2.19-1.06-1.27,2.63Z"/><path class="cls-1" d="M123.39,59.86l-.6-.39-2.24,3.45-1.66-1.07,5.51-8.5,2.26,1.47c1.77,1.15,1.91,2.45,1,3.88l-.26.41a2.37,2.37,0,0,1-2.28,1.31L123.82,65l-1.74-1.12Zm.59-1.14c.64.42,1.12.19,1.65-.64l.35-.54c.51-.78.46-1.23-.17-1.64l-.49-.32-1.84,2.82Z"/><path class="cls-1" d="M125,62.83l.53-.62,1.77,1-.75.88c-.53.61-.63,1.15-.19,1.53s.89.19,1.25-.23l.27-.31a1.31,1.31,0,0,0,.32-1.51L127.69,62a2.59,2.59,0,0,1,.54-2.77l.35-.4c1.07-1.25,2.53-1.07,3.71-.06s1.69,2.35.44,3.8l-.48.56-1.74-1,.71-.82c.45-.52.55-1,.1-1.41a.78.78,0,0,0-1.15.14l-.3.35a1.34,1.34,0,0,0-.23,1.38l.53,1.62a2.55,2.55,0,0,1-.54,2.81l-.5.58c-.95,1.11-2.34,1.24-3.76,0A2.57,2.57,0,0,1,125,62.83Z"/><path class="cls-1" d="M137,67.55l-.62.57a2.54,2.54,0,0,1-4-.21l-.56-.62-2.88,2.59-1.32-1.47,7.51-6.77L137,63.7C138.25,65.1,138.23,66.4,137,67.55Zm-1.42-1.46c.68-.61.76-1.1.29-1.62l-.4-.45-2.58,2.33.4.45c.47.52,1,.46,1.74-.22Z"/><path class="cls-1" d="M135.24,75.53l-1.25.88-2.71-3.86,8.27-5.83,2.66,3.77-1.25.88-1.52-2.15-2.14,1.51,1.4,2-1.24.88-1.41-2-2.39,1.68Z"/><path class="cls-1" d="M142.94,71.64l1,1.88-3.57,3.79c-.36.37-.75.73-1.14,1.06v0c.64-.38,1.28-.75,1.95-1.1l3.71-2,.81,1.54-9,4.7-.89-1.69,3.86-4.12c.44-.45.81-.79,1.21-1.13l0,0c-.57.33-1.1.66-1.71,1l-4.39,2.3L134,76.34Z"/><path class="cls-1" d="M139.51,80.68l4.05-1.42c1.95-.69,3.33,0,4,1.8s.1,3-1.65,3.63l-1,.35-1-1.8,1.28-.45c.79-.28,1.1-.69.9-1.26s-.73-.74-1.65-.41l-4.32,1.52c-.91.32-1.29.81-1.08,1.38s.71.7,1.49.43l1.43-.5.28,2-1,.37a2.61,2.61,0,0,1-3.64-1.82C136.87,82.72,137.52,81.38,139.51,80.68Z"/><path class="cls-1" d="M141.17,91.55l-1.49.32-1-4.61,9.89-2.16,1,4.51-1.49.33-.57-2.58-2.56.56.52,2.38-1.49.33-.52-2.38-2.86.62Z"/><path class="cls-1" d="M144,94.11,144,93.4l-4.1.37-.18-2,10.08-.92.24,2.69c.19,2.1-.74,3-2.43,3.18l-.48,0a2.37,2.37,0,0,1-2.44-1l-4.44,1.84L140,95.59Zm1.25-.24c.07.76.55,1,1.53.9l.63-.06c.93-.08,1.26-.4,1.19-1.15l-.06-.58-3.34.31Z"/><path class="cls-1" d="M142.69,97.25l.81,0,.3,2-1.16,0c-.81,0-1.29.22-1.31.8s.39.82.95.84l.41,0a1.31,1.31,0,0,0,1.38-.68l1-1.41a2.58,2.58,0,0,1,2.5-1.29l.53,0c1.65.06,2.41,1.32,2.35,2.88-.08,1.72-.8,2.77-2.71,2.69l-.74,0-.29-2,1.08.05c.68,0,1.14-.2,1.16-.8a.78.78,0,0,0-.82-.82l-.45,0a1.36,1.36,0,0,0-1.23.68l-1,1.41a2.5,2.5,0,0,1-2.53,1.32l-.77,0c-1.46-.06-2.43-1.07-2.35-2.94A2.58,2.58,0,0,1,142.69,97.25Z"/><path class="cls-1" d="M146.39,109.56l-.83-.14a2.54,2.54,0,0,1-2.3-3.24l.15-.83-3.83-.64.33-2,10,1.7-.46,2.74C149.11,109,148.08,109.83,146.39,109.56Zm.27-2c.9.15,1.33-.09,1.45-.78l.1-.59-3.43-.58-.1.59c-.11.69.25,1.07,1.25,1.24Z"/><path class="cls-1" d="M139.05,113.13l-1.46-.43,1.35-4.53,9.7,2.89-1.32,4.43-1.46-.43.75-2.53-2.51-.75-.7,2.34-1.46-.44.7-2.34-2.8-.83Z"/><path class="cls-1" d="M146.87,116.77l-.87,1.94-5.17-.46c-.52-.06-1.05-.14-1.55-.24v0c.69.27,1.38.54,2.07.85l3.82,1.71-.71,1.59L135.22,118l.78-1.74,5.62.49a13.38,13.38,0,0,1,1.63.25l0,0c-.61-.24-1.2-.46-1.82-.74l-4.53-2,.72-1.59Z"/><path class="cls-1" d="M137.66,119.66l3.63,2.29c1.74,1.11,2.08,2.6,1,4.24s-2.31,1.95-3.87,1l-.87-.55.76-1.93,1.15.72c.71.45,1.22.44,1.54-.06s.13-1-.7-1.56l-3.87-2.45c-.82-.52-1.42-.51-1.75,0s-.11,1,.59,1.44l1.28.81-1.44,1.49-.92-.59a2.62,2.62,0,0,1-.84-4C134.43,118.85,135.88,118.53,137.66,119.66Z"/><path class="cls-1" d="M130.16,127.68l-1.18-1,3-3.64,7.82,6.42-2.94,3.57-1.17-1,1.67-2-2-1.66-1.54,1.88-1.18-1,1.55-1.88-2.26-1.85Z"/><path class="cls-1" d="M129.88,131.53l.52-.49-2.83-3,1.44-1.36,7,7.35-2,1.85c-1.53,1.45-2.83,1.28-4,.06l-.33-.35a2.38,2.38,0,0,1-.74-2.52l-4.19-2.36,1.51-1.42Zm1,.84c-.56.53-.44,1,.23,1.76l.44.46c.64.68,1.09.74,1.64.22l.43-.4L131.27,132Z"/><path class="cls-1" d="M126.64,132.43l.47.66-1.42,1.48-.67-.94c-.47-.67-1-.89-1.44-.55s-.4.81-.08,1.26l.24.34a1.32,1.32,0,0,0,1.39.67l1.69-.11a2.57,2.57,0,0,1,2.55,1.19l.31.43c1,1.35.43,2.72-.84,3.62s-2.69,1.07-3.79-.49l-.43-.6L126,138l.63.88c.39.56.84.78,1.33.43a.77.77,0,0,0,.15-1.15l-.27-.37a1.34,1.34,0,0,0-1.28-.56l-1.7.12a2.53,2.53,0,0,1-2.6-1.2l-.44-.62c-.84-1.19-.64-2.58.88-3.66A2.59,2.59,0,0,1,126.64,132.43Z"/><path class="cls-1" d="M119.26,143l-.41-.73A2.55,2.55,0,0,1,120,138.4l.74-.4-1.87-3.4,1.74-.95,4.86,8.87L123,143.86C121.35,144.76,120.09,144.45,119.26,143Zm1.75-1c.44.8.9,1,1.51.65l.53-.28-1.67-3.06-.53.29c-.61.34-.68.86-.19,1.75Z"/><path class="cls-1" d="M111.9,139.41l-.57-1.42,4.39-1.74,3.73,9.41-4.29,1.7-.56-1.42,2.45-1-1-2.44-2.27.9-.56-1.42,2.27-.9-1.08-2.71Z"/><path class="cls-1" d="M113.87,147.81l-2.07.52L109,144c-.27-.45-.53-.91-.77-1.36h0c.22.71.43,1.42.61,2.16l1,4.06-1.69.42-2.46-9.81,1.85-.47,3.1,4.72a16,16,0,0,1,.82,1.44h0c-.19-.62-.38-1.22-.55-1.89l-1.21-4.81,1.7-.43Z"/><path class="cls-1" d="M105.9,142.35l.44,4.26c.21,2.06-.76,3.24-2.69,3.44s-3-.61-3.14-2.46l-.11-1,2-.59.14,1.35c.08.84.41,1.23,1,1.17s.89-.53.79-1.51l-.47-4.55c-.1-1-.48-1.44-1.09-1.38s-.84.53-.76,1.35l.16,1.51-2.06-.21-.11-1.09a2.62,2.62,0,0,1,2.62-3.12C104.54,139.3,105.69,140.25,105.9,142.35Z"/><path class="cls-1" d="M94.93,141.42l0-1.52,4.72.09-.2,10.12L94.86,150l0-1.52,2.64.05,0-2.62-2.44-.05,0-1.53,2.44.05.06-2.92Z"/><path class="cls-1" d="M91.8,143.6l.7.1.59-4.08,2,.29-1.44,10-2.67-.38c-2.08-.3-2.76-1.42-2.53-3.1l.07-.48A2.37,2.37,0,0,1,90,143.81l-.76-4.74,2.05.29Zm0,1.27c-.77-.11-1.1.3-1.24,1.27l-.09.64c-.13.91.1,1.31.85,1.42l.57.08.48-3.33Z"/><path class="cls-1" d="M89,141.57l-.23.78-2-.17.32-1.11c.22-.79.09-1.31-.47-1.47s-.89.19-1,.73l-.11.39a1.33,1.33,0,0,0,.34,1.51L87,143.47a2.57,2.57,0,0,1,.67,2.74l-.14.51c-.45,1.59-1.85,2-3.35,1.61-1.66-.47-2.51-1.42-2-3.26l.2-.71,2,.18-.29,1c-.19.66-.08,1.15.5,1.31a.77.77,0,0,0,1-.6l.12-.44a1.36,1.36,0,0,0-.37-1.35l-1.16-1.25a2.54,2.54,0,0,1-.7-2.78l.21-.74c.4-1.4,1.61-2.1,3.41-1.6A2.59,2.59,0,0,1,89,141.57Z"/><path class="cls-1" d="M76.22,142.33l.33-.77a2.53,2.53,0,0,1,3.68-1.49l.77.33,1.52-3.57,1.82.77-4,9.32-2.56-1.09C76.1,145.1,75.56,143.91,76.22,142.33Zm1.9.73c-.36.84-.22,1.32.43,1.59l.55.23,1.36-3.2-.55-.23c-.65-.27-1.1,0-1.5.93Z"/><path class="cls-1" d="M74.43,134.34,75.2,133l4.08,2.37-5.08,8.75-4-2.31.76-1.32,2.28,1.32,1.32-2.27-2.11-1.22.77-1.32,2.1,1.22,1.47-2.53Z"/><path class="cls-1" d="M69.06,141.1l-1.68-1.3L69,134.87c.19-.49.39-1,.6-1.45l0,0c-.42.62-.85,1.22-1.31,1.82l-2.57,3.32-1.37-1.07,6.19-8,1.51,1.17L70.27,136a14.48,14.48,0,0,1-.62,1.54l0,0c.38-.54.73-1.06,1.15-1.6l3-3.92,1.39,1.07Z"/><path class="cls-1" d="M68.43,131.46l-3.08,3c-1.49,1.43-3,1.41-4.37,0s-1.34-2.7,0-4l.73-.72,1.7,1.2-1,.94c-.6.59-.71,1.09-.29,1.52s1,.37,1.68-.32l3.28-3.18c.7-.67.84-1.27.41-1.71s-.94-.33-1.53.24l-1.09,1.05-1.11-1.74.79-.76a2.61,2.61,0,0,1,4.07.12C70,128.51,69.94,130,68.43,131.46Z"/><path class="cls-1" d="M62.36,122.29l1.22-.92,2.85,3.75-8.06,6.12-2.79-3.68,1.21-.92,1.6,2.1,2.09-1.58-1.48-2,1.22-.92,1.47,1.94L64,124.47Z"/><path class="cls-1" d="M58.7,121.17l.36.61,3.56-2.07,1,1.72-8.76,5.08-1.35-2.33c-1.06-1.83-.6-3.05.86-3.91l.42-.25a2.39,2.39,0,0,1,2.63-.14l3.25-3.53,1,1.78Zm-1,.74c-.39-.66-.92-.67-1.77-.17l-.55.32c-.81.46-1,.89-.59,1.54l.29.51L58,122.42Z"/><path class="cls-1" d="M58.59,117.76l-.75.31-1.12-1.71,1.06-.44c.75-.31,1.08-.74.86-1.28s-.7-.58-1.21-.37l-.38.16a1.31,1.31,0,0,0-1,1.2l-.27,1.67a2.57,2.57,0,0,1-1.73,2.23l-.49.2c-1.53.63-2.75-.19-3.34-1.62-.66-1.6-.44-2.86,1.33-3.59l.68-.28,1.09,1.67-1,.42c-.63.26-.94.65-.72,1.2a.78.78,0,0,0,1.09.4l.43-.17a1.36,1.36,0,0,0,.82-1.13l.27-1.68A2.55,2.55,0,0,1,56,112.68l.71-.29c1.35-.56,2.65,0,3.37,1.68A2.58,2.58,0,0,1,58.59,117.76Z"/><path class="cls-1" d="M50.06,108.13l.81-.22a2.53,2.53,0,0,1,3.44,2l.22.81,3.74-1,.52,1.91L49,114.24l-.72-2.68C47.81,109.74,48.41,108.59,50.06,108.13Zm.6,2c-.88.23-1.17.64-1,1.31l.16.58,3.35-.91-.15-.58c-.18-.67-.68-.86-1.66-.6Z"/><path class="cls-1" d="M55.22,101.79l1.51-.22.67,4.67-10,1.42-.65-4.57,1.51-.21.37,2.61,2.6-.37-.34-2.41,1.51-.22.34,2.42,2.89-.42Z"/><path class="cls-1" d="M46.61,101.77l0-2.13,4.9-1.74c.5-.16,1-.31,1.51-.43v0c-.74.06-1.48.09-2.24.1l-4.18,0,0-1.74,10.11-.1,0,1.91-5.31,1.91c-.6.2-1.08.33-1.59.45v0c.66,0,1.28-.09,2-.1l5,0,0,1.75Z"/><path class="cls-1" d="M53.77,95.26l-4.25-.57c-2.05-.27-3-1.49-2.72-3.41s1.29-2.73,3.12-2.49l1,.14L51.05,91l-1.34-.18c-.83-.11-1.3.11-1.38.71s.32,1,1.29,1.12l4.54.61c1,.13,1.51-.13,1.59-.74s-.32-.94-1.14-1.06l-1.49-.2.67-2,1.09.15a2.62,2.62,0,0,1,2.43,3.27C57.05,94.65,55.86,95.54,53.77,95.26Z"/><path class="cls-1" d="M57.22,84.84l1.47.38-1.18,4.57-9.8-2.54,1.16-4.47,1.48.38-.66,2.55,2.54.66L52.84,84l1.47.38-.61,2.36,2.83.74Z"/><path class="cls-1" d="M55.83,81.26l-.26.66,3.83,1.53-.73,1.84-9.41-3.74,1-2.5c.78-2,2-2.36,3.6-1.75l.45.18a2.37,2.37,0,0,1,1.74,2l4.79.37-.76,1.92Zm-1.22-.35c.28-.71,0-1.13-1-1.5l-.59-.23c-.86-.35-1.3-.21-1.58.49l-.22.54,3.13,1.25Z"/><path class="cls-1" d="M58.45,79.07l-.71-.4.64-1.94,1,.56c.71.4,1.25.39,1.54-.11s0-.91-.47-1.18l-.36-.2a1.3,1.3,0,0,0-1.54,0l-1.48.82a2.58,2.58,0,0,1-2.82,0l-.46-.26c-1.44-.8-1.55-2.27-.79-3.62.85-1.51,2-2.12,3.64-1.18l.64.36-.64,1.89-.94-.52c-.6-.34-1.1-.34-1.39.18a.77.77,0,0,0,.36,1.1l.4.22a1.34,1.34,0,0,0,1.4-.05L58,73.91a2.55,2.55,0,0,1,2.86,0l.67.38c1.26.71,1.67,2,.76,3.67A2.58,2.58,0,0,1,58.45,79.07Z"/><path class="cls-1" d="M60.72,66.4l.68.5A2.54,2.54,0,0,1,62,70.83l-.51.68,3.12,2.31-1.18,1.59-8.13-6,1.66-2.24C58.06,65.63,59.34,65.39,60.72,66.4Zm-1.16,1.68c-.73-.54-1.23-.52-1.64,0l-.36.48,2.79,2.07.36-.48c.42-.56.26-1.06-.55-1.67Z"/><path class="cls-1" d="M68.9,66.55,70,67.61,66.74,71l-7.32-7,3.19-3.34,1.1,1.05-1.82,1.91,1.9,1.81,1.68-1.76,1.11,1-1.69,1.76,2.11,2Z"/><path class="cls-1" d="M63.58,59.77l1.65-1.33,4.4,2.77c.44.29.87.6,1.27.91h0c-.49-.56-1-1.11-1.45-1.7l-2.63-3.27,1.36-1.09,6.34,7.89-1.49,1.19-4.79-3a14.63,14.63,0,0,1-1.34-1l0,0c.43.49.86,1,1.28,1.49l3.11,3.86-1.36,1.1Z"/><path class="cls-1" d="M73.09,61.39,70.9,57.7c-1.06-1.77-.68-3.26,1-4.25s2.94-.69,3.88.9l.53.89-1.56,1.37-.69-1.16c-.43-.73-.89-1-1.41-.64s-.58.86-.08,1.7l2.34,3.94c.5.83,1,1.1,1.57.79s.55-.84.12-1.55l-.77-1.3,2-.68.56.95a2.61,2.61,0,0,1-1.06,3.93C75.61,63.58,74.17,63.21,73.09,61.39Z"/><path class="cls-1" d="M83.42,57.62,84,59l-4.32,1.9-4.07-9.27,4.23-1.86.61,1.4-2.41,1.06,1.05,2.4,2.23-1L82,55.06l-2.23,1,1.17,2.67Z"/></g></g></svg>