<svg xmlns="http://www.w3.org/2000/svg" viewBox="0 0 196.92 196.46"><defs><style>.cls-1{fill:#fac8d2;}</style></defs><title>Asset 10</title><g id="Layer_2" data-name="Layer 2"><g id="content"><path class="cls-1" d="M58,152.27l2.11.85a3.11,3.11,0,0,0,1.38,4.27c1.53,1,2.72.77,3.42-.35s.33-1.57-.51-2.38l-1.67-1.56c-1.59-1.48-1.81-3-.79-4.63,1.27-2,3.78-2.37,6.3-.8,2.93,1.83,3.39,4.05,2.43,6.18l-2.16-.77c.7-1.61.5-2.81-1.29-3.93-1.39-.87-2.63-.75-3.31.33s-.34,1.63.65,2.55l1.62,1.54c1.62,1.53,1.67,3,.77,4.47-1.33,2.14-3.81,2.52-6.53.83C57.57,157.06,57.05,154.6,58,152.27Z"/><path class="cls-1" d="M76.75,154.93a5.18,5.18,0,0,1,5.16-1.09c2.81,1,3.38,3.7,2.39,6.58-1.28,3.71-4.94,7-8.7,5.67a3.9,3.9,0,0,1-2.92-3.51l-3.56,6.32L67,168.17l8.94-16,2,.68ZM74.14,160c-.67,1.94-.1,3.46,1.65,4.06,2.88,1,5.34-1.74,6.2-4.25.68-2,.37-3.78-1.6-4.46s-4.12.45-5.45,2.94l-.31.61A6.8,6.8,0,0,0,74.14,160Z"/><path class="cls-1" d="M88.27,162.93l0,.42c-.27,2.56,1,4,3.09,4.22a4,4,0,0,0,3.89-1.92l1.55,1.18a5.82,5.82,0,0,1-5.8,2.66c-3.55-.37-5.23-2.74-4.85-6.44.41-3.91,3-7.47,7.51-7,3.45.36,4.83,2.68,4.52,5.58a9.21,9.21,0,0,1-.55,2.27Zm.42-1.79,7.23.76c0-.23.09-.43.14-.82a2.82,2.82,0,0,0-2.79-3.33C91,157.51,89.43,158.84,88.69,161.14Z"/><path class="cls-1" d="M107.65,155.58a4,4,0,0,1,3.14.81,3.56,3.56,0,0,1,1.17,2.4,8.83,8.83,0,0,1,0,1.57l-.4,8.15-2.19.28.39-8.16a7.24,7.24,0,0,0,0-1,2.15,2.15,0,0,0-2.74-2c-2.25.28-3.45,2-3.59,5.07l-.34,6.89-2.2.27.66-13.2,2.06-.26-.11,2.62A4.94,4.94,0,0,1,107.65,155.58Z"/><path class="cls-1" d="M115.64,162.17c-1.18-3.23-1-8,3.64-9.71,2.62-1,5.3-.43,6.44,2.7l-1.92,1c-.91-2.22-2.54-2.35-3.91-1.85-3.16,1.14-2.87,4.75-2,7.07,1,2.79,2.92,3,4.39,2.48,1.84-.66,2.35-2.29,2.13-4.06l2.14-.42c.36,2.83-.73,5.25-3.71,6.33C120.34,166.59,117.15,166.36,115.64,162.17Z"/><path class="cls-1" d="M131.26,155.05l.23.35c1.4,2.16,3.31,2.47,5.06,1.34a4,4,0,0,0,1.81-3.94l1.95-.06a5.83,5.83,0,0,1-2.83,5.72c-3,1.94-5.8,1.16-7.82-2-2.14-3.3-2.4-7.66,1.44-10.16,2.9-1.88,5.43-1,7,1.49a9.28,9.28,0,0,1,1,2.12Zm-.79-1.65,6.08-4a5,5,0,0,0-.41-.73,2.82,2.82,0,0,0-4.26-.83C130,149.12,129.59,151.14,130.47,153.4Z"/><path class="cls-1" d="M143.55,135.29a5.68,5.68,0,0,1,2-1.46l1.19,1.62a7.4,7.4,0,0,0-2,1.58c-2.17,2.26-2.53,5.71,0,9.2l2.9,4-1.54,1.6-7.79-10.68,1.52-1.58,2,2.78A7.13,7.13,0,0,1,143.55,135.29Z"/><path class="cls-1" d="M153.32,137.93l.82-2.12a3.09,3.09,0,0,0,4.24-1.46c.93-1.54.73-2.72-.41-3.4s-1.58-.31-2.37.55l-1.53,1.69c-1.46,1.62-3,1.86-4.62.87-2-1.23-2.43-3.74-.9-6.28,1.78-3,4-3.46,6.14-2.54l-.73,2.18c-1.63-.68-2.83-.46-3.91,1.35-.85,1.41-.71,2.64.38,3.3.94.56,1.64.31,2.55-.69l1.5-1.65c1.5-1.64,3-1.71,4.45-.84,2.17,1.3,2.6,3.77.95,6.51C158.12,138.33,155.66,138.88,153.32,137.93Z"/><path class="cls-1" d="M155.65,119.2a5.2,5.2,0,0,1-1.17-5.15c.92-2.82,3.64-3.44,6.54-2.49,3.74,1.21,7,4.82,5.82,8.6a3.91,3.91,0,0,1-3.46,3l6.38,3.45-.7,2.13L152.86,120l.64-2Zm5.15,2.53c1.95.63,3.46,0,4-1.73.94-2.89-1.83-5.3-4.36-6.13-2-.64-3.79-.3-4.43,1.68s.52,4.11,3,5.4l.61.31A7.63,7.63,0,0,0,160.8,121.73Z"/><path class="cls-1" d="M163.46,107.56l.42,0c2.57.23,4-1.09,4.17-3.16a4,4,0,0,0-2-3.86L167.22,99a5.83,5.83,0,0,1,2.76,5.76c-.31,3.55-2.65,5.28-6.36,4.95-3.92-.34-7.52-2.83-7.12-7.39.3-3.45,2.6-4.87,5.5-4.62a10,10,0,0,1,2.28.52Zm-1.79-.4.63-7.23a6.45,6.45,0,0,0-.82-.13,2.81,2.81,0,0,0-3.28,2.85C158,104.91,159.35,106.46,161.67,107.16Z"/><path class="cls-1" d="M155.79,88.31a4,4,0,0,1,.77-3.16,3.57,3.57,0,0,1,2.38-1.2,8.52,8.52,0,0,1,1.56-.07l8.17.27.31,2.19-8.17-.26a8.36,8.36,0,0,0-1,0,2.16,2.16,0,0,0-2,2.78c.31,2.24,2,3.41,5.12,3.51l6.9.23.31,2.19L157,94.37l-.29-2.06,2.61.08A5,5,0,0,1,155.79,88.31Z"/><path class="cls-1" d="M162.25,80.2c-3.21,1.22-8,1.18-9.77-3.49-1-2.6-.52-5.3,2.6-6.48l1,1.9c-2.2,1-2.3,2.58-1.78,3.94,1.19,3.14,4.8,2.79,7.11,1.91,2.77-1.06,3-3,2.41-4.43-.7-1.82-2.34-2.31-4.11-2.06l-.45-2.14c2.83-.41,5.26.64,6.39,3.61C166.59,75.42,166.42,78.61,162.25,80.2Z"/><path class="cls-1" d="M154.88,64.7l.34-.23c2.14-1.44,2.42-3.36,1.26-5.08a4,4,0,0,0-4-1.75l-.1-2a5.85,5.85,0,0,1,5.77,2.73c2,3,1.26,5.78-1.83,7.86-3.26,2.2-7.62,2.53-10.18-1.27-1.93-2.87-1-5.42,1.38-7.05a9.93,9.93,0,0,1,2.09-1Zm-1.64.83-4.06-6a7.36,7.36,0,0,0-.72.42,2.81,2.81,0,0,0-.76,4.28C149,66.08,151,66.44,153.24,65.53Z"/><path class="cls-1" d="M134.9,52.71a5.66,5.66,0,0,1-1.49-2l1.6-1.22a7.28,7.28,0,0,0,1.62,2c2.28,2.13,5.74,2.43,9.18-.16l3.93-3,1.62,1.51-10.55,8-1.6-1.49L142,54.31A7.15,7.15,0,0,1,134.9,52.71Z"/><path class="cls-1" d="M62.42,143a5.59,5.59,0,0,1,1.67,1.8l-1.47,1.37a7.24,7.24,0,0,0-1.8-1.81c-2.48-1.89-6-1.85-9.13,1.06l-3.62,3.33-1.76-1.34,9.72-9,1.74,1.33-2.53,2.32A7.13,7.13,0,0,1,62.42,143Z"/><path class="cls-1" d="M137.39,42.93l-2.13-.79a3.1,3.1,0,0,0-1.53-4.22c-1.55-.9-2.73-.68-3.4.47s-.28,1.58.59,2.36l1.72,1.5c1.64,1.43,1.91,2.94,1,4.61-1.2,2.08-3.7,2.5-6.27,1-3-1.74-3.53-3.94-2.64-6.1l2.18.69c-.64,1.64-.4,2.84,1.42,3.89,1.42.82,2.66.67,3.3-.44.55-.95.28-1.64-.73-2.53l-1.68-1.48c-1.67-1.48-1.76-3-.92-4.44,1.27-2.19,3.74-2.66,6.51-1.05C137.71,38.12,138.31,40.57,137.39,42.93Z"/><path class="cls-1" d="M118.61,40.89a5.2,5.2,0,0,1-5.13,1.26c-2.83-.88-3.5-3.58-2.6-6.5,1.15-3.75,4.69-7.13,8.5-6a3.92,3.92,0,0,1,3,3.41l3.34-6.43,2.14.66-8.41,16.34-2-.61Zm2.44-5.19c.6-2,0-3.46-1.8-4-2.9-.9-5.27,1.91-6,4.45-.61,2-.24,3.8,1.75,4.41s4.1-.59,5.34-3.12l.3-.62A7.6,7.6,0,0,0,121.05,35.7Z"/><path class="cls-1" d="M106.84,33.28l0-.42c.18-2.57-1.16-4-3.24-4.12a4,4,0,0,0-3.82,2.06l-1.59-1.14a5.84,5.84,0,0,1,5.71-2.86c3.55.26,5.32,2.58,5.06,6.29-.28,3.92-2.7,7.56-7.27,7.24-3.46-.25-4.92-2.52-4.71-5.43a9.68,9.68,0,0,1,.48-2.29Zm-.37,1.8-7.24-.52a4.66,4.66,0,0,0-.11.83,2.81,2.81,0,0,0,2.9,3.23C104.28,38.79,105.81,37.41,106.47,35.08Z"/><path class="cls-1" d="M87.7,41.28a4.07,4.07,0,0,1-3.17-.71,3.62,3.62,0,0,1-1.24-2.36,7.72,7.72,0,0,1-.09-1.57l.13-8.17,2.18-.34-.13,8.16c0,.66,0,.82.06,1a2.16,2.16,0,0,0,2.81,1.93c2.24-.36,3.38-2.1,3.42-5.19l.12-6.9L94,26.78,93.75,40l-2.06.33,0-2.62A5,5,0,0,1,87.7,41.28Z"/><path class="cls-1" d="M79.49,35c1.28,3.19,1.32,8-3.32,9.83-2.58,1-5.28.6-6.52-2.49l1.88-1c1,2.19,2.62,2.26,4,1.72,3.12-1.25,2.72-4.85,1.79-7.14-1.1-2.75-3-2.91-4.46-2.33-1.81.73-2.28,2.37-2,4.13l-2.13.49a5.46,5.46,0,0,1,3.5-6.45C74.65,30.69,77.84,30.82,79.49,35Z"/><path class="cls-1" d="M64.14,42.58l-.24-.34c-1.48-2.11-3.4-2.36-5.11-1.17a4,4,0,0,0-1.68,4l-2,.12a5.88,5.88,0,0,1,2.64-5.82c2.93-2,5.76-1.35,7.89,1.7,2.25,3.22,2.66,7.58-1.1,10.2-2.83,2-5.4,1.14-7.06-1.25A9.41,9.41,0,0,1,56.45,48ZM65,44.21l-6,4.16a5.61,5.61,0,0,0,.44.71,2.82,2.82,0,0,0,4.29.69C65.62,48.47,65.94,46.43,65,44.21Z"/><path class="cls-1" d="M52.5,62.75a5.75,5.75,0,0,1-1.93,1.52L49.33,62.7A7.7,7.7,0,0,0,51.27,61c2.09-2.32,2.33-5.78-.32-9.18l-3-3.88,1.48-1.64,8.14,10.41-1.46,1.63L54,55.67A7.14,7.14,0,0,1,52.5,62.75Z"/><path class="cls-1" d="M42.65,60.43l-.74,2.15a3.11,3.11,0,0,0-4.2,1.6c-.87,1.57-.63,2.74.53,3.39s1.58.25,2.35-.63l1.47-1.74c1.4-1.67,2.91-2,4.59-1,2.09,1.17,2.55,3.66,1.11,6.25-1.68,3-3.87,3.6-6,2.74l.66-2.2c1.65.63,2.83.36,3.86-1.48.8-1.43.62-2.66-.5-3.28-.95-.53-1.64-.26-2.51.77l-1.45,1.7c-1.45,1.69-3,1.81-4.43,1-2.2-1.23-2.71-3.68-1.16-6.48C37.84,60.2,40.28,59.56,42.65,60.43Z"/><path class="cls-1" d="M40.94,79.25a5.16,5.16,0,0,1,1.34,5.1c-.82,2.85-3.53,3.56-6.45,2.71-3.78-1.09-7.21-4.58-6.1-8.41a3.91,3.91,0,0,1,3.36-3.09L26.6,72.33l.62-2.15L43.7,78.31l-.58,2Zm-5.23-2.36c-2-.57-3.46.08-4,1.86-.85,2.92,2,5.24,4.56,6,2,.58,3.8.18,4.37-1.82s-.65-4.1-3.21-5.3l-.62-.29A6.89,6.89,0,0,0,35.71,76.89Z"/><path class="cls-1" d="M33.52,91.15l-.41,0c-2.58-.14-4,1.22-4.07,3.3a4,4,0,0,0,2.12,3.79l-1.1,1.61a5.84,5.84,0,0,1-3-5.66c.19-3.56,2.48-5.37,6.2-5.17,3.92.21,7.61,2.57,7.36,7.15-.18,3.46-2.43,4.95-5.34,4.8a9.46,9.46,0,0,1-2.3-.44Zm1.81.33-.39,7.26a6.34,6.34,0,0,0,.83.09,2.81,2.81,0,0,0,3.18-3C39.08,93.61,37.67,92.1,35.33,91.48Z"/><path class="cls-1" d="M41.84,110.11a4,4,0,0,1-.65,3.18,3.63,3.63,0,0,1-2.34,1.29,8.4,8.4,0,0,1-1.57.11H29.11l-.38-2.18H36.9a8.67,8.67,0,0,0,1-.07,2.15,2.15,0,0,0,1.88-2.84c-.39-2.23-2.15-3.35-5.24-3.34h-6.9l-.38-2.18H40.47l.36,2.06H38.21A4.94,4.94,0,0,1,41.84,110.11Z"/><path class="cls-1" d="M35.65,118.44c3.17-1.33,8-1.45,9.89,3.16,1.08,2.56.69,5.27-2.38,6.56l-1.07-1.87c2.17-1,2.21-2.65,1.65-4-1.3-3.09-4.89-2.63-7.17-1.67-2.74,1.15-2.87,3.07-2.26,4.51.76,1.8,2.41,2.24,4.17,1.92l.52,2.12a5.46,5.46,0,0,1-6.51-3.39C31.47,123.36,31.54,120.16,35.65,118.44Z"/><path class="cls-1" d="M43.54,133.68l-.33.25c-2.09,1.51-2.31,3.44-1.08,5.12a4,4,0,0,0,4,1.62l.15,1.94a5.84,5.84,0,0,1-5.86-2.54c-2.09-2.89-1.45-5.73,1.57-7.92,3.18-2.3,7.53-2.78,10.22.93,2,2.8,1.23,5.38-1.14,7.09a9.86,9.86,0,0,1-2.05,1.11Zm1.62-.87,4.26,5.88a6.8,6.8,0,0,0,.71-.45,2.82,2.82,0,0,0,.61-4.3C49.41,132.11,47.37,131.82,45.16,132.81Z"/><path class="cls-1" d="M76.85,17.07l-.3-1.51,3.59-1.45.43,2.14c.29,1.52,1,2.29,2.06,2.08s1.32-1.09,1.12-2.12l-.15-.77a2.5,2.5,0,0,0-1.88-2.25l-3-1.11A4.88,4.88,0,0,1,75.23,8l-.19-1c-.6-3.07,1.38-5,4.26-5.6,3.21-.63,5.47.24,6.17,3.79l.27,1.38L82.22,8l-.39-2c-.25-1.27-.87-2-2-1.79a1.47,1.47,0,0,0-1.14,1.88l.16.85a2.59,2.59,0,0,0,1.79,2l3,1.11a4.83,4.83,0,0,1,3.56,4.09l.28,1.43c.53,2.7-.9,4.93-4.37,5.62S77.47,20.22,76.85,17.07Z"/><path class="cls-1" d="M97.77,4.8l.11,1.59c.23,3.42-1.52,5.43-4.94,5.67l-1.59.11.5,7.33-3.74.25L86.79.63,92,.26C95.6,0,97.52,1.57,97.77,4.8Zm-3.84.4c-.12-1.73-.76-2.41-2.08-2.32L90.71,3l.46,6.58,1.13-.08c1.32-.09,1.85-.94,1.72-2.85Z"/><path class="cls-1" d="M107.56,16.73l-.16,2.89-8.92-.48L99.5,0l8.73.46-.15,2.89-5-.27-.26,5,4.61.25-.15,2.88-4.62-.24-.29,5.53Z"/><path class="cls-1" d="M110.67.7l4,.73,1.47,9.74c.12,1,.2,2,.24,3h.06c.17-1.39.38-2.79.64-4.19l1.44-7.81,3.24.6-3.49,18.85-3.56-.66-1.61-10.56a26.86,26.86,0,0,1-.27-3.13l-.08,0c-.17,1.24-.31,2.42-.55,3.69l-1.71,9.24-3.26-.6Z"/><path class="cls-1" d="M120,16.34l2.58-7.71c1.24-3.71,3.84-5,7.32-3.84,3.31,1.11,4.63,3.38,3.51,6.7l-.62,1.85-3.89-.54.82-2.43c.5-1.51.25-2.45-.83-2.81s-2,.23-2.55,2l-2.75,8.22c-.58,1.74-.3,2.86.8,3.23s1.88-.25,2.37-1.74l.91-2.71,3.39,2-.66,2c-1.11,3.33-3.68,4.44-7,3.34C119.93,22.65,118.7,20.13,120,16.34Z"/><path class="cls-1" d="M138.07,26.46l-1.24,2.61-8.07-3.85L137,7.91l7.9,3.76-1.24,2.61-4.51-2.15L137,16.62l4.17,2-1.24,2.6-4.17-2-2.38,5Z"/><path class="cls-1" d="M145.14,25.13,144,24.4,139.8,31l-3.16-2L147,12.8l4.3,2.74c3.37,2.15,3.66,4.61,1.95,7.34l-.49.77c-1.22,1.91-2.71,2.69-4.29,2.51L146,34.94l-3.3-2.11ZM146.22,23c1.23.78,2.13.33,3.13-1.24l.66-1c.94-1.48.85-2.34-.36-3.11l-.93-.6-3.43,5.37Z"/><path class="cls-1" d="M148.19,30.68l1-1.18,3.38,1.9-1.41,1.67c-1,1.18-1.17,2.19-.33,2.9s1.68.36,2.36-.45l.5-.59a2.48,2.48,0,0,0,.58-2.87l-1-3a4.85,4.85,0,0,1,1-5.25l.64-.77c2-2.39,4.79-2.07,7-.18,2.5,2.11,3.23,4.42.9,7.19l-.91,1.07-3.3-1.86,1.32-1.57c.84-1,1-1.93.16-2.66a1.47,1.47,0,0,0-2.18.28l-.56.66a2.56,2.56,0,0,0-.4,2.62l1,3.06a4.81,4.81,0,0,1-1,5.33l-.94,1.12c-1.78,2.1-4.42,2.39-7.12.11S146.12,33.14,148.19,30.68Z"/><path class="cls-1" d="M170.86,39.34l-1.17,1.08c-2.53,2.32-5.2,2.21-7.52-.31l-1.08-1.18-5.4,5-2.55-2.76,14.11-13L170.82,32C173.23,34.66,173.22,37.12,170.86,39.34Zm-2.72-2.75c1.28-1.17,1.41-2.1.51-3.08l-.77-.83L163,37.14l.76.84c.9,1,1.9.86,3.31-.44Z"/><path class="cls-1" d="M167.67,54.48l-2.36,1.67-5.17-7.29,15.64-11.09,5.06,7.14-2.36,1.67-2.89-4.07-4.05,2.87,2.67,3.76-2.35,1.68-2.67-3.77-4.52,3.2Z"/><path class="cls-1" d="M182.1,46.76,184,50.3l-6.67,7.25c-.69.71-1.42,1.41-2.15,2.05l0,0c1.19-.74,2.41-1.46,3.66-2.14l7-3.77,1.57,2.9-16.88,9.11-1.72-3.19,7.22-7.88c.82-.87,1.52-1.52,2.27-2.18l0-.07c-1.07.64-2.07,1.28-3.21,1.89l-8.28,4.47-1.57-2.93Z"/><path class="cls-1" d="M175.76,63.86l7.63-2.81c3.67-1.35,6.31-.13,7.57,3.32,1.21,3.26.27,5.71-3,6.92l-1.82.67-2-3.37,2.41-.88c1.49-.55,2.07-1.34,1.68-2.4s-1.4-1.39-3.15-.74l-8.14,3c-1.72.63-2.42,1.55-2,2.64s1.38,1.31,2.85.76l2.68-1,.59,3.87-2,.71c-3.29,1.22-5.76-.09-6.95-3.34C170.82,67.78,172,65.24,175.76,63.86Z"/><path class="cls-1" d="M179.18,84.28l-2.81.66-2.05-8.7L193,71.86l2,8.52-2.81.66L191,76.17l-4.84,1.14,1.06,4.5-2.81.66L183.38,78,178,79.24Z"/><path class="cls-1" d="M184.63,89l-.14-1.34-7.76.83-.4-3.73,19.06-2,.54,5.07c.43,4-1.31,5.74-4.5,6.11l-.91.1c-2.25.24-3.79-.44-4.64-1.78l-8.36,3.61-.42-3.89Zm2.37-.5c.15,1.45,1.07,1.87,2.92,1.67l1.21-.13c1.74-.19,2.35-.8,2.2-2.22l-.12-1.1-6.33.68Z"/><path class="cls-1" d="M182.21,94.82l1.53,0,.64,3.83-2.18-.06c-1.54,0-2.45.46-2.47,1.56s.77,1.54,1.82,1.56l.79,0a2.49,2.49,0,0,0,2.59-1.34l1.74-2.69a4.88,4.88,0,0,1,4.71-2.53l1,0c3.13.08,4.61,2.44,4.54,5.38-.08,3.26-1.42,5.28-5,5.2l-1.4,0-.61-3.74,2,0c1.29,0,2.14-.41,2.17-1.54A1.47,1.47,0,0,0,192.5,99l-.86,0a2.57,2.57,0,0,0-2.3,1.33L187.6,103a4.81,4.81,0,0,1-4.76,2.59l-1.46,0c-2.75-.06-4.63-1.95-4.54-5.48S179,94.74,182.21,94.82Z"/><path class="cls-1" d="M189.66,117.9l-1.57-.23c-3.39-.51-5-2.66-4.47-6l.23-1.58L176.59,109l.56-3.71,18.95,2.85-.78,5.2C194.79,116.82,192.87,118.36,189.66,117.9Zm.44-3.84c1.71.26,2.52-.22,2.71-1.53l.17-1.12-6.51-1-.17,1.13c-.19,1.3.52,2,2.41,2.3Z"/><path class="cls-1" d="M175.92,124.87l-2.79-.77,2.39-8.61,18.47,5.1L191.66,129l-2.78-.77,1.33-4.81-4.79-1.32-1.23,4.45-2.79-.78,1.23-4.44-5.33-1.48Z"/><path class="cls-1" d="M190.91,131.36l-1.57,3.71-9.83-.67c-1-.1-2-.23-2.94-.39l0,.05c1.32.47,2.64,1,4,1.52l7.31,3.09-1.29,3-17.65-7.47,1.41-3.33,10.66.7a27.45,27.45,0,0,1,3.11.41l0-.08c-1.17-.43-2.29-.82-3.49-1.33L172,127l1.29-3Z"/><path class="cls-1" d="M173.62,137.1l7,4.19c3.36,2,4,4.84,2.16,8-1.8,3-4.29,3.78-7.3,2l-1.67-1,1.37-3.69,2.2,1.33c1.36.82,2.34.77,2.92-.2s.2-2-1.39-2.92l-7.43-4.47c-1.57-.95-2.73-.91-3.32.08s-.16,1.89,1.18,2.7l2.45,1.47-2.65,2.88-1.78-1.07c-3-1.81-3.53-4.55-1.75-7.51C167.47,135.69,170.2,135,173.62,137.1Z"/><path class="cls-1" d="M159.83,152.55l-2.28-1.78,5.5-7,15.1,11.8-5.38,6.89-2.28-1.78,3.08-3.93-3.92-3.06-2.84,3.64-2.27-1.78,2.84-3.64L163,148.46Z"/><path class="cls-1" d="M159.58,159.75l.95-.95-5.5-5.53,2.66-2.65,13.53,13.59-3.62,3.6c-2.83,2.82-5.29,2.57-7.58.31l-.65-.65c-1.6-1.61-2-3.23-1.52-4.74l-8-4.26,2.78-2.76Zm1.87,1.54c-1,1-.79,2,.52,3.32l.86.86c1.24,1.24,2.1,1.34,3.11.33l.79-.78-4.5-4.52Z"/><path class="cls-1" d="M153.51,161.49l.94,1.23-2.59,2.89-1.32-1.74c-.94-1.22-1.89-1.62-2.77-1s-.71,1.57-.07,2.4l.48.63a2.48,2.48,0,0,0,2.67,1.18l3.19-.33a4.89,4.89,0,0,1,4.92,2.08l.6.8c1.91,2.48,1,5.12-1.34,6.9-2.59,2-5,2.21-7.21-.67l-.85-1.11,2.53-2.82,1.25,1.63c.78,1,1.66,1.41,2.56.72a1.46,1.46,0,0,0,.19-2.18l-.52-.69a2.58,2.58,0,0,0-2.47-1l-3.21.35a4.82,4.82,0,0,1-5-2.09l-.88-1.16c-1.67-2.19-1.38-4.83,1.43-7S151.56,158.94,153.51,161.49Z"/><path class="cls-1" d="M140.2,181.78l-.81-1.37c-1.73-3-1-5.55,1.91-7.28l1.38-.8L139,166l3.24-1.89,9.67,16.55-4.54,2.66C144.26,185.1,141.86,184.57,140.2,181.78Zm3.26-2.06c.87,1.49,1.75,1.82,2.9,1.15l1-.57L144,174.61l-1,.57c-1.14.67-1.24,1.67-.28,3.32Z"/><path class="cls-1" d="M126.15,175.42,125,172.77l8.2-3.53,7.59,17.6-8,3.46-1.14-2.65,4.59-2-2-4.56L130,182.93l-1.14-2.65,4.24-1.82-2.19-5.09Z"/><path class="cls-1" d="M130.47,191.19l-3.87,1.09L121,184.19c-.54-.83-1.06-1.69-1.53-2.54l-.05,0c.46,1.33.9,2.66,1.28,4l2.17,7.64-3.17.9-5.22-18.45,3.48-1,6.13,8.76a31.21,31.21,0,0,1,1.63,2.69l.07,0c-.39-1.18-.79-2.3-1.14-3.54l-2.56-9.05,3.19-.9Z"/><path class="cls-1" d="M115.17,181.28l1.08,8.05c.52,3.88-1.24,6.19-4.88,6.67-3.45.47-5.63-1-6.1-4.46l-.26-1.93,3.73-1.23.34,2.54c.21,1.58.86,2.31,2,2.16s1.65-1.07,1.41-2.92l-1.16-8.59c-.24-1.82-1-2.7-2.13-2.54s-1.58,1.05-1.37,2.61l.38,2.83-3.9-.26-.28-2.07c-.47-3.47,1.35-5.6,4.77-6.06C112.42,175.6,114.64,177.31,115.17,181.28Z"/><path class="cls-1" d="M94.49,180.18l0-2.89,8.94-.11.24,19.17-8.75.11,0-2.89,5-.06-.06-5-4.62.06,0-2.89,4.62-.06-.07-5.54Z"/><path class="cls-1" d="M88.71,184.5l1.35.15.85-7.76,3.73.41-2.1,19.06-5.07-.56c-4-.44-5.32-2.52-5-5.71l.1-.92c.25-2.25,1.24-3.61,2.74-4.15l-1.73-8.94,3.89.43Zm0,2.41c-1.45-.16-2,.65-2.25,2.5l-.14,1.21c-.19,1.74.27,2.47,1.7,2.63l1.1.12.69-6.33Z"/><path class="cls-1" d="M83.51,180.86l-.36,1.49-3.87-.2L79.8,180c.36-1.49.08-2.48-1-2.75s-1.66.43-1.91,1.45l-.18.76a2.47,2.47,0,0,0,.75,2.83l2.25,2.27a4.88,4.88,0,0,1,1.45,5.14l-.23,1c-.75,3.05-3.37,4-6.23,3.28-3.17-.78-4.85-2.53-4-6l.33-1.36,3.79.21-.49,2c-.31,1.26-.06,2.18,1,2.45A1.47,1.47,0,0,0,77.21,190l.2-.84a2.55,2.55,0,0,0-.79-2.53l-2.28-2.28a4.82,4.82,0,0,1-1.5-5.21l.35-1.41c.66-2.68,2.9-4.1,6.33-3.25S84.28,177.74,83.51,180.86Z"/><path class="cls-1" d="M59.37,183.18l.57-1.49c1.23-3.2,3.67-4.29,6.87-3.06l1.49.57,2.63-6.86,3.5,1.34-6.86,17.9-4.92-1.88C59.33,188.42,58.24,186.21,59.37,183.18ZM63,184.43c-.62,1.61-.33,2.51.91,3l1,.41,2.36-6.15-1.06-.41c-1.23-.47-2.08.07-2.76,1.86Z"/><path class="cls-1" d="M55.53,168.24l1.35-2.55,7.89,4.19-9,16.92-7.73-4.1,1.36-2.55,4.41,2.34,2.33-4.38-4.08-2.17,1.35-2.55,4.08,2.17,2.6-4.89Z"/><path class="cls-1" d="M45.94,181.46l-3.27-2.33,2.79-9.45c.3-.94.65-1.89,1-2.78l0,0c-.74,1.19-1.52,2.37-2.35,3.53l-4.6,6.47L36.8,175l11.12-15.61,2.95,2.1-3,10.25a27.43,27.43,0,0,1-1.07,2.95l.07.05c.67-1,1.3-2.06,2-3.11l5.45-7.65,2.7,1.92Z"/><path class="cls-1" d="M44.13,163.36l-5.61,5.89c-2.7,2.83-5.6,2.9-8.26.37s-2.76-5-.34-7.55l1.34-1.41,3.3,2.13-1.77,1.86c-1.09,1.15-1.26,2.11-.44,2.9s1.87.62,3.15-.73l6-6.28c1.27-1.33,1.49-2.46.65-3.26s-1.81-.57-2.89.57l-2,2.07L35,156.71l1.43-1.51c2.42-2.54,5.21-2.45,7.71-.07C46.83,157.66,46.88,160.47,44.13,163.36Z"/><path class="cls-1" d="M32,146.53l2.23-1.83,5.69,6.89-14.8,12.2L19.57,157l2.23-1.83L25,159.05l3.84-3.16-2.94-3.56,2.23-1.84,2.94,3.56,4.27-3.51Z"/><path class="cls-1" d="M25,144.75l.73,1.14,6.58-4.2,2,3.17L18.2,155.16l-2.74-4.3c-2.15-3.37-1.38-5.72,1.32-7.47l.77-.5c1.91-1.22,3.59-1.29,4.95-.46l5.88-7,2.11,3.31Zm-1.9,1.49c-.78-1.23-1.78-1.19-3.35-.19l-1,.65c-1.48,1-1.76,1.76-1,3l.6.93,5.37-3.42Z"/><path class="cls-1" d="M24.62,138.42l-1.4.64L21,135.92l2-.92c1.4-.65,2-1.49,1.52-2.5s-1.37-1-2.32-.58l-.71.33a2.49,2.49,0,0,0-1.74,2.35l-.36,3.18a4.87,4.87,0,0,1-3.1,4.36l-.9.42c-2.84,1.33-5.22-.13-6.46-2.8-1.38-3-1.07-5.37,2.21-6.89l1.27-.59,2.21,3.08-1.86.86c-1.17.55-1.74,1.32-1.26,2.35a1.48,1.48,0,0,0,2.1.66l.78-.36a2.58,2.58,0,0,0,1.48-2.21l.35-3.2A4.79,4.79,0,0,1,19.26,129l1.32-.62c2.5-1.16,5-.31,6.5,2.9S27.53,137.06,24.62,138.42Z"/><path class="cls-1" d="M7.7,121.06l1.52-.49c3.26-1,5.64.18,6.68,3.44l.49,1.52,7-2.24,1.15,3.58L6.27,132.71l-1.6-5C3.58,124.31,4.62,122.07,7.7,121.06ZM9,124.69c-1.65.53-2.16,1.32-1.76,2.58l.35,1.08,6.27-2-.34-1.08c-.41-1.26-1.36-1.58-3.19-1Z"/><path class="cls-1" d="M17,108.71l2.83-.54L21.46,117,2.62,120.52,1,111.93l2.84-.54.93,4.91,4.88-.93-.86-4.54,2.84-.54.86,4.54,5.44-1Z"/><path class="cls-1" d="M.64,109.52l-.23-4,9.12-3.74c.93-.35,1.88-.67,2.81-.94v-.06c-1.4.16-2.8.3-4.23.38l-7.92.45L0,98.3l19.14-1.09.21,3.61L9.46,104.9a29.08,29.08,0,0,1-3,1V106c1.23-.12,2.42-.27,3.71-.35l9.38-.53.19,3.31Z"/><path class="cls-1" d="M13.63,96.75l-8.1-.68c-3.9-.33-5.78-2.55-5.47-6.21.29-3.47,2.18-5.29,5.68-5L7.68,85l.4,3.91-2.56-.22c-1.59-.13-2.44.34-2.53,1.47s.68,1.85,2.54,2l8.64.73c1.83.15,2.85-.38,3-1.54s-.7-1.77-2.26-1.9L12,89.24l1.1-3.75,2.07.17c3.5.29,5.19,2.52,4.89,6C19.77,95.29,17.61,97.08,13.63,96.75Z"/><path class="cls-1" d="M19.16,76.75l2.83.59-1.81,8.75L1.4,82.2l1.78-8.57L6,74.22,5,79.11l4.86,1,.94-4.52,2.83.59-.94,4.52,5.42,1.12Z"/><path class="cls-1" d="M16.18,70.2l-.44,1.28L23.13,74l-1.2,3.55L3.77,71.39l1.64-4.84c1.28-3.78,3.6-4.65,6.65-3.64l.87.29c2.15.73,3.26,2,3.47,3.57l9.1.24-1.26,3.7Zm-2.36-.54c.47-1.38-.18-2.14-2-2.74l-1.15-.39c-1.66-.57-2.47-.27-2.93,1.08l-.36,1,6,2Z"/><path class="cls-1" d="M20.85,65.91l-1.38-.68,1-3.74,2,1c1.38.68,2.41.61,2.9-.38s-.06-1.71-1-2.18l-.7-.35a2.5,2.5,0,0,0-2.92.13L18,61.38a4.84,4.84,0,0,1-5.33.32l-.9-.44C9,59.88,8.63,57.11,9.93,54.47c1.45-2.93,3.52-4.19,6.76-2.59L18,52.5l-1,3.65-1.84-.91c-1.16-.57-2.11-.53-2.62.49a1.48,1.48,0,0,0,.8,2.05l.77.38a2.58,2.58,0,0,0,2.65-.24l2.72-1.72a4.81,4.81,0,0,1,5.41-.35l1.3.65c2.47,1.22,3.38,3.71,1.81,6.88S23.73,67.33,20.85,65.91Z"/><path class="cls-1" d="M23.81,41.84l1.33.87c2.86,1.9,3.39,4.51,1.5,7.37l-.88,1.33,6.13,4.05-2.07,3.13L13.83,48l2.9-4.39C18.7,40.66,21.09,40.07,23.81,41.84Zm-2,3.29c-1.44-1-2.37-.86-3.1.24l-.63,1L23.55,50l.63-.94c.73-1.11.38-2-1.22-3.11Z"/><path class="cls-1" d="M39.22,41.34l2.2,1.88L35.61,50,21,37.56l5.68-6.65,2.2,1.88-3.25,3.8,3.78,3.22,3-3.51,2.2,1.88-3,3.51,4.21,3.59Z"/><path class="cls-1" d="M28.38,29.12l3-2.7L40,31.2c.85.5,1.7,1,2.49,1.6l0,0c-1-1-2-2-2.94-3.06l-5.32-5.9,2.45-2.2L49.56,35.84l-2.68,2.43-9.37-5.16a28.53,28.53,0,0,1-2.65-1.69l-.06.06c.87.89,1.73,1.71,2.59,2.68l6.3,7-2.47,2.22Z"/><path class="cls-1" d="M46.48,31.25l-4.54-6.73c-2.19-3.25-1.64-6.1,1.41-8.15,2.88-2,5.48-1.62,7.45,1.29l1.08,1.61L49.09,22l-1.43-2.13c-.89-1.32-1.79-1.69-2.73-1.06s-1,1.69,0,3.24l4.84,7.18c1,1.52,2.09,2,3.05,1.33s.94-1.64.07-2.94l-1.6-2.37,3.62-1.5,1.16,1.73c2,2.9,1.28,5.61-1.59,7.55C51.47,35.12,48.72,34.56,46.48,31.25Z"/><path class="cls-1" d="M65.51,23l1.32,2.57-8,4.07L50.14,12.62l7.79-4,1.31,2.57-4.45,2.28,2.27,4.42,4.11-2.1,1.32,2.57-4.11,2.1L60.9,25.4Z"/><path class="cls-1" d="M68.76,16.61l-1.27.47,2.67,7.33-3.53,1.28-6.56-18,4.8-1.74c3.76-1.37,5.88-.1,7,2.91l.31.86c.78,2.13.49,3.79-.62,4.94l5.52,7.25-3.68,1.34Zm-1.05-2.17c1.37-.5,1.56-1.49.92-3.24l-.42-1.14c-.6-1.65-1.34-2.1-2.68-1.61l-1,.38,2.18,6Z"/><path class="cls-1" d="M87.9,56.16a2.68,2.68,0,0,1,.49-.91,3.09,3.09,0,0,1,.81-.71,3.35,3.35,0,0,1,1-.43,3.74,3.74,0,0,0,.6-.13.54.54,0,0,0,.31-.18.36.36,0,0,0,.11-.26,1.5,1.5,0,0,0,0-.35,1.75,1.75,0,0,0-.27-.71l-.47-.6c-.17-.2-.33-.41-.48-.62a1.61,1.61,0,0,1-.27-.73A2.46,2.46,0,0,1,90,49a8,8,0,0,1,.87-1.28s0-.06-.14,0a4.75,4.75,0,0,0-.83.19,5.56,5.56,0,0,1-.85.18,4.07,4.07,0,0,1-1.1,0,2.51,2.51,0,0,1-1-.3,2,2,0,0,1-.72-.65,2.25,2.25,0,0,1-.37-1,.67.67,0,0,1,0-.16c0-.08,0-.12.07-.13h0s0,0,.07.09l.12.22c0,.08.09.16.14.24a.34.34,0,0,0,.15.16,1.24,1.24,0,0,0,.76.14,2,2,0,0,0,.49-.15c.17-.07.33-.15.48-.23.51-.25,1-.49,1.54-.69a8,8,0,0,1,1.67-.43,4.56,4.56,0,0,1,2.1.18,4.82,4.82,0,0,1,1.69,1,5.26,5.26,0,0,1,1.2,1.61A6.68,6.68,0,0,1,97,50a4.73,4.73,0,0,1-.3,2.41,4.45,4.45,0,0,1-1.44,1.92l-1.3,1a4.1,4.1,0,0,0-1,1.25h-.09a.2.2,0,0,1-.21-.08.57.57,0,0,0-.15-.16,3.64,3.64,0,0,0-1.29-.75,3.69,3.69,0,0,0-1.51-.06,2.47,2.47,0,0,0-1.28.52A1.39,1.39,0,0,0,88,57.38a1.06,1.06,0,0,0,.32.63,3.29,3.29,0,0,0,.58.48,1.88,1.88,0,0,0,.56.23,4.44,4.44,0,0,0,.65.08,5,5,0,0,0,.67,0l.61-.07.32,0a9.56,9.56,0,0,0,1.62-.38,3,3,0,0,0,1.37-.95l.13-.19a2.85,2.85,0,0,1,.17-.26,1.11,1.11,0,0,1,.19-.23q.11-.12.18-.12a.38.38,0,0,1,0,.1.21.21,0,0,1,0,.11,5.61,5.61,0,0,1-1.17,1.49,5.19,5.19,0,0,1-1.64.92l-.69.1a7,7,0,0,1-1.13.05,4.41,4.41,0,0,1-1.14-.21,3.35,3.35,0,0,1-1-.52,2.24,2.24,0,0,1-.7-.9l-.06-.46A2.36,2.36,0,0,1,87.9,56.16Zm4-2.34.68.09,1,.1h.07c.07,0,.11,0,.11-.06l-.86-6.27c0-.07-.06-.11-.16-.14l-.31-.07h-.52a1.08,1.08,0,0,0-.49.17.71.71,0,0,0-.24.43l0,.34a2,2,0,0,0,.25.74c.13.22.27.44.41.66a7.92,7.92,0,0,1,.42.69,2.23,2.23,0,0,1,.26.79,1.73,1.73,0,0,1-.18,1.08,9.71,9.71,0,0,1-.56.94l-.15.22a.29.29,0,0,0-.07.23S91.68,53.78,91.88,53.82Zm1.28-6a.07.07,0,0,0,0,.07L94,54.11c0,.1.09.18.23.26a.57.57,0,0,0,.29.1h.06a2.75,2.75,0,0,0,.47-.8,3.17,3.17,0,0,0,.2-.86,5.27,5.27,0,0,0,0-.89c0-.31-.06-.63-.11-.95L95,50s-.07-.18-.18-.42a5.79,5.79,0,0,0-.4-.78,3.81,3.81,0,0,0-.56-.73.75.75,0,0,0-.64-.27Z"/><path class="cls-1" d="M100.75,48.43a2.63,2.63,0,0,1,.38.61,4.11,4.11,0,0,1,.25.72,1.92,1.92,0,0,1,.08.57,2.26,2.26,0,0,1-.25,1,4.35,4.35,0,0,1-.6.89,9.32,9.32,0,0,1-.77.77c-.28.24-.53.47-.76.69v.1a.81.81,0,0,0,.14.38,4.32,4.32,0,0,0,.35.42,3.82,3.82,0,0,0,.4.34.6.6,0,0,0,.31.15.57.57,0,0,0,.43-.16,2.33,2.33,0,0,1,.38-.31h.18v.07a1.41,1.41,0,0,1-.2.22,2,2,0,0,1-.34.3l-.31.25-.55.45-.56.41a1,1,0,0,1-.36.18h0a2,2,0,0,1-.65-.45,3.73,3.73,0,0,1-.58-.72,4.47,4.47,0,0,1-.39-.83,2.33,2.33,0,0,1-.14-.77l0-2.35a1.66,1.66,0,0,1,.36-1,4.79,4.79,0,0,1,.82-.8,11.9,11.9,0,0,1,1-.7,4.49,4.49,0,0,0,.86-.7h0A.61.61,0,0,1,100.75,48.43Zm-1.59,4.74a.48.48,0,0,0,.35-.16,1.61,1.61,0,0,0,.32-.4,3.78,3.78,0,0,0,.25-.49,1.32,1.32,0,0,0,.09-.42,1.83,1.83,0,0,0,0-.46,4.16,4.16,0,0,0-.17-.65,2.08,2.08,0,0,0-.28-.58.47.47,0,0,0-.39-.26h0c-.07,0-.12.06-.15.16a1.35,1.35,0,0,0-.07.37,3,3,0,0,0,0,.43v.89c0,.25,0,.49,0,.73s0,.51,0,.82A.32.32,0,0,0,99.16,53.17Z"/><path class="cls-1" d="M101.35,55.91a2.68,2.68,0,0,0-.28.18c-.09.07-.17.14-.25.19a.32.32,0,0,1-.2.08h-.07a1.24,1.24,0,0,1,.3-.61,3.21,3.21,0,0,1,.62-.53,3.32,3.32,0,0,1,.74-.35,1.72,1.72,0,0,1,.68-.09,3.43,3.43,0,0,1,.81.2,1.53,1.53,0,0,1,.65.5l.08-.06.24-2a.52.52,0,0,0-.14-.41.58.58,0,0,0-.37-.22.66.66,0,0,0-.36.07l-.42.2a2.75,2.75,0,0,1-.46.18,1.12,1.12,0,0,1-.52,0,1,1,0,0,1-.49-.2,1.35,1.35,0,0,1-.35-.4,1.81,1.81,0,0,1-.2-.52,1.59,1.59,0,0,1,0-.53,1.68,1.68,0,0,1,.27-.79,2.31,2.31,0,0,1,.54-.54,3.71,3.71,0,0,1,.71-.39l.8-.35a4.26,4.26,0,0,0,.68-.38,2.93,2.93,0,0,1,.72-.34c.06,0,.1,0,.14.13l.13.26a1,1,0,0,0,.19.26.56.56,0,0,0,.32.15.53.53,0,0,0,.39-.07,1.09,1.09,0,0,0,.26-.22l.2-.23a.28.28,0,0,1,.25-.08,1.94,1.94,0,0,1-.24.67,2.37,2.37,0,0,1-.49.64,2.42,2.42,0,0,1-.66.45,1.38,1.38,0,0,1-.74.12h0a.93.93,0,0,1-.3-.14l-.4-.25a2.67,2.67,0,0,0-.34-.2c-.09-.05-.15-.05-.16,0l-.19,1.57a.7.7,0,0,0,.08.35.34.34,0,0,0,.25.21.7.7,0,0,0,.4-.07,4,4,0,0,0,.4-.22,3.55,3.55,0,0,1,.44-.21,1,1,0,0,1,.52-.06,1.2,1.2,0,0,1,.63.25,1.64,1.64,0,0,1,.36.5,2,2,0,0,1,.14.65,3.85,3.85,0,0,1,0,.68v.07c0,.22-.09.42-.12.59a1.61,1.61,0,0,1-.19.53,1.18,1.18,0,0,1-.48.46,4,4,0,0,1-.7.29l-.73.22a1.52,1.52,0,0,0-.57.28.54.54,0,0,0-.16.09l-.21.13-.22.11a.28.28,0,0,1-.16,0H103c-.21-.27-.4-.49-.56-.66a1.16,1.16,0,0,0-.73-.32A.59.59,0,0,0,101.35,55.91Z"/><path class="cls-1" d="M107.43,50.69c-.05-.15-.12-.23-.22-.25a.33.33,0,0,0-.34.1.29.29,0,0,1-.32.11s.11-.16.3-.33a6.15,6.15,0,0,1,.67-.5,8.32,8.32,0,0,1,.73-.44.9.9,0,0,1,.5-.16l.07,0a.49.49,0,0,1,.3.26,3.54,3.54,0,0,1,.23.48c.06.16.11.32.15.46a.94.94,0,0,0,.09.22l.65-.33,0,.2-.4.35a2.72,2.72,0,0,0-.37.39c-.06.26-.13.52-.19.79l-.18.79-.33,1.56-.06.28-.08.46a3.15,3.15,0,0,0,0,.52,1.4,1.4,0,0,0,.06.43.29.29,0,0,0,.22.22h0a.6.6,0,0,0,.2,0c.11,0,.17-.05.18,0h.07s-.11.14-.3.27l-.64.43c-.23.15-.44.29-.64.4a1.26,1.26,0,0,1-.3.17h-.07a4.89,4.89,0,0,1-.47-.65,2,2,0,0,1-.23-.58,1.89,1.89,0,0,1,0-.63c0-.23.07-.51.14-.84l.1-.42c0-.24.1-.52.17-.85s.13-.66.19-1l.17-.92c.06-.28.09-.48.11-.6A1.14,1.14,0,0,0,107.43,50.69Zm1.36-3.82a.83.83,0,0,1,.74-.13.81.81,0,0,1,.58.4,1,1,0,0,1,.08.71,1,1,0,0,1-.35.59.75.75,0,0,1-.66.16.94.94,0,0,1-.62-.39.88.88,0,0,1-.13-.7A1.1,1.1,0,0,1,108.79,46.87Z"/><path class="cls-1" d="M108.82,58.32a1.14,1.14,0,0,1,.73,0,.73.73,0,0,1,.51.45,1,1,0,0,1,0,.65.85.85,0,0,1-.34.48.59.59,0,0,0-.28.31c0,.08,0,.15.11.2l.26.11a1.59,1.59,0,0,0,1.18-.05,1.42,1.42,0,0,0,.74-.89,3.05,3.05,0,0,0,.13-1.13,4.42,4.42,0,0,1,.1-1.19l-.06,0-1.6.4a.84.84,0,0,0-.32.26c-.13.14-.25.19-.36.16h0l-.28-.49a4,4,0,0,1-.26-.56,2.44,2.44,0,0,1-.16-.57,1.42,1.42,0,0,1,0-.58l1-3a1.56,1.56,0,0,1,.5-.76,3.4,3.4,0,0,1,.78-.48,6.63,6.63,0,0,1,.88-.33,4.37,4.37,0,0,0,.82-.31.57.57,0,0,0,.16-.08l.23-.15.24-.13c.07,0,.13-.06.16,0l.07,0c.27.3.48.55.64.75a6.67,6.67,0,0,1,.53.77,2,2,0,0,1,.12.27.39.39,0,0,0,.2.23s.09,0,.17-.07.17-.12.26-.2l.26-.19c.09-.06.14-.08.18-.07h0l0,.06,0,.07c-.2.16-.38.32-.55.48a1.63,1.63,0,0,0-.38.57l-.19.51-.27.77c-.1.28-.19.57-.29.86s-.18.53-.24.73l-.12.38,0,.06a3.33,3.33,0,0,0-.11.39c0,.16-.09.31-.13.46s-.08.28-.1.39a1.3,1.3,0,0,1,0,.18,2.34,2.34,0,0,0,0,.75,1.77,1.77,0,0,1-.06.73,1.75,1.75,0,0,1-.61.9,2.75,2.75,0,0,1-1,.48A3.19,3.19,0,0,1,111,61a3.69,3.69,0,0,1-1.07-.18,5,5,0,0,1-.65-.27,2.31,2.31,0,0,1-.56-.41,1.36,1.36,0,0,1-.35-.56,1.2,1.2,0,0,1,0-.72A.74.74,0,0,1,108.82,58.32Zm2-2a1.86,1.86,0,0,0,.06.34,1.3,1.3,0,0,0,.14.29.43.43,0,0,0,.24.18.54.54,0,0,0,.5-.1,2.57,2.57,0,0,1,.38-.25l1-3.07a1.21,1.21,0,0,0,0-.48,2.23,2.23,0,0,0-.16-.56,1.66,1.66,0,0,0-.29-.48.82.82,0,0,0-.4-.28l-.06,0s-.08,0-.12.08a2.4,2.4,0,0,0-.14.28,3,3,0,0,0-.14.36c0,.13-.09.26-.13.37l-.12.36-.2.63c0,.08-.06.21-.12.41s-.12.4-.18.61-.13.43-.18.62-.09.34-.1.42S110.83,56.16,110.83,56.27Z"/><path class="cls-1" d="M114.14,57.91l.24-.14a1.84,1.84,0,0,0,.25-.17.6.6,0,0,0,.19-.23l1.68-3.54a1.08,1.08,0,0,0,.06-.19,1.22,1.22,0,0,0,0-.27,1.1,1.1,0,0,0-.06-.26.27.27,0,0,0-.13-.16h-.26l-.1-.05.29-.14.67-.31c.26-.11.51-.2.76-.28a.76.76,0,0,1,.5,0l0,0c.1,0,.17.17.2.38s0,.44,0,.69v.66c0,.19,0,.3,0,.32l.25,0,.54-.1.57-.12.39-.07.17-.06.33-.11.33-.1a.33.33,0,0,1,.17,0h0a.37.37,0,0,1,.17.27c0,.15.07.31.1.48s0,.34.07.5a1,1,0,0,0,.11.36l.79-.21-.1.22a5.68,5.68,0,0,0-.73.4,1.52,1.52,0,0,0-.54.63l-1.55,3.25a2.19,2.19,0,0,0-.07.23,1.37,1.37,0,0,0,0,.29,1.1,1.1,0,0,0,0,.27.24.24,0,0,0,.14.18l.49-.16.12.06a.57.57,0,0,1-.37.29l-1.3.47a.58.58,0,0,1-.14.07l-.22.08-.21.07q-.09,0-.06.06h0l-.44-1.11a.86.86,0,0,1,0-.55,4.87,4.87,0,0,1,.21-.53l.17-.37c.12-.24.29-.59.53-1s.44-.92.64-1.39a7.56,7.56,0,0,0,.41-1.29c.09-.38,0-.61-.13-.7a.62.62,0,0,0-.31,0,1.17,1.17,0,0,0-.36.08,1.37,1.37,0,0,0-.32.16.89.89,0,0,0-.22.21c-.06.1-.17.29-.32.57l-.46.92c-.16.32-.31.63-.44.92l-.3.62-.07.16a.9.9,0,0,0-.12.42,1.26,1.26,0,0,0,0,.34,1.46,1.46,0,0,0,0,.27.33.33,0,0,1,0,.18.25.25,0,0,1-.18.1l-.35.07-.37.08a.8.8,0,0,0-.26.08,1.18,1.18,0,0,0-.34.19c-.13.1-.22.13-.27.11l-.07,0a2.65,2.65,0,0,0-.23-.88,3,3,0,0,0-.53-.77l0-.09A.36.36,0,0,1,114.14,57.91Z"/><path class="cls-1" d="M120.13,60.33a3.11,3.11,0,0,1,1.25-.17,4,4,0,0,1,1.26.28,4.23,4.23,0,0,1,1.11.61,3.31,3.31,0,0,1,.62.62c.16.22.32.45.48.7,0,0,0,.11.07.2a1.39,1.39,0,0,0,.12.28.59.59,0,0,0,.14.19c.06,0,.11,0,.17,0l.11-.15a.88.88,0,0,0,.16-.3,1,1,0,0,0,0-.35c0-.42,0-.82-.07-1.19a6.2,6.2,0,0,1,0-1.06,4.19,4.19,0,0,1,.23-1,3.91,3.91,0,0,1,.57-1,2.92,2.92,0,0,1,1.18-1,5.2,5.2,0,0,1,1.37-.35c.47,0,1-.09,1.47-.1a7.19,7.19,0,0,0,1.47-.16h.05c.08.07.1.19,0,.37a.91.91,0,0,0,0,.49,1.33,1.33,0,0,0,.27.56,2.79,2.79,0,0,0,.46.45,1.19,1.19,0,0,0,.7.25h.78l.08.06a.64.64,0,0,1-.32.21,2.41,2.41,0,0,1-.35.07,6.33,6.33,0,0,1-1.77.17,2.8,2.8,0,0,1-1.63-.62,2.06,2.06,0,0,1-.57-.67q-.23-.41-.39-.78a.21.21,0,0,0-.19,0,.6.6,0,0,0-.21.08l-.18.15-.13.14a1.93,1.93,0,0,0-.23.53,3.68,3.68,0,0,0-.14.75,3.41,3.41,0,0,0,0,.71.57.57,0,0,0,.16.44.48.48,0,0,0,.33.08,1.28,1.28,0,0,0,.37-.07c.47,0,1,.06,1.59.08a11,11,0,0,0,1.65-.06l.06.05a8,8,0,0,1-.05,1.3,2.25,2.25,0,0,1-.49,1.16,3.6,3.6,0,0,1-.41.45,1.26,1.26,0,0,1-.91.26L130,63l-.46,0c-.13,0-.21,0-.23,0l0,0,.34.53a2.79,2.79,0,0,1,.26.59,1.87,1.87,0,0,1,.11.61,1.55,1.55,0,0,1-.11.63,2.27,2.27,0,0,1-.19.43c-.08.15-.15.3-.21.43a3.31,3.31,0,0,0-.13.36c0,.11,0,.18,0,.22a.76.76,0,0,0,.23,0l.4.06a.67.67,0,0,1,.27.06s0,0-.19.07l-2,.25a.61.61,0,0,0-.25.06l-.3.12-.27.09a.21.21,0,0,1-.18,0,.63.63,0,0,1-.18-.41,3,3,0,0,1,0-.68,3.13,3.13,0,0,1,.08-.7,1,1,0,0,1,.18-.48l1.28-1.66a1,1,0,0,0,.15-.46.47.47,0,0,0-.17-.44.57.57,0,0,0-.3-.11.28.28,0,0,0-.28.11l-2.3,3s0-.07,0-.15l.49-.6.49-.62.68-.94q.31-.46.6-1A.29.29,0,0,1,128,62a.61.61,0,0,0,.23-.09l.49-.63s.09-.12.15-.22l.22-.32.22-.32c.06-.1.12-.17.15-.22l-.06,0a.58.58,0,0,0-.25-.11,1.23,1.23,0,0,0-.33,0,1.08,1.08,0,0,0-.32,0,.42.42,0,0,0-.21.12,1,1,0,0,0-.19.46,2.71,2.71,0,0,1-.11.51,5.58,5.58,0,0,1-.21.52,2.63,2.63,0,0,1-.31.5,2.75,2.75,0,0,1-.82.72,4,4,0,0,1-1,.37c-.34.09-.69.16-1,.22a8.18,8.18,0,0,0-1.07.23,1.72,1.72,0,0,1-.27.13l-.35.15-.45.19-.06,0a2.56,2.56,0,0,0-.08-1.62,2.87,2.87,0,0,0-1-1.27,4.72,4.72,0,0,0-.48-.33,1.13,1.13,0,0,0-.4-.14,1.15,1.15,0,0,0-.41,0,2.82,2.82,0,0,0-.54.18l-.21.27a1.52,1.52,0,0,0-.34.85,2.27,2.27,0,0,0,.13.89,3.54,3.54,0,0,0,.42.85,6.2,6.2,0,0,0,.56.72l.64.48a6.23,6.23,0,0,0,1.81,1,5.1,5.1,0,0,0,2,.25l.08.06,0,0c0,.06-.09.08-.13,0a6.13,6.13,0,0,1-2.22,0,4.79,4.79,0,0,1-2-.94,4.84,4.84,0,0,1-.87-.88,4,4,0,0,1-.61-1.11,2.76,2.76,0,0,1-.17-1.21,2.11,2.11,0,0,1,.46-1.16A2.35,2.35,0,0,1,120.13,60.33Zm8.37,2a1.12,1.12,0,0,0,.4.24,1,1,0,0,0,.5.06.56.56,0,0,0,.41-.22,1.16,1.16,0,0,0,.13-.38,3.92,3.92,0,0,0,.07-.61,3.11,3.11,0,0,0,0-.62.71.71,0,0,0-.18-.4l0,0a.11.11,0,0,0-.12,0l-.1,0-.4.53-.23.28-.21.26a4.34,4.34,0,0,0-.33.5A.31.31,0,0,0,128.5,62.28Z"/><path class="cls-1" d="M133,64.43a.35.35,0,0,0,0-.34.32.32,0,0,0-.34-.1.32.32,0,0,1-.33-.1,1.1,1.1,0,0,1,.45-.1,7.23,7.23,0,0,1,.83,0c.3,0,.58,0,.85.06a.89.89,0,0,1,.5.16L135,64a.48.48,0,0,1,.09.39,2.36,2.36,0,0,1-.09.52,3.9,3.9,0,0,1-.13.47c-.05.14-.07.22-.05.23l.72.1-.16.14-.52.05a2.76,2.76,0,0,0-.53.11l-.61.54-.6.55-1.17,1.09-.2.19-.34.33a3,3,0,0,0-.33.4,1,1,0,0,0-.2.39.29.29,0,0,0,0,.3l0,0s.09.05.19.09.17,0,.17.06l0,0a.88.88,0,0,1-.4,0h-.77l-.75,0-.34,0L129,70a4.57,4.57,0,0,1,0-.81,2,2,0,0,1,.15-.61,1.83,1.83,0,0,1,.35-.52,8.41,8.41,0,0,1,.6-.6l.32-.3.63-.59.72-.71.66-.65c.21-.19.35-.34.44-.43A1.1,1.1,0,0,0,133,64.43Zm3.3-2.35a.94.94,0,0,1,.92,1,1,1,0,0,1-.33.64,1.13,1.13,0,0,1-.63.28.74.74,0,0,1-.63-.26,1,1,0,0,1-.29-.67.88.88,0,0,1,.3-.65A1.12,1.12,0,0,1,136.29,62.08Z"/><path class="cls-1" d="M131.08,69.93h.27a1.54,1.54,0,0,0,.3,0,.58.58,0,0,0,.28-.12l3.12-2.37.14-.14a1.36,1.36,0,0,0,.13-.24,1.17,1.17,0,0,0,.07-.25.28.28,0,0,0,0-.21l-.23-.12-.07-.09h.32l.75,0a5,5,0,0,1,.79.1.81.81,0,0,1,.48.19l0,0a.47.47,0,0,1,0,.44,5.42,5.42,0,0,1-.27.63l-.3.58c-.09.18-.13.28-.11.31l.25.09.52.15.56.16.38.11.18,0,.34.05.34.07a.5.5,0,0,1,.17,0v0a.39.39,0,0,1,0,.32c0,.15-.08.3-.14.47s-.11.33-.16.48a.78.78,0,0,0-.07.36l.8.18-.2.15a7.48,7.48,0,0,0-.82,0,1.52,1.52,0,0,0-.77.31l-2.87,2.18a.89.89,0,0,0-.16.17.82.82,0,0,0-.16.25,1.61,1.61,0,0,0-.09.26.25.25,0,0,0,0,.21l.51.09.08.12a.6.6,0,0,1-.46.08l-1.37-.18h-.16l-.23,0-.22,0c-.06,0-.09,0-.09,0l0,0,.12-1.19a.8.8,0,0,1,.25-.48,3.78,3.78,0,0,1,.43-.38l.32-.25.95-.69c.42-.3.82-.62,1.21-1a7.18,7.18,0,0,0,1-.94c.25-.31.32-.54.2-.69a.6.6,0,0,0-.25-.18,1.06,1.06,0,0,0-.35-.09,1.54,1.54,0,0,0-.37,0,.66.66,0,0,0-.28.09,5.81,5.81,0,0,0-.55.36l-.83.6-.83.62-.54.41-.14.11a1.23,1.23,0,0,0-.3.31,3,3,0,0,0-.15.32l-.08.26a.34.34,0,0,1-.08.16.36.36,0,0,1-.21,0l-.35-.1-.36-.1a1.12,1.12,0,0,0-.27,0,1.35,1.35,0,0,0-.39,0c-.16,0-.25,0-.29,0l0-.05a2.79,2.79,0,0,0,.19-.9,3.08,3.08,0,0,0-.11-.92l.08-.06A.4.4,0,0,1,131.08,69.93Z"/><path class="cls-1" d="M138.52,77.16a2.35,2.35,0,0,0,.19-.25,1.11,1.11,0,0,0,.13-.27.29.29,0,0,0,0-.27l-.44-.8-1.93,1.05a.41.41,0,0,0-.2.19.79.79,0,0,0-.08.23c0,.07,0,.14,0,.2a.25.25,0,0,1-.11.14.77.77,0,0,1-.31-.1l-.56-.24-.55-.23c-.16-.06-.24-.08-.22-.06s0-.08,0-.18.07-.21.12-.33.08-.26.11-.39a1,1,0,0,0,0-.34.88.88,0,0,1-.06-.26c0-.14,0-.23,0-.27l.16-.09a2.11,2.11,0,0,0,.44.09.77.77,0,0,0,.48-.07l6.56-3.55a1.34,1.34,0,0,1,.77-.17,2.27,2.27,0,0,1,.77.22,2.65,2.65,0,0,1,.67.48,2.68,2.68,0,0,1,.48.61,2.58,2.58,0,0,1,.2.51,1.71,1.71,0,0,1,.07.54,1.12,1.12,0,0,1-.15.51,1,1,0,0,1-.42.38.81.81,0,0,1-.62.08.71.71,0,0,1-.46-.37.68.68,0,0,1-.07-.57.72.72,0,0,1,.37-.42.85.85,0,0,1,.45-.12,1.65,1.65,0,0,1,.49.09.17.17,0,0,0,0-.14l-.06-.12a.46.46,0,0,0-.36-.26,1.15,1.15,0,0,0-.51,0,3.66,3.66,0,0,0-.58.23l-.58.3-.37.2-.42.22-.4.23-.4.25a2,2,0,0,0-.29.22q-.12.11-.09.15l0,.06a7.58,7.58,0,0,1,1.1.56,4.25,4.25,0,0,0,1.16.53l0,0s0,.11-.08.27a3.86,3.86,0,0,1-.25.5,5.77,5.77,0,0,1-.37.54,1.49,1.49,0,0,1-.43.38,1.59,1.59,0,0,1-.65.23,1.41,1.41,0,0,1-.54-.06,4.13,4.13,0,0,1-.52-.19,3.13,3.13,0,0,0-.63-.19.06.06,0,0,1,0,.09,5.83,5.83,0,0,1,0,.59,2.35,2.35,0,0,1-.09.6,1.89,1.89,0,0,1-.25.54,1.28,1.28,0,0,1-.47.42l-.62.33-.26.25c-.12.12-.16.22-.12.31a.29.29,0,0,0,.16.15.33.33,0,0,1,.16.15H138l-.07,0h-.08L136,80a.42.42,0,0,1,0-.22,1.8,1.8,0,0,0,0-.22,1.66,1.66,0,0,1,.5-1.07,4.63,4.63,0,0,1,1-.7l.45-.23.44-.23Zm.23-1.85c-.05,0-.06.09,0,.13l.42.77a.5.5,0,0,0,.24.21.93.93,0,0,0,.34.06,1,1,0,0,0,.36,0,1.36,1.36,0,0,0,.29-.11,1.24,1.24,0,0,0,.31-.24,2.3,2.3,0,0,0,.28-.34,1.31,1.31,0,0,0,.15-.4.55.55,0,0,0,0-.38.53.53,0,0,0-.42-.3,1.5,1.5,0,0,0-.59,0,3,3,0,0,0-.59.21l-.42.21-.11.06Z"/><path class="cls-1" d="M137.93,80.33a3.68,3.68,0,0,1,1.22.53,4.63,4.63,0,0,1,1,.94,3.85,3.85,0,0,1,.62,1.11,3.35,3.35,0,0,1,.17,1.64,8,8,0,0,1-.42,1.59l0,.06a.26.26,0,0,0,.15.17.61.61,0,0,0,.24,0,1.09,1.09,0,0,0,.26,0l.2-.06.31-.12A.72.72,0,0,0,142,86l1.55-1.6.27-.17L144,84l.46-.16a2.68,2.68,0,0,1,1.39-.13,4.67,4.67,0,0,1,1.33.49l.24.17c.1.07.16.12.16.14l0,.13a1,1,0,0,1-.45,0,.87.87,0,0,0-.45,0,1.81,1.81,0,0,0-.8.56l-.61.74a3.28,3.28,0,0,1-.72.62,5.43,5.43,0,0,1-.88.41,3,3,0,0,1-1.39.18,3.4,3.4,0,0,1-1.13-.36,7.19,7.19,0,0,1-1.06-.67,7.77,7.77,0,0,0-1.15-.73l-.2-.08-.31-.1-.3-.12c-.09,0-.14-.07-.15-.11s0-.08.08-.19l.19-.35c.07-.13.15-.26.21-.38a1,1,0,0,0,.12-.25,2.9,2.9,0,0,0,.16-1.11,4,4,0,0,0-.22-1.09,2.71,2.71,0,0,0-.29-.56,1.75,1.75,0,0,0-.43-.43,1.57,1.57,0,0,0-.55-.23,1.2,1.2,0,0,0-.62,0,1.51,1.51,0,0,0-.86.69,2.61,2.61,0,0,0-.3,1.06,5.16,5.16,0,0,0,.08,1.17,7.69,7.69,0,0,0,.28,1.06,6.12,6.12,0,0,0,.92,1.74,5.22,5.22,0,0,0,1.49,1.28l0,.13h-.07s-.05,0-.11,0a5.85,5.85,0,0,1-1.79-1.15,4.14,4.14,0,0,1-1.14-1.76,5.26,5.26,0,0,1-.25-1.23,4.53,4.53,0,0,1,.09-1.28,3,3,0,0,1,.52-1.12,2.14,2.14,0,0,1,1-.74A2.37,2.37,0,0,1,137.93,80.33Zm8.63-2.07a2.64,2.64,0,0,1,.9.42,3.37,3.37,0,0,1,.73.73,3.08,3.08,0,0,1,.47.87,3.22,3.22,0,0,1,.19,1.21,7.68,7.68,0,0,1-.16,1.23,6.23,6.23,0,0,1-.15.62,1,1,0,0,0,0,.6.71.71,0,0,0,.25.35.43.43,0,0,0,.41.06.37.37,0,0,0,.27-.26c0-.12.07-.24.11-.36l.13,0a.61.61,0,0,1-.12.63,1.37,1.37,0,0,1-.54.38,1.11,1.11,0,0,1-.76,0,2.46,2.46,0,0,1-.69-.33,2,2,0,0,1-.61-.64,4.76,4.76,0,0,1-.38-.82,2.28,2.28,0,0,1-.11-1,7.42,7.42,0,0,1,.2-1c.08-.31.15-.62.21-.92a1.76,1.76,0,0,0-.07-.93.81.81,0,0,0-.51-.54,1.17,1.17,0,0,0-.78,0A1.06,1.06,0,0,0,145,79a1.52,1.52,0,0,0-.21.74,2.93,2.93,0,0,0,.06.83,7.47,7.47,0,0,0,.2.73,1.38,1.38,0,0,0,.22.42,2.72,2.72,0,0,0,.25.32l.23.28a.87.87,0,0,1,.18.31.43.43,0,0,1-.4-.12,2.5,2.5,0,0,1-.45-.42,3.9,3.9,0,0,1-.4-.51,2.5,2.5,0,0,1-.22-.41,2.38,2.38,0,0,1-.13-.84,2.54,2.54,0,0,1,.14-.83,1.86,1.86,0,0,1,.43-.71,1.71,1.71,0,0,1,.72-.47A1.73,1.73,0,0,1,146.56,78.26Z"/><path class="cls-1" d="M140.42,88l.25.12.28.11a.76.76,0,0,0,.3,0l3.87-.65a.76.76,0,0,0,.19-.07.9.9,0,0,0,.22-.14.86.86,0,0,0,.18-.2.25.25,0,0,0,.06-.2l-.15-.21,0-.11.28.16.64.37a6.94,6.94,0,0,1,.66.46.85.85,0,0,1,.33.39v0c0,.11,0,.24-.2.38a4.71,4.71,0,0,1-.53.43l-.54.39c-.16.11-.24.18-.23.22s.06.08.17.19l.39.37.42.41.29.28.14.1.28.21.27.21a.52.52,0,0,1,.13.12v0c0,.08,0,.18-.13.3s-.21.23-.33.35l-.37.35a.78.78,0,0,0-.23.29l.63.53-.25,0a7.29,7.29,0,0,0-.74-.37,1.54,1.54,0,0,0-.83-.08l-3.54.6a.84.84,0,0,0-.23.07,1,1,0,0,0-.25.15,1.29,1.29,0,0,0-.21.19.26.26,0,0,0-.06.21l.41.31,0,.14a.6.6,0,0,1-.45-.14l-1.13-.8-.14-.07-.19-.14-.18-.12q-.08-.06-.09,0v0l.65-1a.85.85,0,0,1,.45-.31,3.82,3.82,0,0,1,.56-.14l.4-.07,1.16-.17c.51-.07,1-.16,1.51-.27a7.61,7.61,0,0,0,1.29-.4c.36-.15.53-.32.49-.51a.59.59,0,0,0-.13-.28,1.55,1.55,0,0,0-.27-.24,1.45,1.45,0,0,0-.32-.18.68.68,0,0,0-.3,0,6,6,0,0,0-.65.06l-1,.15-1,.16L142,90l-.18,0a1,1,0,0,0-.41.14,1.21,1.21,0,0,0-.28.21l-.19.19a.26.26,0,0,1-.15.1.33.33,0,0,1-.18-.1l-.26-.24-.27-.26a.87.87,0,0,0-.22-.17,1.52,1.52,0,0,0-.36-.17c-.15,0-.23-.1-.24-.16v-.06a2.81,2.81,0,0,0,.92-1.58h.09A.39.39,0,0,1,140.42,88Z"/><path class="cls-1" d="M147.43,94.22a.6.6,0,0,0,.09-.22.79.79,0,0,1,.06-.22c0-.07.11-.1.25-.11a.44.44,0,0,1,.3.07.5.5,0,0,1,.1.19c0,.07,0,.13,0,.19a.15.15,0,0,0,.12.12l.6.12a2.41,2.41,0,0,1,.56.18,1.4,1.4,0,0,1,.47.32,4.94,4.94,0,0,1,.36.44c.11.16.21.32.31.48a3.72,3.72,0,0,0,.33.45l.14.13.2.18.21.17.15.12V97a1.5,1.5,0,0,0-.39.28.56.56,0,0,0-.14.44.39.39,0,0,0,.19.34.39.39,0,0,1,.18.31,1.66,1.66,0,0,1-.61-.1,2.14,2.14,0,0,1-.55-.32,1.76,1.76,0,0,1-.41-.49,1.38,1.38,0,0,1-.17-.59.67.67,0,0,1,.1-.39.68.68,0,0,0,.11-.39l-.11-.13-.46,0L149,96a3.62,3.62,0,0,0-.45.08l-.09.15a1.86,1.86,0,0,0,.05.34,1.73,1.73,0,0,1,0,.35.28.28,0,0,1,0,.15.2.2,0,0,1-.16.07h-.18a.4.4,0,0,1-.34-.11.66.66,0,0,1-.17-.29,2,2,0,0,1-.06-.32,1.88,1.88,0,0,0,0-.23s-.05,0-.13-.06l-.31,0h-.69l-4.54.19-.1,0a2,2,0,0,0-1-1.2,3.5,3.5,0,0,0-1.43-.23l-.54,0h-.57v-.09l.57,0,.88-.07.88,0,.56,0,6-.25h0C147.29,94.33,147.39,94.29,147.43,94.22Z"/><path class="cls-1" d="M143.91,97.19c.3,0,.62,0,1,0a3.56,3.56,0,0,1,1.36.29,2.39,2.39,0,0,1,1,.93,4.12,4.12,0,0,0,.24.38c.12.2.25.4.39.61l.37.57a.89.89,0,0,0,.16.23v.07l-.53.68a4.92,4.92,0,0,1-.62.67,3.13,3.13,0,0,1-.73.52,1.7,1.7,0,0,1-.87.18l-2.63-.08a1.38,1.38,0,0,1-.76-.3,1.79,1.79,0,0,1-.57-.56l-.8-1.36a.34.34,0,0,0-.12-.2l-.27-.24-.27-.23c-.08-.08-.12-.12-.12-.15s0-.09.12-.19a3.65,3.65,0,0,1,.29-.32q.17-.19.36-.39c.13-.14.23-.26.32-.37a1.63,1.63,0,0,1,.75-.51c.31-.09.6-.17.89-.23Zm-.95,2a4.75,4.75,0,0,0-.59.31,2.84,2.84,0,0,0-.49.4.8.8,0,0,0-.21.47.2.2,0,0,0,0,.07s0,0,.06,0l3.24.11h.27a1.38,1.38,0,0,1,.27,0,2.32,2.32,0,0,0,.35-.18,5.26,5.26,0,0,0,.52-.35,4.63,4.63,0,0,0,.45-.42q.18-.22.15-.36l0-.11-.26,0-.37,0-.37,0h-.23l-.35,0H145l-.58,0h-.94A2.4,2.4,0,0,0,143,99.17Zm4.37,1.12s0,0,0,0h0s0,0,0,0h0Z"/><path class="cls-1" d="M140.94,102l0-.14a.42.42,0,0,1,.25.17l.25.32a2.22,2.22,0,0,0,.28.33.46.46,0,0,0,.32.18l3.63.52h.24a.86.86,0,0,0,.28,0,.55.55,0,0,0,.23-.11.28.28,0,0,0,.12-.2.37.37,0,0,0-.11-.32.34.34,0,0,1-.12-.31.63.63,0,0,1,.34.16,2.09,2.09,0,0,1,.25.32c.07.12.13.25.19.38a3.51,3.51,0,0,0,.18.34l.11.13.2.26.2.25c.06.08.09.13.08.15v0a.47.47,0,0,1-.25.32,3.62,3.62,0,0,1-.48.25l-.47.19c-.15.06-.22.12-.23.17s0,.18.13.28.22.2.35.3.24.2.35.3a.32.32,0,0,1,.14.25.86.86,0,0,0-.36.17.45.45,0,0,0-.18.32c0,.24,0,.4.08.49a4.64,4.64,0,0,0,.41.36s0,0-.09,0h-.1a2.53,2.53,0,0,1-.7-.2,2.26,2.26,0,0,1-.58-.39,1.72,1.72,0,0,1-.37-.55,1.32,1.32,0,0,1-.07-.69,1.14,1.14,0,0,1,.08-.32,1.38,1.38,0,0,0,.08-.29v-.07a.06.06,0,0,0,0,0l-3.58-.5a.44.44,0,0,0-.22,0,2.29,2.29,0,0,0-.31.16l-.29.19c-.09.07-.13.12-.14.17l0,.34.12.15.16.21a1.28,1.28,0,0,1,.15.25.42.42,0,0,1,.05.24l-.07,0-.13-.06-1.72-2.37,0-.09s0-.07.13-.15l.19-.16a4,4,0,0,1,.72-.5c.21-.11.47-.22.79-.35v-.07Z"/><path class="cls-1" d="M141.22,107.1a1,1,0,0,0,.41.31l.44.15.68.22.68.23.43.14,1.43.46a1.3,1.3,0,0,0,.49.07.36.36,0,0,0,.39-.39.39.39,0,0,1,0-.16s0-.06.09,0l0,0s.08.07.13.19a3.26,3.26,0,0,1,.14.41c0,.15.1.3.14.44s.08.24.11.3l.37.7,0,.14c0,.07-.13.13-.33.17l-.66.09-.67.09c-.21,0-.32.08-.34.14v0a13.12,13.12,0,0,1,.49,1.23,8,8,0,0,0,.56,1.24l0,.06c0,.1-.14.17-.32.23l-.59.13-.59.13c-.18,0-.28.11-.31.19l0,.06c0,.06,0,.14.07.26s.06.24.1.38.06.26.1.38,0,.21.06.26a1.27,1.27,0,0,0,.11.27l.18.34.16.32c0,.09.06.15,0,.19l0,.06c0,.09-.12.17-.29.23l-.53.17-.52.14c-.16,0-.25.08-.26.13a.18.18,0,0,0,0,.16,1.18,1.18,0,0,0,.1.19l.09.2a.34.34,0,0,1,0,.2l-.14,0a4.87,4.87,0,0,0-.36-.59,1,1,0,0,0-.54-.39l-4.14-1.32a.55.55,0,0,0-.35,0,.36.36,0,0,0-.24.22.29.29,0,0,0,0,.27.3.3,0,0,1,0,.27c-.1,0-.2-.14-.3-.32a5.13,5.13,0,0,1-.3-.62l-.28-.68a2.88,2.88,0,0,0-.22-.46l0-.09a.57.57,0,0,1,.33-.34,2.41,2.41,0,0,1,.59-.21,3.16,3.16,0,0,1,.66-.09,1.69,1.69,0,0,1,.51.06l4.17,1.32a.94.94,0,0,0,.53,0,.46.46,0,0,0,.37-.33A.73.73,0,0,0,144,114a1.18,1.18,0,0,0-.55-.42l-3.41-1.09a.52.52,0,0,0-.28,0,1.27,1.27,0,0,0-.28.06l-.26.06a.37.37,0,0,1-.21,0,.17.17,0,0,1-.11-.12,1.24,1.24,0,0,1,0-.22,1,1,0,0,1,0-.24.45.45,0,0,0,0-.19,1.19,1.19,0,0,0-.13-.22l-.22-.31c-.08-.11-.15-.21-.21-.31s-.08-.15-.07-.17v0a3.15,3.15,0,0,0,.69-.16,1.7,1.7,0,0,0,.61-.35,1,1,0,0,0,.16-.23.18.18,0,0,1,.21-.1.56.56,0,0,1,.27.24,2.59,2.59,0,0,0,.22.29l1,.38.91.3.7.22,1.24.4.22,0h.3a.82.82,0,0,0,.28-.07.26.26,0,0,0,.17-.18l0-.1c-.1-.21-.18-.41-.25-.58a.85.85,0,0,0-.41-.43l-.53-.18-.83-.28-.82-.28-.54-.18a.3.3,0,0,0-.15-.08l-.17,0-.46-.13a1.33,1.33,0,0,0-.49,0,.72.72,0,0,0-.27.09.26.26,0,0,1-.25,0,2,2,0,0,1-.15-.31l-.29-.65-.3-.61c-.1-.17-.15-.22-.17-.16s.05-.06.11-.09l.19,0,.2,0,.11,0a.91.91,0,0,0,.32-.17l.34-.29.32-.25c.1-.07.16-.1.2-.09l.07,0A2.26,2.26,0,0,0,141.22,107.1Z"/><path class="cls-1" d="M139,116.38l.62.3.61.31.39.2.12.06a2.57,2.57,0,0,1,.92.73,2.23,2.23,0,0,1,.36.84,6,6,0,0,1,.11,1,5.86,5.86,0,0,0,.15,1.12l.09.2.12.27a1.8,1.8,0,0,1,.09.28.34.34,0,0,1,0,.2,1,1,0,0,1-.45.38,6.58,6.58,0,0,1-.71.3l-.66.22a.89.89,0,0,0-.34.17l0,.07.08.44-.1.13c-.1-.18-.21-.36-.31-.55a.83.83,0,0,0-.29-.35l-1.63-.87-.75-.4c-.26-.14-.52-.27-.75-.37a2.89,2.89,0,0,0-.63-.19c-.18,0-.31,0-.37.15a.23.23,0,0,0,0,.21.21.21,0,0,1,0,.23,1.14,1.14,0,0,1-.33-.43c-.13-.24-.26-.5-.38-.78a5.32,5.32,0,0,1-.28-.78q-.1-.36,0-.42l.06,0,.3,0,.58,0,.56,0c.17,0,.27-.06.29-.1l0-.06c-.07-.33-.15-.7-.23-1.09a7.53,7.53,0,0,0-.33-1.1l.07-.12,1.27-.36a1.56,1.56,0,0,1,.69,0,4.08,4.08,0,0,1,.66.15Zm-1.27,1.55a1.49,1.49,0,0,0-.42,0,1,1,0,0,0-.39.09.61.61,0,0,0-.27.26.47.47,0,0,0,0,.31,1.05,1.05,0,0,0,.15.3,1.13,1.13,0,0,0,.24.25,1.54,1.54,0,0,0,.26.18l.18.1.46.23.7.35.7.36.48.25a3.08,3.08,0,0,0,.48,0,2.5,2.5,0,0,0,.55,0,2.18,2.18,0,0,0,.51-.17.65.65,0,0,0,.33-.3s0-.09-.05-.15a1.86,1.86,0,0,0-.24-.18,2.37,2.37,0,0,0-.33-.21l-.37-.19-.39-.21L138.06,118Z"/><path class="cls-1" d="M134.48,120.39l.1-.15a.55.55,0,0,1,.2.23c0,.1.07.19.1.29a1.52,1.52,0,0,0,.09.28.55.55,0,0,0,.2.23l.16.12a1.58,1.58,0,0,1,.12.15l3.28,2.19.18.09a1.65,1.65,0,0,1,.25.15l.26.15.16.1s.07,0,.11,0a1.06,1.06,0,0,0,.15-.15l.17-.15a.31.31,0,0,1,.19-.08l.18.12.19.15c.09.08.12.13.1.17l-.33.5a.17.17,0,0,0,0,.1.63.63,0,0,0,.1.12c.24.25.45.47.62.68a2.92,2.92,0,0,1,.64,1.36,4.48,4.48,0,0,1,0,.93,2.71,2.71,0,0,1,0,.41.93.93,0,0,1-.14.36.36.36,0,0,1-.17-.3.68.68,0,0,0-.08-.34,2.55,2.55,0,0,0-.58-.64l-.71-.51-.25-.17a1.46,1.46,0,0,0-.29-.17.63.63,0,0,0-.29-.06.36.36,0,0,0-.23.17l-.27.33c-.09.09-.23.08-.42,0l-.14-.13,0-.07a1.39,1.39,0,0,0,.17-.21,1,1,0,0,0,.14-.32c0-.13,0-.21,0-.25l-4-2.65a1.08,1.08,0,0,0-.57-.12.61.61,0,0,0-.52.19.36.36,0,0,0,0,.28.71.71,0,0,1,0,.22l0,0-.08,0-.06,0a1.55,1.55,0,0,1-.13-.44c-.05-.25-.1-.51-.15-.8s-.08-.54-.1-.78a1.53,1.53,0,0,1,0-.4l.06-.08a.37.37,0,0,1,.25-.13,2.73,2.73,0,0,1,.45-.06l.52,0a2.36,2.36,0,0,0,.49-.1v0l0,0Z"/><path class="cls-1" d="M137.2,127.08a.32.32,0,0,0,.38-.44.32.32,0,0,1,0-.34s.1.17.17.42a6,6,0,0,1,.16.82c0,.3.07.58.08.85a.9.9,0,0,1-.08.52l0,.06a.47.47,0,0,1-.36.15,3.13,3.13,0,0,1-.53,0l-.49-.05a.51.51,0,0,0-.23,0l0,.73-.17-.13c0-.16-.08-.33-.13-.51a3.84,3.84,0,0,0-.19-.51l-.63-.51-.64-.51-1.26-1-.22-.17-.38-.28a3.47,3.47,0,0,0-.45-.26,1.05,1.05,0,0,0-.41-.14.31.31,0,0,0-.3.1l0,0a1,1,0,0,0,0,.2.57.57,0,0,1,0,.18l0,0a.84.84,0,0,1-.12-.39c0-.23-.07-.48-.1-.76s-.07-.52-.09-.75a1.74,1.74,0,0,1,0-.34l0-.06a5,5,0,0,1,.8-.14,1.82,1.82,0,0,1,.62,0,1.61,1.61,0,0,1,.57.26c.19.12.42.29.69.5l.34.26.69.53.81.6.75.56a5.87,5.87,0,0,0,.49.35A.89.89,0,0,0,137.2,127.08Zm2.85,2.89a.81.81,0,0,1-.21.72.8.8,0,0,1-.61.35,1,1,0,0,1-.68-.24,1,1,0,0,1-.37-.57.75.75,0,0,1,.15-.67,1,1,0,0,1,.61-.39.87.87,0,0,1,.69.2A1.11,1.11,0,0,1,140.05,130Z"/><path class="cls-1" d="M133.43,127.33c.22.19.47.4.73.65a3.55,3.55,0,0,1,.83,1.12,2.23,2.23,0,0,1,.16,1.37c0,.06,0,.21-.07.44s-.07.47-.1.72-.07.47-.1.66a1.08,1.08,0,0,0,0,.29l0,0-.85.16a5.51,5.51,0,0,1-.9.1,3.28,3.28,0,0,1-.89-.09,1.86,1.86,0,0,1-.79-.43l-1.92-1.8a1.39,1.39,0,0,1-.39-.71,2.38,2.38,0,0,1-.06-.81l.3-1.54a.35.35,0,0,0,0-.23c0-.11,0-.23-.05-.36s0-.25,0-.36a.37.37,0,0,1,0-.19.53.53,0,0,1,.22-.06l.43-.06.53,0,.48-.07a1.55,1.55,0,0,1,.9.11c.29.14.57.27.82.41Zm-2,.86a4.56,4.56,0,0,0-.64-.14,2,2,0,0,0-.64,0,.69.69,0,0,0-.46.21l0,0s0,.05,0,.08l2.38,2.21.21.17.21.16a1.46,1.46,0,0,0,.39.1,3.91,3.91,0,0,0,.62.07,3,3,0,0,0,.61,0c.19,0,.31-.08.35-.17l.06-.1-.19-.18a3.38,3.38,0,0,0-.27-.26l-.26-.25-.17-.17-.25-.24-.29-.26-.44-.4-.42-.38-.28-.24A2.08,2.08,0,0,0,131.41,128.19Zm2.57,3.72s0,0,0,0,0,0,0,0,0,0,0,0h0Z"/><path class="cls-1" d="M128.39,129.4a2.45,2.45,0,0,0,0,.27,1.57,1.57,0,0,0,.05.3.68.68,0,0,0,.13.27l2.51,3,.15.12a.9.9,0,0,0,.24.12.62.62,0,0,0,.26.06.26.26,0,0,0,.2-.05l.11-.24.09-.07a1.26,1.26,0,0,0,0,.32q0,.33,0,.75c0,.27,0,.54-.06.8a.85.85,0,0,1-.18.48l0,0c-.09.08-.23.08-.43,0a4.59,4.59,0,0,1-.64-.24c-.23-.1-.43-.19-.6-.28s-.28-.11-.31-.09a1,1,0,0,0-.08.25c0,.15-.08.33-.13.53s-.09.38-.13.57-.08.31-.1.38,0,.08,0,.18,0,.22,0,.35,0,.23,0,.33a1,1,0,0,1,0,.18h0a.35.35,0,0,1-.32,0,2.89,2.89,0,0,1-.47-.11l-.49-.14a.89.89,0,0,0-.36-.06l-.14.81-.17-.19a7.37,7.37,0,0,0,0-.82,1.51,1.51,0,0,0-.35-.76l-2.3-2.76a.73.73,0,0,0-.18-.16,1.28,1.28,0,0,0-.25-.15l-.27-.08a.28.28,0,0,0-.21.05l-.07.52-.11.09a.65.65,0,0,1-.11-.46l.13-1.38a.62.62,0,0,1,0-.16,2,2,0,0,1,0-.23c0-.09,0-.16,0-.22s0-.09,0-.09l0,0,1.18.06a.89.89,0,0,1,.5.23,3.85,3.85,0,0,1,.4.41l.26.32.74.91c.31.41.64.79,1,1.17a7.91,7.91,0,0,0,1,.91c.32.24.55.3.7.17a.56.56,0,0,0,.17-.26,1.36,1.36,0,0,0,.07-.35,1.51,1.51,0,0,0,0-.37.71.71,0,0,0-.1-.28,5.73,5.73,0,0,0-.39-.53c-.19-.25-.4-.52-.63-.8s-.45-.55-.66-.79l-.43-.53-.12-.14a1,1,0,0,0-.32-.28,2,2,0,0,0-.32-.13l-.27-.07a.34.34,0,0,1-.16-.08.28.28,0,0,1,0-.21c0-.11,0-.22.08-.35l.09-.36a.76.76,0,0,0,0-.28,1.43,1.43,0,0,0,0-.39c0-.15,0-.25,0-.29l.06,0a2.93,2.93,0,0,0,.9.15,3.2,3.2,0,0,0,.92-.15l.06.07A.4.4,0,0,1,128.39,129.4Z"/><path class="cls-1" d="M123.58,133.21a3.28,3.28,0,0,1-.23,1.1,4.32,4.32,0,0,1-.58,1,8.22,8.22,0,0,1-.77.88,2.67,2.67,0,0,1-.29.23,1.74,1.74,0,0,0-.32.28.84.84,0,0,0-.21.33.46.46,0,0,0,0,.39l1.57,3a1.17,1.17,0,0,1,.07.94,4.89,4.89,0,0,1-.38.93l-.16.26a1.25,1.25,0,0,0-.17.39.37.37,0,0,0,.32,0,.56.56,0,0,1,.29-.1,2.5,2.5,0,0,1,.67-.06,2.62,2.62,0,0,1,.68.12,2,2,0,0,1,.62.32,1.53,1.53,0,0,1,.44.53l.08.16a1.86,1.86,0,0,1,.1.25,1.27,1.27,0,0,1,0,.26.16.16,0,0,1-.09.16c-.08,0-.14,0-.21-.08a.36.36,0,0,0-.23-.16,1.09,1.09,0,0,0-.41,0,1.85,1.85,0,0,0-.4.16l-1.61.85-.32.12-.5.17-.51.16-.36.1a2.46,2.46,0,0,1-.9.05,2.85,2.85,0,0,1-.91-.24,3.11,3.11,0,0,1-.79-.5,2.51,2.51,0,0,1-.59-.71L115,139.93a.75.75,0,0,0-.2-.21,2.59,2.59,0,0,0-.33-.19,1.75,1.75,0,0,0-.35-.11.42.42,0,0,0-.28,0,.29.29,0,0,0-.16.2,1.27,1.27,0,0,0,0,.28,2.13,2.13,0,0,1,0,.27.24.24,0,0,1-.13.19.78.78,0,0,1-.06-.53,4.31,4.31,0,0,1,.13-.54c0-.07.06-.22.11-.43s.1-.45.17-.7a6,6,0,0,1,.22-.68.72.72,0,0,1,.24-.37l.06,0c.08,0,.13,0,.14,0l.2.07.32.11.32.1.22.07a1.85,1.85,0,0,1,.69.5,5.78,5.78,0,0,1,.58.79c.18.29.36.62.54,1s.37.69.59,1c.06.08.12.12.19.1a.56.56,0,0,0,.19-.07l.14-.08.18-.12a.7.7,0,0,0,.14-.16.14.14,0,0,0,0-.15l-1-2a1,1,0,0,1-.12-.44,1.19,1.19,0,0,1,.08-.4,1.4,1.4,0,0,1,.2-.38c.08-.12.17-.26.25-.4a6.1,6.1,0,0,0,.39-.72,5.17,5.17,0,0,0,.27-.73,2.56,2.56,0,0,0,.1-.54c0-.18,0-.27,0-.27l0,0s.06,0,.15.05l.32.15.36.16a1.12,1.12,0,0,0,.28.08,5,5,0,0,0,.91-.16,4.7,4.7,0,0,0,.87-.36,2.82,2.82,0,0,0,.54-.38,2.68,2.68,0,0,0,.47-.54,1.64,1.64,0,0,0,.23-.64,1.08,1.08,0,0,0-.13-.69.92.92,0,0,0-.48-.43,4.32,4.32,0,0,0-.64-.19,1.5,1.5,0,0,0-.6,0,4.39,4.39,0,0,0-.67.17,6.5,6.5,0,0,0-.66.27l-.55.28a9.56,9.56,0,0,0-1,.58,3.15,3.15,0,0,0-.74.66,2.37,2.37,0,0,0-.46.84,3,3,0,0,0-.14,1.12l-.09,0a1,1,0,0,1-.13-.49,5,5,0,0,1,0-.52,3.06,3.06,0,0,1,.7-1.77,5.19,5.19,0,0,1,1.5-1.19,4.74,4.74,0,0,1,1.08-.4,4,4,0,0,1,1.19-.12,2.57,2.57,0,0,1,1.08.3,2,2,0,0,1,.82.87A2.2,2.2,0,0,1,123.58,133.21Zm-3.17,3.87-.39,0h-.4a1.53,1.53,0,0,1-.3,0l-.38-.09-.36-.07a.4.4,0,0,0-.25,0,1.11,1.11,0,0,0-.4.52.77.77,0,0,0,0,.66l.74,1.4c.13.25.3.55.49.92l.61,1.11.57,1,.39.68,0,.08a.29.29,0,0,0,.28.19.91.91,0,0,0,.35-.12.45.45,0,0,0,.19-.28.47.47,0,0,0,0-.33l-1.79-3.38a.83.83,0,0,1,0-.66A3.48,3.48,0,0,1,120,138c.13-.22.25-.41.37-.58s.16-.26.13-.31l0,0Zm.14,6.53s0-.06,0-.11l-.79-1.49a.81.81,0,0,0-.23-.22l-.68.36,0,.09a1,1,0,0,1,.12.26,3.88,3.88,0,0,0,.2.44,2.77,2.77,0,0,0,.22.34,1.48,1.48,0,0,0,.3.31.84.84,0,0,0,.37.17.67.67,0,0,0,.42-.09Z"/><path class="cls-1" d="M113.3,138.3l.13-.05a.38.38,0,0,1-.05.3c0,.11-.11.24-.18.37a2.32,2.32,0,0,0-.18.39.53.53,0,0,0,0,.37l1.1,3.5a1.71,1.71,0,0,0,.09.22.91.91,0,0,0,.15.23.68.68,0,0,0,.21.17.3.3,0,0,0,.23,0,.37.37,0,0,0,.23-.24.4.4,0,0,1,.24-.25.81.81,0,0,1,0,.38,1.35,1.35,0,0,1-.18.36,2.88,2.88,0,0,1-.27.34,2.58,2.58,0,0,0-.22.31l-.08.15c0,.1-.09.19-.14.3l-.14.29c0,.08-.08.13-.1.13h0a.44.44,0,0,1-.39-.09,3.19,3.19,0,0,1-.43-.32c-.13-.13-.26-.24-.38-.35s-.2-.15-.25-.13-.14.11-.19.24-.09.29-.12.44-.08.31-.12.45-.1.21-.17.23a1,1,0,0,0-.31-.25.45.45,0,0,0-.36,0c-.24.07-.37.17-.41.28a4.57,4.57,0,0,0-.15.52s-.06,0-.08,0l0-.1a2.46,2.46,0,0,1-.11-.72,1.92,1.92,0,0,1,.09-.69,1.66,1.66,0,0,1,.34-.57,1.4,1.4,0,0,1,.59-.36,1.79,1.79,0,0,1,.33-.07,1,1,0,0,0,.29,0l.07,0s0,0,0,0l-1.08-3.45a.45.45,0,0,0-.14-.17l-.28-.22a2.43,2.43,0,0,0-.3-.17.34.34,0,0,0-.21-.06L110,140a1.16,1.16,0,0,0-.08.16l-.12.25-.16.24a.43.43,0,0,1-.2.14v-.07a.5.5,0,0,1,0-.15l1.4-2.57.09,0,.19.06a1.7,1.7,0,0,1,.23.11,3.48,3.48,0,0,1,.76.43,8.39,8.39,0,0,1,.65.56h.07Z"/><path class="cls-1" d="M108.68,139.34l.18,0a.54.54,0,0,1,0,.31c0,.09-.08.18-.13.27a1.69,1.69,0,0,0-.13.27.5.5,0,0,0,0,.3l0,.2a1,1,0,0,1,0,.18l.81,3.87a.87.87,0,0,1,.07.19c0,.08,0,.18.08.28s0,.19.07.28,0,.16.05.19,0,0,.12,0h.43a.37.37,0,0,1,.19.08l0,.21q0,.08,0,.24c0,.12,0,.18,0,.19l-.59.12a.19.19,0,0,0,0,.11.3.3,0,0,0,0,.16c0,.35,0,.65,0,.92a3,3,0,0,1-.15.74,2.74,2.74,0,0,1-.35.68,4.13,4.13,0,0,1-.62.69,3.74,3.74,0,0,1-.31.27,1,1,0,0,1-.36.16.32.32,0,0,1,.09-.33.67.67,0,0,0,.18-.3,2.56,2.56,0,0,0,0-.87c0-.28-.09-.57-.15-.86a2.08,2.08,0,0,1-.05-.3,1.5,1.5,0,0,0-.09-.32.55.55,0,0,0-.17-.24.29.29,0,0,0-.28,0l-.43,0c-.12,0-.21-.11-.26-.33,0,0,0-.08,0-.19l0-.07.26,0a1.17,1.17,0,0,0,.33-.14c.11-.06.16-.13.14-.2l-1-4.66a1,1,0,0,0-.32-.49.65.65,0,0,0-.51-.23.4.4,0,0,0-.21.19c-.08.11-.12.17-.14.17h0l-.08,0V141a1.68,1.68,0,0,1,.21-.41l.45-.68.48-.63a1.47,1.47,0,0,1,.27-.3l.09,0a.44.44,0,0,1,.28.09,2.55,2.55,0,0,1,.35.27l.41.33a2.47,2.47,0,0,0,.42.27h.07Z"/><path class="cls-1" d="M106,146a.3.3,0,0,0,.29.15.33.33,0,0,0,.29-.21.3.3,0,0,1,.26-.22,1.1,1.1,0,0,1-.17.43,7.51,7.51,0,0,1-.46.69q-.27.36-.54.66c-.18.2-.32.31-.42.32h-.07a.46.46,0,0,1-.37-.15,3.23,3.23,0,0,1-.37-.37,4.73,4.73,0,0,1-.31-.38c-.08-.12-.14-.18-.16-.18l-.49.54,0-.21.26-.46a2.18,2.18,0,0,0,.22-.5l-.09-.81c0-.26-.06-.53-.1-.8l-.22-1.58,0-.28c0-.13,0-.28-.08-.46s-.08-.35-.13-.51a1.79,1.79,0,0,0-.21-.39.29.29,0,0,0-.28-.13h0a.48.48,0,0,0-.18.11l-.14.1h-.07s0-.17.19-.36.28-.4.45-.62l.46-.59a1.42,1.42,0,0,1,.23-.26h.07a5.51,5.51,0,0,1,.67.45,1.8,1.8,0,0,1,.41.47,2,2,0,0,1,.23.59c0,.22.09.5.14.83l.06.43c0,.24.07.53.12.86s.1.67.16,1,.1.64.15.92.07.48.1.6A1.1,1.1,0,0,0,106,146Zm0,4.05a1,1,0,0,1-1.33.19,1.09,1.09,0,0,1-.32-.64,1,1,0,0,1,.14-.68.74.74,0,0,1,.57-.37,1.06,1.06,0,0,1,.71.15.84.84,0,0,1,.35.63A1.08,1.08,0,0,1,106,150.08Z"/><path class="cls-1" d="M102.36,140.46a2.73,2.73,0,0,0,.25-.23,2.4,2.4,0,0,1,.21-.23.35.35,0,0,1,.19-.11h.07a1.22,1.22,0,0,1-.2.65,2.77,2.77,0,0,1-.53.62,2.71,2.71,0,0,1-.67.47,1.51,1.51,0,0,1-.65.2,3.19,3.19,0,0,1-.83-.06,1.54,1.54,0,0,1-.73-.39l-.07.08.09,2a.62.62,0,0,0,.61.53.62.62,0,0,0,.35-.12l.37-.26a2.58,2.58,0,0,1,.43-.26,1.16,1.16,0,0,1,.5-.13.93.93,0,0,1,.52.12,1.49,1.49,0,0,1,.41.34,1.72,1.72,0,0,1,.28.47,1.72,1.72,0,0,1,0,1.35,2.26,2.26,0,0,1-.44.62,3.22,3.22,0,0,1-.64.5l-.72.48a3.77,3.77,0,0,0-.61.48,2.54,2.54,0,0,1-.66.46.21.21,0,0,1-.16-.1,1.77,1.77,0,0,0-.17-.24,1,1,0,0,0-.23-.23.46.46,0,0,0-.33-.09.63.63,0,0,0-.39.13,1.71,1.71,0,0,0-.21.26,3,3,0,0,1-.16.26.26.26,0,0,1-.23.12,1.84,1.84,0,0,1,.12-.7,2.55,2.55,0,0,1,.38-.71,2.16,2.16,0,0,1,.58-.55,1.27,1.27,0,0,1,.71-.25h0a1.1,1.1,0,0,1,.33.08l.43.19a3,3,0,0,0,.37.14c.1,0,.15,0,.15,0l-.07-1.58a.65.65,0,0,0-.13-.33.36.36,0,0,0-.29-.18.8.8,0,0,0-.38.14,4.39,4.39,0,0,0-.36.28,2.82,2.82,0,0,1-.39.29,1.13,1.13,0,0,1-.51.14,1.15,1.15,0,0,1-.66-.15,1.5,1.5,0,0,1-.44-.43,2.12,2.12,0,0,1-.25-.62,3.85,3.85,0,0,1-.09-.67v-.07c0-.23,0-.43,0-.61a1.89,1.89,0,0,1,.1-.55,1.21,1.21,0,0,1,.41-.53,3.15,3.15,0,0,1,.64-.4l.68-.34a1.4,1.4,0,0,0,.51-.37.6.6,0,0,0,.14-.11l.19-.16.2-.15a.33.33,0,0,1,.15-.07h.07a8.32,8.32,0,0,0,.66.56,1.22,1.22,0,0,0,.78.19A.64.64,0,0,0,102.36,140.46Z"/><path class="cls-1" d="M97.79,140.61H98a.53.53,0,0,1-.1.29,2.2,2.2,0,0,1-.2.23,2.11,2.11,0,0,0-.19.23.48.48,0,0,0-.1.29,1.25,1.25,0,0,1,0,.19.48.48,0,0,1-.06.18L97.09,146a.88.88,0,0,1,0,.2c0,.1,0,.19,0,.3V147s0,.05.1.07l.2,0,.22.07a.26.26,0,0,1,.16.12v.21a1.75,1.75,0,0,1,0,.25c0,.11,0,.17-.09.17l-.6,0s0,0-.06.09a.65.65,0,0,0,0,.15c-.09.33-.18.63-.27.88a2.88,2.88,0,0,1-.34.68,2.4,2.4,0,0,1-.5.56,3.9,3.9,0,0,1-.78.52c-.12.07-.25.12-.37.18a1,1,0,0,1-.38.06.32.32,0,0,1,.17-.3.72.72,0,0,0,.25-.24,2.56,2.56,0,0,0,.25-.83c0-.29.06-.58.07-.88q0-.12,0-.3a1.2,1.2,0,0,0,0-.33.62.62,0,0,0-.09-.28.32.32,0,0,0-.26-.11l-.43-.07c-.12,0-.18-.15-.17-.39,0,0,0-.07,0-.18l0-.06.26,0a1.1,1.1,0,0,0,.35-.05c.13,0,.19-.09.19-.16l.25-4.76a1,1,0,0,0-.18-.55.64.64,0,0,0-.43-.35.42.42,0,0,0-.26.13c-.1.09-.15.13-.17.13h0l-.06-.05v-.07a1.7,1.7,0,0,1,.31-.34c.19-.17.39-.35.61-.53s.43-.35.62-.5a1.5,1.5,0,0,1,.34-.21h.1a.43.43,0,0,1,.24.16,3.89,3.89,0,0,1,.28.35l.3.42a2,2,0,0,0,.34.37h.07Z"/><path class="cls-1" d="M94.22,141.35a2.9,2.9,0,0,1-.78.7,3,3,0,0,1-1,.4,3.15,3.15,0,0,1-1.1.07,3.29,3.29,0,0,0-.61-.08.68.68,0,0,0-.35.07.43.43,0,0,0-.19.21,1.64,1.64,0,0,0-.1.33,1.66,1.66,0,0,0,0,.77q.11.36.24.72a7.07,7.07,0,0,1,.24.74,1.58,1.58,0,0,1,0,.78,2.43,2.43,0,0,1-.74,1.35,7.45,7.45,0,0,1-1.25.92s0,.08.12.09a4.81,4.81,0,0,0,.84.1,5.45,5.45,0,0,1,.87.11,4.63,4.63,0,0,1,1,.35,2.76,2.76,0,0,1,.81.6,2.07,2.07,0,0,1,.46.85,2.26,2.26,0,0,1,0,1.1,1.28,1.28,0,0,1,0,.17c0,.06-.06.1-.1.09h0s0,0,0-.11,0-.15,0-.24a1.86,1.86,0,0,0,0-.27.46.46,0,0,0-.09-.21,1.21,1.21,0,0,0-.68-.38,2.06,2.06,0,0,0-.51,0l-.52.06a16.27,16.27,0,0,1-1.69.14,7.16,7.16,0,0,1-1.71-.15,4.54,4.54,0,0,1-1.93-.86,4.91,4.91,0,0,1-1.26-1.51,5.32,5.32,0,0,1-.59-1.92,6.52,6.52,0,0,1,.08-2.11A4.65,4.65,0,0,1,84.67,142a4.47,4.47,0,0,1,2-1.33l1.57-.54a4.12,4.12,0,0,0,1.39-.83l.1,0a.18.18,0,0,1,.16.14.47.47,0,0,0,.1.2,3.13,3.13,0,0,0,2.37,1.7,2.54,2.54,0,0,0,1.38-.07,1.38,1.38,0,0,0,.79-1.13,1.1,1.1,0,0,0-.09-.71,3.33,3.33,0,0,0-.39-.63,1.61,1.61,0,0,0-.45-.41,4,4,0,0,0-.59-.29,4.75,4.75,0,0,0-.64-.2l-.6-.14-.31-.06a8.62,8.62,0,0,0-1.66-.19,3.05,3.05,0,0,0-1.61.45l-.18.13a2.51,2.51,0,0,1-.24.19l-.26.16a.39.39,0,0,1-.21.05.3.3,0,0,1,0-.1.25.25,0,0,1,.09-.09,5.48,5.48,0,0,1,1.6-1,4.87,4.87,0,0,1,1.84-.33l.69.14a5.79,5.79,0,0,1,1.08.33,3.87,3.87,0,0,1,1,.57,3.12,3.12,0,0,1,.76.82,2.17,2.17,0,0,1,.36,1.08l-.09.45A2.31,2.31,0,0,1,94.22,141.35Zm-7.74,6.14s0,0,.06-.05l1.26-6.17a.38.38,0,0,0-.13-.31.66.66,0,0,0-.24-.2h-.07a2.79,2.79,0,0,0-.71.6,3.2,3.2,0,0,0-.47.74,4.41,4.41,0,0,0-.31.84c-.08.3-.15.61-.22.93l-.19,1s0,.19,0,.46a4.78,4.78,0,0,0,.12.86,3.94,3.94,0,0,0,.28.88.79.79,0,0,0,.52.47Zm3.2-5.24c-.19-.11-.39-.21-.61-.32l-.9-.41-.06,0c-.08,0-.12,0-.12,0l-1.27,6.2a.2.2,0,0,0,.1.19l.27.16.31.12.18.06a1,1,0,0,0,.52,0,.69.69,0,0,0,.36-.33l.07-.34a1.86,1.86,0,0,0,0-.78c-.05-.25-.1-.5-.17-.76s-.12-.52-.17-.78a2.38,2.38,0,0,1,0-.84,1.76,1.76,0,0,1,.53-1,7.68,7.68,0,0,1,.84-.69,1.18,1.18,0,0,1,.22-.17.3.3,0,0,0,.14-.19S89.86,142.34,89.68,142.25Z"/><path class="cls-1" d="M79.55,144.4a3,3,0,0,1-.16-.7,4.82,4.82,0,0,1,0-.76,2,2,0,0,1,.11-.56,2.33,2.33,0,0,1,.58-.89,4.28,4.28,0,0,1,.86-.64,6.79,6.79,0,0,1,1-.47c.34-.14.66-.27,1-.41l0-.09a.68.68,0,0,0,0-.4,3.52,3.52,0,0,0-.19-.51,2.93,2.93,0,0,0-.27-.46.67.67,0,0,0-.24-.24.56.56,0,0,0-.46,0,4.05,4.05,0,0,1-.46.17l-.17-.06,0-.07a1.65,1.65,0,0,1,.26-.14,2.33,2.33,0,0,1,.43-.17l.37-.14.66-.24.68-.2a.8.8,0,0,1,.39-.05h0a1.9,1.9,0,0,1,.47.64,3.79,3.79,0,0,1,.3.86,4.18,4.18,0,0,1,.1.92,2.39,2.39,0,0,1-.12.77l-.83,2.2a1.68,1.68,0,0,1-.67.85,4.38,4.38,0,0,1-1,.48c-.38.13-.77.24-1.17.34a4.52,4.52,0,0,0-1,.37h0A.63.63,0,0,1,79.55,144.4Zm3.06-4a.52.52,0,0,0-.38,0,2.15,2.15,0,0,0-.44.28,3.59,3.59,0,0,0-.39.39,1.26,1.26,0,0,0-.23.36,2.26,2.26,0,0,0-.1.44c0,.22,0,.44-.06.67a2.64,2.64,0,0,0,.07.65.5.5,0,0,0,.29.37l0,0c.06,0,.13,0,.19-.1a1.3,1.3,0,0,0,.19-.33c.06-.12.11-.26.16-.39l.11-.33.19-.51c.09-.23.17-.46.25-.69s.15-.49.23-.79A.22.22,0,0,0,82.61,140.45Z"/><path class="cls-1" d="M81.46,137.14a1.16,1.16,0,0,0,.32-.08l.3-.09a.31.31,0,0,1,.21,0l.07,0a1.13,1.13,0,0,1-.49.48,2.66,2.66,0,0,1-.76.29,2.88,2.88,0,0,1-.81.09,1.62,1.62,0,0,1-.67-.14,3.24,3.24,0,0,1-.7-.45,1.6,1.6,0,0,1-.45-.7l-.09,0-.88,1.78a.49.49,0,0,0,0,.43.6.6,0,0,0,.29.33.69.69,0,0,0,.36.06l.45,0a4.07,4.07,0,0,1,.5,0,1.18,1.18,0,0,1,.5.14,1,1,0,0,1,.4.35,1.63,1.63,0,0,1,.2.49,1.75,1.75,0,0,1,0,.56,1.38,1.38,0,0,1-.15.51,1.72,1.72,0,0,1-.52.65,2,2,0,0,1-.69.34,3.93,3.93,0,0,1-.8.13c-.28,0-.57,0-.87.07a3.78,3.78,0,0,0-.76.13,3.16,3.16,0,0,1-.79.08s-.08-.08-.09-.17,0-.18,0-.29a1.11,1.11,0,0,0-.09-.31.58.58,0,0,0-.25-.24.61.61,0,0,0-.4-.07,1.07,1.07,0,0,0-.31.13l-.27.15a.27.27,0,0,1-.26,0,1.73,1.73,0,0,1,.45-.56,2.77,2.77,0,0,1,.67-.44,2.36,2.36,0,0,1,.78-.2,1.29,1.29,0,0,1,.73.13l0,0a.82.82,0,0,1,.25.23c.09.12.19.24.28.37s.18.22.26.3.13.09.16,0l.7-1.42a.64.64,0,0,0,0-.35.33.33,0,0,0-.17-.29.68.68,0,0,0-.4-.06,4.14,4.14,0,0,0-.45.07l-.48.06a1,1,0,0,1-.51-.12,1.07,1.07,0,0,1-.51-.44,1.5,1.5,0,0,1-.18-.6,2.21,2.21,0,0,1,.08-.66,3.41,3.41,0,0,1,.24-.63l0-.07c.12-.19.22-.36.31-.52a1.74,1.74,0,0,1,.35-.43,1.19,1.19,0,0,1,.61-.28,4.78,4.78,0,0,1,.76,0l.76,0a1.69,1.69,0,0,0,.63-.08l.17,0,.25,0,.24,0a.39.39,0,0,1,.17,0l.06,0c.11.32.21.59.31.81a1.15,1.15,0,0,0,.59.53A.5.5,0,0,0,81.46,137.14Z"/><path class="cls-1" d="M71.38,143.18a.81.81,0,0,1-.73-.13.76.76,0,0,1-.41-.57,1,1,0,0,1,.15-.7,1.14,1.14,0,0,1,.53-.44.75.75,0,0,1,.68.08,1,1,0,0,1,.46.57.89.89,0,0,1-.12.7A1.14,1.14,0,0,1,71.38,143.18ZM73.94,140a.33.33,0,0,0,.13.31.32.32,0,0,0,.35,0,.32.32,0,0,1,.34,0,1.21,1.21,0,0,1-.4.21,6.7,6.7,0,0,1-.79.25,7,7,0,0,1-.84.17.94.94,0,0,1-.53,0l-.06,0a.5.5,0,0,1-.19-.34,4.53,4.53,0,0,1,0-.53c0-.18,0-.34,0-.49s0-.23,0-.24l-.72.11.11-.18.5-.19a2.73,2.73,0,0,0,.48-.25l.44-.68.43-.69.83-1.36.15-.24a4.65,4.65,0,0,0,.23-.41,3.92,3.92,0,0,0,.22-.47,1.23,1.23,0,0,0,.09-.43.29.29,0,0,0-.14-.28l0,0-.21,0H74.1l-.06,0a.85.85,0,0,1,.38-.16l.74-.19.73-.17a1.45,1.45,0,0,1,.34-.06l.06,0a4.69,4.69,0,0,1,.24.77,1.86,1.86,0,0,1,0,.62,1.77,1.77,0,0,1-.2.6,8,8,0,0,1-.42.74l-.22.37c-.13.21-.28.45-.45.74l-.51.87-.47.81-.3.53A1.08,1.08,0,0,0,73.94,140Z"/><path class="cls-1" d="M75.21,132.39a1.16,1.16,0,0,1-.69-.24.74.74,0,0,1-.33-.59.89.89,0,0,1,.2-.62.78.78,0,0,1,.47-.34.57.57,0,0,0,.37-.19.17.17,0,0,0,0-.24L75,130a1.58,1.58,0,0,0-1.13-.35,1.41,1.41,0,0,0-1,.59,3.06,3.06,0,0,0-.51,1,3.9,3.9,0,0,1-.48,1.09l0,.07,1.64.15a.92.92,0,0,0,.39-.13c.17-.09.3-.1.38,0l0,0c0,.17.07.35.1.55a4.36,4.36,0,0,1,.07.62,2.88,2.88,0,0,1-.05.59,1.24,1.24,0,0,1-.24.52l-1.91,2.51a1.52,1.52,0,0,1-.73.56,3.71,3.71,0,0,1-.89.19,7.37,7.37,0,0,1-.94,0,5.05,5.05,0,0,0-.88,0l-.17,0-.27.07-.27,0a.27.27,0,0,1-.17,0l-.06,0c-.15-.37-.27-.68-.35-.92a5.87,5.87,0,0,1-.24-.91,2.9,2.9,0,0,1,0-.29c0-.14,0-.24-.1-.28a.29.29,0,0,0-.19,0l-.31.1-.32.1a.23.23,0,0,1-.18,0l0,0,0-.08,0-.05.67-.27a1.83,1.83,0,0,0,.55-.42c.08-.08.19-.22.35-.41s.33-.4.51-.64l.56-.71.48-.61.23-.32,0,0,.23-.33.27-.39.23-.34.1-.16a2.18,2.18,0,0,0,.29-.68,1.75,1.75,0,0,1,.3-.68,1.87,1.87,0,0,1,.87-.64,3,3,0,0,1,1.07-.14,3.46,3.46,0,0,1,1.08.25,3.93,3.93,0,0,1,1,.52,4.62,4.62,0,0,1,.52.48,2.07,2.07,0,0,1,.39.57,1.33,1.33,0,0,1,.14.64,1.14,1.14,0,0,1-.26.68A.75.75,0,0,1,75.21,132.39Zm-2.58,1.27a1.33,1.33,0,0,0,.05-.34,1.12,1.12,0,0,0,0-.32.41.41,0,0,0-.17-.25.52.52,0,0,0-.5-.07c-.2.06-.35.09-.44.11l-2,2.56a1.17,1.17,0,0,0-.18.45,2.19,2.19,0,0,0,0,.57,2.06,2.06,0,0,0,.11.56.89.89,0,0,0,.28.39l.06.05s.07,0,.14-.05l.22-.21.26-.29.24-.31.23-.3.4-.52.25-.35c.12-.16.24-.34.38-.52s.26-.36.37-.53l.24-.35Z"/><path class="cls-1" d="M70,131l-.27.05a1.82,1.82,0,0,0-.29.08.68.68,0,0,0-.26.15l-2.77,2.78a.61.61,0,0,0-.11.16,1.09,1.09,0,0,0-.1.25,1.15,1.15,0,0,0,0,.26.26.26,0,0,0,.07.2l.24.09.08.08-.32,0c-.21,0-.46.05-.74.06a7.24,7.24,0,0,1-.8,0,.85.85,0,0,1-.49-.13l0,0c-.08-.08-.1-.22-.06-.43a4.68,4.68,0,0,1,.18-.66c.08-.23.16-.44.22-.63s.09-.29.06-.31-.1,0-.25-.06l-.54-.08-.58-.08-.39-.06H62l-.17,0,0,0a.4.4,0,0,1-.07-.32,4.64,4.64,0,0,1,.07-.48c0-.17.07-.34.1-.5a.93.93,0,0,0,0-.36l-.82-.07.17-.18a7,7,0,0,0,.82-.13,1.54,1.54,0,0,0,.72-.41l2.54-2.55a.79.79,0,0,0,.15-.19,1.69,1.69,0,0,0,.12-.27,1.41,1.41,0,0,0,0-.27.25.25,0,0,0-.07-.21l-.52,0-.09-.1a.59.59,0,0,1,.44-.15h1.39l.15,0h.46c.06,0,.09,0,.08,0l0,0,0,1.19a.84.84,0,0,1-.18.52,5.2,5.2,0,0,1-.37.43l-.29.29-.85.82c-.37.35-.73.72-1.07,1.1a8.27,8.27,0,0,0-.82,1.06c-.21.34-.24.57-.1.71a.55.55,0,0,0,.27.15,1.47,1.47,0,0,0,.36,0,1.37,1.37,0,0,0,.36,0,.81.81,0,0,0,.28-.13l.49-.43.74-.71.73-.72.48-.48.13-.13a1.21,1.21,0,0,0,.25-.35,1.67,1.67,0,0,0,.11-.34c0-.1,0-.19,0-.27a.3.3,0,0,1,.06-.16.26.26,0,0,1,.21,0l.35,0,.37.06a.92.92,0,0,0,.28,0,1.61,1.61,0,0,0,.39-.07c.15-.05.25-.05.28,0l0,.05a2.87,2.87,0,0,0-.06.91,3,3,0,0,0,.23.9l-.07.07A.34.34,0,0,1,70,131Z"/><path class="cls-1" d="M65.23,126.73a3.11,3.11,0,0,1-1.23-.25,4,4,0,0,1-1.1-.68,4.33,4.33,0,0,1-.84-.94,3,3,0,0,1-.38-.79c-.08-.26-.16-.53-.22-.82a1.28,1.28,0,0,1,0-.22,1.37,1.37,0,0,0,0-.29.57.57,0,0,0-.07-.23c0-.06-.09-.06-.17,0l-.15.1a1,1,0,0,0-.26.23.91.91,0,0,0-.13.33c-.12.4-.23.79-.33,1.14a5.91,5.91,0,0,1-.37,1,4.21,4.21,0,0,1-.54.85,3.63,3.63,0,0,1-.87.75,2.91,2.91,0,0,1-1.43.52,5.57,5.57,0,0,1-1.4-.12c-.47-.11-1-.24-1.42-.4a7.41,7.41,0,0,0-1.45-.33s0,0,0,0,0-.21.07-.36a1,1,0,0,0,.17-.47,1.28,1.28,0,0,0-.07-.61,3,3,0,0,0-.28-.57,1.26,1.26,0,0,0-.59-.48l-.73-.26,0-.08a.57.57,0,0,1,.36-.09,1.79,1.79,0,0,1,.36,0,6.55,6.55,0,0,1,1.73.43,2.71,2.71,0,0,1,1.33,1.12,2,2,0,0,1,.32.82c.06.3.09.59.12.87a.22.22,0,0,0,.16.09.81.81,0,0,0,.22,0l.23-.08.16-.09a1.7,1.7,0,0,0,.4-.43,4.61,4.61,0,0,0,.38-.65,3.48,3.48,0,0,0,.24-.68.59.59,0,0,0,0-.46.57.57,0,0,0-.29-.19,1.8,1.8,0,0,0-.37,0c-.44-.19-.93-.39-1.48-.6a12.94,12.94,0,0,0-1.58-.5l0-.06a8.71,8.71,0,0,1,.48-1.21,2.39,2.39,0,0,1,.85-.94,3.39,3.39,0,0,1,.53-.28,1.14,1.14,0,0,1,.62,0,1.23,1.23,0,0,1,.33.11l.45.18.43.18a.46.46,0,0,0,.22.06l0,0c0-.2-.1-.4-.14-.62a3.36,3.36,0,0,1-.06-.63,2.51,2.51,0,0,1,.1-.62,1.59,1.59,0,0,1,.31-.55,3.39,3.39,0,0,1,.32-.35,3.63,3.63,0,0,0,.34-.34,1.42,1.42,0,0,0,.24-.3c.06-.08.08-.16,0-.21a.71.71,0,0,0-.2-.12l-.36-.18a.74.74,0,0,1-.23-.15s0,0,.2,0l1.93.41a.71.71,0,0,0,.26,0h.61a.22.22,0,0,1,.16.07.66.66,0,0,1,0,.46,3,3,0,0,1-.18.65,3.67,3.67,0,0,1-.3.63,1,1,0,0,1-.34.39l-1.75,1.15a.91.91,0,0,0-.3.38.46.46,0,0,0,0,.47.48.48,0,0,0,.25.21.3.3,0,0,0,.29,0l3.17-2.07s0,.08,0,.15l-.67.4-.66.43c-.33.21-.65.43-.95.65s-.6.46-.89.71a.29.29,0,0,1-.12.33.28.28,0,0,1-.21.05.54.54,0,0,0-.25,0l-.67.43-.22.16-.31.23-.31.22-.21.16,0,.06a.78.78,0,0,0,.21.18,1.4,1.4,0,0,0,.3.15,1.2,1.2,0,0,0,.32.06.32.32,0,0,0,.23,0,.85.85,0,0,0,.33-.37,4.73,4.73,0,0,1,.28-.44,5.5,5.5,0,0,1,.37-.42,3.07,3.07,0,0,1,.45-.37,2.71,2.71,0,0,1,1-.4,3.92,3.92,0,0,1,1,0,10.11,10.11,0,0,1,1.05.14,9.55,9.55,0,0,0,1.09.13l.29,0,.39,0,.48,0,0,.05a2.51,2.51,0,0,0-.45,1.55,2.91,2.91,0,0,0,.48,1.52,3,3,0,0,0,.35.47.94.94,0,0,0,.32.26,1.23,1.23,0,0,0,.41.12,3.3,3.3,0,0,0,.56,0l.29-.19a1.57,1.57,0,0,0,.6-.69,2.39,2.39,0,0,0,.17-.89,3.07,3.07,0,0,0-.12-.94,6.19,6.19,0,0,0-.29-.86l-.44-.67a6.38,6.38,0,0,0-1.37-1.54,5.21,5.21,0,0,0-1.86-.91l0-.08,0,0c.07,0,.11,0,.13,0a5.84,5.84,0,0,1,2.09.74,4.77,4.77,0,0,1,1.58,1.55A5.18,5.18,0,0,1,67.3,123a4,4,0,0,1,.21,1.25,3.06,3.06,0,0,1-.24,1.2,2.11,2.11,0,0,1-.82.94A2.26,2.26,0,0,1,65.23,126.73ZM58,122.13a1.25,1.25,0,0,0-.3-.36,1.05,1.05,0,0,0-.45-.22.53.53,0,0,0-.46.07,1.06,1.06,0,0,0-.25.32,3.52,3.52,0,0,0-.27.55,2.78,2.78,0,0,0-.17.59.61.61,0,0,0,0,.44v0a.11.11,0,0,0,.12,0,.2.2,0,0,0,.11,0l.55-.36.31-.19.29-.18a4.46,4.46,0,0,0,.48-.37A.3.3,0,0,0,58,122.13Z"/><path class="cls-1" d="M50.53,119.71a.82.82,0,0,1-.53-.52.81.81,0,0,1,0-.71,1.1,1.1,0,0,1,1.21-.54.72.72,0,0,1,.51.45.94.94,0,0,1,0,.73.81.81,0,0,1-.5.51A1.11,1.11,0,0,1,50.53,119.71Zm3.9-1.12a.33.33,0,0,0-.07.33.34.34,0,0,0,.28.21.32.32,0,0,1,.28.2,1.16,1.16,0,0,1-.45-.06,6,6,0,0,1-.8-.25,7,7,0,0,1-.78-.33.91.91,0,0,1-.42-.32l0-.07a.47.47,0,0,1,0-.39,3,3,0,0,1,.26-.46,4.62,4.62,0,0,1,.28-.4,1,1,0,0,0,.13-.2l-.65-.33.19-.08.51.12a2.05,2.05,0,0,0,.54.07l.75-.3.75-.32,1.46-.64.26-.12.42-.2a4.83,4.83,0,0,0,.45-.26,1.87,1.87,0,0,0,.32-.3.31.31,0,0,0,0-.32v0s-.06-.07-.15-.14l-.14-.11,0-.07a.85.85,0,0,1,.4.09l.72.26.69.28a1.93,1.93,0,0,1,.32.15l0,.06a5,5,0,0,1-.25.77,2,2,0,0,1-.34.52,1.72,1.72,0,0,1-.51.39c-.2.1-.45.23-.76.36l-.4.18-.79.35-.91.42-.85.4-.55.26A1.12,1.12,0,0,0,54.43,118.59Z"/><path class="cls-1" d="M58,114l-.26-.08-.3-.07a.76.76,0,0,0-.3,0l-3.74,1.17-.18.09a1.12,1.12,0,0,0-.2.18,1.37,1.37,0,0,0-.15.21.27.27,0,0,0,0,.21l.18.19,0,.11-.3-.12-.69-.28c-.25-.12-.49-.24-.71-.37S51,115.06,51,115v0c0-.11,0-.24.15-.41s.29-.33.47-.5l.48-.45c.15-.13.21-.22.2-.25s-.07-.07-.2-.17l-.43-.31-.48-.35-.32-.23-.16-.09-.3-.17-.3-.17c-.09,0-.13-.08-.14-.1v0a.43.43,0,0,1,.09-.31,4.41,4.41,0,0,1,.29-.4l.31-.39a.8.8,0,0,0,.19-.32l-.69-.44.24-.07a7.13,7.13,0,0,0,.78.26,1.47,1.47,0,0,0,.83,0l3.43-1.07a.9.9,0,0,0,.22-.11,1.3,1.3,0,0,0,.23-.18,1,1,0,0,0,.17-.21.26.26,0,0,0,0-.22l-.45-.26,0-.13a.61.61,0,0,1,.46.07l1.23.65a.32.32,0,0,1,.15,0l.21.11.19.1c.06,0,.09,0,.09,0l0,0-.52,1.07a.85.85,0,0,1-.4.37,2.92,2.92,0,0,1-.53.21l-.39.12-1.13.33c-.49.14-1,.3-1.46.48a9.46,9.46,0,0,0-1.22.56c-.34.2-.48.4-.42.58a.59.59,0,0,0,.17.26,1.63,1.63,0,0,0,.64.33.81.81,0,0,0,.3,0,5.7,5.7,0,0,0,.64-.16l1-.28,1-.3.65-.2.17-.06a1.18,1.18,0,0,0,.39-.19,1.41,1.41,0,0,0,.24-.25,2.65,2.65,0,0,0,.17-.22.26.26,0,0,1,.13-.11s.11,0,.2.07l.29.2.3.22a1.09,1.09,0,0,0,.24.14,1.42,1.42,0,0,0,.38.12c.15,0,.24.07.26.12l0,.07a2.84,2.84,0,0,0-.49.77,3.47,3.47,0,0,0-.21.91l-.09,0A.31.31,0,0,1,58,114Z"/><path class="cls-1" d="M53.45,104.75a1.48,1.48,0,0,0-.27.16,2.08,2.08,0,0,0-.21.21.37.37,0,0,0-.07.27l.14.9,2.17-.34a.45.45,0,0,0,.26-.12.9.9,0,0,0,.15-.19c0-.06.07-.12.11-.17a.2.2,0,0,1,.15-.09s.11.06.25.18l.46.42.43.4c.14.12.2.16.2.13a.39.39,0,0,1-.09.17l-.22.27a2.75,2.75,0,0,0-.23.33,1.19,1.19,0,0,0-.15.3.79.79,0,0,1,0,.27c0,.14,0,.23,0,.27l-.18,0a3.1,3.1,0,0,0-.39-.23.79.79,0,0,0-.47-.09L48,109a1.33,1.33,0,0,1-.79-.1,2.26,2.26,0,0,1-.65-.46,2.61,2.61,0,0,1-.47-.67,2.21,2.21,0,0,1-.24-.74,2.47,2.47,0,0,1,0-.55,1.79,1.79,0,0,1,.13-.53,1.08,1.08,0,0,1,.3-.43,1.11,1.11,0,0,1,.53-.22.81.81,0,0,1,.61.13.72.72,0,0,1,.31.5.7.7,0,0,1-.12.56.89.89,0,0,1-1,.24,2,2,0,0,1-.42-.25s0,.07,0,.14a.71.71,0,0,0,0,.12.44.44,0,0,0,.25.37,1,1,0,0,0,.49.13,2.72,2.72,0,0,0,.63,0l.64-.08.42-.07.47-.07.45-.08.46-.1a3,3,0,0,0,.35-.11c.1,0,.14-.08.13-.12v-.07a7.88,7.88,0,0,1-.84-.89,4.55,4.55,0,0,0-.92-.88v0s0-.1.16-.22a2.58,2.58,0,0,1,.41-.39,4.15,4.15,0,0,1,.52-.39,1.5,1.5,0,0,1,.54-.22,1.73,1.73,0,0,1,.69,0,1.32,1.32,0,0,1,.48.22,4.82,4.82,0,0,1,.43.36,2.8,2.8,0,0,0,.53.39.08.08,0,0,1,.06-.08c0-.18.11-.37.18-.56a2,2,0,0,1,.27-.53,1.91,1.91,0,0,1,.42-.43,1.2,1.2,0,0,1,.59-.23l.69-.11.33-.15c.15-.07.22-.16.21-.25a.26.26,0,0,0-.1-.2.32.32,0,0,1-.1-.19l.07,0s0,0,.08,0h.07l1.52,1.14a.33.33,0,0,1,0,.22l-.09.2a1.64,1.64,0,0,1-.82.84,5.06,5.06,0,0,1-1.16.33l-.5.07-.5.07Zm-.84,1.66c.06,0,.09-.06.08-.11l-.13-.86a.47.47,0,0,0-.16-.28,1.33,1.33,0,0,0-.31-.18,1,1,0,0,0-.35-.07,1,1,0,0,0-.3,0,1.58,1.58,0,0,0-.37.12,1.63,1.63,0,0,0-.38.24,1.1,1.1,0,0,0-.29.32.54.54,0,0,0-.07.37.52.52,0,0,0,.3.43,1.71,1.71,0,0,0,.57.15,3.32,3.32,0,0,0,.63,0l.46-.06.13,0Z"/><path class="cls-1" d="M46.24,101.05a2.37,2.37,0,0,1-.71-.7,3.15,3.15,0,0,1-.45-.92,3.18,3.18,0,0,1-.16-1,3.26,3.26,0,0,1,.24-1.21,7.53,7.53,0,0,1,.55-1.1l.34-.54a1,1,0,0,0,.18-.57.75.75,0,0,0-.12-.41.45.45,0,0,0-.71-.05c-.07.1-.14.21-.22.31H45a.58.58,0,0,1,.33-.55,1.18,1.18,0,0,1,.63-.19,1.16,1.16,0,0,1,.71.28,2.83,2.83,0,0,1,.55.54,2.1,2.1,0,0,1,.35.82,4.21,4.21,0,0,1,.08.89,2.23,2.23,0,0,1-.23,1q-.24.43-.51.84a8.77,8.77,0,0,0-.51.79,1.73,1.73,0,0,0-.24.9.8.8,0,0,0,.3.68,1.16,1.16,0,0,0,.75.24,1.07,1.07,0,0,0,.74-.25,1.59,1.59,0,0,0,.44-.63,2.71,2.71,0,0,0,.22-.8,7.42,7.42,0,0,0,.05-.76,1.63,1.63,0,0,0-.06-.47,3.37,3.37,0,0,0-.13-.38c0-.12-.09-.23-.13-.34a1.07,1.07,0,0,1-.06-.35q.16,0,.33.24A2.52,2.52,0,0,1,49,98a4.89,4.89,0,0,1,.19.62,2.31,2.31,0,0,1,.08.46,2.48,2.48,0,0,1-.15.84,2.6,2.6,0,0,1-.41.73,2,2,0,0,1-.64.53,1.75,1.75,0,0,1-.85.2A1.62,1.62,0,0,1,46.24,101.05Zm8.82.92a3.5,3.5,0,0,1-1-.91,4.27,4.27,0,0,1-.62-1.2,3.89,3.89,0,0,1-.22-1.26A3.51,3.51,0,0,1,53.63,97a7.82,7.82,0,0,1,.93-1.36v-.07a.25.25,0,0,0-.09-.2.66.66,0,0,0-.22-.12,1,1,0,0,0-.25-.06h-.54a.76.76,0,0,0-.3.1l-2,1-.31.08-.3.1h-.49a2.6,2.6,0,0,1-1.34-.35,4.19,4.19,0,0,1-1.1-.9L47.47,95a.73.73,0,0,1-.12-.19v-.14a1,1,0,0,1,.44.11,1.06,1.06,0,0,0,.44.11,1.81,1.81,0,0,0,.93-.27l.82-.5a3.53,3.53,0,0,1,.89-.33,4.34,4.34,0,0,1,1-.1,2.94,2.94,0,0,1,1.38.29,3.72,3.72,0,0,1,1,.72,7.76,7.76,0,0,1,.77,1,7.52,7.52,0,0,0,.85,1.07s.08.07.15.14l.26.21.25.2a.25.25,0,0,1,.1.15s0,.07-.13.16l-.31.27-.32.28-.2.2a3,3,0,0,0-.51,1,4,4,0,0,0-.16,1.1,2.28,2.28,0,0,0,.09.63,1.86,1.86,0,0,0,.26.55,1.54,1.54,0,0,0,.44.4,1.34,1.34,0,0,0,.6.16,1.51,1.51,0,0,0,1-.36,2.58,2.58,0,0,0,.64-.9,4.8,4.8,0,0,0,.31-1.14,7.48,7.48,0,0,0,.09-1.09,5.76,5.76,0,0,0-.29-1.94,5.08,5.08,0,0,0-1-1.71v-.14l.07,0a.2.2,0,0,1,.09,0,6.2,6.2,0,0,1,1.32,1.68,4.26,4.26,0,0,1,.48,2,5.07,5.07,0,0,1-.17,1.25,4.32,4.32,0,0,1-.52,1.18,2.86,2.86,0,0,1-.85.88,2.12,2.12,0,0,1-1.24.34A2.36,2.36,0,0,1,55.06,102Z"/><path class="cls-1" d="M55.26,93.91l-.19-.2-.23-.19a.77.77,0,0,0-.28-.12l-3.86-.67a.66.66,0,0,0-.2,0,1.22,1.22,0,0,0-.26.06,1.36,1.36,0,0,0-.24.13.25.25,0,0,0-.12.17l.07.25,0,.11a1.84,1.84,0,0,0-.2-.24c-.15-.16-.31-.35-.49-.57a7.11,7.11,0,0,1-.47-.65.77.77,0,0,1-.18-.48v0c0-.11.13-.21.32-.29a4.77,4.77,0,0,1,.64-.23l.64-.18c.19,0,.29-.1.29-.14a1.37,1.37,0,0,0-.1-.23l-.24-.48c-.09-.19-.18-.36-.27-.53L49.7,89a1,1,0,0,0-.1-.14l-.19-.29-.19-.29c0-.08-.08-.14-.07-.15v0c0-.09.09-.16.22-.24a3.61,3.61,0,0,1,.44-.22c.15-.08.31-.14.46-.21a.92.92,0,0,0,.31-.19l-.42-.71.25,0a5.39,5.39,0,0,0,.58.59,1.45,1.45,0,0,0,.75.35l3.54.61a.63.63,0,0,0,.24,0,1.5,1.5,0,0,0,.29-.06.82.82,0,0,0,.25-.11.22.22,0,0,0,.13-.18l-.27-.43,0-.13a.59.59,0,0,1,.38.27l.79,1.14a.28.28,0,0,1,.11.11,1.33,1.33,0,0,1,.14.19l.13.18s.06.07.07,0v0l-.94.72a.94.94,0,0,1-.53.15,5.51,5.51,0,0,1-.57-.06l-.4-.07c-.27,0-.65-.12-1.15-.22s-1-.18-1.52-.24a8.05,8.05,0,0,0-1.35-.06c-.39,0-.6.13-.63.33a.47.47,0,0,0,0,.3,1.1,1.1,0,0,0,.17.32,1.55,1.55,0,0,0,.24.27.64.64,0,0,0,.26.15c.12,0,.33.09.64.16l1,.19,1,.18.67.12.17,0a1.32,1.32,0,0,0,.44,0,2.55,2.55,0,0,0,.33-.11l.25-.12a.23.23,0,0,1,.17,0s.09.06.14.15l.17.31c.06.12.11.23.17.34a.76.76,0,0,0,.15.23,1.23,1.23,0,0,0,.28.28c.12.09.18.17.17.22v.07a3.18,3.18,0,0,0-.79.47,3.93,3.93,0,0,0-.6.71h-.09A.39.39,0,0,1,55.26,93.91Z"/><path class="cls-1" d="M50.71,85.71a.43.43,0,0,0-.15.18,1.27,1.27,0,0,1-.13.19s-.14.06-.28,0-.23-.1-.26-.17a.51.51,0,0,1,0-.21l0-.19a.17.17,0,0,0-.08-.15l-.52-.31a2.46,2.46,0,0,1-.47-.36,1.28,1.28,0,0,1-.34-.46,4.81,4.81,0,0,1-.2-.53c-.05-.19-.09-.37-.13-.56a4.11,4.11,0,0,0-.17-.53,1.12,1.12,0,0,0-.08-.17l-.14-.23a1.88,1.88,0,0,0-.14-.24l-.1-.16.06-.17a2.06,2.06,0,0,0,.46-.13.6.6,0,0,0,.28-.38.49.49,0,0,0-.07-.38.43.43,0,0,1-.08-.35,1.56,1.56,0,0,1,.55.3,1.91,1.91,0,0,1,.42.48,1.8,1.8,0,0,1,.22.6,1.26,1.26,0,0,1,0,.61.67.67,0,0,1-.22.33.67.67,0,0,0-.23.34l.06.16.44.13.44.13a3.59,3.59,0,0,0,.45.07l.13-.11a1.3,1.3,0,0,0,.07-.33,1.75,1.75,0,0,1,.07-.36.24.24,0,0,1,.09-.12.19.19,0,0,1,.17,0l.18.06a.38.38,0,0,1,.28.22.59.59,0,0,1,.06.32,1.14,1.14,0,0,1-.05.33,1.59,1.59,0,0,0,0,.23s0,.06.1.09l.28.13.35.14.3.1,4.35,1.32.08.07a2.08,2.08,0,0,0,.58,1.47,3.44,3.44,0,0,0,1.27.68l.52.16a4.72,4.72,0,0,1,.53.18l0,.09L59,88.07l-.85-.23-.85-.24-.55-.15-5.69-1.73h0C50.88,85.66,50.77,85.66,50.71,85.71Z"/><path class="cls-1" d="M55,84.07l-.91-.34A3.67,3.67,0,0,1,52.91,83a2.2,2.2,0,0,1-.65-1.21c0-.07,0-.22-.1-.44s-.11-.46-.17-.71-.12-.46-.16-.65a1.55,1.55,0,0,0-.08-.28l0-.06.73-.46a5.65,5.65,0,0,1,.8-.43,3,3,0,0,1,.86-.25,1.71,1.71,0,0,1,.89.12l2.45,1a1.4,1.4,0,0,1,.63.53,2.15,2.15,0,0,1,.35.72l.3,1.54a.3.3,0,0,0,0,.23l.18.32a3.49,3.49,0,0,1,.18.31c.05.09.08.15.06.18s-.06.07-.17.13a3.9,3.9,0,0,1-.38.22l-.47.24-.43.24a1.39,1.39,0,0,1-.87.23c-.32,0-.63,0-.91-.07Zm1.56-1.55a4.87,4.87,0,0,0,.65-.1,2.66,2.66,0,0,0,.6-.22.73.73,0,0,0,.35-.37.64.64,0,0,0,0-.07s0-.05,0-.06l-3-1.18-.26-.07a1.84,1.84,0,0,1-.25-.08,2.16,2.16,0,0,0-.4,0c-.19,0-.39.1-.6.16a3.24,3.24,0,0,0-.56.25c-.17.1-.26.19-.26.29l0,.12.24.09.34.15.34.13.22.1.33.12.36.14.55.21.53.2.35.12A2.25,2.25,0,0,0,56.57,82.52ZM52.81,80s0,0,0,0,0,0,0,0,0,0,0,0h0Z"/><path class="cls-1" d="M59.39,80.55l-.06.13a.39.39,0,0,1-.18-.24c0-.13-.08-.26-.13-.4a3.25,3.25,0,0,0-.15-.4.57.57,0,0,0-.25-.28l-3.25-1.69-.23-.09a.86.86,0,0,0-.27,0,.57.57,0,0,0-.26,0,.27.27,0,0,0-.18.15.35.35,0,0,0,0,.33.37.37,0,0,1,0,.34.62.62,0,0,1-.27-.26,1.63,1.63,0,0,1-.13-.39,3,3,0,0,1-.06-.42,3.53,3.53,0,0,0-.05-.38.91.91,0,0,1-.06-.16c0-.1-.07-.2-.11-.31s-.07-.21-.1-.31,0-.15,0-.16v0a.47.47,0,0,1,.34-.21,3.08,3.08,0,0,1,.53-.08l.52,0q.23,0,.27-.09c0-.07,0-.17,0-.3a3.37,3.37,0,0,0-.23-.4c-.08-.14-.16-.27-.22-.4s-.09-.22,0-.28a1,1,0,0,0,.39,0,.44.44,0,0,0,.27-.25c.12-.21.15-.38.09-.49a3.89,3.89,0,0,0-.27-.47s0,0,.1,0l.1,0a3.07,3.07,0,0,1,.59.43,2,2,0,0,1,.42.56,1.56,1.56,0,0,1,.17.63,1.41,1.41,0,0,1-.16.68,1.69,1.69,0,0,1-.19.28,1.46,1.46,0,0,0-.17.24l0,.07s0,0,0,0l3.2,1.66a.48.48,0,0,0,.23,0,2.35,2.35,0,0,0,.35,0l.33-.09a.36.36,0,0,0,.19-.11l.16-.31s0-.1-.06-.17l-.09-.26a1.5,1.5,0,0,1-.06-.29.38.38,0,0,1,0-.24l0,.06a.43.43,0,0,1,.1.1l.84,2.8,0,.09s-.06,0-.17.09l-.24.09a3.92,3.92,0,0,1-.84.24c-.23,0-.52,0-.86.06l0,0v0Z"/><path class="cls-1" d="M60.83,75.6a1,1,0,0,0-.29-.42l-.36-.29-.56-.43L59.05,74c-.17-.14-.3-.23-.36-.29l-1.2-.9a1.32,1.32,0,0,0-.43-.23.34.34,0,0,0-.43.1.46.46,0,0,0-.07.14,1.16,1.16,0,0,1-.06.15.07.07,0,0,1-.1,0l0,0s0-.09,0-.22,0-.28,0-.44,0-.31,0-.46a1.47,1.47,0,0,0,0-.32l-.1-.78.08-.11c0-.07.16-.09.36,0a5.9,5.9,0,0,1,.66.13l.66.14c.2,0,.33,0,.37,0l0,0c0-.44-.06-.88-.06-1.33a6.8,6.8,0,0,0-.11-1.34l.05-.06c.06-.08.18-.11.37-.1a4.43,4.43,0,0,1,.6.07l.59.07c.19,0,.31,0,.36-.07l0-.06s0-.14,0-.26,0-.26,0-.39l0-.4q0-.18,0-.27a1.63,1.63,0,0,0,0-.28c0-.13,0-.25,0-.39s0-.24,0-.34a.29.29,0,0,1,0-.2l0-.06a.46.46,0,0,1,.35-.11,5.33,5.33,0,0,1,.56,0l.54,0c.17,0,.26,0,.29,0a.17.17,0,0,0,0-.16,1.5,1.5,0,0,0,0-.2.86.86,0,0,1,0-.22.31.31,0,0,1,.06-.19l.12.08a5.12,5.12,0,0,0,.14.68,1,1,0,0,0,.38.55l3.46,2.62a.59.59,0,0,0,.34.09.41.41,0,0,0,.31-.13.26.26,0,0,0,0-.27.32.32,0,0,1,.05-.27.65.65,0,0,1,.18.4,6.69,6.69,0,0,1,.07.69c0,.25,0,.49,0,.73a3.92,3.92,0,0,0,0,.51l-.06.08a.6.6,0,0,1-.42.2,2.62,2.62,0,0,1-.63,0,3.42,3.42,0,0,1-.65-.15,1.31,1.31,0,0,1-.46-.22L61.53,67.5a1,1,0,0,0-.49-.21.48.48,0,0,0-.46.19.75.75,0,0,0-.08.69,1.15,1.15,0,0,0,.38.59l2.84,2.15A.6.6,0,0,0,64,71l.29,0,.27,0a.43.43,0,0,1,.2.07.2.2,0,0,1,.06.15l0,.23-.06.24a.44.44,0,0,0,0,.19.87.87,0,0,0,0,.25c0,.12.06.24.1.37s.07.24.1.35a.43.43,0,0,1,0,.19l0,0a5.56,5.56,0,0,0-.7-.08,1.53,1.53,0,0,0-.69.14.8.8,0,0,0-.23.16.17.17,0,0,1-.23,0,.53.53,0,0,1-.17-.31c0-.16-.09-.28-.12-.35-.3-.27-.57-.5-.82-.69s-.49-.4-.75-.59L60.64,71l-1-.79-.2-.11a1.69,1.69,0,0,0-.27-.11.79.79,0,0,0-.3,0,.26.26,0,0,0-.22.12l-.06.07c0,.24,0,.45.05.64a.83.83,0,0,0,.24.54l.44.35.69.54.68.53.45.35s0,.07.11.13l.15.11.39.27a1.3,1.3,0,0,0,.45.19.66.66,0,0,0,.28,0,.3.3,0,0,1,.25,0,1.3,1.3,0,0,1,0,.35c0,.22,0,.45.06.71s.05.47.08.67.07.26.11.21a.18.18,0,0,1-.14,0,.69.69,0,0,1-.2,0l-.19,0-.11,0a.85.85,0,0,0-.36.06l-.43.15a2.14,2.14,0,0,1-.38.13c-.11,0-.18,0-.21,0l-.06,0A2.68,2.68,0,0,0,60.83,75.6Z"/><path class="cls-1" d="M66.06,67.6c-.16-.16-.32-.32-.48-.5l-.48-.49-.3-.32-.09-.1a2.53,2.53,0,0,1-.62-1,2.39,2.39,0,0,1-.06-.92,6.14,6.14,0,0,1,.22-1,6,6,0,0,0,.23-1.11,1.86,1.86,0,0,0,0-.22,2.66,2.66,0,0,1,0-.3,1.31,1.31,0,0,1,0-.28.28.28,0,0,1,.07-.19,1,1,0,0,1,.55-.21,4.77,4.77,0,0,1,.76-.05h.71c.21,0,.33,0,.37,0l0,0,.07-.44.14-.09c0,.2.08.41.11.62a.84.84,0,0,0,.16.43l1.25,1.36.56.63c.21.23.4.43.59.6a3.08,3.08,0,0,0,.53.39.34.34,0,0,0,.4,0,.25.25,0,0,0,.06-.21.23.23,0,0,1,.09-.21,1.23,1.23,0,0,1,.16.51,7.51,7.51,0,0,1,.1.86,6,6,0,0,1,0,.84c0,.25-.06.38-.12.4l-.07,0a1.42,1.42,0,0,1-.29-.08l-.55-.16-.55-.15c-.17,0-.27,0-.31,0l0,0q-.06.51-.15,1.11A7.65,7.65,0,0,0,69,68.48l-.1.1-1.32-.09a1.49,1.49,0,0,1-.65-.21,5.06,5.06,0,0,1-.58-.36Zm1.71-1a2.71,2.71,0,0,0,.39.17,1,1,0,0,0,.39,0,.54.54,0,0,0,.35-.16.4.4,0,0,0,.14-.27A1.24,1.24,0,0,0,69,66a1.3,1.3,0,0,0-.14-.32,2.21,2.21,0,0,0-.19-.26l-.14-.15-.35-.37-.54-.57-.55-.57-.36-.39a2.73,2.73,0,0,0-1-.35,1.89,1.89,0,0,0-.53,0,.76.76,0,0,0-.42.17s0,.09,0,.16a1.83,1.83,0,0,0,.15.25c.07.1.16.2.25.31l.28.3.31.33,1.66,1.82Z"/><path class="cls-1" d="M71.61,65.34l-.14.11a.45.45,0,0,1-.11-.28,1.5,1.5,0,0,1,0-.3v-.3a.55.55,0,0,0-.11-.29.91.91,0,0,1-.11-.16.64.64,0,0,1-.06-.18L68.69,60.8l-.14-.14-.2-.22-.19-.23L68,60.06s-.07,0-.12,0l-.19.09-.21.09a.31.31,0,0,1-.21,0l-.13-.17s-.07-.1-.13-.21-.07-.16,0-.18l.48-.37s0,0,0-.11a.52.52,0,0,0-.07-.15q-.21-.47-.36-.84a3.46,3.46,0,0,1-.18-.74,2.79,2.79,0,0,1,0-.76,4.56,4.56,0,0,1,.27-.89c0-.13.11-.26.17-.38a.86.86,0,0,1,.25-.29.35.35,0,0,1,.06.34.8.8,0,0,0,0,.34,2.52,2.52,0,0,0,.35.8q.24.36.51.72c.05.06.11.15.17.24a1.88,1.88,0,0,0,.22.26.63.63,0,0,0,.25.14.32.32,0,0,0,.28-.08,3.9,3.9,0,0,1,.36-.22c.12-.06.24,0,.38.19a1,1,0,0,1,.09.16v.08a.83.83,0,0,0-.23.14.87.87,0,0,0-.24.26c-.07.11-.08.19,0,.25l2.88,3.79a1,1,0,0,0,.49.3.63.63,0,0,0,.56,0,.33.33,0,0,0,.11-.26.72.72,0,0,1,0-.21l0,0h.08l0,.06a1.54,1.54,0,0,1,0,.46c0,.25-.07.52-.12.8s-.1.54-.15.78a1.56,1.56,0,0,1-.12.38l-.08.06a.39.39,0,0,1-.28,0l-.44-.09c-.16,0-.33-.09-.51-.12a1.81,1.81,0,0,0-.49-.07l0,0,0,0Z"/><path class="cls-1" d="M69.53,54.45a1,1,0,0,1,1.12-.74,1,1,0,0,1,.56.45,1,1,0,0,1,.17.67.72.72,0,0,1-.36.57,1,1,0,0,1-.71.17.87.87,0,0,1-.59-.42A1.1,1.1,0,0,1,69.53,54.45Zm1.73,3.66a.34.34,0,0,0-.34,0,.31.31,0,0,0-.16.31.32.32,0,0,1-.15.31,1.07,1.07,0,0,1,0-.46c0-.25.06-.53.11-.82a8.37,8.37,0,0,1,.21-.83.89.89,0,0,1,.25-.47l.06,0a.5.5,0,0,1,.39,0,4.24,4.24,0,0,1,.5.18,4.5,4.5,0,0,1,.44.22c.13.07.2.1.22.09l.22-.69.11.18c0,.16,0,.34,0,.52a2.4,2.4,0,0,0,0,.54c.13.24.28.47.42.7l.43.68.87,1.34.15.24c.07.11.16.24.27.38a2.69,2.69,0,0,0,.33.41,1.13,1.13,0,0,0,.35.26.29.29,0,0,0,.31,0h0a.84.84,0,0,0,.11-.18,1,1,0,0,1,.09-.16l.06,0a.93.93,0,0,1,0,.4c0,.23-.09.48-.15.76s-.12.51-.17.73a1.54,1.54,0,0,1-.09.33L76,63a4.6,4.6,0,0,1-.8-.13,2.08,2.08,0,0,1-.57-.24,2.11,2.11,0,0,1-.46-.44c-.14-.18-.3-.42-.48-.7l-.23-.36L73,60.41l-.56-.84-.53-.77-.34-.5A1.2,1.2,0,0,0,71.26,58.11Z"/><path class="cls-1" d="M74.94,59.11c-.15-.26-.31-.54-.47-.85a3.79,3.79,0,0,1-.42-1.34,2.18,2.18,0,0,1,.3-1.34c0-.06.11-.19.22-.4s.21-.42.33-.64l.31-.6a1,1,0,0,0,.12-.26l.07,0,.85.13a6.74,6.74,0,0,1,.89.2,3.36,3.36,0,0,1,.81.39,1.64,1.64,0,0,1,.59.66l1.23,2.33a1.38,1.38,0,0,1,.12.81,2.1,2.1,0,0,1-.2.77L78.9,60.3a.3.3,0,0,0-.11.21,3,3,0,0,0-.08.35,2.7,2.7,0,0,1-.07.35c0,.11,0,.17-.07.18s-.1,0-.22,0l-.43-.09-.51-.12-.48-.1a1.48,1.48,0,0,1-.81-.4c-.23-.22-.45-.44-.65-.65ZM77.13,59a4.43,4.43,0,0,0,.56.35,2.4,2.4,0,0,0,.59.23.72.72,0,0,0,.51,0l.06,0s0,0,0-.07L77.34,56.5l-.14-.22a2.31,2.31,0,0,1-.14-.23,2,2,0,0,0-.33-.22,4.29,4.29,0,0,0-.57-.27,2.75,2.75,0,0,0-.58-.18c-.19,0-.32,0-.39,0l-.09.08.12.23.16.33c.07.12.12.23.17.33l.1.21.17.31c0,.07.09.18.18.34l.29.52c.09.18.18.34.27.5l.17.33A3,3,0,0,0,77.13,59Zm-1.2-4.36a0,0,0,0,0,0,0s0,0,0,0,0,0,0,0h0Z"/><path class="cls-1" d="M80.38,58.82l.06-.26a1.59,1.59,0,0,0,.06-.3.63.63,0,0,0,0-.3l-1.37-3.67a.68.68,0,0,0-.1-.18,1.07,1.07,0,0,0-.18-.19,1.09,1.09,0,0,0-.23-.14.31.31,0,0,0-.21,0l-.18.19-.11,0a1.26,1.26,0,0,0,.11-.3c.07-.21.15-.44.25-.71a5.36,5.36,0,0,1,.32-.73.88.88,0,0,1,.32-.4h0a.46.46,0,0,1,.42.13,4.87,4.87,0,0,1,.52.44l.48.46c.14.13.22.2.26.18s.07-.07.15-.21l.3-.45.32-.49.21-.33.08-.17c0-.09.09-.2.15-.31l.16-.3a.38.38,0,0,1,.09-.15h0a.36.36,0,0,1,.31.07A4.78,4.78,0,0,1,83,51l.41.3a.83.83,0,0,0,.32.17l.41-.72.08.24a7.27,7.27,0,0,0-.22.8,1.55,1.55,0,0,0,.08.82l1.26,3.37a1.08,1.08,0,0,0,.11.21,1,1,0,0,0,.2.22,1.63,1.63,0,0,0,.22.17.29.29,0,0,0,.22,0l.23-.46.13-.05a.62.62,0,0,1,0,.47l-.58,1.26s0,.08,0,.15a2,2,0,0,1-.1.21,2,2,0,0,1-.09.2q0,.09,0,.09l0,0L84.47,58a.84.84,0,0,1-.39-.38c-.09-.17-.17-.35-.24-.52l-.14-.38c-.1-.25-.23-.63-.39-1.11s-.35-1-.56-1.43A7.25,7.25,0,0,0,82.12,53q-.32-.49-.6-.39a.47.47,0,0,0-.24.19,1.08,1.08,0,0,0-.19.31,1.5,1.5,0,0,0-.11.34.75.75,0,0,0,0,.3,5.58,5.58,0,0,0,.19.63c.1.31.21.63.33,1s.25.67.36,1,.19.51.23.63l.07.17a1.22,1.22,0,0,0,.21.38,1.79,1.79,0,0,0,.26.23l.23.16A.34.34,0,0,1,83,58s0,.11-.06.2l-.18.3-.21.32a.62.62,0,0,0-.12.25,1.09,1.09,0,0,0-.1.38c0,.15-.06.24-.11.26l-.07,0a2.65,2.65,0,0,0-1.71-.6l0-.1A.37.37,0,0,1,80.38,58.82Z"/></g></g></svg>